<?xml version="1.0" standalone="no"?>
<!DOCTYPE svg PUBLIC "-//W3C//DTD SVG 1.1//EN" "http://www.w3.org/Graphics/SVG/1.1/DTD/svg11.dtd" >
<svg xmlns="http://www.w3.org/2000/svg" xmlns:xlink="http://www.w3.org/1999/xlink" version="1.1">
<metadata></metadata>
<defs>
<font id="lab_sans_probold_italic" horiz-adv-x="1114" >
<font-face units-per-em="2048" ascent="1544" descent="-504" />
<missing-glyph horiz-adv-x="409" />
<glyph unicode="&#xfb01;" horiz-adv-x="1148" d="M102 799l25 225h184l23 215q11 92 67.5 143.5t153.5 51.5h516q33 0 54.5 -20.5t21.5 -57.5l-23 -215h-247v16q0 29 -21 46.5t-51 17.5h-125q-84 0 -96 -91l-11 -106h220l-25 -225h-223l-129 -1248l-260 -22l131 1270h-185zM756 0l106 1024h248l-106 -1024h-248z" />
<glyph unicode="&#xfb02;" horiz-adv-x="1165" d="M102 799l25 225h184l21 203q11 96 67.5 151.5t153.5 55.5h362l256 14l-149 -1448h-258l127 1221h-217q-81 0 -90 -91l-13 -106h222l-25 -225h-223l-129 -1248l-260 -22l131 1270h-185z" />
<glyph unicode="&#xfb03;" horiz-adv-x="1699" d="M102 799l25 225h184l19 170q11 97 65.5 152t153.5 55h276l-10 -215h-145q-45 0 -64.5 -22t-25.5 -68l-9 -72h293l23 215q11 92 67.5 143.5t153.5 51.5h516q33 0 54.5 -20.5t21.5 -57.5l-23 -215h-247v16q0 29 -21 46.5t-51 17.5h-125q-84 0 -96 -91l-11 -106h220 l-25 -225h-223l-129 -1248l-260 -22l131 1270h-295l-129 -1250l-260 -20l131 1270h-185zM1309 0l106 1024h248l-107 -1024h-247z" />
<glyph unicode="&#xfb04;" horiz-adv-x="1716" d="M102 799l25 225h184l19 168q11 98 65.5 153.5t153.5 55.5h276l-10 -213h-141q-47 0 -66 -22.5t-24 -63.5l-13 -78h293l21 203q21 207 223 207h358l256 14l-149 -1448h-258l127 1221h-215q-81 0 -90 -91l-13 -106h222l-25 -225h-223l-123 -1211l-260 -20l125 1231h-295 l-129 -1248l-260 -22l131 1270h-185z" />
<glyph horiz-adv-x="0" />
<glyph horiz-adv-x="682" />
<glyph unicode=" "  horiz-adv-x="409" />
<glyph unicode="&#x09;" horiz-adv-x="409" />
<glyph unicode="&#xa0;" horiz-adv-x="409" />
<glyph unicode="!" horiz-adv-x="512" d="M123 0l27 260h264l-27 -260h-264zM188 393l84 1037h267l-133 -1037h-218z" />
<glyph unicode="&#x22;" horiz-adv-x="847" d="M260 1044l33 390h225l-49 -390h-209zM596 1044l33 390h225l-49 -390h-209z" />
<glyph unicode="#" horiz-adv-x="1224" d="M143 397l19 187h184l53 264h-188l20 186h203l76 396h203l-76 -396h223l76 396h201l-76 -396h170l-21 -186h-184l-53 -264h188l-18 -187h-203l-76 -397h-200l73 397h-223l-74 -397h-202l75 397h-170zM549 584h223l51 264h-223z" />
<glyph unicode="$" horiz-adv-x="1107" d="M162 0l10 227h481q78 0 84 70l21 201q0 52 -64 73l-329 82q-138 35 -138 158l47 457q7 78 54.5 122t117.5 44h146l20 200h213l-20 -200h260l-12 -228h-451q-76 0 -82 -69l-18 -174q0 -47 67 -68l328 -82q135 -35 135 -154q0 -31 -51 -493q-7 -78 -53.5 -122t-116.5 -44 h-135l-23 -201h-213l23 201h-301z" />
<glyph unicode="%" horiz-adv-x="1755" d="M195 846l47 459q6 58 44.5 93.5t100.5 35.5h328q59 0 90 -30t31 -81l-48 -459q-6 -59 -44.5 -94t-102.5 -35h-328q-56 0 -87 30t-31 81zM403 965q0 -50 48 -50h92q56 0 59 58l25 231q0 47 -47 47h-93q-56 0 -59 -55zM547 0l600 1434h213l-598 -1434h-215zM1067 111 l49 458q6 58 44 93.5t100 35.5h325q59 0 90 -31t31 -83l-47 -455q-6 -59 -44 -94t-102 -35h-325q-56 0 -88.5 30.5t-32.5 80.5zM1278 225q0 -45 47 -45h90q57 0 60 58l22 231q0 47 -47 47h-90q-51 0 -60 -55z" />
<glyph unicode="&#x26;" horiz-adv-x="1273" d="M121 217l37 361q4 47 24.5 84t43.5 56.5t53 33.5t43.5 17t23.5 5q-7 1 -24 19t-34.5 52.5t-17.5 69.5l29 271q12 122 86.5 185t200.5 63h354q111 0 177.5 -61t66.5 -159l-31 -262h-256l21 197q0 80 -84 80h-183q-91 0 -100 -92l-14 -146q0 -86 65 -139l336 -277l18 173 h261l-39 -359l116 -108l-32 -285l-136 121q-58 -117 -243 -117h-500q-119 0 -190.5 58t-71.5 159zM385 293q0 -34 26.5 -61t67.5 -27h328q90 0 102 90l-405 332q-83 -6 -92 -92z" />
<glyph unicode="'" horiz-adv-x="512" d="M260 1044l33 390h225l-49 -390h-209z" />
<glyph unicode="(" horiz-adv-x="659" d="M186 254q0 360 90 741q88 371 256 623h230q-182 -318 -263 -655.5t-81 -735.5q0 -382 123 -698h-230q-125 287 -125 725z" />
<glyph unicode=")" horiz-adv-x="659" d="M14 -471q181 319 261.5 656t80.5 735q0 384 -120 698h231q125 -293 125 -729q0 -360 -92 -737q-87 -369 -254 -623h-232z" />
<glyph unicode="*" horiz-adv-x="718" d="M203 1157l92 170l115 -55l16 162h182l-16 -162l127 55l61 -170l-147 -65l84 -127l-152 -107l-94 133l-121 -135l-129 109l117 127z" />
<glyph unicode="+" horiz-adv-x="991" d="M168 627l20 209h289l33 309h209l-33 -309h289l-21 -209h-288l-33 -299h-209l33 299h-289z" />
<glyph unicode="," horiz-adv-x="514" d="M92 -231l84 231h-39l29 279h258l-31 -281l-80 -229h-221z" />
<glyph unicode="-" horiz-adv-x="641" d="M84 385l22 217h549l-22 -217h-549z" />
<glyph unicode="." horiz-adv-x="493" d="M117 0l28 279h258l-28 -279h-258z" />
<glyph unicode="/" horiz-adv-x="749" d="M-137 -471l792 1901h244l-793 -1901h-243z" />
<glyph unicode="0" horiz-adv-x="1204" d="M141 178l109 1049q11 93 73 150t162 57h533q92 0 142 -49t50 -130l-108 -1048q-11 -93 -72.5 -150t-161.5 -57h-532q-92 0 -143.5 48.5t-51.5 129.5zM412 299q0 -74 73 -74h281q40 0 63.5 25t28.5 65l84 815q0 78 -74 78h-280q-81 0 -90 -90z" />
<glyph unicode="1" horiz-adv-x="774" d="M41 0l22 227h222l102 975l-209 -22l23 213l469 41l-127 -1207h213l-23 -227h-692z" />
<glyph unicode="2" horiz-adv-x="1019" d="M61 0l21 211l616 727q76 88 82 141l6 62q0 27 -19.5 44t-51.5 17h-508l37 228h618q85 0 138 -45t53 -134l-15 -149q-9 -114 -135 -264l-520 -611h604l-35 -227h-891z" />
<glyph unicode="3" horiz-adv-x="1028" d="M113 0l22 225h432q89 0 101 90l22 209q0 72 -72 78h-382l24 225h379q81 6 90 93l25 206q0 78 -82 78h-434l34 226h529q223 0 223 -175q0 -31 -37 -370q-11 -68 -49.5 -115.5t-75.5 -56.5l-33 -6q18 -3 35 -11q27 -10 57.5 -50t30.5 -89l-32 -305q-27 -252 -269 -252h-538 z" />
<glyph unicode="4" horiz-adv-x="1206" d="M117 342l22 207l705 881h260l-90 -859h200l-24 -229h-201l-35 -342h-260l35 342h-612zM395 569h357l53 514z" />
<glyph unicode="5" horiz-adv-x="1097" d="M133 0l23 227h475q105 0 117 88l22 205q0 82 -90 82h-496l129 828h795l-14 -228h-580l-61 -373h454q64 0 102 -37t38 -104l-54 -498q-11 -82 -74.5 -136t-150.5 -54h-635z" />
<glyph unicode="6" horiz-adv-x="1150" d="M141 178l109 1045q11 93 73 150t162 57h643l-14 -226h-496q-61 0 -87.5 -24t-32.5 -76l-31 -273h494q64 0 101.5 -37t37.5 -104l-51 -483q-10 -96 -75.5 -151.5t-154.5 -55.5h-489q-85 0 -137 49.5t-52 128.5zM412 299q0 -74 73 -74h199q100 0 109 80l28 244q0 59 -67 59 h-310z" />
<glyph unicode="7" horiz-adv-x="1052" d="M190 1202l35 228h910l-23 -213l-629 -1217h-278l639 1202h-654z" />
<glyph unicode="8" horiz-adv-x="1148" d="M139 193l37 362q12 127 111 170q-2 0 -9.5 4.5t-19.5 15.5t-23 26t-18.5 38.5t-7.5 50.5l33 322q27 252 272 252h414q221 0 221 -201q0 -32 -37 -344q-4 -33 -17 -61t-28 -45.5t-31.5 -29.5t-27 -17t-13.5 -5l25 -12q17 -9 36 -47t19 -82q0 -14 -35 -379 q-21 -211 -258 -211h-450q-103 0 -148 48t-45 145zM408 297q0 -74 84 -74h198q94 0 103 90l16 170q0 65 -61 86l-228 35q-81 -3 -90 -92zM477 967q0 -72 72 -93l217 -30q81 6 90 92l21 194q0 80 -84 80h-199q-91 0 -100 -92z" />
<glyph unicode="9" horiz-adv-x="1150" d="M176 0l12 223h523q45 0 65.5 22t26.5 68l26 240h-495q-64 0 -101.5 37t-37.5 104l57 539q10 91 71 144t144 53h508q84 0 134 -46t50 -122l-110 -1055q-11 -93 -72.5 -150t-161.5 -57h-639zM471 836q0 -60 68 -60h311l39 365q0 63 -76 63h-225q-75 0 -84 -80z" />
<glyph unicode=":" horiz-adv-x="524" d="M133 0l29 279h258l-29 -279h-258zM209 737l31 279h258l-31 -279h-258z" />
<glyph unicode=";" horiz-adv-x="528" d="M109 -231l84 231h-39l28 279h258l-30 -281l-80 -229h-221zM229 737l31 279h258l-31 -279h-258z" />
<glyph unicode="&#x3c;" horiz-adv-x="1036" d="M164 397l22 217l834 406l-25 -232l-618 -280l559 -287l-25 -227z" />
<glyph unicode="=" horiz-adv-x="991" d="M145 426l23 209h786l-22 -209h-787zM188 825l23 209h786l-22 -209h-787z" />
<glyph unicode="&#x3e;" horiz-adv-x="1036" d="M121 -6l24 227l619 287l-559 280l24 232l748 -406l-23 -217z" />
<glyph unicode="?" horiz-adv-x="1017" d="M242 1214l32 220h517q116 0 169.5 -46.5t53.5 -140.5q0 -24 -35 -354q-15 -128 -123 -193l-121 -73q-95 -59 -104 -156l-8 -74h-232l23 207q9 103 92 156l178 108q32 20 45.5 46t18.5 71l16 156q0 73 -84 73h-438zM344 0l27 260h264l-27 -260h-264z" />
<glyph unicode="@" horiz-adv-x="2154" d="M92 -211l146 1395q11 112 83.5 181t188.5 69h1423q116 0 168.5 -49.5t52.5 -149.5l-100 -983q-13 -125 -74.5 -188.5t-195.5 -63.5h-373q-83 0 -113 68l-63 -68h-461q-58 0 -92.5 32t-34.5 87l74 739q7 77 60 121.5t128 44.5h402l37 -57l47 57h229l-82 -754q0 -60 64 -69 h120q84 0 93 92l88 856q0 78 -84 78h-1245q-92 0 -101 -90l-131 -1266q0 -76 72 -76h966l-47 -205h-1022q-223 0 -223 199zM913 272q0 -55 62 -55h209q81 0 96 74l51 461q0 63 -65 63h-219q-74 0 -89 -70z" />
<glyph unicode="A" horiz-adv-x="1204" d="M41 0l580 1434h256l286 -1434h-276l-53 307h-402l-115 -307h-276zM516 528h279l-86 508z" />
<glyph unicode="B" horiz-adv-x="1241" d="M164 0l149 1434h670q117 0 169 -48.5t52 -150.5l-33 -346q-12 -117 -98 -158q84 -35 84 -135l-35 -344q-27 -252 -250 -252h-708zM444 217h326q91 0 100 90l25 236q0 74 -74 80h-336zM508 836h317q84 6 93 92l22 217q0 74 -84 74h-309z" />
<glyph unicode="C" horiz-adv-x="1175" d="M184 201l103 983q27 250 272 250h617l-11 -220h-524q-93 0 -102 -90l-80 -827q0 -76 76 -76h528l-23 -221h-630q-226 0 -226 201z" />
<glyph unicode="D" horiz-adv-x="1347" d="M164 0l149 1434h793q113 0 167 -54.5t54 -150.5q0 -55 -98 -977q-27 -252 -273 -252h-792zM444 215h441q81 0 90 88l88 840q0 78 -84 78h-430z" />
<glyph unicode="E" horiz-adv-x="1056" d="M164 0l149 1434h770l-22 -220h-512l-41 -385h440l-22 -225h-441l-41 -381h512l-22 -223h-770z" />
<glyph unicode="F" horiz-adv-x="1056" d="M164 0l149 1434h770l-22 -220h-512l-43 -399h358l-22 -225h-359l-61 -590h-258z" />
<glyph unicode="G" horiz-adv-x="1325" d="M164 201q0 52 100 983q10 82 53 153q30 44 87.5 70.5t134.5 26.5h645l-10 -215h-558q-91 0 -100 -93l-86 -829q0 -35 23.5 -58.5t60.5 -23.5h348q81 0 90 92l23 201h-217l24 244h478l-52 -500q-27 -252 -274 -252h-545q-109 0 -167 55t-58 146z" />
<glyph unicode="H" horiz-adv-x="1306" d="M164 0l149 1434h258l-63 -605h463l63 605h258l-149 -1434h-258l63 604h-463l-63 -604h-258z" />
<glyph unicode="I" horiz-adv-x="778" d="M82 0l20 213h179l106 1008h-178l22 213h615l-23 -213h-178l-106 -1008h178l-21 -213h-614z" />
<glyph unicode="J" horiz-adv-x="757" d="M92 0l10 213h172q84 0 93 88l96 920h-254l22 213h512l-125 -1182q-13 -125 -74.5 -188.5t-195.5 -63.5h-256z" />
<glyph unicode="K" horiz-adv-x="1239" d="M164 0l149 1434h258l-63 -605h186q90 0 117 80l186 525h260l-198 -570q-33 -102 -90 -143q57 -63 69 -158l109 -563h-262l-105 524q-15 80 -100 80h-195l-61 -604h-260z" />
<glyph unicode="L" horiz-adv-x="1046" d="M164 0l149 1434h258l-127 -1213h523l-23 -221h-780z" />
<glyph unicode="M" horiz-adv-x="1480" d="M164 0l149 1434h248l260 -678l387 678h258l-149 -1434h-258l92 887l-266 -498h-207l-166 477l-90 -866h-258z" />
<glyph unicode="N" horiz-adv-x="1306" d="M164 0l149 1434h254l379 -832l86 832h260l-149 -1434h-234l-393 879l-94 -879h-258z" />
<glyph unicode="O" horiz-adv-x="1325" d="M164 209q0 44 100 975q27 250 273 250h546q222 0 222 -207q0 -2 -97 -977q-24 -250 -270 -250h-551q-109 0 -166 54t-57 155zM430 301q0 -37 22 -61.5t62 -24.5h338q91 0 100 90l88 823q0 91 -88 91h-334q-43 0 -70 -26t-32 -65z" />
<glyph unicode="P" horiz-adv-x="1212" d="M164 0l149 1434h660q120 0 171.5 -43t51.5 -138l-47 -477q-24 -241 -266 -241h-406l-55 -535h-258zM498 752h299q93 0 102 90l33 293q0 37 -21.5 60.5t-62.5 23.5h-301z" />
<glyph unicode="Q" horiz-adv-x="1325" d="M164 209l100 975q27 250 273 250h548q222 0 222 -207q0 -2 -97 -977q-6 -58 -20 -92l192 -271l-311 -26l-96 143q-16 -4 -35 -4h-551q-110 0 -167.5 54.5t-57.5 154.5zM430 301q0 -37 22 -61.5t62 -24.5h340q91 0 100 90l88 823q0 91 -88 91h-333q-43 0 -70.5 -26.5 t-32.5 -64.5z" />
<glyph unicode="R" horiz-adv-x="1228" d="M164 0l149 1434h668q223 0 223 -201q0 -34 -43 -408q-6 -53 -32 -96t-52 -57l-24 -15q53 -30 65 -147l53 -510h-268l-43 457q-9 90 -92 90h-289l-57 -547h-258zM502 768h297q43 0 70 26t32 68l31 281q0 86 -92 86h-291z" />
<glyph unicode="S" horiz-adv-x="1046" d="M131 0l10 227h482q78 0 84 70l20 190q0 69 -63 84l-330 72q-137 27 -137 154l49 471q7 78 53.5 122t116.5 44h618l-12 -228h-451q-76 0 -82 -69l-16 -154q0 -40 14.5 -58.5t51.5 -29.5l327 -82q135 -35 135 -154l-45 -493q-7 -78 -53.5 -122t-116.5 -44h-655z" />
<glyph unicode="T" horiz-adv-x="1120" d="M209 1217l22 217h957l-23 -217h-350l-127 -1217h-258l127 1217h-348z" />
<glyph unicode="U" horiz-adv-x="1306" d="M188 242l125 1192h258l-116 -1127q0 -37 22.5 -61.5t57.5 -24.5h286q38 0 65.5 25.5t31.5 66.5l116 1121h258l-123 -1182q-13 -125 -74.5 -188.5t-195.5 -63.5h-473q-117 0 -177.5 69t-60.5 173z" />
<glyph unicode="V" horiz-adv-x="1153" d="M211 1434h266l168 -975l336 975h260l-512 -1434h-258z" />
<glyph unicode="W" horiz-adv-x="1857" d="M211 1434h266l182 -955l293 955h271l120 -945l343 945h260l-527 -1434h-256l-127 930l-299 -930h-258z" />
<glyph unicode="X" horiz-adv-x="1138" d="M72 0l430 715l-281 719h295l162 -424l256 424h278l-426 -703l281 -731h-287l-172 438l-266 -438h-270z" />
<glyph unicode="Y" horiz-adv-x="1169" d="M211 1434h297l172 -476l283 476h294l-487 -795l-65 -639h-254l65 639z" />
<glyph unicode="Z" horiz-adv-x="1021" d="M61 0l19 186l682 1028h-539l35 220h836l-21 -195l-670 -1016h576l-35 -223h-883z" />
<glyph unicode="[" horiz-adv-x="700" d="M92 -471l225 2140h476l-23 -221h-233l-179 -1698h234l-25 -221h-475z" />
<glyph unicode="\" horiz-adv-x="768" d="M106 1434h244l424 -1905h-246z" />
<glyph unicode="]" horiz-adv-x="700" d="M31 -471l24 221h234l178 1698h-234l23 221h475l-225 -2140h-475z" />
<glyph unicode="^" horiz-adv-x="1153" d="M86 0l469 748h213l307 -748h-244l-194 520l-322 -520h-229z" />
<glyph unicode="_" horiz-adv-x="794" d="M51 -471l23 217h590l-23 -217h-590z" />
<glyph unicode="`" horiz-adv-x="493" d="M72 1430h235l115 -232h-197z" />
<glyph unicode="a" horiz-adv-x="1148" d="M143 158l72 700q11 87 56 126.5t137 39.5h378l52 -49l47 49h229l-78 -733q0 -37 23 -61.5t59 -24.5l-22 -205h-133q-84 0 -136 49l-53 -49h-473q-74 0 -116 41.5t-42 116.5zM418 307q0 -37 21.5 -59.5t58.5 -22.5h190q83 0 92 90l43 402q0 36 -22 59t-58 23h-190 q-85 0 -94 -90z" />
<glyph unicode="b" horiz-adv-x="1150" d="M143 0l150 1425l260 21l-47 -469l59 47h412q137 0 137 -150l-74 -708q-11 -87 -55 -126.5t-135 -39.5h-395l-54 41l-51 -41h-207zM434 307q0 -36 22 -59t58 -23h191q83 0 92 90l43 402q0 33 -23 57.5t-57 24.5h-191q-85 0 -94 -90z" />
<glyph unicode="c" horiz-adv-x="944" d="M139 147l72 701q7 83 58 129.5t128 46.5h527l-13 -227h-370q-78 0 -84 -70l-45 -440q0 -60 69 -60h371l-35 -227h-526q-72 0 -112 39t-40 108z" />
<glyph unicode="d" horiz-adv-x="1155" d="M143 150l72 708q11 87 55.5 126.5t135.5 39.5h382l52 -49l53 450l270 21l-153 -1446h-207l-47 49l-45 -49h-428q-140 0 -140 150zM420 307q0 -33 23 -57.5t57 -24.5h190q85 0 94 90l41 402q0 36 -22 59t-58 23h-190q-83 0 -92 -90z" />
<glyph unicode="e" horiz-adv-x="1116" d="M143 160l72 698q15 166 180 166h525q79 0 117 -45.5t38 -114.5l-26 -254q-7 -85 -54 -126.5t-145 -53.5l-365 -43l-57 47l-12 -127q0 -38 23 -60t59 -22h463l-33 -225h-629q-70 0 -113 42t-43 118zM442 575l275 46q79 19 82 73l2 23q0 34 -22 58t-58 24h-168 q-38 0 -63.5 -25.5t-30.5 -64.5z" />
<glyph unicode="f" horiz-adv-x="729" d="M102 799l25 225h184l21 203q11 96 66.5 151.5t154.5 55.5h272l-10 -213h-141q-81 0 -90 -91l-11 -106h220l-25 -225h-223l-129 -1248l-260 -22l131 1270h-185z" />
<glyph unicode="g" horiz-adv-x="1155" d="M143 158l74 700q11 87 55.5 126.5t135.5 39.5h395l53 -41l51 41h207l-135 -1288q-11 -93 -74 -150t-164 -57h-594l15 227h450q59 0 84.5 22t30.5 68l25 201l-60 -47h-391q-70 0 -114 43t-44 115zM418 307q0 -33 23 -57.5t57 -24.5h190q85 0 94 90l41 402q0 36 -22 59 t-58 23h-190q-83 0 -92 -90z" />
<glyph unicode="h" horiz-adv-x="1136" d="M143 0l150 1430l258 16l-51 -473l53 51h393q64 0 101.5 -37t37.5 -104l-92 -883h-258l76 721q0 32 -21 55t-53 23h-172q-81 0 -90 -88l-74 -711h-258z" />
<glyph unicode="i" horiz-adv-x="534" d="M143 0l107 1024h248l-107 -1024h-248zM264 1153l27 260h248l-27 -260h-248z" />
<glyph unicode="j" horiz-adv-x="528" d="M-70 -471l13 211h86q85 0 94 80l127 1204h242l-138 -1288q-11 -96 -66.5 -151.5t-154.5 -55.5h-203zM260 1153l27 260h250l-27 -260h-250z" />
<glyph unicode="k" horiz-adv-x="1107" d="M143 0l150 1430l260 16l-88 -825h166q96 0 117 79l102 324h258l-152 -479l-47 -39l41 -41l66 -465h-258l-49 313q-12 80 -95 80h-172l-41 -393h-258z" />
<glyph unicode="l" horiz-adv-x="546" d="M143 0l150 1430l262 16l-152 -1446h-260z" />
<glyph unicode="m" horiz-adv-x="1636" d="M143 0l107 1024h205l47 -47l49 47h430l47 -47l49 47h369q64 0 101.5 -37t37.5 -104l-92 -883h-258l76 727q0 31 -21.5 50.5t-54.5 19.5h-123q-81 0 -90 -82l-74 -715h-258l78 723q0 32 -20 53t-52 21h-131q-81 0 -90 -88l-74 -709h-258z" />
<glyph unicode="n" horiz-adv-x="1136" d="M143 0l107 1024h205l47 -47l49 47h395q64 0 101.5 -37t37.5 -104q0 -16 -92 -883h-258l76 723q0 33 -20.5 54.5t-57.5 21.5h-168q-81 0 -90 -88l-74 -711h-258z" />
<glyph unicode="o" horiz-adv-x="1134" d="M143 158l72 700q18 166 176 166h570q137 0 137 -150l-74 -708q-11 -87 -55 -126.5t-135 -39.5h-533q-77 0 -117.5 43t-40.5 115zM418 307q0 -36 22 -59t58 -23h190q83 0 92 90l43 402q0 33 -23 57.5t-57 24.5h-190q-85 0 -94 -90z" />
<glyph unicode="p" horiz-adv-x="1150" d="M92 -471l158 1495h207l47 -49l45 49h428q137 0 137 -150l-74 -708q-11 -87 -55 -126.5t-135 -39.5h-383l-47 49l-58 -500zM434 307q0 -36 22 -59t58 -23h191q83 0 92 90l43 402q0 33 -23 57.5t-57 24.5h-191q-85 0 -94 -90z" />
<glyph unicode="q" horiz-adv-x="1155" d="M143 150l72 708q11 87 55.5 126.5t135.5 39.5h397l53 -41l51 41h207l-156 -1475l-260 -20l54 518l-60 -47h-411q-138 0 -138 150zM418 307q0 -33 23 -57.5t57 -24.5h190q85 0 94 90l41 402q0 36 -22 59t-58 23h-190q-83 0 -92 -90z" />
<glyph unicode="r" horiz-adv-x="755" d="M143 0l107 1024h205l47 -47l49 47h250l-53 -231h-183q-81 0 -90 -88l-74 -705h-258z" />
<glyph unicode="s" horiz-adv-x="862" d="M94 0l10 217h390q62 0 71 62l4 26q0 51 -61 66l-221 53q-70 18 -103.5 49t-33.5 90l30 295q7 78 53.5 122t116.5 44h492l-11 -223h-337q-76 0 -82 -60l-4 -30q0 -53 61 -68l217 -51q73 -18 105.5 -51.5t33.5 -98.5l-30 -276q-7 -78 -53.5 -122t-116.5 -44h-531z" />
<glyph unicode="t" horiz-adv-x="737" d="M102 799l25 225h180l21 195l260 16l-23 -211h238l-25 -225h-237l-52 -520q0 -70 72 -70h150l-33 -209h-207q-119 0 -185.5 59.5t-66.5 155.5l64 584h-181z" />
<glyph unicode="u" d="M158 141q0 16 92 883h258l-76 -723q0 -33 20.5 -54.5t57.5 -21.5h147q82 0 91 88l73 711h258l-106 -1024h-205l-47 47l-49 -47h-375q-64 0 -101.5 37t-37.5 104z" />
<glyph unicode="v" horiz-adv-x="929" d="M147 1024h256l115 -610l236 610h241l-413 -1024h-228z" />
<glyph unicode="w" horiz-adv-x="1488" d="M147 1024h250l109 -608l221 608h248l106 -600l232 600h241l-407 -1024h-227l-109 629l-240 -629h-227z" />
<glyph unicode="x" horiz-adv-x="964" d="M68 0l333 502l-237 522h280l123 -281l181 281h258l-338 -508l235 -516h-270l-127 274l-184 -274h-254z" />
<glyph unicode="y" d="M158 139q0 10 92 885h258l-76 -723q0 -32 22 -54t56 -22h147q85 0 91 80l73 719h258l-135 -1288q-11 -93 -73 -150t-162 -57h-537v227h436q45 0 65.5 22t26.5 68l23 203l-51 -49h-375q-64 0 -101.5 37t-37.5 102z" />
<glyph unicode="z" horiz-adv-x="876" d="M66 0l18 190l471 619h-395l35 215h704l-20 -195l-461 -618h413l-32 -211h-733z" />
<glyph unicode="{" horiz-adv-x="774" d="M113 461l22 221h70q83 0 92 92l68 643q13 123 75.5 187.5t196.5 64.5h229l-22 -221h-150q-83 0 -92 -92l-63 -613q-9 -115 -84 -172q49 -46 49 -131q0 -21 -62 -630q0 -76 72 -76h150l-25 -221h-229q-224 0 -224 198q0 7 68 672q0 78 -72 78h-69z" />
<glyph unicode="|" horiz-adv-x="524" d="M92 -471l201 1901h242l-201 -1901h-242z" />
<glyph unicode="}" horiz-adv-x="774" d="M29 -487l24 221h150q83 0 92 92l59 573q9 115 84 172q-51 45 -51 125l68 676q0 76 -72 76h-150l23 221h166q158 0 222.5 -46t64.5 -148l-72 -717q0 -76 72 -76h69l-22 -221h-70q-83 0 -92 -92l-64 -605q-13 -123 -75.5 -187t-196.5 -64h-229z" />
<glyph unicode="~" horiz-adv-x="987" d="M164 596l172 250h117l286 -53l58 61h176l-170 -254h-133l-260 49l-52 -53h-194z" />
<glyph unicode="&#xa1;" horiz-adv-x="512" d="M78 -414l133 1037h217l-84 -1037h-266zM201 756l28 260h265l-29 -260h-264z" />
<glyph unicode="&#xa2;" horiz-adv-x="923" d="M137 139q0 5 2 11l74 688q7 78 63.5 132t126.5 54h140l20 199h211l-20 -199h190l-12 -227h-393q-78 0 -84 -70l-43 -440q0 -60 67 -60h393l-34 -227h-191l-22 -199h-211l22 199h-160q-64 0 -101.5 37t-37.5 102z" />
<glyph unicode="&#xa3;" horiz-adv-x="1144" d="M123 0l22 227h150l61 373h-170l37 205h164l78 459q27 166 172 166h508l-12 -226h-338q-70 0 -82 -69l-60 -330h383l-37 -205h-376l-64 -373h485l-22 -227h-899z" />
<glyph unicode="&#xa4;" horiz-adv-x="1294" d="M139 352l164 146q0 57 2 69l37 361q0 4 12 69l-133 142l182 168l129 -144q21 6 50 6h385q30 0 39 -6l159 144l146 -168l-154 -135q0 -38 -2 -52l-41 -395q-3 -40 -10 -70l123 -137l-178 -168l-125 140q-25 -5 -47 -5h-385q-29 0 -54 5l-155 -138zM522 600q0 -72 74 -72 h223q81 0 90 90l27 269q0 69 -72 69h-223q-83 0 -92 -90z" />
<glyph unicode="&#xa5;" horiz-adv-x="1173" d="M211 1430h297l178 -424l277 424h299l-381 -543h176l-17 -156h-231l-29 -49l-12 -98h256l-14 -154h-256l-45 -430h-271l45 430h-260l15 154h260l12 96l-18 51h-238l16 156h181z" />
<glyph unicode="&#xa6;" horiz-adv-x="565" d="M102 -471l88 823h259l-93 -823h-254zM217 623l86 811h258l-90 -811h-254z" />
<glyph unicode="&#xa7;" horiz-adv-x="1060" d="M102 -471l15 242h497q76 0 82 69l11 94q0 80 -66 105l-350 127q-133 53 -133 178l35 334q15 137 120 164q-84 53 -84 186l25 240q7 78 53.5 122t116.5 44h602l-12 -244h-465q-78 0 -84 -70l-10 -100q0 -61 65 -88l340 -137q144 -59 144 -189l-33 -321q-12 -136 -103 -172 q66 -41 66 -174l-25 -244q-7 -78 -54.5 -122t-117.5 -44h-635zM397 459q0 -60 72 -88l199 -80q78 0 84 69l16 158q0 66 -68 84l-200 82q-78 0 -84 -70z" />
<glyph unicode="&#xa8;" horiz-adv-x="665" d="M76 1233v197h196v-197h-196zM391 1233v197h197v-197h-197z" />
<glyph unicode="&#xa9;" horiz-adv-x="1499" d="M145 201l101 983q27 250 272 250h762q221 0 221 -207q0 -50 -100 -975q-13 -125 -75 -188.5t-196 -63.5h-761q-224 0 -224 201zM348 266q0 -76 72 -76h696q83 0 92 93l92 884q0 78 -83 78h-676q-92 0 -101 -90zM539 485l45 437q7 78 53.5 121.5t116.5 43.5h356l-8 -196 h-250q-76 0 -82 -70l-22 -217q0 -59 67 -59h250l-33 -197h-356q-64 0 -100.5 36t-36.5 101z" />
<glyph unicode="&#xaa;" horiz-adv-x="772" d="M172 893l47 436q6 56 34 80.5t87 24.5h258l33 -31l31 31h172l-58 -465q0 -54 51 -54l-14 -131h-96q-47 0 -86 31l-33 -31h-326q-43 0 -71.5 31t-28.5 78zM213 471l18 182h457l-18 -182h-457zM385 1018q0 -51 49 -51h88q54 0 60 55l20 172q0 24 -14.5 38.5t-38.5 14.5h-86 q-54 0 -60 -59z" />
<glyph unicode="&#xab;" horiz-adv-x="1165" d="M145 418l19 174l534 428l-30 -297l-279 -215l232 -221l-31 -293zM616 418l19 174l534 428l-30 -297l-279 -215l232 -221l-31 -293z" />
<glyph unicode="&#xac;" horiz-adv-x="1095" d="M199 729l20 203h848l-47 -465h-203l29 262h-647z" />
<glyph unicode="&#xad;" horiz-adv-x="641" d="M84 385l22 217h549l-22 -217h-549z" />
<glyph unicode="&#xae;" horiz-adv-x="1499" d="M145 201q0 43 101 983q27 250 272 250h762q221 0 221 -207q0 -50 -100 -975q-13 -125 -75 -188.5t-196 -63.5h-761q-224 0 -224 201zM348 266q0 -76 72 -76h696q83 0 92 93l92 884q0 78 -83 78h-676q-92 0 -101 -90zM514 334l80 768h401q121 0 121 -113l-24 -231 q-1 -29 -19 -52t-37 -30l-18 -8q31 -16 37 -80l26 -254h-184l-27 215q-3 47 -49 47h-100l-27 -262h-180zM737 762h127q53 0 56 45l10 100q0 43 -47 43h-127z" />
<glyph unicode="&#xaf;" horiz-adv-x="612" d="M74 1241v189h469v-189h-469z" />
<glyph unicode="&#xb0;" horiz-adv-x="657" d="M193 1055l24 250q6 58 44.5 93.5t100.5 35.5h230q59 0 90 -30t31 -81l-27 -254q-5 -59 -43 -94t-102 -35h-230q-58 0 -88 31t-30 84zM369 1155q0 -49 47 -49h55q56 0 59 61l7 56q0 45 -48 45h-51q-54 0 -63 -56z" />
<glyph unicode="&#xb1;" horiz-adv-x="991" d="M143 0l19 188h725l-19 -188h-725zM168 627l20 209h289l33 309h209l-33 -309h289l-21 -209h-288l-31 -295h-209l31 295h-289z" />
<glyph unicode="&#xb2;" horiz-adv-x="675" d="M125 623l18 163l342 324q49 46 52 90l2 17q0 21 -14.5 35t-37.5 14h-280l26 168h345q147 0 147 -136l-14 -122q-6 -60 -30.5 -99.5t-84.5 -93.5l-211 -195h311l-26 -165h-545z" />
<glyph unicode="&#xb3;" horiz-adv-x="653" d="M145 623l19 165h252q56 0 65 60l4 43q0 48 -47 51h-219l17 166h219q56 3 59 57l6 52q0 49 -53 49h-254l25 168h327q144 0 144 -117l-19 -182q-7 -44 -24 -73t-33 -34l-15 -6q50 -15 50 -90l-15 -152q-8 -73 -54 -115t-120 -42h-334z" />
<glyph unicode="&#xb4;" horiz-adv-x="493" d="M72 1198l112 232h238l-156 -232h-194z" />
<glyph unicode="&#xb5;" d="M104 -348l146 1372h258l-76 -729q3 -70 78 -70h147q82 0 91 88l73 711h258l-106 -1024h-205l-47 47l-49 -47h-158q-78 0 -111 20l-38 -368h-261z" />
<glyph unicode="&#xb6;" horiz-adv-x="1366" d="M233 1053l21 204q8 78 58 127.5t132 49.5h1020l-24 -230h-172l-125 -1204h-232l125 1204h-209l-125 -1204h-231l94 903h-176q-70 0 -113 39.5t-43 110.5z" />
<glyph unicode="&#xb7;" horiz-adv-x="524" d="M172 377l29 274h256l-29 -274h-256z" />
<glyph unicode="&#xb8;" horiz-adv-x="415" d="M59 -471l13 119h143q34 0 37 35l4 30q0 25 -29 25h-147l12 110l115 152h143l-108 -143h61q42 0 67 -25.5t25 -67.5l-12 -133q-4 -46 -35.5 -74t-73.5 -28h-215z" />
<glyph unicode="&#xb9;" horiz-adv-x="559" d="M119 623l18 157h133l49 480l-120 -13l16 160l320 27l-68 -654h133l-18 -157h-463z" />
<glyph unicode="&#xba;" horiz-adv-x="780" d="M193 905l38 389q6 63 49 101.5t111 38.5h299q62 0 95.5 -33t33.5 -88l-39 -389q-6 -62 -48 -101t-109 -39h-299q-62 0 -96.5 33t-34.5 88zM215 471l18 182h457l-18 -182h-457zM391 999q0 -38 37 -38h123q42 0 45 49l22 213q0 34 -34 34h-125q-42 0 -45 -45z" />
<glyph unicode="&#xbb;" horiz-adv-x="1165" d="M100 -6l31 293l281 221l-234 215l31 297l444 -428l-18 -174zM571 -6l31 293l281 221l-234 215l31 297l444 -428l-18 -174z" />
<glyph unicode="&#xbc;" horiz-adv-x="1574" d="M135 623l19 157h133l49 480l-121 -13l16 160l320 27l-68 -654h133l-18 -157h-463zM406 0l667 1434h207l-666 -1434h-208zM889 178l14 152l377 501h184l-51 -497h125l-16 -156h-125l-19 -178h-178l19 178h-330zM1065 332h170l27 268z" />
<glyph unicode="&#xbd;" horiz-adv-x="1619" d="M135 623l19 157h133l49 480l-121 -13l16 160l320 27l-68 -654h133l-18 -157h-463zM406 0l667 1434h207l-666 -1434h-208zM981 0l18 164l342 323q49 46 52 91l2 16q0 21 -14.5 35t-37.5 14h-280l27 168h344q147 0 147 -135l-14 -123q-6 -60 -30.5 -99.5t-84.5 -93.5 l-211 -194h311l-26 -166h-545z" />
<glyph unicode="&#xbe;" horiz-adv-x="1564" d="M104 623l19 165h252q56 0 65 60l4 43q0 48 -47 51h-219l17 166h219q56 3 59 57l6 52q0 49 -53 49h-254l25 168h327q144 0 144 -117l-19 -182q-7 -44 -24 -73t-33 -34l-14 -6q49 -15 49 -90l-15 -152q-8 -73 -54 -115t-120 -42h-334zM395 0l668 1434h207l-666 -1434h-209z M879 178l14 152l377 501h184l-51 -497h125l-17 -156h-125l-18 -178h-178l18 178h-329zM1049 332h176l26 268z" />
<glyph unicode="&#xbf;" horiz-adv-x="1017" d="M98 -223q0 24 35 354q15 128 123 193l121 73q95 59 104 156l8 74h232l-23 -207q-9 -103 -92 -156l-178 -108q-31 -20 -44.5 -45.5t-18.5 -71.5l-17 -156q0 -73 84 -73h438l-32 -220h-516q-117 0 -170.5 46.5t-53.5 140.5zM477 764l27 260h264l-27 -260h-264z" />
<glyph unicode="&#xc0;" horiz-adv-x="1204" d="M41 0l580 1434h256l286 -1434h-276l-53 307h-402l-115 -307h-276zM516 528h279l-86 508zM524 1763h252l94 -241h-202z" />
<glyph unicode="&#xc1;" horiz-adv-x="1204" d="M41 0l580 1434h256l286 -1434h-276l-53 307h-402l-115 -307h-276zM516 528h279l-86 508zM639 1522l143 241h252l-192 -241h-203z" />
<glyph unicode="&#xc2;" horiz-adv-x="1204" d="M41 0l580 1434h256l286 -1434h-276l-53 307h-402l-115 -307h-276zM453 1522l194 241h262l150 -241h-240l-57 88l-76 -88h-233zM516 528h279l-86 508z" />
<glyph unicode="&#xc3;" horiz-adv-x="1204" d="M41 0l580 1434h256l286 -1434h-276l-53 307h-402l-115 -307h-276zM428 1522l170 241h117l172 -51l39 51h166l-168 -239h-133l-148 57l-45 -59h-170zM516 528h279l-86 508z" />
<glyph unicode="&#xc4;" horiz-adv-x="1204" d="M41 0l580 1434h256l286 -1434h-276l-53 307h-402l-115 -307h-276zM483 1536l23 207h207l-23 -207h-207zM516 528h279l-86 508zM809 1536l22 207h207l-22 -207h-207z" />
<glyph unicode="&#xc5;" horiz-adv-x="1204" d="M41 0l555 1374q-23 26 -23 72l9 92q6 67 48.5 106t114.5 39h54q66 0 102.5 -34.5t36.5 -92.5l-6 -94q-3 -57 -43 -94l274 -1368h-276l-53 307h-402l-115 -307h-276zM516 528h279l-86 508zM688 1470q0 -33 31 -36h53q40 0 49 49l4 55q0 37 -39 37h-47q-44 0 -47 -49z" />
<glyph unicode="&#xc6;" horiz-adv-x="1630" d="M25 0l849 1430h783l-23 -220h-512l-41 -381h441l-23 -225h-440l-41 -381h512l-23 -223h-770l41 399h-235l-226 -399h-292zM662 625h141l33 323z" />
<glyph unicode="&#xc7;" horiz-adv-x="1175" d="M184 201l103 983q27 250 272 250h617l-11 -220h-524q-93 0 -102 -90l-80 -827q0 -76 76 -76h528l-23 -221h-280l-109 -143h62q42 0 67 -25.5t25 -67.5l-12 -133q-4 -46 -35.5 -74t-73.5 -28h-215l12 119h144q34 0 37 35l4 30q0 25 -29 25h-148l13 110l114 152h-206 q-226 0 -226 201z" />
<glyph unicode="&#xc8;" horiz-adv-x="1056" d="M164 0l149 1434h770l-22 -220h-512l-41 -385h440l-22 -225h-441l-41 -381h512l-22 -223h-770zM492 1753h237l90 -231h-188z" />
<glyph unicode="&#xc9;" horiz-adv-x="1056" d="M164 0l149 1434h770l-22 -220h-512l-41 -385h440l-22 -225h-441l-41 -381h512l-22 -223h-770zM588 1522l135 231h238l-185 -231h-188z" />
<glyph unicode="&#xca;" horiz-adv-x="1056" d="M164 0l149 1434h770l-22 -220h-512l-41 -385h440l-22 -225h-441l-41 -381h512l-22 -223h-770zM416 1522l186 231h244l145 -231h-225l-57 86l-76 -86h-217z" />
<glyph unicode="&#xcb;" horiz-adv-x="1056" d="M164 0l149 1434h770l-22 -220h-512l-41 -385h440l-22 -225h-441l-41 -381h512l-22 -223h-770zM436 1536l21 197h196l-20 -197h-197zM752 1536l20 197h197l-21 -197h-196z" />
<glyph unicode="&#xcc;" horiz-adv-x="778" d="M82 0l20 213h179l106 1008h-178l22 213h615l-23 -213h-178l-106 -1008h178l-21 -213h-614zM336 1753h237l91 -231h-189z" />
<glyph unicode="&#xcd;" horiz-adv-x="778" d="M82 0l20 213h179l106 1008h-178l22 213h615l-23 -213h-178l-106 -1008h178l-21 -213h-614zM432 1522l137 231h236l-182 -231h-191z" />
<glyph unicode="&#xce;" horiz-adv-x="778" d="M82 0l20 213h179l106 1008h-178l22 213h615l-23 -213h-178l-106 -1008h178l-21 -213h-614zM258 1522l188 231h242l146 -231h-226l-57 86l-76 -86h-217z" />
<glyph unicode="&#xcf;" horiz-adv-x="778" d="M82 0l20 213h179l106 1008h-178l22 213h615l-23 -213h-178l-106 -1008h178l-21 -213h-614zM289 1536l20 197h197l-21 -197h-196zM604 1536l21 197h196l-20 -197h-197z" />
<glyph unicode="&#xd0;" horiz-adv-x="1347" d="M104 604l21 213h125l63 617h793q113 0 167 -54.5t54 -150.5q0 -55 -98 -977q-27 -252 -273 -252h-792l63 604h-123zM444 215h441q81 0 90 88l88 840q0 78 -84 78h-430l-43 -404h211l-21 -213h-213z" />
<glyph unicode="&#xd1;" horiz-adv-x="1306" d="M164 0l149 1434h254l379 -832l86 832h260l-149 -1434h-234l-393 879l-94 -879h-258zM481 1524l168 229h117l170 -53l41 53h160l-166 -227h-133l-144 63l-49 -65h-164z" />
<glyph unicode="&#xd2;" horiz-adv-x="1325" d="M164 209q0 44 100 975q27 250 273 250h546q222 0 222 -207q0 -2 -97 -977q-24 -250 -270 -250h-551q-109 0 -166 54t-57 155zM430 301q0 -37 22 -61.5t62 -24.5h338q91 0 100 90l88 823q0 91 -88 91h-334q-43 0 -70 -26t-32 -65zM580 1753h235l92 -231h-190z" />
<glyph unicode="&#xd3;" horiz-adv-x="1325" d="M164 209q0 44 100 975q27 250 273 250h546q222 0 222 -207q0 -2 -97 -977q-24 -250 -270 -250h-551q-109 0 -166 54t-57 155zM430 301q0 -37 22 -61.5t62 -24.5h338q91 0 100 90l88 823q0 91 -88 91h-334q-43 0 -70 -26t-32 -65zM664 1522l137 231h235l-182 -231h-190z " />
<glyph unicode="&#xd4;" horiz-adv-x="1325" d="M164 209q0 44 100 975q27 250 273 250h546q222 0 222 -207q0 -2 -97 -977q-24 -250 -270 -250h-551q-109 0 -166 54t-57 155zM430 301q0 -37 22 -61.5t62 -24.5h338q91 0 100 90l88 823q0 91 -88 91h-334q-43 0 -70 -26t-32 -65zM522 1522l187 231h241l148 -231h-226 l-57 86l-76 -86h-217z" />
<glyph unicode="&#xd5;" horiz-adv-x="1325" d="M164 209q0 44 100 975q27 250 273 250h546q222 0 222 -207q0 -2 -97 -977q-24 -250 -270 -250h-551q-109 0 -166 54t-57 155zM430 301q0 -37 22 -61.5t62 -24.5h338q91 0 100 90l88 823q0 91 -88 91h-334q-43 0 -70 -26t-32 -65zM494 1524l168 229h116l170 -53l41 53h162 l-166 -227h-133l-152 55l-41 -57h-165z" />
<glyph unicode="&#xd6;" horiz-adv-x="1325" d="M164 209q0 44 100 975q27 250 273 250h546q222 0 222 -207q0 -2 -97 -977q-24 -250 -270 -250h-551q-109 0 -166 54t-57 155zM430 301q0 -37 22 -61.5t62 -24.5h338q91 0 100 90l88 823q0 91 -88 91h-334q-43 0 -70 -26t-32 -65zM545 1536l20 197h197l-21 -197h-196z M860 1536l21 197h196l-20 -197h-197z" />
<glyph unicode="&#xd7;" horiz-adv-x="892" d="M152 524l229 207l-186 203l163 147l187 -202l227 206l133 -147l-229 -207l182 -203l-164 -147l-182 203l-227 -207z" />
<glyph unicode="&#xd8;" horiz-adv-x="1325" d="M109 -23l84 109q-29 56 -29 123q0 44 100 975q27 250 273 250h546q75 0 131 -29l78 100l94 -80l-92 -118q11 -50 11 -80q0 -2 -97 -977q-24 -250 -270 -250h-551q-55 0 -98 12l-86 -110zM440 406l592 763q-18 50 -80 50h-334q-43 0 -70 -26t-32 -65zM459 231 q22 -16 55 -16h338q91 0 100 90l70 651z" />
<glyph unicode="&#xd9;" horiz-adv-x="1306" d="M188 242l125 1192h258l-116 -1127q0 -37 22.5 -61.5t57.5 -24.5h286q38 0 65.5 25.5t31.5 66.5l116 1121h258l-123 -1182q-13 -125 -74.5 -188.5t-195.5 -63.5h-473q-117 0 -177.5 69t-60.5 173zM600 1753h236l92 -231h-191z" />
<glyph unicode="&#xda;" horiz-adv-x="1306" d="M188 242l125 1192h258l-116 -1127q0 -37 22.5 -61.5t57.5 -24.5h286q38 0 65.5 25.5t31.5 66.5l116 1121h258l-123 -1182q-13 -125 -74.5 -188.5t-195.5 -63.5h-473q-117 0 -177.5 69t-60.5 173zM690 1522l135 231h238l-184 -231h-189z" />
<glyph unicode="&#xdb;" horiz-adv-x="1306" d="M188 242l125 1192h258l-116 -1127q0 -37 22.5 -61.5t57.5 -24.5h286q38 0 65.5 25.5t31.5 66.5l116 1121h258l-123 -1182q-13 -125 -74.5 -188.5t-195.5 -63.5h-473q-117 0 -177.5 69t-60.5 173zM530 1522l187 231h241l148 -231h-225l-58 86l-75 -86h-218z" />
<glyph unicode="&#xdc;" horiz-adv-x="1306" d="M188 242l125 1192h258l-116 -1127q0 -37 22.5 -61.5t57.5 -24.5h286q38 0 65.5 25.5t31.5 66.5l116 1121h258l-123 -1182q-13 -125 -74.5 -188.5t-195.5 -63.5h-473q-117 0 -177.5 69t-60.5 173zM551 1536l20 197h197l-20 -197h-197zM866 1536l21 197h196l-20 -197h-197z " />
<glyph unicode="&#xdd;" horiz-adv-x="1169" d="M211 1434h297l172 -476l283 476h294l-487 -795l-65 -639h-254l65 639zM631 1522l135 231h238l-185 -231h-188z" />
<glyph unicode="&#xde;" horiz-adv-x="1224" d="M164 0l149 1430h258l-26 -261h430q107 0 164 -58.5t57 -158.5l-43 -434q-12 -123 -81.5 -187.5t-192.5 -64.5h-430l-27 -266h-258zM473 487h326q91 0 100 91l31 292q0 80 -84 80h-326z" />
<glyph unicode="&#xdf;" horiz-adv-x="1251" d="M164 0l129 1227q8 91 68 149t167 58h512q92 0 141.5 -48t49.5 -129q0 -22 -2 -28l-29 -268l-223 -179l106 -104q82 -79 82 -197q0 -33 -2 -43l-28 -272q-7 -78 -54.5 -122t-117.5 -44h-388l11 217h219q76 0 82 70l14 125l1 7q1 7 1 11q0 53 -47 100l-151 150l18 182 l229 185l13 108q0 66 -72 66h-258q-85 0 -94 -91l-119 -1130h-258z" />
<glyph unicode="&#xe0;" horiz-adv-x="1148" d="M143 158l72 700q11 87 56 126.5t137 39.5h378l52 -49l47 49h229l-78 -733q0 -37 23 -61.5t59 -24.5l-22 -205h-133q-84 0 -136 49l-53 -49h-473q-74 0 -116 41.5t-42 116.5zM418 307q0 -37 21.5 -59.5t58.5 -22.5h190q83 0 92 90l43 402q0 36 -22 59t-58 23h-190 q-85 0 -94 -90zM436 1350h236l90 -232h-197z" />
<glyph unicode="&#xe1;" horiz-adv-x="1148" d="M143 158l72 700q11 87 56 126.5t137 39.5h378l52 -49l47 49h229l-78 -733q0 -37 23 -61.5t59 -24.5l-22 -205h-133q-84 0 -136 49l-53 -49h-473q-74 0 -116 41.5t-42 116.5zM418 307q0 -37 21.5 -59.5t58.5 -22.5h190q83 0 92 90l43 402q0 36 -22 59t-58 23h-190 q-85 0 -94 -90zM545 1118l137 232h238l-181 -232h-194z" />
<glyph unicode="&#xe2;" horiz-adv-x="1148" d="M143 158l72 700q11 87 56 126.5t137 39.5h378l52 -49l47 49h229l-78 -733q0 -37 23 -61.5t59 -24.5l-22 -205h-133q-84 0 -136 49l-53 -49h-473q-74 0 -116 41.5t-42 116.5zM358 1118l191 232h242l143 -232h-225l-58 86l-76 -86h-217zM418 307q0 -37 21.5 -59.5 t58.5 -22.5h190q83 0 92 90l43 402q0 36 -22 59t-58 23h-190q-85 0 -94 -90z" />
<glyph unicode="&#xe3;" horiz-adv-x="1148" d="M143 158l72 700q11 87 56 126.5t137 39.5h378l52 -49l47 49h229l-78 -733q0 -37 23 -61.5t59 -24.5l-22 -205h-133q-84 0 -136 49l-53 -49h-473q-74 0 -116 41.5t-42 116.5zM365 1118l167 225h117l168 -51l45 54h160l-168 -228h-133l-150 56l-43 -56h-163zM418 307 q0 -37 21.5 -59.5t58.5 -22.5h190q83 0 92 90l43 402q0 36 -22 59t-58 23h-190q-85 0 -94 -90z" />
<glyph unicode="&#xe4;" horiz-adv-x="1148" d="M143 158l72 700q11 87 56 126.5t137 39.5h378l52 -49l47 49h229l-78 -733q0 -37 23 -61.5t59 -24.5l-22 -205h-133q-84 0 -136 49l-53 -49h-473q-74 0 -116 41.5t-42 116.5zM410 1139l20 196h197l-21 -196h-196zM418 307q0 -37 21.5 -59.5t58.5 -22.5h190q83 0 92 90 l43 402q0 36 -22 59t-58 23h-190q-85 0 -94 -90zM725 1139l20 196h197l-20 -196h-197z" />
<glyph unicode="&#xe5;" horiz-adv-x="1148" d="M143 158l72 700q11 87 56 126.5t137 39.5h378l52 -49l47 49h229l-78 -733q0 -37 23 -61.5t59 -24.5l-22 -205h-133q-84 0 -136 49l-53 -49h-473q-74 0 -116 41.5t-42 116.5zM418 307q0 -37 21.5 -59.5t58.5 -22.5h190q83 0 92 90l43 402q0 36 -22 59t-58 23h-190 q-85 0 -94 -90zM471 1233l8 92q6 68 47 106.5t113 38.5h59q66 0 102 -34.5t36 -92.5l-7 -94q-5 -64 -47 -102.5t-114 -38.5h-62q-66 0 -100.5 34t-34.5 91zM586 1257q0 -36 37 -36h47q40 0 49 49l4 47q0 45 -41 45h-45q-44 0 -47 -49z" />
<glyph unicode="&#xe6;" horiz-adv-x="1740" d="M143 150q0 8 74 704q11 88 56 129t135 41h423l52 -49q46 49 135 49h547q135 0 135 -160l-27 -254q-7 -85 -52.5 -124.5t-145.5 -51.5l-369 -47l-57 47l-9 -127q0 -38 23 -60t59 -22h463l-33 -225h-630q-66 0 -107 35l-41 -35h-473q-71 0 -114.5 40t-43.5 110zM418 307 q0 -33 23 -57.5t57 -24.5h190q85 0 94 90l41 402q0 36 -22 59t-58 23h-190q-83 0 -92 -90zM1067 575l274 41q76 12 82 76l2 25q0 34 -22 58t-57 24h-170q-38 0 -64 -25.5t-31 -64.5z" />
<glyph unicode="&#xe7;" horiz-adv-x="944" d="M139 147l72 701q7 83 58 129.5t128 46.5h527l-13 -227h-370q-78 0 -84 -70l-45 -440q0 -60 69 -60h371l-35 -227h-221l-109 -143h62q42 0 67 -25.5t25 -67.5l-12 -133q-4 -46 -35.5 -74t-73.5 -28h-215l12 119h144q34 0 37 35l4 30q0 25 -29 25h-147l12 110l115 152h-162 q-72 0 -112 39t-40 108z" />
<glyph unicode="&#xe8;" horiz-adv-x="1116" d="M143 160l72 698q15 166 180 166h525q79 0 117 -45.5t38 -114.5l-26 -254q-7 -85 -54 -126.5t-145 -53.5l-365 -43l-57 47l-12 -127q0 -38 23 -60t59 -22h463l-33 -225h-629q-70 0 -113 42t-43 118zM436 1350h236l90 -232h-197zM442 575l275 46q79 19 82 73l2 23 q0 34 -22 58t-58 24h-168q-38 0 -63.5 -25.5t-30.5 -64.5z" />
<glyph unicode="&#xe9;" horiz-adv-x="1116" d="M143 160l72 698q15 166 180 166h525q79 0 117 -45.5t38 -114.5l-26 -254q-7 -85 -54 -126.5t-145 -53.5l-365 -43l-57 47l-12 -127q0 -38 23 -60t59 -22h463l-33 -225h-629q-70 0 -113 42t-43 118zM442 575l275 46q79 19 82 73l2 23q0 34 -22 58t-58 24h-168 q-38 0 -63.5 -25.5t-30.5 -64.5zM539 1118l139 232h235l-178 -232h-196z" />
<glyph unicode="&#xea;" horiz-adv-x="1116" d="M143 160l72 698q15 166 180 166h525q79 0 117 -45.5t38 -114.5l-26 -254q-7 -85 -54 -126.5t-145 -53.5l-365 -43l-57 47l-12 -127q0 -38 23 -60t59 -22h463l-33 -225h-629q-70 0 -113 42t-43 118zM358 1118l189 232h244l143 -232h-225l-58 86l-76 -86h-217zM442 575 l275 46q79 19 82 73l2 23q0 34 -22 58t-58 24h-168q-38 0 -63.5 -25.5t-30.5 -64.5z" />
<glyph unicode="&#xeb;" horiz-adv-x="1116" d="M143 160l72 698q15 166 180 166h525q79 0 117 -45.5t38 -114.5l-26 -254q-7 -85 -54 -126.5t-145 -53.5l-365 -43l-57 47l-12 -127q0 -38 23 -60t59 -22h463l-33 -225h-629q-70 0 -113 42t-43 118zM391 1139l21 196h196l-20 -196h-197zM442 575l275 46q79 19 82 73l2 23 q0 34 -22 58t-58 24h-168q-38 0 -63.5 -25.5t-30.5 -64.5zM707 1139l20 196h197l-21 -196h-196z" />
<glyph unicode="&#xec;" horiz-adv-x="534" d="M143 0l107 1024h248l-107 -1024h-248zM178 1350h238l88 -232h-195z" />
<glyph unicode="&#xed;" horiz-adv-x="534" d="M143 0l107 1024h248l-107 -1024h-248zM260 1118l139 232h236l-178 -232h-197z" />
<glyph unicode="&#xee;" horiz-adv-x="534" d="M94 1118l189 232h243l144 -232h-226l-57 86l-76 -86h-217zM143 0l107 1024h248l-107 -1024h-248z" />
<glyph unicode="&#xef;" horiz-adv-x="532" d="M129 1139l21 196h196l-20 -196h-197zM143 0l107 1024h248l-107 -1024h-248zM444 1139l21 196h197l-21 -196h-197z" />
<glyph unicode="&#xf0;" d="M143 158l72 700q18 166 176 166h406l63 -63l8 83q0 127 -139 195l-84 -152l-135 64l88 158l-139 73l114 203l134 -72l79 144l132 -68l-80 -139q140 -71 208 -170.5t68 -245.5l-90 -868q-8 -83 -51.5 -124.5t-138.5 -41.5h-533q-70 0 -114 43t-44 115zM418 307 q0 -36 22 -59t58 -23h190q83 0 92 90l43 402q0 33 -23 57.5t-57 24.5h-190q-85 0 -94 -90z" />
<glyph unicode="&#xf1;" horiz-adv-x="1136" d="M143 0l107 1024h205l47 -47l49 47h395q64 0 101.5 -37t37.5 -104q0 -16 -92 -883h-258l76 723q0 33 -20.5 54.5t-57.5 21.5h-168q-81 0 -90 -88l-74 -711h-258zM383 1118l168 228h117l170 -54l43 54h159l-168 -228h-133l-149 56l-43 -56h-164z" />
<glyph unicode="&#xf2;" horiz-adv-x="1134" d="M143 158l72 700q18 166 176 166h570q137 0 137 -150l-74 -708q-11 -87 -55 -126.5t-135 -39.5h-533q-77 0 -117.5 43t-40.5 115zM418 307q0 -36 22 -59t58 -23h190q83 0 92 90l43 402q0 33 -23 57.5t-57 24.5h-190q-85 0 -94 -90zM455 1350h237l88 -232h-194z" />
<glyph unicode="&#xf3;" horiz-adv-x="1134" d="M143 158l72 700q18 166 176 166h570q137 0 137 -150l-74 -708q-11 -87 -55 -126.5t-135 -39.5h-533q-77 0 -117.5 43t-40.5 115zM418 307q0 -36 22 -59t58 -23h190q83 0 92 90l43 402q0 33 -23 57.5t-57 24.5h-190q-85 0 -94 -90zM528 1118l138 232h237l-180 -232h-195z " />
<glyph unicode="&#xf4;" horiz-adv-x="1134" d="M143 158l72 700q18 166 176 166h570q137 0 137 -150l-74 -708q-11 -87 -55 -126.5t-135 -39.5h-533q-77 0 -117.5 43t-40.5 115zM367 1118l188 232h242l145 -232h-225l-58 86l-75 -86h-217zM418 307q0 -36 22 -59t58 -23h190q83 0 92 90l43 402q0 33 -23 57.5t-57 24.5 h-190q-85 0 -94 -90z" />
<glyph unicode="&#xf5;" horiz-adv-x="1134" d="M143 158l72 700q18 166 176 166h570q137 0 137 -150l-74 -708q-11 -87 -55 -126.5t-135 -39.5h-533q-77 0 -117.5 43t-40.5 115zM350 1118l168 225h117l170 -51l43 54h162l-168 -228h-133l-152 56l-41 -56h-166zM418 307q0 -36 22 -59t58 -23h190q83 0 92 90l43 402 q0 33 -23 57.5t-57 24.5h-190q-85 0 -94 -90z" />
<glyph unicode="&#xf6;" horiz-adv-x="1134" d="M143 158l72 700q18 166 176 166h570q137 0 137 -150l-74 -708q-11 -87 -55 -126.5t-135 -39.5h-533q-77 0 -117.5 43t-40.5 115zM406 1139l20 196h197l-21 -196h-196zM418 307q0 -36 22 -59t58 -23h190q83 0 92 90l43 402q0 33 -23 57.5t-57 24.5h-190q-85 0 -94 -90z M721 1139l20 196h197l-20 -196h-197z" />
<glyph unicode="&#xf7;" horiz-adv-x="991" d="M168 627l20 209h787l-21 -209h-786zM387 236l23 229h235l-22 -229h-236zM465 993l24 230h236l-25 -230h-235z" />
<glyph unicode="&#xf8;" horiz-adv-x="1134" d="M80 -8l80 86q-17 34 -17 80l72 700q18 166 176 166h570q36 0 63 -12l86 92l74 -74l-92 -98q6 -24 6 -58l-74 -708q-11 -87 -55 -126.5t-135 -39.5h-533q-44 0 -74 12l-77 -82zM424 362l379 410q-21 27 -60 27h-190q-85 0 -94 -90zM442 244q22 -19 56 -19h190q83 0 92 90 l35 322z" />
<glyph unicode="&#xf9;" d="M158 141q0 16 92 883h258l-76 -723q0 -33 20.5 -54.5t57.5 -21.5h147q82 0 91 88l73 711h258l-106 -1024h-205l-47 47l-49 -47h-375q-64 0 -101.5 37t-37.5 104zM438 1350h236l90 -232h-197z" />
<glyph unicode="&#xfa;" d="M158 141q0 16 92 883h258l-76 -723q0 -33 20.5 -54.5t57.5 -21.5h147q82 0 91 88l73 711h258l-106 -1024h-205l-47 47l-49 -47h-375q-64 0 -101.5 37t-37.5 104zM553 1118l139 232h236l-178 -232h-197z" />
<glyph unicode="&#xfb;" d="M158 141q0 16 92 883h258l-76 -723q0 -33 20.5 -54.5t57.5 -21.5h147q82 0 91 88l73 711h258l-106 -1024h-205l-47 47l-49 -47h-375q-64 0 -101.5 37t-37.5 104zM365 1118l188 232h244l143 -232h-225l-58 86l-75 -86h-217z" />
<glyph unicode="&#xfc;" d="M158 141q0 16 92 883h258l-76 -723q0 -33 20.5 -54.5t57.5 -21.5h147q82 0 91 88l73 711h258l-106 -1024h-205l-47 47l-49 -47h-375q-64 0 -101.5 37t-37.5 104zM414 1139l20 196h197l-21 -196h-196zM729 1139l21 196h196l-20 -196h-197z" />
<glyph unicode="&#xfd;" d="M158 139q0 10 92 885h258l-76 -723q0 -32 22 -54t56 -22h147q85 0 91 80l73 719h258l-135 -1288q-11 -93 -73 -150t-162 -57h-537v227h436q45 0 65.5 22t26.5 68l23 203l-51 -49h-375q-64 0 -101.5 37t-37.5 102zM549 1118l137 232h238l-181 -232h-194z" />
<glyph unicode="&#xfe;" horiz-adv-x="1150" d="M92 -471l201 1901l260 16l-47 -469l59 47h412q137 0 137 -150l-74 -708q-11 -87 -55 -126.5t-135 -39.5h-387l-57 47l-52 -498zM434 307q0 -36 22 -59t58 -23h191q83 0 92 90l43 402q0 33 -23 57.5t-57 24.5h-191q-85 0 -94 -90z" />
<glyph unicode="&#xff;" d="M158 139q0 10 92 885h258l-76 -723q0 -32 22 -54t56 -22h147q85 0 91 80l73 719h258l-135 -1288q-11 -93 -73 -150t-162 -57h-537v227h436q45 0 65.5 22t26.5 68l23 203l-51 -49h-375q-64 0 -101.5 37t-37.5 102zM414 1139l20 196h197l-21 -196h-196zM729 1139l21 196 h196l-20 -196h-197z" />
<glyph unicode="&#x152;" horiz-adv-x="1814" d="M164 211l100 971q13 117 80.5 184.5t190.5 67.5h1306l-22 -217h-512l-39 -388h440l-22 -225h-441l-41 -381h512l-22 -223h-1305q-111 0 -168 55.5t-57 155.5zM430 297q0 -38 22 -60t62 -22h428l107 1004h-431q-90 0 -102 -91z" />
<glyph unicode="&#x153;" horiz-adv-x="1740" d="M143 158l72 700q18 166 176 166h570q20 0 26 -2q6 2 31 2h547q135 0 135 -160l-27 -254q-7 -85 -53.5 -126.5t-144.5 -53.5l-365 -43l-57 47l-15 -133q3 -76 82 -76h465l-33 -225h-630q-29 0 -37 2q-10 -2 -51 -2h-533q-77 0 -117.5 43t-40.5 115zM418 307q0 -36 22 -59 t58 -23h190q83 0 92 90l43 402q0 33 -23 57.5t-57 24.5h-190q-85 0 -94 -90zM1067 575l274 50q79 15 82 69l2 23q0 34 -22 58t-57 24h-170q-38 0 -64 -25.5t-31 -64.5z" />
<glyph unicode="&#x178;" horiz-adv-x="1169" d="M211 1434h297l172 -476l283 476h294l-487 -795l-65 -639h-254l65 639zM469 1536l20 197h197l-20 -197h-197zM784 1536l21 197h196l-20 -197h-197z" />
<glyph unicode="&#x2c6;" horiz-adv-x="718" d="M72 1198l164 232h241l170 -232h-225l-66 86l-67 -86h-217z" />
<glyph unicode="&#x2dc;" horiz-adv-x="786" d="M76 1210l145 220h117l174 -46l37 54h162l-144 -224h-133l-158 52l-34 -56h-166z" />
<glyph unicode="&#x2000;" horiz-adv-x="881" />
<glyph unicode="&#x2001;" horiz-adv-x="1763" />
<glyph unicode="&#x2002;" horiz-adv-x="881" />
<glyph unicode="&#x2003;" horiz-adv-x="1763" />
<glyph unicode="&#x2004;" horiz-adv-x="587" />
<glyph unicode="&#x2005;" horiz-adv-x="440" />
<glyph unicode="&#x2006;" horiz-adv-x="293" />
<glyph unicode="&#x2007;" horiz-adv-x="293" />
<glyph unicode="&#x2008;" horiz-adv-x="220" />
<glyph unicode="&#x2009;" horiz-adv-x="352" />
<glyph unicode="&#x200a;" horiz-adv-x="97" />
<glyph unicode="&#x2010;" horiz-adv-x="641" d="M84 385l22 217h549l-22 -217h-549z" />
<glyph unicode="&#x2011;" horiz-adv-x="641" d="M84 385l22 217h549l-22 -217h-549z" />
<glyph unicode="&#x2012;" horiz-adv-x="641" d="M84 385l22 217h549l-22 -217h-549z" />
<glyph unicode="&#x2013;" horiz-adv-x="958" d="M82 399l20 187h877l-21 -187h-876z" />
<glyph unicode="&#x2014;" horiz-adv-x="1511" d="M82 399l20 187h1430l-21 -187h-1429z" />
<glyph unicode="&#x2018;" horiz-adv-x="462" d="M203 965l26 260l80 209h221l-81 -211h38l-26 -258h-258z" />
<glyph unicode="&#x2019;" horiz-adv-x="462" d="M182 965l82 211h-39l27 258h258l-27 -260l-80 -209h-221z" />
<glyph unicode="&#x201a;" horiz-adv-x="497" d="M92 -231l84 231h-39l29 279h258l-31 -281l-80 -229h-221z" />
<glyph unicode="&#x201c;" horiz-adv-x="821" d="M203 965l26 260l80 209h221l-81 -211h38l-26 -258h-258zM541 965l26 260l80 209h221l-82 -211h39l-26 -258h-258z" />
<glyph unicode="&#x201d;" horiz-adv-x="821" d="M203 965l82 211h-39l26 258h258l-26 -260l-80 -209h-221zM541 965l82 211h-39l26 258h258l-26 -260l-80 -209h-221z" />
<glyph unicode="&#x201e;" horiz-adv-x="851" d="M92 -231l84 231h-39l29 279h258l-31 -281l-80 -229h-221zM446 -231l84 231h-38l28 279h258l-30 -281l-80 -229h-222z" />
<glyph unicode="&#x2022;" horiz-adv-x="571" d="M190 635l17 174q5 37 28.5 59.5t63.5 22.5h156q77 0 77 -72l-16 -172q-5 -38 -29.5 -60t-64.5 -22h-156q-76 0 -76 70z" />
<glyph unicode="&#x2026;" horiz-adv-x="1654" d="M117 0l28 279h258l-28 -279h-258zM696 0l29 279h258l-29 -279h-258zM1280 0l29 279h258l-29 -279h-258z" />
<glyph unicode="&#x202f;" horiz-adv-x="352" />
<glyph unicode="&#x2039;" horiz-adv-x="694" d="M145 418l19 174l534 428l-30 -297l-279 -215l232 -221l-31 -293z" />
<glyph unicode="&#x203a;" horiz-adv-x="694" d="M100 -6l31 293l281 221l-234 215l31 297l444 -428l-18 -174z" />
<glyph unicode="&#x205f;" horiz-adv-x="440" />
<glyph unicode="&#x20ac;" horiz-adv-x="1167" d="M84 418l43 217h188l17 151h-170l43 218h149l19 176q9 87 59 157q64 93 213 93h529l-11 -220h-436q-93 0 -102 -90l-13 -116h432l-43 -218h-411l-17 -151h394l-43 -217h-373l-10 -121q0 -76 71 -76h455l-23 -221h-548q-224 0 -224 205q0 32 21 213h-209z" />
<glyph unicode="&#x2122;" horiz-adv-x="1406" d="M215 1272l16 162h476l-17 -162h-145l-43 -404h-187l43 404h-143zM748 868l59 566h168l117 -234l163 234h172l-59 -566h-172l29 256l-99 -149h-112l-68 137l-26 -244h-172z" />
<glyph unicode="&#x25fc;" horiz-adv-x="1024" d="M0 0v1024h1024v-1024h-1024z" />
</font>
</defs>
</svg>
