<?xml version="1.0" standalone="no"?>
<!DOCTYPE svg PUBLIC "-//W3C//DTD SVG 1.1//EN" "http://www.w3.org/Graphics/SVG/1.1/DTD/svg11.dtd" >
<svg xmlns="http://www.w3.org/2000/svg" xmlns:xlink="http://www.w3.org/1999/xlink" version="1.1">
<metadata></metadata>
<defs>
<font id="lab_sans_proultralight" horiz-adv-x="1005" >
<font-face units-per-em="2048" ascent="1546" descent="-502" />
<missing-glyph horiz-adv-x="409" />
<glyph unicode="&#xfb01;" horiz-adv-x="1058" d="M82 963v53h154v223q0 96 51 151.5t151 55.5h275q105 0 153.5 -42t48.5 -130v-92h-63v94q-3 117 -139 117h-275q-65 0 -102 -41t-37 -109v-227h231v-53h-231v-963h-63v963h-154zM850 0v1016h63v-1016h-63z" />
<glyph unicode="&#xfb02;" horiz-adv-x="1056" d="M82 963v53h154v207q0 96 51 151.5t151 55.5h412l63 18v-1448h-63v1376h-412q-65 0 -102 -40.5t-37 -108.5v-211h231v-53h-231v-963h-63v963h-154z" />
<glyph unicode="&#xfb03;" horiz-adv-x="1671" d="M82 963v53h154v164q0 95 51 150.5t151 55.5h144l8 -53h-152q-65 0 -102 -40.5t-37 -108.5v-168h551v223q0 95 51.5 151t151.5 56h272q105 0 154 -42t49 -130v-92h-64v94q0 117 -139 117h-272q-65 0 -102.5 -41t-37.5 -109v-227h232v-53h-232v-963h-63v963h-551v-963h-63 v963h-154zM1462 0v1016h64v-1016h-64z" />
<glyph unicode="&#xfb04;" horiz-adv-x="1675" d="M82 963v53h154v164q0 95 51 150.5t151 55.5h144l8 -53h-152q-65 0 -102 -40.5t-37 -108.5v-168h553v207q0 95 51.5 151t151.5 56h411l66 18v-1448h-66v1376h-411q-65 0 -102.5 -40.5t-37.5 -108.5v-211h232v-53h-232v-963h-63v963h-553v-963h-63v963h-154z" />
<glyph horiz-adv-x="0" />
<glyph horiz-adv-x="682" />
<glyph unicode=" "  horiz-adv-x="409" />
<glyph unicode="&#x09;" horiz-adv-x="409" />
<glyph unicode="&#xa0;" horiz-adv-x="409" />
<glyph unicode="!" horiz-adv-x="325" d="M129 0v74h70v-74h-70zM131 1430h66l-13 -1205h-43z" />
<glyph unicode="&#x22;" horiz-adv-x="542" d="M143 1430h72l-8 -386h-55zM328 1430h71l-8 -386h-55z" />
<glyph unicode="#" horiz-adv-x="1226" d="M102 471v49h260l33 400h-270v49h274l41 461h49l-40 -461h362l41 461h49l-41 -461h264v-49h-268l-33 -400h279v-49h-283l-41 -471h-49l41 471h-362l-41 -471h-50l41 471h-256zM412 520h362l33 400h-363z" />
<glyph unicode="$" horiz-adv-x="1077" d="M143 874v390q0 78 43 122t113 44h213v169h51v-169h322l12 -58h-592q-98 0 -98 -104v-387q0 -90 94 -105l492 -82q141 -27 141 -172v-356q0 -78 -45 -122t-121 -44h-205v-170h-51v170h-350l-12 57h618q102 0 102 105v360q0 94 -88 109l-485 82q-78 14 -116 51t-38 110z " />
<glyph unicode="%" horiz-adv-x="1396" d="M123 928v336q0 78 41.5 122t111.5 44h177q70 0 111.5 -44t41.5 -122v-336q0 -78 -41.5 -122t-111.5 -44h-177q-70 0 -111.5 44t-41.5 122zM186 928q0 -46 22.5 -77.5t67.5 -31.5h177q45 0 67.5 31.5t22.5 77.5v336q0 46 -22.5 77t-67.5 31h-177q-45 0 -67.5 -31 t-22.5 -77v-336zM369 0l594 1430h69l-592 -1430h-71zM791 166v336q0 78 41.5 122t111.5 44h176q70 0 112 -44t42 -122v-336q0 -78 -42 -122t-112 -44h-176q-70 0 -111.5 44t-41.5 122zM854 166q0 -46 22.5 -77.5t67.5 -31.5h176q45 0 67.5 31.5t22.5 77.5v336q0 46 -22.5 77 t-67.5 31h-176q-45 0 -67.5 -31t-22.5 -77v-336z" />
<glyph unicode="&#x26;" horiz-adv-x="1114" d="M123 184v430q0 131 104 183q-84 78 -84 211v237q0 85 48.5 135t144.5 50h420q96 0 143 -49.5t47 -135.5v-295h-63v297q0 131 -133 131h-410q-133 0 -133 -131v-239q0 -118 98 -209l619 -561v432h63v-490l127 -117l-14 -67l-123 117q-34 -113 -180 -113h-482 q-96 0 -144 49.5t-48 134.5zM186 182q0 -131 133 -131h472q124 0 133 113l-650 584q-88 0 -88 -134v-432z" />
<glyph unicode="'" horiz-adv-x="358" d="M143 1430h72l-8 -386h-55z" />
<glyph unicode="(" horiz-adv-x="485" d="M123 485q0 552 219 963h61q-118 -239 -167 -465q-46 -212 -46 -498q0 -284 46 -493q49 -225 167 -463h-61q-219 411 -219 956z" />
<glyph unicode=")" horiz-adv-x="485" d="M82 -471q119 242 168 463q45 205 45 493q0 290 -45 498q-48 223 -168 465h61q219 -411 219 -963q0 -545 -219 -956h-61z" />
<glyph unicode="*" horiz-adv-x="620" d="M82 1235l29 55l168 -82v213h61v-215l172 84l27 -55l-177 -84l136 -162l-49 -37l-136 164l-141 -166l-49 37l139 162z" />
<glyph unicode="+" horiz-adv-x="909" d="M102 707v57h320v340h65v-340h320v-57h-320v-340h-65v340h-320z" />
<glyph unicode="," horiz-adv-x="327" d="M123 -160l47 160h-29v84h84v-86l-43 -158h-59z" />
<glyph unicode="-" horiz-adv-x="569" d="M41 465v53h487v-53h-487z" />
<glyph unicode="." horiz-adv-x="370" d="M143 0v84h84v-84h-84z" />
<glyph unicode="/" horiz-adv-x="663" d="M-174 -471l774 1901h64l-773 -1901h-65z" />
<glyph unicode="0" horiz-adv-x="1110" d="M143 184v1061q0 85 48.5 135t144.5 50h442q189 0 189 -185v-1061q0 -85 -47.5 -134.5t-143.5 -49.5h-440q-96 0 -144.5 49.5t-48.5 134.5zM207 182q0 -131 133 -131h430q133 0 133 131v1065q0 131 -133 131h-430q-133 0 -133 -131v-1065z" />
<glyph unicode="1" horiz-adv-x="667" d="M82 1339v54l291 41v-1381h213v-53h-498v53h221v1317z" />
<glyph unicode="2" horiz-adv-x="1026" d="M82 0v45l709 858q51 60 51 162v195q0 114 -129 114h-611l13 56h598q190 0 190 -170v-191q0 -68 -17.5 -116.5t-64.5 -104.5l-653 -793h776l-12 -55h-850z" />
<glyph unicode="3" horiz-adv-x="1028" d="M123 0v51h586q137 0 137 131v365q0 130 -127 139h-535v51h535q127 0 127 129v381q0 131 -137 131h-586v52h586q196 0 196 -191v-377q0 -106 -84 -153q84 -47 84 -158v-361q0 -190 -196 -190h-586z" />
<glyph unicode="4" horiz-adv-x="1081" d="M82 379v29l659 1024h62v-1004h201v-49h-201v-379h-64v379h-657zM160 428h579v905z" />
<glyph unicode="5" horiz-adv-x="1095" d="M123 694l39 736h737l2 -52h-692l-31 -633h598q197 0 197 -186v-369q0 -190 -197 -190h-645v51h645q137 0 137 131v373q0 70 -37.5 104.5t-97.5 34.5h-655z" />
<glyph unicode="6" horiz-adv-x="1110" d="M143 190v1049q0 191 197 191h578l6 -52h-584q-133 0 -133 -135v-473h565q195 0 195 -186v-394q0 -190 -197 -190h-430q-197 0 -197 190zM207 182q0 -131 133 -131h430q133 0 133 131v398q0 75 -32.5 107t-98.5 32h-565v-537z" />
<glyph unicode="7" horiz-adv-x="1052" d="M82 1376l10 54h879v-48l-572 -1382h-65l571 1376h-823z" />
<glyph unicode="8" horiz-adv-x="1110" d="M143 184v371q0 125 90 166q-3 0 -12 3.5t-22.5 13t-25.5 23t-21 37t-9 52.5v397q0 85 49 134t146 49h440q189 0 189 -181v-426q0 -32 -8 -58.5t-18.5 -41.5t-22 -26t-18.5 -15t-9 -4q7 -1 17.5 -7.5t24.5 -20.5t24 -42.5t10 -66.5v-355q0 -186 -189 -186h-442 q-193 0 -193 184zM207 182q0 -131 133 -131h430q133 0 133 131v357q0 94 -82 112l-491 41q-123 0 -123 -137v-373zM207 868q0 -103 102 -118l492 -45q102 6 102 122v410q0 83 -37.5 112t-122.5 29h-403q-133 0 -133 -133v-377z" />
<glyph unicode="9" horiz-adv-x="1110" d="M143 805v434q0 85 48.5 138t148.5 53h430q197 0 197 -191v-1049q0 -190 -197 -190h-557l-6 51h563q133 0 133 135v432h-563q-197 0 -197 187zM207 809q0 -70 36 -104.5t95 -34.5h565v577q0 131 -133 131h-430q-59 0 -96 -34.5t-37 -104.5v-430z" />
<glyph unicode=":" horiz-adv-x="288" d="M102 0v84h84v-84h-84zM102 932v84h84v-84h-84z" />
<glyph unicode=";" horiz-adv-x="307" d="M102 -160l48 160h-29v84h84v-86l-43 -158h-60zM121 932v84h84v-84h-84z" />
<glyph unicode="&#x3c;" horiz-adv-x="1036" d="M123 481v49l790 490v-59l-731 -453l731 -451v-63z" />
<glyph unicode="=" horiz-adv-x="950" d="M102 514v57h746v-57h-746zM102 891v57h746v-57h-746z" />
<glyph unicode="&#x3e;" horiz-adv-x="1036" d="M123 -6v63l731 449l-731 455v59l790 -490v-49z" />
<glyph unicode="?" horiz-adv-x="1003" d="M123 1374l10 56h506q127 0 184.5 -57t57.5 -173v-203q0 -71 -25.5 -114t-89.5 -82l-182 -117q-113 -70 -113 -197v-262h-47v279q0 152 127 229l176 111q53 32 72.5 64.5t19.5 97.5v190q0 178 -180 178h-516zM414 0v72h69v-72h-69z" />
<glyph unicode="@" horiz-adv-x="2000" d="M143 -225v1470q0 85 48.5 135t144.5 50h1333q189 0 189 -185v-1061q0 -85 -47.5 -134.5t-143.5 -49.5h-297q-75 0 -113 68l-71 -68h-465q-64 0 -101.5 37t-37.5 102q0 21 2 27l71 684q18 166 154 166h481l43 -58l37 58h29l-105 -881q3 -75 72 -84h295q133 0 133 131v1065 q0 131 -133 131h-1321q-133 0 -133 -131v-1474q0 -131 133 -131h899l-6 -52h-897q-96 0 -144.5 50t-48.5 135zM645 131q0 -76 68 -76h430q81 0 90 82l88 754q0 72 -74 72h-440q-34 0 -55.5 -22t-26.5 -58l-80 -740v-12z" />
<glyph unicode="A" horiz-adv-x="1095" d="M61 0l457 1430h64l452 -1430h-71l-152 487h-526l-152 -487h-72zM301 539h494l-246 788z" />
<glyph unicode="B" horiz-adv-x="1130" d="M164 0v1430h606q96 0 146.5 -51t50.5 -134v-364q0 -115 -74 -156q94 -34 94 -158v-383q0 -83 -50 -133.5t-146 -50.5h-627zM227 51h564q133 0 133 131v383q0 131 -123 131h-574v-645zM227 748h543q133 0 133 131v368q0 131 -133 131h-543v-630z" />
<glyph unicode="C" horiz-adv-x="1148" d="M143 184v1061q0 86 47.5 135.5t143.5 49.5h678l4 -52h-682q-127 0 -127 -131v-1065q0 -131 133 -131h686v-51h-686q-96 0 -146.5 50.5t-50.5 133.5z" />
<glyph unicode="D" horiz-adv-x="1232" d="M164 0v1430h733q96 0 144.5 -50t48.5 -135v-1061q0 -85 -48.5 -134.5t-144.5 -49.5h-733zM227 51h670q129 0 129 131v1065q0 131 -129 131h-670v-1327z" />
<glyph unicode="E" horiz-adv-x="1056" d="M164 0v1430h770v-54h-707v-633h594v-51h-594v-639h707v-53h-770z" />
<glyph unicode="F" horiz-adv-x="1056" d="M164 0v1430h770v-54h-707v-639h594v-51h-594v-686h-63z" />
<glyph unicode="G" horiz-adv-x="1212" d="M143 184v1061q0 85 48.5 135t144.5 50h676l4 -52h-680q-129 0 -129 -131v-1065q0 -131 133 -131h532q134 0 134 131v475h-340v56h403v-529q0 -83 -50.5 -133.5t-146.5 -50.5h-532q-96 0 -146.5 50.5t-50.5 133.5z" />
<glyph unicode="H" horiz-adv-x="1191" d="M164 0v1430h63v-672h738v672h63v-1430h-63v705h-738v-705h-63z" />
<glyph unicode="I" horiz-adv-x="583" d="M82 0v51h178v1327h-178v52h420v-52h-178v-1327h178v-51h-420z" />
<glyph unicode="J" horiz-adv-x="778" d="M102 1378v52h512v-1240q0 -190 -196 -190h-305l-7 53h314q131 0 131 135v1190h-449z" />
<glyph unicode="K" horiz-adv-x="1128" d="M164 0v1430h63v-689h480q90 0 108 80l148 609h63l-145 -611q-21 -80 -66 -106q47 -21 68 -99l184 -614h-66l-180 606q-24 80 -108 80h-486v-686h-63z" />
<glyph unicode="L" horiz-adv-x="954" d="M164 0v1430h63v-1377h625v-53h-688z" />
<glyph unicode="M" horiz-adv-x="1296" d="M164 0v1430h61l426 -961l418 961h64v-1430h-64v1274l-387 -885h-64l-391 875v-1264h-63z" />
<glyph unicode="N" horiz-adv-x="1191" d="M164 0v1430h59l742 -1291v1291h63v-1430h-57l-744 1294v-1294h-63z" />
<glyph unicode="O" horiz-adv-x="1212" d="M143 184v1061q0 85 48.5 135t144.5 50h545q188 0 188 -185v-1061q0 -86 -47 -135t-143 -49h-543q-96 0 -144.5 49.5t-48.5 134.5zM207 182q0 -131 133 -131h532q134 0 134 131v1065q0 131 -134 131h-532q-133 0 -133 -131v-1065z" />
<glyph unicode="P" horiz-adv-x="1138" d="M164 0v1430h659q193 0 193 -179v-473q0 -95 -52.5 -145.5t-146.5 -50.5h-588v-582h-65zM229 637h586q137 0 137 149v451q0 69 -29 103t-98 34h-596v-737z" />
<glyph unicode="Q" horiz-adv-x="1212" d="M143 184v1061q0 85 48.5 135t144.5 50h545q188 0 188 -185v-1061q0 -50 -22 -102l202 -160l-59 -33l-180 150q-48 -39 -131 -39h-543q-96 0 -144.5 49.5t-48.5 134.5zM207 182q0 -131 133 -131h532q134 0 134 131v1065q0 131 -134 131h-532q-133 0 -133 -131v-1065z" />
<glyph unicode="R" horiz-adv-x="1153" d="M164 0v1430h659q193 0 193 -179v-452q0 -139 -109 -183q47 -27 56 -94l88 -522h-66l-88 512q-15 90 -102 90h-568v-602h-63zM227 657h588q137 0 137 150v430q0 69 -29 103t-98 34h-598v-717z" />
<glyph unicode="S" horiz-adv-x="1036" d="M123 874v390q0 78 43 122t113 44h585l13 -58h-592q-99 0 -99 -104v-387q0 -90 95 -105l491 -82q141 -27 141 -172v-356q0 -79 -44.5 -122.5t-120.5 -43.5h-607l-12 57h619q102 0 102 105v360q0 94 -88 109l-486 82q-78 14 -115.5 51t-37.5 110z" />
<glyph unicode="T" horiz-adv-x="1017" d="M61 1374v56h895v-56h-413v-1374h-64v1374h-418z" />
<glyph unicode="U" horiz-adv-x="1150" d="M143 184v1246h64v-1248q0 -131 133 -131h471q133 0 133 131v1248h64v-1246q0 -83 -50.5 -133.5t-146.5 -50.5h-471q-96 0 -146.5 50.5t-50.5 133.5z" />
<glyph unicode="V" horiz-adv-x="1095" d="M61 1430h72l414 -1328l416 1328h71l-452 -1430h-74z" />
<glyph unicode="W" horiz-adv-x="1648" d="M61 1430h70l356 -1303l299 1303h66l352 -1283l312 1283h71l-350 -1430h-63l-351 1282l-299 -1282h-73z" />
<glyph unicode="X" horiz-adv-x="1052" d="M82 0l405 733l-385 697h76l350 -631l346 631h76l-387 -697l408 -733h-76l-369 668l-368 -668h-76z" />
<glyph unicode="Y" horiz-adv-x="1112" d="M61 1430h76l412 -728l428 728h74l-471 -791v-639h-64v639z" />
<glyph unicode="Z" horiz-adv-x="1026" d="M61 0v33l826 1345h-791l13 52h856v-41l-822 -1336h803l-12 -53h-873z" />
<glyph unicode="[" horiz-adv-x="526" d="M143 -471v1982h301v-57h-233v-1866h233v-59h-301z" />
<glyph unicode="\" horiz-adv-x="837" d="M0 1430h70l768 -1901h-72z" />
<glyph unicode="]" horiz-adv-x="526" d="M82 -412h233v1866h-233v57h301v-1982h-301v59z" />
<glyph unicode="^" horiz-adv-x="1153" d="M123 0l420 748h86l422 -748h-78l-385 688l-389 -688h-76z" />
<glyph unicode="_" horiz-adv-x="794" d="M102 -406h590v-65h-590v65z" />
<glyph unicode="`" horiz-adv-x="374" d="M102 1430h72l98 -201h-55z" />
<glyph unicode="a" horiz-adv-x="940" d="M82 170v174q0 78 45.5 127t124.5 53l481 29v276q0 127 -131 127h-469l6 60h465q96 0 144.5 -50.5t48.5 -136.5v-829h-35l-35 43l-33 -43h-440q-85 0 -128.5 44.5t-43.5 125.5zM147 170q0 -54 32 -82.5t77 -28.5h375q102 0 102 105v332l-481 -29q-105 -9 -105 -123v-174z " />
<glyph unicode="b" d="M143 0v1438l64 8v-475l39 45h483q70 0 112 -44t42 -122v-684q0 -79 -41 -122.5t-111 -43.5h-489l-33 43l-33 -43h-33zM207 166q0 -46 22.5 -77.5t67.5 -31.5h432q45 0 68.5 31.5t23.5 77.5v684q0 46 -22.5 77t-67.5 31h-434q-45 0 -67.5 -31t-22.5 -77v-684z" />
<glyph unicode="c" horiz-adv-x="909" d="M123 166v684q0 78 41.5 122t111.5 44h504l6 -58h-510q-45 0 -67.5 -31t-22.5 -77v-684q0 -46 22.5 -77.5t67.5 -31.5h506v-57h-506q-70 0 -111.5 44t-41.5 122z" />
<glyph unicode="d" d="M123 166v684q0 76 44.5 121t115.5 45h477l39 -45v465l63 10v-1446h-33l-32 43l-33 -43h-488q-70 0 -111.5 44t-41.5 122zM184 166q0 -46 23.5 -77.5t68.5 -31.5h433q45 0 67.5 31.5t22.5 77.5v684q0 46 -24.5 77t-69.5 31h-424q-45 0 -71 -31.5t-26 -76.5v-684z" />
<glyph unicode="e" horiz-adv-x="985" d="M123 166v684q0 78 41.5 122t111.5 44h433q70 0 111.5 -44t41.5 -122v-229q0 -78 -41.5 -122t-111.5 -44h-473l-50 28v-317q0 -46 22.5 -77.5t67.5 -31.5h539l-4 -57h-535q-70 0 -111.5 44t-41.5 122zM186 512h523q45 0 68.5 31.5t23.5 77.5v229q0 46 -23.5 77t-68.5 31 h-433q-45 0 -67.5 -31t-22.5 -77v-338z" />
<glyph unicode="f" horiz-adv-x="630" d="M82 963v53h154v223q0 96 51 151.5t151 55.5h144l8 -53h-152q-65 0 -102 -41t-37 -109v-227h231v-53h-231v-963h-63v963h-154z" />
<glyph unicode="g" d="M123 166v684q0 78 41.5 122t111.5 44h488l33 -43l32 43h33v-1280q0 -207 -213 -207h-481l-10 59h495q146 0 146 146v311l-39 -45h-477q-71 0 -115.5 45t-44.5 121zM184 166q0 -45 26 -77t71 -32h424q45 0 69.5 31.5t24.5 77.5v684q0 46 -22.5 77t-67.5 31h-433 q-45 0 -68.5 -31t-23.5 -77v-684z" />
<glyph unicode="h" d="M143 0v1436l64 12v-475l49 43h453q70 0 111.5 -44t41.5 -122v-850h-63v850q0 46 -22.5 77t-67.5 31h-400q-46 0 -74 -32t-28 -78v-848h-64z" />
<glyph unicode="i" horiz-adv-x="350" d="M143 0v1016h64v-1016h-64zM143 1182v65h64v-65h-64z" />
<glyph unicode="j" horiz-adv-x="350" d="M-63 -412h90q116 0 116 125v1303h62v-1299q0 -95 -42.5 -141.5t-142.5 -46.5h-75zM143 1182v65h64v-65h-64z" />
<glyph unicode="k" horiz-adv-x="944" d="M143 0v1434l62 12v-920h403q86 0 101 86l77 404h62l-96 -477l-47 -37l45 -33l112 -469h-61l-94 397q-18 80 -103 80h-399v-477h-62z" />
<glyph unicode="l" horiz-adv-x="350" d="M143 0v1436l64 10v-1446h-64z" />
<glyph unicode="m" horiz-adv-x="1558" d="M143 0v1016h29l33 -43l33 43h530l37 -45l35 45h422q70 0 111.5 -44t41.5 -122v-850h-63v850q0 46 -22.5 77t-67.5 31h-349q-46 0 -74 -32t-28 -78v-848h-63v850q0 46 -24 77t-67 31h-348q-46 0 -74 -32t-28 -78v-848h-64z" />
<glyph unicode="n" d="M143 0v1016h29l33 -43l33 43h471q70 0 111.5 -44t41.5 -122v-850h-63v850q0 46 -22.5 77t-67.5 31h-400q-46 0 -74 -32t-28 -78v-848h-64z" />
<glyph unicode="o" horiz-adv-x="985" d="M123 166v684q0 78 41.5 122t111.5 44h435q70 0 110.5 -43.5t40.5 -122.5v-684q0 -79 -40.5 -122.5t-110.5 -43.5h-435q-70 0 -111.5 44t-41.5 122zM186 166q0 -46 22.5 -77.5t67.5 -31.5h435q45 0 67.5 31.5t22.5 77.5v684q0 46 -22.5 77t-67.5 31h-435q-45 0 -67.5 -31 t-22.5 -77v-684z" />
<glyph unicode="p" d="M143 -471v1487h33l33 -43l33 43h487q70 0 112 -44t42 -122v-684q0 -76 -44.5 -121t-115.5 -45h-477l-39 45v-508zM207 166q0 -109 94 -109h424q45 0 70.5 32t25.5 77v684q0 46 -23.5 77t-68.5 31h-432q-45 0 -67.5 -31t-22.5 -77v-684z" />
<glyph unicode="q" d="M123 166v684q0 78 41.5 122t111.5 44h488l33 -43l32 43h33v-1487l-63 8v508l-39 -45h-484q-70 0 -111.5 44t-41.5 122zM186 166q0 -46 22.5 -77.5t67.5 -31.5h435q45 0 67.5 31.5t22.5 77.5v684q0 46 -23.5 77t-68.5 31h-433q-45 0 -67.5 -31t-22.5 -77v-684z" />
<glyph unicode="r" horiz-adv-x="581" d="M143 0v1016h35l35 -43l33 43h274l-8 -58h-223q-82 0 -82 -88v-870h-64z" />
<glyph unicode="s" horiz-adv-x="870" d="M102 57h508q95 0 95 99v163q0 44 -17 66.5t-59 34.5l-365 86q-82 20 -117.5 53.5t-35.5 104.5v186q0 78 41.5 122t111.5 44h465l8 -55h-475q-88 0 -88 -99v-190q0 -44 17.5 -67.5t58.5 -35.5l385 -88q69 -18 101 -54.5t32 -104.5v-156q0 -78 -42 -122t-112 -44h-503z" />
<glyph unicode="t" horiz-adv-x="624" d="M82 961v55h149v239l64 11v-250h248v-55h-248v-771q0 -62 33.5 -96.5t89.5 -34.5h104l-6 -59h-96q-89 0 -139 48.5t-50 139.5v773h-149z" />
<glyph unicode="u" horiz-adv-x="985" d="M143 166v850h64v-850q0 -46 22.5 -77.5t67.5 -31.5h399q46 0 74.5 32.5t28.5 78.5v848h63v-1016h-28l-33 43l-33 -43h-471q-70 0 -112 44t-42 122z" />
<glyph unicode="v" horiz-adv-x="903" d="M61 1016h66l328 -924l323 924h64l-359 -1016h-63z" />
<glyph unicode="w" horiz-adv-x="1435" d="M61 1016h70l301 -887l254 887h64l260 -887l301 887h63l-338 -1016h-63l-256 893l-254 -893h-64z" />
<glyph unicode="x" horiz-adv-x="907" d="M61 0l353 524l-332 492h78l293 -434l295 434h77l-333 -492l354 -524h-76l-317 467l-316 -467h-76z" />
<glyph unicode="y" d="M143 166v850h64v-850q0 -46 22.5 -77.5t67.5 -31.5h399q46 0 74.5 32.5t28.5 78.5v848h63v-1280q0 -207 -213 -207h-461l-10 59h475q146 0 146 146v305l-31 -39h-471q-70 0 -112 44t-42 122z" />
<glyph unicode="z" horiz-adv-x="892" d="M82 0v45l627 909h-603l9 62h678v-51l-627 -908h645l-8 -57h-721z" />
<glyph unicode="{" horiz-adv-x="649" d="M82 539v53h70q38 0 59.5 25.5t21.5 68.5v676q0 125 54.5 188.5t187.5 63.5h92v-55h-104q-164 0 -164 -181v-686q0 -58 -11 -84.5t-46 -46.5q34 -12 45.5 -37t11.5 -78v-665q0 -90 45.5 -143.5t128.5 -53.5h94v-55h-92q-133 0 -187.5 63.5t-54.5 188.5v663q0 43 -21.5 69 t-59.5 26h-70z" />
<glyph unicode="|" horiz-adv-x="391" d="M164 -471v1917h63v-1917h-63z" />
<glyph unicode="}" horiz-adv-x="649" d="M82 -416h94q83 0 128.5 53.5t45.5 143.5v665q0 53 12 78t46 37q-36 20 -47 46.5t-11 84.5v686q0 181 -164 181h-104v55h92q133 0 187.5 -63.5t54.5 -188.5v-676q0 -43 22 -68.5t60 -25.5h69v-53h-69q-38 0 -60 -26t-22 -69v-663q0 -125 -54.5 -188.5t-187.5 -63.5h-92v55 z" />
<glyph unicode="~" horiz-adv-x="987" d="M102 668l146 106h55l422 -53l76 61h84l-144 -110h-92l-387 49l-72 -53h-88z" />
<glyph unicode="&#xa1;" horiz-adv-x="315" d="M123 942v74h70v-74h-70zM125 -414l10 1205h43l12 -1205h-65z" />
<glyph unicode="&#xa2;" horiz-adv-x="909" d="M123 166v684q0 78 41.5 122t111.5 44h195v168h51v-168h258l6 -58h-510q-45 0 -67.5 -31t-22.5 -77v-684q0 -46 22.5 -77.5t67.5 -31.5h506v-57h-260v-170h-51v170h-195q-70 0 -111.5 44t-41.5 122z" />
<glyph unicode="&#xa3;" horiz-adv-x="1103" d="M102 0v57h152l22 635h-172l21 51h154l18 521q1 76 49.5 121t122.5 45h506l12 -58h-510q-59 0 -87 -29.5t-30 -76.5l-18 -523h596l-20 -51h-576l-23 -635h682v-57h-899z" />
<glyph unicode="&#xa4;" horiz-adv-x="1118" d="M102 258l125 123q-24 41 -24 102v521q0 64 28 106l-129 127l45 47l134 -131q37 16 75 16h402q44 0 78 -18l135 133l45 -47l-133 -129q28 -42 28 -104v-521q0 -63 -24 -100l129 -125l-45 -47l-129 127q-34 -21 -84 -21h-402q-46 0 -82 19l-127 -125zM266 483 q0 -46 22.5 -77t67.5 -31h402q45 0 67.5 31t22.5 77v521q0 46 -22.5 77t-67.5 31h-402q-45 0 -67.5 -31t-22.5 -77v-521z" />
<glyph unicode="&#xa5;" horiz-adv-x="1112" d="M61 1430h76l412 -631l428 631h74l-471 -689h323v-51h-323v-131h323v-51h-323v-508h-64v508h-338v51h338v131h-338v51h338z" />
<glyph unicode="&#xa6;" horiz-adv-x="411" d="M164 352h63v-823h-63v823zM164 623v807h63v-807h-63z" />
<glyph unicode="&#xa7;" horiz-adv-x="1036" d="M123 401v316q0 98 72 139q-72 51 -72 145v263q0 78 43 122t113 44h585l13 -58h-592q-99 0 -99 -104v-260q0 -43 27.5 -78t67.5 -47l491 -164q75 -26 108 -64.5t33 -111.5v-312q0 -100 -71 -141q71 -47 71 -143v-262q0 -78 -42.5 -122t-112.5 -44h-586l-12 57h592 q98 0 98 105v260q0 43 -27 78t-67 47l-492 163q-76 26 -108.5 63t-32.5 109zM186 401q0 -85 88 -112l480 -162q96 3 96 100v316q0 94 -88 121l-486 159q-90 -3 -90 -102v-320z" />
<glyph unicode="&#xa8;" horiz-adv-x="696" d="M156 1358v72h71v-72h-71zM381 1358v72h72v-72h-72z" />
<glyph unicode="&#xa9;" horiz-adv-x="1601" d="M143 184v1061q0 85 48.5 135t144.5 50h934q188 0 188 -185v-1061q0 -86 -47 -135t-143 -49h-932q-96 0 -144.5 49.5t-48.5 134.5zM207 182q0 -131 133 -131h922q133 0 133 131v1065q0 131 -133 131h-922q-133 0 -133 -131v-1065zM539 500v438q0 78 41.5 122t111.5 44h352 l7 -57h-359q-45 0 -67.5 -31.5t-22.5 -77.5v-438q0 -46 22.5 -77.5t67.5 -31.5h355v-57h-355q-70 0 -111.5 44t-41.5 122z" />
<glyph unicode="&#xaa;" horiz-adv-x="704" d="M123 893v111q0 50 29.5 82.5t78.5 33.5l289 19v155q0 82 -84 82h-280l4 54h301q121 0 121 -119v-527h-43l-23 29l-20 -29h-265q-108 0 -108 109zM145 520v58h424v-58h-424zM184 909q0 -34 20.5 -51.5t49.5 -17.5h201q65 0 65 65v182l-268 -18q-68 -3 -68 -78v-82z" />
<glyph unicode="&#xab;" horiz-adv-x="940" d="M102 479v53l490 488v-86l-428 -426l428 -426v-88zM348 479v53l490 488v-86l-428 -426l428 -426v-88z" />
<glyph unicode="&#xac;" horiz-adv-x="1095" d="M123 872v60h848v-418h-62v358h-786z" />
<glyph unicode="&#xad;" horiz-adv-x="569" d="M41 465v53h487v-53h-487z" />
<glyph unicode="&#xae;" horiz-adv-x="1601" d="M143 184v1061q0 85 48.5 135t144.5 50h934q188 0 188 -185v-1061q0 -86 -47 -135t-143 -49h-932q-96 0 -144.5 49.5t-48.5 134.5zM207 182q0 -131 133 -131h922q133 0 133 131v1065q0 131 -133 131h-922q-133 0 -133 -131v-1065zM535 334v768h323q209 0 209 -201v-53 q0 -134 -113 -189q22 -22 41 -69l105 -256h-66l-106 260q-21 53 -70 53h-260v-313h-63zM598 700h260q70 0 108 40.5t38 109.5v55q0 69 -36.5 107.5t-107.5 38.5h-262v-351z" />
<glyph unicode="&#xaf;" horiz-adv-x="673" d="M104 1374v56h469v-56h-469z" />
<glyph unicode="&#xb0;" horiz-adv-x="626" d="M102 1133v131q0 78 42 122t112 44h115q70 0 111.5 -44t41.5 -122v-131q0 -78 -41.5 -122t-111.5 -44h-115q-70 0 -112 44t-42 122zM166 1133q0 -46 22.5 -77.5t67.5 -31.5h115q45 0 67.5 31.5t22.5 77.5v131q0 46 -22.5 77t-67.5 31h-115q-45 0 -67.5 -31t-22.5 -77v-131 z" />
<glyph unicode="&#xb1;" horiz-adv-x="927" d="M102 0v57h723v-57h-723zM102 707v57h320v340h65v-340h320v-57h-320v-340h-65v340h-320z" />
<glyph unicode="&#xb2;" horiz-adv-x="679" d="M61 618v46l369 350q47 45 66.5 80.5t19.5 89.5v76q0 114 -129 114h-305l12 56h293q191 0 191 -168v-74q0 -71 -26 -115t-93 -102l-316 -297h475l-12 -56h-545z" />
<glyph unicode="&#xb3;" horiz-adv-x="638" d="M82 674h287q127 0 127 112v152q0 59 -60 59h-315v56h321q54 3 54 57v152q0 112 -127 112h-287l6 56h293q89 0 132.5 -44.5t43.5 -115.5v-146q0 -74 -45 -100q45 -26 45 -86v-160q0 -71 -43.5 -115.5t-132.5 -44.5h-293z" />
<glyph unicode="&#xb4;" horiz-adv-x="374" d="M102 1229l99 201h71l-114 -201h-56z" />
<glyph unicode="&#xb5;" d="M143 -348v1364h64v-850q0 -46 22.5 -77.5t67.5 -31.5h399q46 0 74.5 32.5t28.5 78.5v848h63v-1016h-28l-33 43l-33 -43h-471q-51 0 -90 25v-353z" />
<glyph unicode="&#xb6;" horiz-adv-x="1007" d="M123 1075v178q0 78 45 127.5t127 49.5h672v-58h-172v-1372h-68v1372h-186v-1372h-70v899h-176q-77 0 -124.5 46.5t-47.5 129.5z" />
<glyph unicode="&#xb7;" horiz-adv-x="276" d="M102 471v72h72v-72h-72z" />
<glyph unicode="&#xb8;" horiz-adv-x="491" d="M102 -410h187q37 0 37 37v117q0 39 -33 39h-187v57l91 160h65l-88 -158h113q102 0 102 -98v-119q0 -96 -96 -96h-191v61z" />
<glyph unicode="&#xb9;" horiz-adv-x="432" d="M61 618v54h134v692l-134 -12v51l197 27v-758h133v-54h-330z" />
<glyph unicode="&#xba;" horiz-adv-x="710" d="M123 950v314q0 78 41.5 122t111.5 44h158q70 0 112 -44t42 -122v-314q0 -78 -42 -122t-112 -44h-158q-70 0 -111.5 44t-41.5 122zM145 520v58h424v-58h-424zM186 950q0 -46 22.5 -77t67.5 -31h158q45 0 67.5 31t22.5 77v314q0 46 -22.5 77t-67.5 31h-158q-45 0 -67.5 -31 t-22.5 -77v-314z" />
<glyph unicode="&#xbb;" horiz-adv-x="940" d="M102 -6v86l428 426l-428 426v88l490 -485v-54zM348 -6v86l428 426l-428 426v88l490 -485v-54z" />
<glyph unicode="&#xbc;" horiz-adv-x="1212" d="M61 618v54h134v692l-134 -12v51l197 27v-758h133v-54h-330zM287 0l604 1430h59l-602 -1430h-61zM616 246v45l361 540h49v-538h125v-47h-125v-246h-51v246h-359zM668 293h307v463z" />
<glyph unicode="&#xbd;" horiz-adv-x="1437" d="M61 618v54h134v692l-134 -12v51l197 27v-758h133v-54h-330zM287 0l604 1430h59l-602 -1430h-61zM819 0v45l369 350q47 45 66.5 80.5t19.5 89.5v76q0 115 -129 115h-305l12 55h293q190 0 190 -168v-74q0 -72 -25.5 -116t-92.5 -101l-316 -297h475l-12 -55h-545z" />
<glyph unicode="&#xbe;" horiz-adv-x="1273" d="M61 674h287q127 0 127 112v152q0 59 -59 59h-316v56h322q53 3 53 57v152q0 112 -127 112h-287l7 56h292q89 0 133 -44.5t44 -115.5v-146q0 -74 -45 -100q45 -26 45 -86v-160q0 -71 -44 -115.5t-133 -44.5h-292zM369 0l604 1430h59l-602 -1430h-61zM678 246v45l360 540h49 v-538h125v-47h-125v-246h-51v246h-358zM729 293h307v463z" />
<glyph unicode="&#xbf;" horiz-adv-x="1003" d="M123 18q0 71 25.5 114.5t89.5 82.5l182 117q112 69 112 196v263h48v-279q0 -152 -127 -229l-177 -111q-53 -32 -72.5 -64.5t-19.5 -97.5v-190q0 -178 181 -178h516l-11 -56h-505q-127 0 -184.5 57t-57.5 173v202zM520 944v72h70v-72h-70z" />
<glyph unicode="&#xc0;" horiz-adv-x="1095" d="M61 0l457 1430h64l452 -1430h-71l-152 487h-526l-152 -487h-72zM301 539h494l-246 788zM408 1722h71l99 -200h-56z" />
<glyph unicode="&#xc1;" horiz-adv-x="1095" d="M61 0l457 1430h64l452 -1430h-71l-152 487h-526l-152 -487h-72zM301 539h494l-246 788zM516 1522l98 200h72l-115 -200h-55z" />
<glyph unicode="&#xc2;" horiz-adv-x="1095" d="M61 0l457 1430h64l452 -1430h-71l-152 487h-526l-152 -487h-72zM301 539h494l-246 788zM391 1522l119 200h72l118 -200h-55l-100 141l-99 -141h-55z" />
<glyph unicode="&#xc3;" horiz-adv-x="1095" d="M61 0l457 1430h64l452 -1430h-71l-152 487h-526l-152 -487h-72zM250 1528l145 213h35l250 -162l117 162h51l-143 -211h-46l-239 160l-115 -162h-55zM301 539h494l-246 788z" />
<glyph unicode="&#xc4;" horiz-adv-x="1095" d="M61 0l457 1430h64l452 -1430h-71l-152 487h-526l-152 -487h-72zM301 539h494l-246 788zM395 1575v72h72v-72h-72zM621 1575v72h71v-72h-71z" />
<glyph unicode="&#xc5;" horiz-adv-x="1095" d="M61 0l441 1378q-96 15 -96 125v31q0 56 34.5 89.5t94.5 33.5h32q61 0 96 -32.5t35 -88.5v-29q0 -108 -100 -129l436 -1378h-71l-152 487h-526l-152 -487h-72zM301 539h494l-246 788zM461 1499q0 -63 61 -69h47q31 0 52.5 21t21.5 56v29q0 27 -20.5 48.5t-49.5 21.5h-43 q-30 0 -49.5 -21.5t-19.5 -48.5v-37z" />
<glyph unicode="&#xc6;" horiz-adv-x="1533" d="M41 0l621 1430h770v-54h-707v-633h594v-51h-594v-639h707v-53h-770v690h-261l-288 -690h-72zM424 743h238v547z" />
<glyph unicode="&#xc7;" horiz-adv-x="1148" d="M143 184v1061q0 86 47.5 135.5t143.5 49.5h678l4 -52h-682q-127 0 -127 -131v-1065q0 -131 133 -131h686v-51h-354l-88 -158h112q103 0 103 -98v-119q0 -96 -97 -96h-190v61h186q37 0 37 37v117q0 39 -33 39h-186v57l90 160h-266q-96 0 -146.5 50.5t-50.5 133.5z" />
<glyph unicode="&#xc8;" horiz-adv-x="1056" d="M164 0v1430h770v-54h-707v-633h594v-51h-594v-639h707v-53h-770zM434 1722h72l98 -200h-55z" />
<glyph unicode="&#xc9;" horiz-adv-x="1056" d="M164 0v1430h770v-54h-707v-633h594v-51h-594v-639h707v-53h-770zM496 1522l98 200h72l-115 -200h-55z" />
<glyph unicode="&#xca;" horiz-adv-x="1056" d="M164 0v1430h770v-54h-707v-633h594v-51h-594v-639h707v-53h-770zM371 1522l118 200h72l119 -200h-55l-101 141l-98 -141h-55z" />
<glyph unicode="&#xcb;" horiz-adv-x="1056" d="M164 0v1430h770v-54h-707v-633h594v-51h-594v-639h707v-53h-770zM381 1575v72h72v-72h-72zM606 1575v72h72v-72h-72z" />
<glyph unicode="&#xcc;" horiz-adv-x="583" d="M82 0v51h178v1327h-178v52h420v-52h-178v-1327h178v-51h-420zM209 1722h72l98 -200h-55z" />
<glyph unicode="&#xcd;" horiz-adv-x="583" d="M82 0v51h178v1327h-178v52h420v-52h-178v-1327h178v-51h-420zM199 1522l98 200h72l-115 -200h-55z" />
<glyph unicode="&#xce;" horiz-adv-x="583" d="M82 0v51h178v1327h-178v52h420v-52h-178v-1327h178v-51h-420zM131 1522l119 200h72l118 -200h-55l-100 141l-99 -141h-55z" />
<glyph unicode="&#xcf;" horiz-adv-x="583" d="M82 0v51h178v1327h-178v52h420v-52h-178v-1327h178v-51h-420zM129 1575v72h72v-72h-72zM354 1575v72h72v-72h-72z" />
<glyph unicode="&#xd0;" horiz-adv-x="1232" d="M41 702v54h123v674h733q96 0 144.5 -50t48.5 -135v-1061q0 -85 -48.5 -134.5t-144.5 -49.5h-733v702h-123zM227 51h670q129 0 129 131v1065q0 131 -129 131h-670v-622h201v-54h-201v-651z" />
<glyph unicode="&#xd1;" horiz-adv-x="1193" d="M164 0v1430h59l742 -1291v1291h63v-1430h-57l-744 1294v-1294h-63zM297 1528l145 213h35l250 -162l117 162h51l-143 -211h-45l-240 160l-115 -162h-55z" />
<glyph unicode="&#xd2;" horiz-adv-x="1150" d="M143 184v1061q0 85 48.5 135t144.5 50h545q188 0 188 -185v-1061q0 -86 -47 -135t-143 -49h-543q-96 0 -144.5 49.5t-48.5 134.5zM207 182q0 -131 133 -131h532q134 0 134 131v1065q0 131 -134 131h-532q-133 0 -133 -131v-1065zM434 1722h72l98 -200h-55z" />
<glyph unicode="&#xd3;" horiz-adv-x="1150" d="M143 184v1061q0 85 48.5 135t144.5 50h545q188 0 188 -185v-1061q0 -86 -47 -135t-143 -49h-543q-96 0 -144.5 49.5t-48.5 134.5zM207 182q0 -131 133 -131h532q134 0 134 131v1065q0 131 -134 131h-532q-133 0 -133 -131v-1065zM516 1522l98 200h72l-115 -200h-55z" />
<glyph unicode="&#xd4;" horiz-adv-x="1150" d="M143 184v1061q0 85 48.5 135t144.5 50h545q188 0 188 -185v-1061q0 -86 -47 -135t-143 -49h-543q-96 0 -144.5 49.5t-48.5 134.5zM207 182q0 -131 133 -131h532q134 0 134 131v1065q0 131 -134 131h-532q-133 0 -133 -131v-1065zM391 1522l119 200h72l118 -200h-55 l-100 141l-99 -141h-55z" />
<glyph unicode="&#xd5;" horiz-adv-x="1150" d="M143 184v1061q0 85 48.5 135t144.5 50h545q188 0 188 -185v-1061q0 -86 -47 -135t-143 -49h-543q-96 0 -144.5 49.5t-48.5 134.5zM207 182q0 -131 133 -131h532q134 0 134 131v1065q0 131 -134 131h-532q-133 0 -133 -131v-1065zM317 1528l146 213h35l250 -162l116 162 h51l-143 -211h-45l-240 160l-114 -162h-56z" />
<glyph unicode="&#xd6;" horiz-adv-x="1150" d="M143 184v1061q0 85 48.5 135t144.5 50h545q188 0 188 -185v-1061q0 -86 -47 -135t-143 -49h-543q-96 0 -144.5 49.5t-48.5 134.5zM207 182q0 -131 133 -131h532q134 0 134 131v1065q0 131 -134 131h-532q-133 0 -133 -131v-1065zM406 1575v72h71v-72h-71zM631 1575v72h71 v-72h-71z" />
<glyph unicode="&#xd7;" horiz-adv-x="774" d="M102 973l48 47l239 -242l227 228l41 -41l-227 -228l242 -239l-47 -47l-240 241l-227 -227l-41 41l227 227z" />
<glyph unicode="&#xd8;" horiz-adv-x="1212" d="M131 -35l53 90q-41 50 -41 129v1061q0 85 48.5 135t144.5 50h545q62 0 106 -23l47 80l41 -25l-51 -84q45 -45 45 -133v-1061q0 -86 -47 -135t-143 -49h-543q-68 0 -113 25l-49 -86zM207 182q0 -40 12 -67l737 1243q-33 20 -84 20h-532q-133 0 -133 -131v-1065zM252 74 q38 -23 88 -23h532q134 0 134 131v1065q0 45 -15 72z" />
<glyph unicode="&#xd9;" horiz-adv-x="1150" d="M143 184v1246h64v-1248q0 -131 133 -131h471q133 0 133 131v1248h64v-1246q0 -83 -50.5 -133.5t-146.5 -50.5h-471q-96 0 -146.5 50.5t-50.5 133.5zM455 1722h71l99 -200h-56z" />
<glyph unicode="&#xda;" horiz-adv-x="1150" d="M143 184v1246h64v-1248q0 -131 133 -131h471q133 0 133 131v1248h64v-1246q0 -83 -50.5 -133.5t-146.5 -50.5h-471q-96 0 -146.5 50.5t-50.5 133.5zM516 1522l98 200h72l-115 -200h-55z" />
<glyph unicode="&#xdb;" horiz-adv-x="1150" d="M143 184v1246h64v-1248q0 -131 133 -131h471q133 0 133 131v1248h64v-1246q0 -83 -50.5 -133.5t-146.5 -50.5h-471q-96 0 -146.5 50.5t-50.5 133.5zM412 1522l118 200h72l119 -200h-55l-101 141l-98 -141h-55z" />
<glyph unicode="&#xdc;" horiz-adv-x="1150" d="M143 184v1246h64v-1248q0 -131 133 -131h471q133 0 133 131v1248h64v-1246q0 -83 -50.5 -133.5t-146.5 -50.5h-471q-96 0 -146.5 50.5t-50.5 133.5zM403 1575v72h72v-72h-72zM629 1575v72h71v-72h-71z" />
<glyph unicode="&#xdd;" horiz-adv-x="1112" d="M61 1430h76l412 -728l428 728h74l-471 -791v-639h-64v639zM496 1522l98 200h72l-115 -200h-55z" />
<glyph unicode="&#xde;" horiz-adv-x="1138" d="M164 0v1430h65v-263h594q193 0 193 -178v-473q0 -95 -52.5 -146t-146.5 -51h-588v-319h-65zM229 375h586q137 0 137 149v451q0 69 -29 103t-98 34h-596v-737z" />
<glyph unicode="&#xdf;" horiz-adv-x="1095" d="M143 0v1241q0 90 49.5 147.5t147.5 57.5h387q102 0 156.5 -53t54.5 -146v-104l-383 -305l289 -168q68 -39 98.5 -83.5t30.5 -109.5v-319q0 -76 -41.5 -117t-112.5 -41h-377l-12 57h383q96 0 96 101v321q0 88 -88 137l-317 187v59l370 297v84q0 70 -38 110t-109 40h-383 q-62 0 -99.5 -37.5t-37.5 -110.5v-1245h-64z" />
<glyph unicode="&#xe0;" horiz-adv-x="942" d="M84 170v174q0 78 45.5 127t124.5 53l481 29v276q0 127 -131 127h-469l6 60h465q96 0 144.5 -50.5t48.5 -136.5v-829h-35l-35 43l-33 -43h-440q-85 0 -128.5 44.5t-43.5 125.5zM150 170q0 -54 31.5 -82.5t76.5 -28.5h375q102 0 102 105v332l-481 -29q-104 -9 -104 -123 v-174zM330 1319h71l99 -201h-56z" />
<glyph unicode="&#xe1;" horiz-adv-x="942" d="M84 170v174q0 78 45.5 127t124.5 53l481 29v276q0 127 -131 127h-469l6 60h465q96 0 144.5 -50.5t48.5 -136.5v-829h-35l-35 43l-33 -43h-440q-85 0 -128.5 44.5t-43.5 125.5zM150 170q0 -54 31.5 -82.5t76.5 -28.5h375q102 0 102 105v332l-481 -29q-104 -9 -104 -123 v-174zM381 1118l98 201h72l-115 -201h-55z" />
<glyph unicode="&#xe2;" horiz-adv-x="942" d="M84 170v174q0 78 45.5 127t124.5 53l481 29v276q0 127 -131 127h-469l6 60h465q96 0 144.5 -50.5t48.5 -136.5v-829h-35l-35 43l-33 -43h-440q-85 0 -128.5 44.5t-43.5 125.5zM150 170q0 -54 31.5 -82.5t76.5 -28.5h375q102 0 102 105v332l-481 -29q-104 -9 -104 -123 v-174zM293 1118l119 201h71l119 -201h-55l-101 142l-98 -142h-55z" />
<glyph unicode="&#xe3;" horiz-adv-x="942" d="M84 170v174q0 78 45.5 127t124.5 53l481 29v276q0 127 -131 127h-469l6 60h465q96 0 144.5 -50.5t48.5 -136.5v-829h-35l-35 43l-33 -43h-440q-85 0 -128.5 44.5t-43.5 125.5zM150 170q0 -54 31.5 -82.5t76.5 -28.5h375q102 0 102 105v332l-481 -29q-104 -9 -104 -123 v-174zM168 1118l145 213h35l250 -162l117 162h51l-143 -211h-45l-240 160l-115 -162h-55z" />
<glyph unicode="&#xe4;" horiz-adv-x="942" d="M84 170v174q0 78 45.5 127t124.5 53l481 29v276q0 127 -131 127h-469l6 60h465q96 0 144.5 -50.5t48.5 -136.5v-829h-35l-35 43l-33 -43h-440q-85 0 -128.5 44.5t-43.5 125.5zM150 170q0 -54 31.5 -82.5t76.5 -28.5h375q102 0 102 105v332l-481 -29q-104 -9 -104 -123 v-174zM299 1180v71h72v-71h-72zM524 1180v71h72v-71h-72z" />
<glyph unicode="&#xe5;" horiz-adv-x="942" d="M84 170v174q0 78 45.5 127t124.5 53l481 29v276q0 127 -131 127h-469l6 60h465q96 0 144.5 -50.5t48.5 -136.5v-829h-35l-35 43l-33 -43h-440q-85 0 -128.5 44.5t-43.5 125.5zM150 170q0 -54 31.5 -82.5t76.5 -28.5h375q102 0 102 105v332l-481 -29q-104 -9 -104 -123 v-174zM307 1255v31q0 56 34.5 89.5t94.5 33.5h33q61 0 96 -32.5t35 -88.5v-28q0 -63 -34.5 -97.5t-96.5 -34.5h-33q-61 0 -95 33.5t-34 93.5zM362 1251q0 -30 20.5 -49.5t51.5 -19.5h37q31 0 52.5 21.5t21.5 56.5v28q0 27 -20.5 48.5t-49.5 21.5h-43q-30 0 -50 -21.5 t-20 -48.5v-37z" />
<glyph unicode="&#xe6;" horiz-adv-x="1595" d="M82 170v154q0 78 45.5 127t124.5 53l481 28v310q-6 114 -131 114h-469l6 60h465q103 0 156 -62q44 62 127 62h432q70 0 112 -44t42 -122v-209q0 -78 -42 -122t-112 -44h-473l-49 29v-338q0 -46 22.5 -77.5t67.5 -31.5h538l-4 -57h-534q-86 0 -123 57q-45 -57 -123 -57 h-387q-85 0 -128.5 44.5t-43.5 125.5zM147 170q0 -54 32 -82.5t77 -28.5h375q96 0 102 95v321l-481 -29q-105 -9 -105 -122v-154zM797 532h522q45 0 68.5 31.5t23.5 77.5v209q0 46 -23.5 77t-68.5 31h-432q-45 0 -67.5 -31t-22.5 -77v-318z" />
<glyph unicode="&#xe7;" horiz-adv-x="909" d="M123 166v684q0 78 41.5 122t111.5 44h504l6 -58h-510q-45 0 -67.5 -31t-22.5 -77v-684q0 -46 22.5 -77.5t67.5 -31.5h506v-57h-233l-88 -158h112q103 0 103 -98v-119q0 -96 -96 -96h-191v61h186q37 0 37 37v117q0 39 -32 39h-187v57l90 160h-207q-70 0 -111.5 44 t-41.5 122z" />
<glyph unicode="&#xe8;" horiz-adv-x="985" d="M123 166v684q0 78 41.5 122t111.5 44h433q70 0 111.5 -44t41.5 -122v-229q0 -78 -41.5 -122t-111.5 -44h-473l-50 28v-317q0 -46 22.5 -77.5t67.5 -31.5h539l-4 -57h-535q-70 0 -111.5 44t-41.5 122zM186 512h523q45 0 68.5 31.5t23.5 77.5v229q0 46 -23.5 77t-68.5 31 h-433q-45 0 -67.5 -31t-22.5 -77v-338zM381 1319h72l98 -201h-55z" />
<glyph unicode="&#xe9;" horiz-adv-x="985" d="M123 166v684q0 78 41.5 122t111.5 44h433q70 0 111.5 -44t41.5 -122v-229q0 -78 -41.5 -122t-111.5 -44h-473l-50 28v-317q0 -46 22.5 -77.5t67.5 -31.5h539l-4 -57h-535q-70 0 -111.5 44t-41.5 122zM186 512h523q45 0 68.5 31.5t23.5 77.5v229q0 46 -23.5 77t-68.5 31 h-433q-45 0 -67.5 -31t-22.5 -77v-338zM422 1118l98 201h72l-115 -201h-55z" />
<glyph unicode="&#xea;" horiz-adv-x="985" d="M123 166v684q0 78 41.5 122t111.5 44h433q70 0 111.5 -44t41.5 -122v-229q0 -78 -41.5 -122t-111.5 -44h-473l-50 28v-317q0 -46 22.5 -77.5t67.5 -31.5h539l-4 -57h-535q-70 0 -111.5 44t-41.5 122zM186 512h523q45 0 68.5 31.5t23.5 77.5v229q0 46 -23.5 77t-68.5 31 h-433q-45 0 -67.5 -31t-22.5 -77v-338zM326 1118l118 201h72l119 -201h-55l-101 142l-98 -142h-55z" />
<glyph unicode="&#xeb;" horiz-adv-x="985" d="M123 166v684q0 78 41.5 122t111.5 44h433q70 0 111.5 -44t41.5 -122v-229q0 -78 -41.5 -122t-111.5 -44h-473l-50 28v-317q0 -46 22.5 -77.5t67.5 -31.5h539l-4 -57h-535q-70 0 -111.5 44t-41.5 122zM186 512h523q45 0 68.5 31.5t23.5 77.5v229q0 46 -23.5 77t-68.5 31 h-433q-45 0 -67.5 -31t-22.5 -77v-338zM336 1180v71h72v-71h-72zM561 1180v71h72v-71h-72z" />
<glyph unicode="&#xec;" horiz-adv-x="350" d="M35 1319h71l99 -201h-55zM143 0v1016h64v-1016h-64z" />
<glyph unicode="&#xed;" horiz-adv-x="350" d="M139 1118l99 201h71l-114 -201h-56zM143 0v1016h64v-1016h-64z" />
<glyph unicode="&#xee;" horiz-adv-x="350" d="M20 1118l119 201h72l119 -201h-56l-100 142l-98 -142h-56zM143 0v1016h64v-1016h-64z" />
<glyph unicode="&#xef;" horiz-adv-x="350" d="M18 1180v71h72v-71h-72zM143 0v1016h64v-1016h-64zM244 1180v71h71v-71h-71z" />
<glyph unicode="&#xf0;" horiz-adv-x="985" d="M123 166v684q0 78 41.5 122t111.5 44h474l53 -35v31q0 109 -123 176l-301 160l-68 -146l-49 23l66 145l-146 68l27 55l143 -68l62 140l51 -23l-64 -139l299 -162q94 -52 127 -102q35 -50 35 -150v-823q0 -78 -41.5 -122t-111.5 -44h-433q-70 0 -111.5 44t-41.5 122z M186 166q0 -46 22.5 -77.5t67.5 -31.5h433q45 0 68.5 31.5t23.5 77.5v684q0 46 -23.5 77t-68.5 31h-433q-45 0 -67.5 -31t-22.5 -77v-684z" />
<glyph unicode="&#xf1;" d="M143 0v1016h29l33 -43l33 43h471q70 0 111.5 -44t41.5 -122v-850h-63v850q0 46 -22.5 77t-67.5 31h-400q-46 0 -74 -32t-28 -78v-848h-64zM209 1118l145 213h35l250 -162l117 162h51l-143 -211h-46l-239 160l-115 -162h-55z" />
<glyph unicode="&#xf2;" horiz-adv-x="985" d="M123 166v684q0 78 41.5 122t111.5 44h435q70 0 110.5 -43.5t40.5 -122.5v-684q0 -79 -40.5 -122.5t-110.5 -43.5h-435q-70 0 -111.5 44t-41.5 122zM186 166q0 -46 22.5 -77.5t67.5 -31.5h435q45 0 67.5 31.5t22.5 77.5v684q0 46 -22.5 77t-67.5 31h-435q-45 0 -67.5 -31 t-22.5 -77v-684zM381 1319h72l98 -201h-55z" />
<glyph unicode="&#xf3;" horiz-adv-x="985" d="M123 166v684q0 78 41.5 122t111.5 44h435q70 0 110.5 -43.5t40.5 -122.5v-684q0 -79 -40.5 -122.5t-110.5 -43.5h-435q-70 0 -111.5 44t-41.5 122zM186 166q0 -46 22.5 -77.5t67.5 -31.5h435q45 0 67.5 31.5t22.5 77.5v684q0 46 -22.5 77t-67.5 31h-435q-45 0 -67.5 -31 t-22.5 -77v-684zM422 1118l98 201h72l-115 -201h-55z" />
<glyph unicode="&#xf4;" horiz-adv-x="985" d="M123 166v684q0 78 41.5 122t111.5 44h435q70 0 110.5 -43.5t40.5 -122.5v-684q0 -79 -40.5 -122.5t-110.5 -43.5h-435q-70 0 -111.5 44t-41.5 122zM186 166q0 -46 22.5 -77.5t67.5 -31.5h435q45 0 67.5 31.5t22.5 77.5v684q0 46 -22.5 77t-67.5 31h-435q-45 0 -67.5 -31 t-22.5 -77v-684zM336 1118l119 201h71l119 -201h-55l-101 142l-98 -142h-55z" />
<glyph unicode="&#xf5;" horiz-adv-x="985" d="M123 166v684q0 78 41.5 122t111.5 44h435q70 0 110.5 -43.5t40.5 -122.5v-684q0 -79 -40.5 -122.5t-110.5 -43.5h-435q-70 0 -111.5 44t-41.5 122zM186 166q0 -46 22.5 -77.5t67.5 -31.5h435q45 0 67.5 31.5t22.5 77.5v684q0 46 -22.5 77t-67.5 31h-435q-45 0 -67.5 -31 t-22.5 -77v-684zM188 1118l146 213h35l249 -162l117 162h51l-143 -211h-45l-240 160l-114 -162h-56z" />
<glyph unicode="&#xf6;" horiz-adv-x="985" d="M123 166v684q0 78 41.5 122t111.5 44h435q70 0 110.5 -43.5t40.5 -122.5v-684q0 -79 -40.5 -122.5t-110.5 -43.5h-435q-70 0 -111.5 44t-41.5 122zM186 166q0 -46 22.5 -77.5t67.5 -31.5h435q45 0 67.5 31.5t22.5 77.5v684q0 46 -22.5 77t-67.5 31h-435q-45 0 -67.5 -31 t-22.5 -77v-684zM340 1180v71h72v-71h-72zM565 1180v71h72v-71h-72z" />
<glyph unicode="&#xf7;" horiz-adv-x="950" d="M102 707v57h746v-57h-746zM440 336v65h62v-65h-62zM440 1065v65h62v-65h-62z" />
<glyph unicode="&#xf8;" horiz-adv-x="985" d="M102 -27l54 80q-33 42 -33 113v684q0 78 41.5 122t111.5 44h435q42 0 86 -23l49 74l43 -29l-55 -82q28 -42 28 -106v-684q0 -79 -40.5 -122.5t-110.5 -43.5h-435q-46 0 -81 18l-52 -73zM186 166q0 -34 9 -55l567 831q-22 16 -51 16h-435q-45 0 -67.5 -31t-22.5 -77v-684z M229 70q19 -13 47 -13h435q45 0 67.5 31.5t22.5 77.5v684q0 30 -8 49z" />
<glyph unicode="&#xf9;" d="M143 166v850h64v-850q0 -46 22.5 -77.5t67.5 -31.5h399q46 0 74.5 32.5t28.5 78.5v848h63v-1016h-28l-33 43l-33 -43h-471q-70 0 -112 44t-42 122zM360 1319h72l98 -201h-55z" />
<glyph unicode="&#xfa;" d="M143 166v850h64v-850q0 -46 22.5 -77.5t67.5 -31.5h399q46 0 74.5 32.5t28.5 78.5v848h63v-1016h-28l-33 43l-33 -43h-471q-70 0 -112 44t-42 122zM422 1118l98 201h72l-115 -201h-55z" />
<glyph unicode="&#xfb;" d="M143 166v850h64v-850q0 -46 22.5 -77.5t67.5 -31.5h399q46 0 74.5 32.5t28.5 78.5v848h63v-1016h-28l-33 43l-33 -43h-471q-70 0 -112 44t-42 122zM334 1118l119 201h71l119 -201h-55l-101 142l-98 -142h-55z" />
<glyph unicode="&#xfc;" d="M143 166v850h64v-850q0 -46 22.5 -77.5t67.5 -31.5h399q46 0 74.5 32.5t28.5 78.5v848h63v-1016h-28l-33 43l-33 -43h-471q-70 0 -112 44t-42 122zM340 1180v71h72v-71h-72zM565 1180v71h72v-71h-72z" />
<glyph unicode="&#xfd;" d="M143 166v850h64v-850q0 -46 22.5 -77.5t67.5 -31.5h399q46 0 74.5 32.5t28.5 78.5v848h63v-1280q0 -207 -213 -207h-461l-10 59h475q146 0 146 146v305l-31 -39h-471q-70 0 -112 44t-42 122zM457 1118l98 201h72l-115 -201h-55z" />
<glyph unicode="&#xfe;" d="M143 -471v1909l64 8v-475l39 45h477q71 0 115.5 -45t44.5 -121v-684q0 -78 -42 -122t-112 -44h-487l-35 39v-498zM207 166q0 -46 22.5 -77.5t67.5 -31.5h432q45 0 68.5 31.5t23.5 77.5v684q0 45 -25.5 76.5t-70.5 31.5h-424q-46 0 -70 -27t-24 -71v-694z" />
<glyph unicode="&#xff;" d="M143 166v850h64v-850q0 -46 22.5 -77.5t67.5 -31.5h399q46 0 74.5 32.5t28.5 78.5v848h63v-1280q0 -207 -213 -207h-461l-10 59h475q146 0 146 146v305l-31 -39h-471q-70 0 -112 44t-42 122zM340 1180v71h72v-71h-72zM565 1180v71h72v-71h-72z" />
<glyph unicode="&#x152;" horiz-adv-x="1898" d="M143 184v1061q0 85 48.5 135t144.5 50h1440v-54h-707v-633h594v-51h-594v-641h707v-51h-1440q-96 0 -144.5 49.5t-48.5 134.5zM207 182q0 -131 133 -131h666v1327h-666q-133 0 -133 -133v-1063z" />
<glyph unicode="&#x153;" horiz-adv-x="1662" d="M123 166v684q0 78 41.5 122t111.5 44h435q80 0 120 -58q40 58 123 58h432q70 0 112 -44t42 -122v-229q0 -78 -42 -122t-112 -44h-475l-49 28v-317q0 -46 23.5 -77.5t68.5 -31.5h539l-4 -57h-535q-83 0 -123 55q-40 -55 -120 -55h-435q-70 0 -111.5 44t-41.5 122zM186 166 q0 -46 22.5 -77.5t67.5 -31.5h435q45 0 67.5 31.5t22.5 77.5v684q0 46 -22.5 77t-67.5 31h-435q-45 0 -67.5 -31t-22.5 -77v-684zM862 512h524q45 0 69 31.5t24 77.5v229q0 46 -24 77t-69 31h-432q-45 0 -68.5 -31t-23.5 -77v-338z" />
<glyph unicode="&#x178;" horiz-adv-x="1112" d="M61 1430h76l412 -728l428 728h74l-471 -791v-639h-64v639zM375 1575v72h71v-72h-71zM600 1575v72h72v-72h-72z" />
<glyph unicode="&#x2c6;" horiz-adv-x="514" d="M102 1229l119 201h72l119 -201h-56l-100 141l-98 -141h-56z" />
<glyph unicode="&#x2dc;" horiz-adv-x="802" d="M102 1217l146 213h35l249 -162l117 162h51l-143 -211h-45l-240 159l-114 -161h-56z" />
<glyph unicode="&#x2000;" horiz-adv-x="870" />
<glyph unicode="&#x2001;" horiz-adv-x="1741" />
<glyph unicode="&#x2002;" horiz-adv-x="870" />
<glyph unicode="&#x2003;" horiz-adv-x="1741" />
<glyph unicode="&#x2004;" horiz-adv-x="580" />
<glyph unicode="&#x2005;" horiz-adv-x="435" />
<glyph unicode="&#x2006;" horiz-adv-x="290" />
<glyph unicode="&#x2007;" horiz-adv-x="290" />
<glyph unicode="&#x2008;" horiz-adv-x="217" />
<glyph unicode="&#x2009;" horiz-adv-x="348" />
<glyph unicode="&#x200a;" horiz-adv-x="96" />
<glyph unicode="&#x2010;" horiz-adv-x="569" d="M41 465v53h487v-53h-487z" />
<glyph unicode="&#x2011;" horiz-adv-x="569" d="M41 465v53h487v-53h-487z" />
<glyph unicode="&#x2012;" horiz-adv-x="569" d="M41 465v53h487v-53h-487z" />
<glyph unicode="&#x2013;" horiz-adv-x="958" d="M41 475v53h877v-53h-877z" />
<glyph unicode="&#x2014;" horiz-adv-x="1511" d="M41 473v53h1429v-53h-1429z" />
<glyph unicode="&#x2018;" horiz-adv-x="391" d="M123 1186v86l43 158h59l-47 -160h29v-84h-84z" />
<glyph unicode="&#x2019;" horiz-adv-x="391" d="M123 1186l47 160h-29v84h84v-87l-43 -157h-59z" />
<glyph unicode="&#x201a;" horiz-adv-x="348" d="M123 -160l47 160h-29v84h84v-86l-43 -158h-59z" />
<glyph unicode="&#x201c;" horiz-adv-x="636" d="M123 1186v86l43 158h59l-47 -160h29v-84h-84zM287 1186v86l43 158h59l-47 -160h29v-84h-84z" />
<glyph unicode="&#x201d;" horiz-adv-x="636" d="M123 1186l47 160h-29v84h84v-87l-43 -157h-59zM287 1186l47 160h-29v84h84v-87l-43 -157h-59z" />
<glyph unicode="&#x201e;" horiz-adv-x="532" d="M123 -160l47 160h-29v84h84v-86l-43 -158h-59zM307 -160l47 160h-28v84h84v-86l-43 -158h-60z" />
<glyph unicode="&#x2022;" horiz-adv-x="315" d="M102 729v16q0 48 50 48h12q49 0 49 -48v-16q0 -47 -49 -47h-12q-50 0 -50 47z" />
<glyph unicode="&#x2026;" horiz-adv-x="1251" d="M143 0v84h84v-84h-84zM573 0v84h84v-84h-84zM1024 0v84h84v-84h-84z" />
<glyph unicode="&#x202f;" horiz-adv-x="348" />
<glyph unicode="&#x2039;" horiz-adv-x="694" d="M102 479v53l490 488v-86l-428 -426l428 -426v-88z" />
<glyph unicode="&#x203a;" horiz-adv-x="694" d="M102 -6v88l422 426l-422 426v86l490 -488v-53z" />
<glyph unicode="&#x205f;" horiz-adv-x="435" />
<glyph unicode="&#x20ac;" horiz-adv-x="1173" d="M61 539l21 53h123v233h-105l21 54h84v366q0 83 50 134t146 51h635l4 -52h-639q-133 0 -133 -131v-368h709l-21 -54h-688v-233h670l-20 -53h-650v-357q0 -131 133 -131h650v-51h-650q-96 0 -146 50.5t-50 133.5v355h-144z" />
<glyph unicode="&#x2122;" horiz-adv-x="1261" d="M102 1389v41h418v-41h-186v-525h-47v525h-185zM621 864v566h41l219 -367l215 367h43v-566h-43v479l-201 -335h-31l-198 329v-473h-45z" />
<glyph unicode="&#x25fc;" horiz-adv-x="1013" d="M0 0v1014h1014v-1014h-1014z" />
</font>
</defs>
</svg>
