<?xml version="1.0" standalone="no"?>
<!DOCTYPE svg PUBLIC "-//W3C//DTD SVG 1.1//EN" "http://www.w3.org/Graphics/SVG/1.1/DTD/svg11.dtd" >
<svg xmlns="http://www.w3.org/2000/svg" xmlns:xlink="http://www.w3.org/1999/xlink" version="1.1">
<metadata></metadata>
<defs>
<font id="lab_sans_promedium" horiz-adv-x="1060" >
<font-face units-per-em="2048" ascent="1544" descent="-504" />
<missing-glyph horiz-adv-x="409" />
<glyph unicode="&#xfb01;" horiz-adv-x="1150" d="M20 827v193h185v219q0 93 55.5 147t157.5 54h375q217 0 217 -207v-90h-211v31q0 75 -80 75h-219q-82 0 -82 -90v-139h221v-193h-223v-827h-211v827h-185zM797 0v1020h211v-1020h-211z" />
<glyph unicode="&#xfb02;" horiz-adv-x="1150" d="M20 827v193h185v205q0 207 239 207h359l205 14v-1446h-211v1241h-297q-82 0 -82 -90v-131h221v-193h-223v-827h-211v827h-185z" />
<glyph unicode="&#xfb03;" horiz-adv-x="1744" d="M20 827v193h185v166q0 95 52.5 151t152.5 56h211l12 -191h-133q-82 0 -82 -90v-92h381v219q0 93 55.5 147t157.5 54h377q217 0 217 -207v-90h-213v31q0 75 -82 75h-219q-82 0 -82 -90v-139h223v-193h-225v-827h-211v827h-381v-827h-211v827h-185zM1389 0v1020h213v-1020 h-213z" />
<glyph unicode="&#xfb04;" horiz-adv-x="1744" d="M20 827v193h185v166q0 95 52.5 151t152.5 56h211l12 -191h-133q-82 0 -82 -90v-92h381v199q0 101 56 157t163 56h373l211 14v-1446h-211v1241h-299q-82 0 -82 -90v-131h221v-193h-223v-827h-211v827h-381v-827h-211v827h-185z" />
<glyph horiz-adv-x="0" />
<glyph horiz-adv-x="682" />
<glyph unicode=" "  horiz-adv-x="409" />
<glyph unicode="&#x09;" horiz-adv-x="409" />
<glyph unicode="&#xa0;" horiz-adv-x="409" />
<glyph unicode="!" horiz-adv-x="464" d="M123 0v213h217v-213h-217zM123 1430h219l-25 -1090h-170z" />
<glyph unicode="&#x22;" horiz-adv-x="794" d="M143 1432h195l-8 -388h-178zM457 1432h194l-8 -388h-178z" />
<glyph unicode="#" horiz-adv-x="1265" d="M102 406v172h199l25 278h-203v172h217l35 402h178l-35 -402h281l35 402h178l-35 -402h186v-172h-200l-25 -278h205v-172h-219l-35 -406h-178l32 406h-278l-35 -406h-178l35 406h-185zM479 578h281l22 278h-278z" />
<glyph unicode="$" horiz-adv-x="1052" d="M123 842v424q0 78 41.5 122t111.5 44h150v184h188v-184h267l12 -197h-481q-76 0 -76 -70v-204q0 -63 67 -84l373 -86q154 -35 154 -175v-450q0 -78 -42 -122t-112 -44h-162v-184h-188v184h-285l-12 197h512q76 0 76 69v230q0 67 -66 88l-375 84q-153 34 -153 174z" />
<glyph unicode="%" horiz-adv-x="1667" d="M123 877v426q0 58 34.5 93.5t96.5 35.5h293q64 0 98.5 -35t34.5 -94v-426q0 -59 -34.5 -94t-98.5 -35h-293q-62 0 -96.5 35.5t-34.5 93.5zM289 963q0 -58 53 -58h119q53 0 53 58v254q0 55 -53 55h-119q-53 0 -53 -55v-254zM506 0l481 1432h182l-479 -1432h-184zM987 129 v424q0 58 34.5 93.5t96.5 35.5h293q64 0 98.5 -35t34.5 -94v-424q0 -59 -34.5 -94t-98.5 -35h-293q-62 0 -96.5 35.5t-34.5 93.5zM1153 215q0 -57 53 -57h119q53 0 53 57v254q0 55 -53 55h-119q-53 0 -53 -55v-254z" />
<glyph unicode="&#x26;" horiz-adv-x="1296" d="M102 252v340q0 46 14 82.5t32 55t41.5 31.5t34.5 16.5t20 4.5q-13 5 -28 16.5t-32.5 46t-17.5 81.5v245q0 125 66.5 193t189.5 68h391q246 0 246 -238v-246h-207v209q0 92 -92 92h-295q-92 0 -92 -92v-186q0 -61 80 -129l473 -320v187h202v-359l127 -112l-8 -242 l-141 121q-46 -117 -219 -117h-525q-124 0 -192 65.5t-68 186.5zM305 272q0 -90 92 -90h437q92 0 92 90l-539 371q-82 -6 -82 -92v-279z" />
<glyph unicode="'" horiz-adv-x="481" d="M143 1432h195l-8 -388h-178z" />
<glyph unicode="(" horiz-adv-x="628" d="M143 573q0 634 219 1045h191q-213 -437 -213 -1045q0 -607 213 -1044h-191q-219 411 -219 1044z" />
<glyph unicode=")" horiz-adv-x="628" d="M74 -471q213 437 213 1044q0 608 -213 1045h192q219 -411 219 -1045q0 -633 -219 -1044h-192z" />
<glyph unicode="*" horiz-adv-x="704" d="M82 1190l61 137l133 -61v166h148v-168l135 63l64 -137l-150 -68l107 -139l-113 -86l-115 141l-114 -143l-117 88l110 139z" />
<glyph unicode="+" horiz-adv-x="991" d="M102 641v178h304v326h178v-326h305v-178h-305v-319h-178v319h-304z" />
<glyph unicode="," horiz-adv-x="452" d="M109 -231l59 231h-39v231h213v-233l-57 -229h-176z" />
<glyph unicode="-" horiz-adv-x="712" d="M82 403v177h549v-177h-549z" />
<glyph unicode="." horiz-adv-x="432" d="M109 0v231h213v-231h-213z" />
<glyph unicode="/" horiz-adv-x="706" d="M-131 -471l639 1901h199l-639 -1901h-199z" />
<glyph unicode="0" horiz-adv-x="1198" d="M123 207v1018q0 93 56 150t157 57h526q101 0 157 -57t56 -150v-1018q0 -93 -56 -150t-157 -57h-526q-101 0 -157 57t-56 150zM334 285q0 -90 82 -90h366q82 0 82 90v860q0 90 -82 90h-366q-82 0 -82 -90v-860z" />
<glyph unicode="1" horiz-adv-x="727" d="M41 0v188h221v1045l-207 -23v183l418 41v-1246h213v-188h-645z" />
<glyph unicode="2" horiz-adv-x="1069" d="M61 0v188l656 793q39 48 39 106v76q0 30 -21.5 50t-56.5 20h-596l12 197h662q92 0 151.5 -53t59.5 -158v-119q0 -67 -29 -135q-9 -28 -43 -70q-4 -8 -25 -35l-24 -31l-539 -632h701l-13 -197h-934z" />
<glyph unicode="3" horiz-adv-x="1028" d="M102 0v193h502q90 0 90 90v241q0 86 -80 92h-450v195h450q80 6 80 92v246q0 90 -90 90h-502l11 193h549q157 0 206 -78q37 -58 37 -135v-334q0 -78 -34.5 -121.5t-69.5 -54.5l-13 -2q5 -1 13 -4t28 -16t35.5 -30t28 -49t12.5 -71v-285q0 -252 -243 -252h-560z" />
<glyph unicode="4" horiz-adv-x="1177" d="M82 350v176l612 904h217v-881h201v-199h-201v-350h-217v350h-612zM317 547h375v567z" />
<glyph unicode="5" horiz-adv-x="1118" d="M123 618l41 812h807l10 -197h-629l-20 -418h469q92 0 143 -50t51 -136v-439q0 -90 -56.5 -140t-150.5 -50h-655v197h565q47 0 65.5 19.5t18.5 68.5v264q0 69 -75 69h-584z" />
<glyph unicode="6" horiz-adv-x="1175" d="M123 203v1022q0 93 56 150t157 57h676l10 -197h-600q-88 0 -88 -90v-314h512q98 0 152.5 -54.5t54.5 -151.5v-418q0 -96 -60 -151.5t-149 -55.5h-514q-91 0 -149 58t-58 145zM334 268q0 -73 82 -73h338q84 0 84 79v285q0 78 -80 78h-424v-369z" />
<glyph unicode="7" horiz-adv-x="1107" d="M82 1233l10 197h934v-191l-557 -1239h-233l571 1233h-725z" />
<glyph unicode="8" horiz-adv-x="1198" d="M123 209v334q0 127 94 170q-2 0 -11.5 5t-23.5 18t-27 30t-22.5 44.5t-9.5 59.5v355q0 102 56.5 153.5t156.5 51.5h526q103 0 158 -54t55 -147v-316q0 -33 -9.5 -61t-22 -45t-27 -29t-24.5 -17t-13 -5q7 -2 29 -15t44.5 -57t22.5 -98v-375q0 -94 -53 -152.5t-160 -58.5 h-526q-102 0 -157.5 56.5t-55.5 152.5zM334 283q0 -90 92 -90h346q92 0 92 90v209q0 87 -78 96l-370 35q-82 -3 -82 -93v-247zM334 930q0 -83 82 -92l366 -35q82 6 82 92v252q0 90 -86 90h-358q-86 0 -86 -90v-217z" />
<glyph unicode="9" horiz-adv-x="1198" d="M123 764v459q0 100 57.5 154.5t151.5 54.5h534q97 0 153 -57.5t56 -147.5v-1020q0 -93 -57 -150t-158 -57h-696l-10 195h622q88 0 88 90v272h-534q-98 0 -152.5 55t-54.5 152zM334 829q0 -77 80 -77h450v399q0 84 -82 84h-364q-84 0 -84 -88v-318z" />
<glyph unicode=":" horiz-adv-x="446" d="M117 0v231h213v-231h-213zM117 782v234h213v-234h-213z" />
<glyph unicode=";" horiz-adv-x="458" d="M117 -231l59 231h-39v231h213v-233l-57 -229h-176zM137 782v234h213v-234h-213z" />
<glyph unicode="&#x3c;" horiz-adv-x="1036" d="M123 412v186l790 422v-201l-612 -311l612 -318v-196z" />
<glyph unicode="=" horiz-adv-x="991" d="M102 449v178h787v-178h-787zM102 834v178h787v-178h-787z" />
<glyph unicode="&#x3e;" horiz-adv-x="1036" d="M123 -6v196l610 318l-610 311v201l790 -422v-186z" />
<glyph unicode="?" horiz-adv-x="1009" d="M123 1241l10 189h508q130 0 188 -57t58 -173v-282q0 -128 -103 -193l-145 -96q-88 -61 -88 -158v-123h-193v232q0 98 78 155l166 115q44 28 63 60.5t19 95.5v145q0 90 -92 90h-469zM348 0v213h217v-213h-217z" />
<glyph unicode="@" horiz-adv-x="2060" d="M133 -158v1338q0 113 65 181.5t181 68.5h1302q131 0 188.5 -61.5t57.5 -188.5v-928q0 -123 -56 -187.5t-190 -64.5h-360q-81 0 -119 68l-57 -68h-406q-64 0 -101.5 37t-37.5 102q0 21 2 27l72 688q7 78 54.5 122t117.5 44h358l43 -57l41 57h170l-82 -766q3 -75 72 -84 h192q82 0 82 92v895q0 90 -92 90h-1200q-92 0 -92 -90v-1292q0 -92 82 -92h903l-23 -183h-921q-134 0 -190 64.5t-56 187.5zM817 258q0 -68 68 -68h192q81 0 90 74l56 506q0 61 -74 61h-197q-76 0 -82 -69l-53 -492v-12z" />
<glyph unicode="A" horiz-adv-x="1183" d="M41 0l440 1432h213l449 -1432h-232l-118 383h-404l-119 -383h-229zM438 573h303l-151 514z" />
<glyph unicode="B" horiz-adv-x="1173" d="M164 0v1432h612q131 0 188.5 -61t57.5 -191v-293q0 -116 -86 -160q94 -34 94 -152v-323q0 -119 -62.5 -185.5t-183.5 -66.5h-620zM375 190h352q92 0 92 91v249q0 87 -82 93h-362v-433zM375 815h352q82 6 82 92v242q0 92 -92 92h-342v-426z" />
<glyph unicode="C" horiz-adv-x="1187" d="M143 252v930q0 83 37 151q24 46 78 72.5t131 26.5h641l12 -189h-596q-92 0 -92 -90v-870q0 -93 82 -93h608v-190h-655q-134 0 -190 64.5t-56 187.5z" />
<glyph unicode="D" horiz-adv-x="1298" d="M164 0v1432h747q244 0 244 -252v-928q0 -252 -244 -252h-747zM375 184h487q82 0 82 88v883q0 90 -92 90h-477v-1061z" />
<glyph unicode="E" horiz-adv-x="1024" d="M164 0v1432h733v-189h-522v-430h434v-192h-434v-428h526v-193h-737z" />
<glyph unicode="F" horiz-adv-x="1056" d="M164 0v1432h770v-189h-559v-436h446v-195h-446v-612h-211z" />
<glyph unicode="G" horiz-adv-x="1277" d="M143 252v930q0 33 5.5 64.5t22 66.5t43 60.5t71.5 42t104 16.5h658l12 -185h-613q-92 0 -92 -90v-881q0 -41 24.5 -66.5t65.5 -25.5h398q82 0 82 92v246h-228v207h439v-477q0 -252 -246 -252h-500q-124 0 -185 68t-61 184z" />
<glyph unicode="H" horiz-adv-x="1300" d="M164 0v1432h211v-619h549v619h213v-1432h-213v623h-549v-623h-211z" />
<glyph unicode="I" horiz-adv-x="731" d="M82 0v182h178v1067h-178v183h567v-183h-178v-1067h178v-182h-567z" />
<glyph unicode="J" horiz-adv-x="757" d="M82 182h217q82 0 82 90v977h-299v183h512v-1180q0 -123 -56 -187.5t-190 -64.5h-256z" />
<glyph unicode="K" horiz-adv-x="1187" d="M164 0v1432h211v-619h258q90 0 108 80l131 539h215l-137 -574q-21 -85 -76 -131q54 -48 80 -139l172 -588h-217l-168 543q-24 80 -102 80h-264v-623h-211z" />
<glyph unicode="L" horiz-adv-x="1003" d="M164 0v1432h211v-1242h526v-190h-737z" />
<glyph unicode="M" horiz-adv-x="1388" d="M164 0v1432h201l331 -738l316 738h213v-1432h-213v952l-228 -563h-176l-233 545v-934h-211z" />
<glyph unicode="N" horiz-adv-x="1300" d="M164 0v1432h207l553 -918v918h213v-1432h-187l-575 977v-977h-211z" />
<glyph unicode="O" horiz-adv-x="1277" d="M143 250v932q0 122 62.5 186t183.5 64h500q246 0 246 -250v-932q0 -250 -246 -250h-500q-121 0 -183.5 64t-62.5 186zM354 274q0 -39 24.5 -64.5t67.5 -25.5h385q93 0 93 90v883q0 90 -93 90h-385q-43 0 -67.5 -25.5t-24.5 -64.5v-883z" />
<glyph unicode="P" horiz-adv-x="1181" d="M164 0v1432h629q134 0 189.5 -54t55.5 -178v-401q0 -242 -245 -242h-418v-557h-211zM375 748h358q92 0 92 90v311q0 92 -92 92h-358v-493z" />
<glyph unicode="Q" horiz-adv-x="1277" d="M143 250v932q0 122 62.5 186t183.5 64h500q246 0 246 -250v-932q0 -54 -9 -88l240 -275l-248 -26l-143 155q-43 -16 -113 -16h-473q-121 0 -183.5 64t-62.5 186zM354 274q0 -39 24.5 -64.5t67.5 -25.5h385q93 0 93 90v883q0 90 -93 90h-385q-43 0 -67.5 -25.5 t-24.5 -64.5v-883z" />
<glyph unicode="R" horiz-adv-x="1202" d="M164 0v1432h649q246 0 246 -244v-369q0 -53 -22 -96.5t-48 -58.5l-22 -13q7 -2 20 -12q15 -10 37 -49.5t29 -85.5l67 -504h-219l-65 459q-12 90 -103 90h-358v-549h-211zM375 739h373q41 0 66.5 28.5t25.5 68.5v311q0 94 -92 94h-373v-502z" />
<glyph unicode="S" d="M127 842v424q0 78 42 122t112 44h604l12 -197h-481q-76 0 -76 -70v-204q0 -63 68 -84l372 -86q154 -35 154 -175v-450q0 -78 -42 -122t-112 -44h-635l-12 197h512q76 0 76 69v230q0 67 -66 88l-374 84q-154 35 -154 174z" />
<glyph unicode="T" horiz-adv-x="1089" d="M82 1249v183h926v-183h-359v-1249h-211v1249h-356z" />
<glyph unicode="U" horiz-adv-x="1300" d="M164 252v1180h211v-1149q0 -93 82 -93h383q82 0 82 93v1149h215v-1180q0 -252 -248 -252h-479q-134 0 -190 64.5t-56 187.5z" />
<glyph unicode="V" horiz-adv-x="1093" d="M61 1432h220l264 -1053l270 1053h217l-381 -1432h-227z" />
<glyph unicode="W" horiz-adv-x="1765" d="M61 1432h220l258 -1033l235 1033h219l262 -1033l232 1033h217l-342 -1432h-227l-256 1010l-234 -1010h-227z" />
<glyph unicode="X" horiz-adv-x="1093" d="M86 1432h246l217 -465l221 465h231l-335 -713l340 -719h-244l-219 465l-224 -465h-231l338 711z" />
<glyph unicode="Y" horiz-adv-x="1140" d="M61 1432h244l258 -535l273 535h243l-413 -793v-639h-207v639z" />
<glyph unicode="Z" horiz-adv-x="983" d="M61 0v162l596 1081h-561l13 189h804v-172l-589 -1070h585l-12 -190h-836z" />
<glyph unicode="[" horiz-adv-x="661" d="M143 -471v2111h437v-190h-234v-1731h234v-190h-437z" />
<glyph unicode="\" horiz-adv-x="714" d="M-109 1432h197l655 -1903h-198z" />
<glyph unicode="]" horiz-adv-x="661" d="M82 -281h233v1731h-233v190h436v-2111h-436v190z" />
<glyph unicode="^" horiz-adv-x="1153" d="M104 0l383 748h199l377 -748h-213l-264 573l-283 -573h-199z" />
<glyph unicode="_" horiz-adv-x="794" d="M102 -285h590v-186h-590v186z" />
<glyph unicode="`" horiz-adv-x="493" d="M80 1436h213l106 -256h-172z" />
<glyph unicode="a" horiz-adv-x="1034" d="M102 211v141q0 95 62.5 158t177.5 70l340 22v141q0 82 -78 82h-446l10 195h567q74 0 115 -45.5t41 -120.5v-854h-148l-47 51l-49 -51h-344q-201 0 -201 211zM313 279q0 -86 86 -86h203q80 0 80 92v145l-289 -20q-80 -6 -80 -93v-38z" />
<glyph unicode="b" horiz-adv-x="1085" d="M143 0v1430l213 16v-479l47 53h347q99 0 156 -57t57 -150v-606q0 -91 -56.5 -149t-158.5 -58h-349l-45 47l-51 -47h-160zM352 279q0 -91 82 -91h244q82 0 82 91v460q0 90 -80 90h-244q-84 0 -84 -90v-460z" />
<glyph unicode="c" horiz-adv-x="931" d="M123 190v637q0 90 51 141.5t139 51.5h484l12 -197h-395q-37 0 -58.5 -19.5t-21.5 -51.5v-473q0 -82 80 -82h395l-12 -197h-484q-90 0 -140 51.5t-50 138.5z" />
<glyph unicode="d" horiz-adv-x="1081" d="M123 207v606q0 94 58 150.5t157 56.5h342l53 -57v467l205 16v-1446h-154l-49 47l-45 -47h-352q-103 0 -159 57t-56 150zM326 279q0 -91 82 -91h243q82 0 82 91v460q0 90 -80 90h-243q-84 0 -84 -90v-460z" />
<glyph unicode="e" horiz-adv-x="1019" d="M123 207v606q0 93 57 150t156 57h387q101 0 158 -56.5t57 -150.5v-211q0 -99 -53 -151t-150 -52h-346l-63 47v-167q0 -91 84 -91h493l-12 -188h-553q-103 0 -159 56t-56 151zM326 584h336q71 0 71 71v90q0 84 -82 84h-243q-82 0 -82 -79v-166z" />
<glyph unicode="f" horiz-adv-x="681" d="M20 827v193h185v213q0 95 52.5 151t152.5 56h219l12 -191h-141q-82 0 -82 -90v-139h221v-193h-223v-827h-211v827h-185z" />
<glyph unicode="g" horiz-adv-x="1083" d="M123 201v616q0 100 60 151.5t167 51.5h332l47 -51l53 51h158v-1284q0 -93 -56 -150t-157 -57h-559l-10 197h473q57 0 77.5 19.5t20.5 70.5v233l-49 -49h-332q-109 0 -167 52t-58 149zM326 279q0 -91 82 -91h243q82 0 82 91v460q0 90 -80 90h-243q-84 0 -84 -90v-460z" />
<glyph unicode="h" horiz-adv-x="1091" d="M143 0v1430l209 16v-479l51 53h392q70 0 111.5 -44t41.5 -122v-854h-211v735q0 88 -86 88h-215q-82 0 -82 -104v-719h-211z" />
<glyph unicode="i" horiz-adv-x="495" d="M143 0v1020h203v-1020h-203zM143 1141v213h209v-213h-209z" />
<glyph unicode="j" horiz-adv-x="491" d="M-31 -283h88q86 0 86 80v1223h203v-1284q0 -95 -54.5 -151t-154.5 -56h-157zM143 1141v213h209v-213h-209z" />
<glyph unicode="k" horiz-adv-x="1009" d="M143 0v1430l211 16v-842h193q93 0 108 80l68 336h211l-100 -475l-43 -39l45 -41l112 -465h-211l-82 328q-21 80 -102 80h-199v-408h-211z" />
<glyph unicode="l" horiz-adv-x="489" d="M143 0v1430l213 16v-1446h-213z" />
<glyph unicode="m" horiz-adv-x="1617" d="M143 0v1020h158l51 -47l45 47h416l51 -47l45 47h412q70 0 112 -44t42 -122v-854h-213v743q0 80 -76 80h-189q-82 0 -82 -82v-741h-213v743q0 80 -75 80h-191q-82 0 -82 -88v-735h-211z" />
<glyph unicode="n" horiz-adv-x="1091" d="M143 0v1020h158l51 -47l45 47h398q70 0 111.5 -44t41.5 -122v-854h-213v748q0 79 -76 79h-223q-82 0 -82 -88v-739h-211z" />
<glyph unicode="o" d="M123 207v606q0 93 56 150t157 57h389q101 0 157 -57t56 -150v-606q0 -93 -56 -150t-157 -57h-389q-101 0 -157 57t-56 150zM326 279q0 -91 82 -91h243q82 0 82 91v460q0 90 -80 90h-243q-84 0 -84 -90v-460z" />
<glyph unicode="p" horiz-adv-x="1044" d="M143 -471v1491h160l53 -53l45 53h347q99 0 157 -57t58 -150v-606q0 -91 -56 -149t-157 -58h-349l-45 45v-496zM352 279q0 -91 82 -91h244q82 0 82 91v460q0 90 -80 90h-244q-84 0 -84 -90v-460z" />
<glyph unicode="q" horiz-adv-x="1040" d="M123 207v606q0 96 57 151.5t156 55.5h354l49 -47l47 47h152v-1471l-205 -20v516l-43 -45h-352q-99 0 -157 55t-58 152zM326 279q0 -91 82 -91h243q82 0 82 91v460q0 90 -80 90h-243q-84 0 -84 -90v-460z" />
<glyph unicode="r" horiz-adv-x="708" d="M143 0v1020h158l51 -47l45 47h250l-29 -205h-182q-82 0 -82 -88v-727h-211z" />
<glyph unicode="s" horiz-adv-x="905" d="M102 190h426q72 0 72 66v41q0 62 -74 80l-262 65q-79 20 -116 57t-37 109v246q0 78 41.5 122t111.5 44h506l12 -195h-391q-76 0 -76 -65v-49q0 -54 66 -72l268 -70q83 -24 118.5 -61.5t35.5 -112.5v-229q0 -78 -42 -122t-112 -44h-534z" />
<glyph unicode="t" horiz-adv-x="710" d="M20 827v193h181v199l211 16v-215h237v-193h-237v-551q0 -90 86 -90h139l-12 -186h-183q-241 0 -241 207v620h-181z" />
<glyph unicode="u" horiz-adv-x="1083" d="M143 166v854h213v-748q0 -79 76 -79h215q82 0 82 88v739h211v-1020h-158l-51 47l-45 -47h-389q-70 0 -112 44t-42 122z" />
<glyph unicode="v" horiz-adv-x="894" d="M41 1020h213l203 -690l194 690h203l-307 -1020h-197z" />
<glyph unicode="w" horiz-adv-x="1441" d="M41 1020h211l186 -686l178 686h211l185 -682l184 682h205l-295 -1020h-197l-188 686l-189 -686h-196z" />
<glyph unicode="x" horiz-adv-x="925" d="M59 1020h234l170 -309l170 309h219l-281 -502l293 -518h-223l-182 317l-178 -317h-218l287 510z" />
<glyph unicode="y" horiz-adv-x="1083" d="M143 166v854h213v-748q0 -79 76 -79h215q40 0 61 24t21 62v741h211v-1284q0 -92 -59 -149.5t-162 -57.5h-531l-10 197h469q82 0 82 90v233l-47 -49h-383q-70 0 -113 44t-43 122z" />
<glyph unicode="z" horiz-adv-x="901" d="M82 0v164l450 663h-434l13 193h690v-172l-445 -664h463l-12 -184h-725z" />
<glyph unicode="{" horiz-adv-x="772" d="M82 461v190h90q82 0 82 92v646q0 123 56 187t190 64h190v-190h-149q-82 0 -82 -92v-631q0 -118 -66 -172q66 -57 66 -172v-610q0 -92 82 -92h149v-191h-190q-134 0 -190 64.5t-56 187.5v627q0 92 -82 92h-90z" />
<glyph unicode="|" horiz-adv-x="477" d="M143 -471v1901h203v-1901h-203z" />
<glyph unicode="}" horiz-adv-x="772" d="M82 -319h149q82 0 82 92v610q0 115 66 172q-66 57 -66 172v631q0 92 -82 92h-149v190h160q155 0 215.5 -61t60.5 -190v-646q0 -92 82 -92h90v-190h-90q-82 0 -82 -92v-627q0 -131 -62 -191.5t-220 -60.5h-154v191z" />
<glyph unicode="~" horiz-adv-x="987" d="M102 610l146 219h117l307 -53l51 62h162l-144 -224h-133l-289 50l-45 -54h-172z" />
<glyph unicode="&#xa1;" horiz-adv-x="464" d="M123 -414l24 1090h170l25 -1090h-219zM123 803v213h217v-213h-217z" />
<glyph unicode="&#xa2;" horiz-adv-x="993" d="M123 166v686q0 78 41.5 122t111.5 44h162v184h189v-184h231l12 -197h-460q-76 0 -76 -69v-486q0 -69 76 -69h460l-12 -197h-231v-184h-189v184h-162q-70 0 -111.5 44t-41.5 122z" />
<glyph unicode="&#xa3;" horiz-adv-x="1144" d="M123 0v197h149l23 417h-170l16 183h158l25 467q4 79 44.5 122.5t108.5 43.5h518l13 -197h-396q-69 0 -75 -70l-23 -366h440l-16 -183h-428l-23 -417h535v-197h-899z" />
<glyph unicode="&#xa4;" horiz-adv-x="1298" d="M102 322l154 149q-8 27 -8 74v399q0 38 6 72l-150 145l140 144l149 -146q33 10 68 10h385q28 0 61 -10l148 146l139 -144l-143 -141q8 -33 8 -57v-422q0 -43 -10 -76l147 -148l-139 -143l-148 150q-31 -7 -63 -7h-385q-43 0 -70 9l-149 -148zM436 596q0 -90 82 -90h270 q82 0 82 90v293q0 90 -82 90h-270q-82 0 -82 -90v-293z" />
<glyph unicode="&#xa5;" horiz-adv-x="1142" d="M61 1430h244l258 -472l273 472h245l-323 -543h176v-148h-266v-147h266v-148h-266v-444h-215v444h-275v148h275v147h-275v148h193z" />
<glyph unicode="&#xa6;" horiz-adv-x="487" d="M137 352h213l-4 -823h-209v823zM137 623v817h213l-4 -817h-209z" />
<glyph unicode="&#xa7;" horiz-adv-x="1153" d="M143 365v288q0 49 29.5 85t73.5 42q-44 11 -73.5 49.5t-29.5 92.5v344q0 78 42 122t112 44h655l13 -205h-549q-76 0 -76 -70v-127q0 -74 76 -98l430 -135q164 -62 164 -203v-295q0 -103 -82 -127q82 -37 82 -137v-340q0 -78 -42 -122t-112 -44h-688l-12 203h581 q76 0 76 69v136q0 73 -76 94l-440 127q-154 53 -154 207zM340 438q0 -39 18.5 -59.5t63.5 -38.5l315 -94q76 0 76 69v217q0 66 -76 93l-321 92q-76 0 -76 -70v-209z" />
<glyph unicode="&#xa8;" horiz-adv-x="679" d="M96 1247v183h180v-183h-180zM416 1247v183h182v-183h-182z" />
<glyph unicode="&#xa9;" horiz-adv-x="1581" d="M123 252v930q0 83 37 151q24 46 78 72.5t131 26.5h843q77 0 131 -26.5t78 -72.5q37 -68 37 -151v-930q0 -123 -56 -187.5t-190 -64.5h-843q-134 0 -190 64.5t-56 187.5zM303 266q0 -92 82 -92h809q82 0 82 92v901q0 90 -92 90h-789q-92 0 -92 -90v-901zM522 506v424 q0 78 42 122t112 44h356l12 -183h-264q-75 0 -75 -69v-252q0 -70 75 -70h264l-12 -182h-356q-70 0 -112 44t-42 122z" />
<glyph unicode="&#xaa;" horiz-adv-x="780" d="M123 928v84q0 142 149 151l244 15v65q0 45 -45 45h-315l6 142h352q66 0 104.5 -38.5t38.5 -101.5v-506h-102l-23 29l-24 -29h-248q-66 0 -101.5 38.5t-35.5 105.5zM143 496v157h502v-157h-502zM264 958q0 -40 47 -40h166q39 0 39 45v86l-207 -11q-45 -3 -45 -49v-31z" />
<glyph unicode="&#xab;" horiz-adv-x="1071" d="M102 422v166l459 432v-254l-274 -258l274 -264v-250zM510 422v166l459 432v-254l-275 -258l275 -264v-250z" />
<glyph unicode="&#xac;" horiz-adv-x="1095" d="M123 752v180h848l2 -443h-180v263h-670z" />
<glyph unicode="&#xad;" horiz-adv-x="712" d="M82 403v177h549v-177h-549z" />
<glyph unicode="&#xae;" horiz-adv-x="1581" d="M123 252v930q0 83 37 151q24 46 78 72.5t131 26.5h843q77 0 131 -26.5t78 -72.5q37 -68 37 -151v-930q0 -123 -56 -187.5t-190 -64.5h-843q-134 0 -190 64.5t-56 187.5zM303 266q0 -92 82 -92h809q82 0 82 92v901q0 90 -92 90h-789q-92 0 -92 -90v-901zM520 334v768h393 q134 0 134 -135v-201q0 -28 -14 -51.5t-29 -30.5l-15 -8q33 -14 45 -80l51 -262h-174l-49 223q-9 47 -53 47h-117v-270h-172zM690 764h135q52 0 52 45v94q0 49 -52 49h-135v-188z" />
<glyph unicode="&#xaf;" horiz-adv-x="643" d="M88 1268v162h469v-162h-469z" />
<glyph unicode="&#xb0;" horiz-adv-x="681" d="M102 1081v222q0 58 34.5 93.5t96.5 35.5h213q64 0 99 -35t35 -94v-222q0 -59 -35 -94t-99 -35h-213q-62 0 -96.5 35.5t-34.5 93.5zM252 1163q0 -59 53 -59h72q53 0 53 59v60q0 57 -53 57h-70q-55 0 -55 -55v-62z" />
<glyph unicode="&#xb1;" horiz-adv-x="991" d="M102 0v168h787v-168h-787zM102 641v178h304v326h178v-326h305v-178h-305v-317h-178v317h-304z" />
<glyph unicode="&#xb2;" horiz-adv-x="790" d="M102 621v147l377 371q29 29 29 75v17q0 49 -55 49h-328l8 152h418q56 0 87.5 -30.5t31.5 -82.5v-94q0 -102 -70 -187l-276 -268h364l-8 -149h-578z" />
<glyph unicode="&#xb3;" horiz-adv-x="706" d="M102 621v149h287q60 0 60 59v62q0 54 -54 57h-254v150h254q54 3 54 57v66q0 59 -60 59h-287l7 152h340q155 0 155 -140v-159q-1 -43 -16 -72.5t-31 -36.5l-12 -4q2 -1 6 -2.5t14.5 -9.5t18 -19t14 -31t6.5 -45v-135q0 -73 -40.5 -115t-114.5 -42h-347z" />
<glyph unicode="&#xb4;" horiz-adv-x="487" d="M80 1212l106 218h213l-147 -218h-172z" />
<glyph unicode="&#xb5;" horiz-adv-x="1042" d="M143 -471v1491h213v-739q0 -88 86 -88h205q82 0 82 88v739h211v-1020h-158l-51 47l-45 -47h-330v-451z" />
<glyph unicode="&#xb6;" horiz-adv-x="1288" d="M123 1077v178q0 78 45 127.5t127 49.5h928v-191h-172v-1241h-187v1241h-209v-1241h-184v901h-176q-77 0 -124.5 46.5t-47.5 129.5z" />
<glyph unicode="&#xb7;" horiz-adv-x="446" d="M119 399v222h207v-222h-207z" />
<glyph unicode="&#xb8;" horiz-adv-x="516" d="M102 -358h166q12 0 22.5 8t10.5 20v23q0 39 -33 39h-147v110l90 158h131l-92 -156h61q45 0 74 -28t29 -72v-119q0 -46 -26.5 -71t-70.5 -25h-215v113z" />
<glyph unicode="&#xb9;" horiz-adv-x="636" d="M102 621v135h154v524l-141 -12v137l307 27v-676h153v-135h-473z" />
<glyph unicode="&#xba;" horiz-adv-x="782" d="M123 924v366q0 63 38.5 101.5t106.5 38.5h248q68 0 105.5 -38.5t37.5 -101.5v-366q0 -62 -38 -101t-105 -39h-248q-67 0 -106 39t-39 101zM152 496v157h481v-157h-481zM270 973q0 -49 41 -49h162q39 0 39 49v270q0 45 -39 45h-162q-41 0 -41 -45v-270z" />
<glyph unicode="&#xbb;" horiz-adv-x="1071" d="M102 -6v250l275 264l-275 258v254l459 -432v-166zM510 -6v250l274 264l-274 258v254l459 -432v-166z" />
<glyph unicode="&#xbc;" horiz-adv-x="1626" d="M102 621v135h154v524l-141 -12v137l307 27v-676h153v-135h-473zM471 0l518 1432h176l-516 -1432h-178zM879 176v135l358 500h162v-496h125v-139h-125v-176h-156v176h-364zM1032 313h211v281z" />
<glyph unicode="&#xbd;" horiz-adv-x="1691" d="M102 621v135h154v524l-141 -12v137l307 27v-676h153v-135h-473zM471 0l518 1432h176l-516 -1432h-178zM1004 0v147l376 371q29 29 29 76v16q0 49 -55 49h-328l8 152h418q56 0 87.5 -30.5t31.5 -82.5v-94q0 -101 -70 -186l-276 -268h364l-8 -150h-577z" />
<glyph unicode="&#xbe;" horiz-adv-x="1626" d="M102 621v149h287q60 0 60 59v62q0 54 -54 57h-254v150h254q54 3 54 57v66q0 59 -60 59h-287l7 152h340q155 0 155 -140v-159q-1 -43 -16 -72.5t-31 -36.5l-12 -4q2 -1 6 -2.5t14.5 -9.5t18 -19t14 -31t6.5 -45v-135q0 -73 -40.5 -115t-114.5 -42h-347zM455 0l518 1432 h176l-516 -1432h-178zM879 176v135l358 500h162v-496h125v-139h-125v-176h-156v176h-364zM1032 313h211v281z" />
<glyph unicode="&#xbf;" horiz-adv-x="1009" d="M123 102q0 128 102 193l146 96q88 61 88 158v123h192v-232q0 -98 -78 -155l-165 -115q-44 -28 -63 -60.5t-19 -95.5v-147q0 -90 92 -90h469l-10 -189h-508q-130 0 -188 57t-58 173v284zM444 807v213h218v-213h-218z" />
<glyph unicode="&#xc0;" horiz-adv-x="1183" d="M41 0l440 1432h213l449 -1432h-232l-118 383h-404l-119 -383h-229zM373 1759h213l86 -235h-172zM438 573h303l-151 514z" />
<glyph unicode="&#xc1;" horiz-adv-x="1183" d="M41 0l440 1432h213l449 -1432h-232l-118 383h-404l-119 -383h-229zM438 573h303l-151 514zM496 1524l86 235h213l-127 -235h-172z" />
<glyph unicode="&#xc2;" horiz-adv-x="1183" d="M41 0l440 1432h213l449 -1432h-232l-118 383h-404l-119 -383h-229zM336 1524l158 235h211l161 -235h-204l-66 100l-68 -100h-192zM438 573h303l-151 514z" />
<glyph unicode="&#xc3;" horiz-adv-x="1183" d="M41 0l440 1432h213l449 -1432h-232l-118 383h-404l-119 -383h-229zM283 1526l147 231h117l184 -57l45 57h152l-144 -229h-133l-170 59l-43 -61h-155zM438 573h303l-151 514z" />
<glyph unicode="&#xc4;" horiz-adv-x="1183" d="M41 0l440 1432h213l449 -1432h-232l-118 383h-404l-119 -383h-229zM340 1548v187h186v-187h-186zM438 573h303l-151 514zM645 1548v187h186v-187h-186z" />
<glyph unicode="&#xc5;" horiz-adv-x="1122" d="M41 0l428 1391q-39 36 -39 102v31q0 67 39 106t111 39h12q72 0 111.5 -39t39.5 -106v-31q0 -68 -38 -100l438 -1393h-232l-118 383h-404l-119 -383h-229zM438 573h303l-151 512zM518 1501q0 -65 57 -65h21q57 0 57 65v15q0 65 -57 65h-21q-57 0 -57 -65v-15z" />
<glyph unicode="&#xc6;" horiz-adv-x="1562" d="M41 0l645 1432h754v-189h-520v-430h432v-192h-432v-428h520v-193h-733v399h-256l-172 -399h-238zM526 594h181v430z" />
<glyph unicode="&#xc7;" horiz-adv-x="1187" d="M143 252v930q0 83 37 151q24 46 78 72.5t131 26.5h641l12 -189h-596q-92 0 -92 -90v-870q0 -93 82 -93h608v-190h-292l-93 -156h62q44 0 73 -28t29 -72v-119q0 -46 -26 -71t-70 -25h-215v113h166q12 0 22.5 8t10.5 20v23q0 39 -33 39h-148v110l91 158h-232 q-134 0 -190 64.5t-56 187.5z" />
<glyph unicode="&#xc8;" horiz-adv-x="1024" d="M164 0v1432h733v-189h-522v-430h434v-192h-434v-428h526v-193h-737zM332 1759h213l86 -235h-172z" />
<glyph unicode="&#xc9;" horiz-adv-x="1024" d="M164 0v1432h733v-189h-522v-430h434v-192h-434v-428h526v-193h-737zM434 1524l86 235h213l-127 -235h-172z" />
<glyph unicode="&#xca;" horiz-adv-x="1024" d="M164 0v1432h733v-189h-522v-430h434v-192h-434v-428h526v-193h-737zM254 1524l158 235h211l161 -235h-204l-66 100l-68 -100h-192z" />
<glyph unicode="&#xcb;" horiz-adv-x="1024" d="M164 0v1432h733v-189h-522v-430h434v-192h-434v-428h526v-193h-737zM279 1548v187h186v-187h-186zM584 1548v187h186v-187h-186z" />
<glyph unicode="&#xcc;" horiz-adv-x="731" d="M82 0v182h178v1067h-178v183h567v-183h-178v-1067h178v-182h-567zM168 1759h213l86 -235h-172z" />
<glyph unicode="&#xcd;" horiz-adv-x="731" d="M82 0v182h178v1067h-178v183h567v-183h-178v-1067h178v-182h-567zM270 1524l86 235h213l-127 -235h-172z" />
<glyph unicode="&#xce;" horiz-adv-x="731" d="M82 0v182h178v1067h-178v183h567v-183h-178v-1067h178v-182h-567zM94 1524l158 235h211l162 -235h-205l-66 100l-67 -100h-193z" />
<glyph unicode="&#xcf;" horiz-adv-x="731" d="M82 0v182h178v1067h-178v183h567v-183h-178v-1067h178v-182h-567zM119 1548v187h186v-187h-186zM424 1548v187h186v-187h-186z" />
<glyph unicode="&#xd0;" horiz-adv-x="1298" d="M41 625v192h123v615h747q244 0 244 -252v-928q0 -252 -244 -252h-747v625h-123zM375 184h487q82 0 82 88v883q0 90 -92 90h-477v-428h196v-192h-196v-441z" />
<glyph unicode="&#xd1;" horiz-adv-x="1300" d="M164 0v1432h207l553 -918v918h213v-1432h-187l-575 977v-977h-211zM344 1526l148 231h116l185 -57l45 57h151l-143 -229h-133l-170 59l-43 -61h-156z" />
<glyph unicode="&#xd2;" horiz-adv-x="1277" d="M143 250v932q0 122 62.5 186t183.5 64h500q246 0 246 -250v-932q0 -250 -246 -250h-500q-121 0 -183.5 64t-62.5 186zM354 274q0 -39 24.5 -64.5t67.5 -25.5h385q93 0 93 90v883q0 90 -93 90h-385q-43 0 -67.5 -25.5t-24.5 -64.5v-883zM434 1759h213l86 -235h-172z" />
<glyph unicode="&#xd3;" horiz-adv-x="1277" d="M143 250v932q0 122 62.5 186t183.5 64h500q246 0 246 -250v-932q0 -250 -246 -250h-500q-121 0 -183.5 64t-62.5 186zM354 274q0 -39 24.5 -64.5t67.5 -25.5h385q93 0 93 90v883q0 90 -93 90h-385q-43 0 -67.5 -25.5t-24.5 -64.5v-883zM537 1524l86 235h213l-127 -235 h-172z" />
<glyph unicode="&#xd4;" horiz-adv-x="1277" d="M143 250v932q0 122 62.5 186t183.5 64h500q246 0 246 -250v-932q0 -250 -246 -250h-500q-121 0 -183.5 64t-62.5 186zM354 274q0 -39 24.5 -64.5t67.5 -25.5h385q93 0 93 90v883q0 90 -93 90h-385q-43 0 -67.5 -25.5t-24.5 -64.5v-883zM362 1524l158 235h211l162 -235 h-205l-65 100l-68 -100h-193z" />
<glyph unicode="&#xd5;" horiz-adv-x="1277" d="M143 250v932q0 122 62.5 186t183.5 64h500q246 0 246 -250v-932q0 -250 -246 -250h-500q-121 0 -183.5 64t-62.5 186zM344 1526l148 231h116l185 -57l45 57h151l-143 -229h-133l-170 59l-43 -61h-156zM354 274q0 -39 24.5 -64.5t67.5 -25.5h385q93 0 93 90v883 q0 90 -93 90h-385q-43 0 -67.5 -25.5t-24.5 -64.5v-883z" />
<glyph unicode="&#xd6;" horiz-adv-x="1277" d="M143 250v932q0 122 62.5 186t183.5 64h500q246 0 246 -250v-932q0 -250 -246 -250h-500q-121 0 -183.5 64t-62.5 186zM354 274q0 -39 24.5 -64.5t67.5 -25.5h385q93 0 93 90v883q0 90 -93 90h-385q-43 0 -67.5 -25.5t-24.5 -64.5v-883zM381 1548v187h186v-187h-186z M686 1548v187h186v-187h-186z" />
<glyph unicode="&#xd7;" horiz-adv-x="892" d="M100 508l224 223l-218 213l127 127l216 -215l223 223l127 -125l-224 -223l213 -215l-124 -125l-215 213l-224 -223z" />
<glyph unicode="&#xd8;" horiz-adv-x="1277" d="M94 -6l76 123q-27 53 -27 133v932q0 122 62.5 186t183.5 64h500q75 0 139 -31l59 96l78 -53l-67 -109q37 -61 37 -153v-932q0 -250 -246 -250h-500q-97 0 -153 39l-62 -100zM354 514q0 -54 6 -100l549 796q-21 37 -78 37h-385q-43 0 -67.5 -25.5t-24.5 -64.5v-643z M360 238q19 -54 86 -54h385q93 0 93 90v676q0 48 -6 101z" />
<glyph unicode="&#xd9;" horiz-adv-x="1300" d="M164 252v1180h211v-1149q0 -93 82 -93h383q82 0 82 93v1149h215v-1180q0 -252 -248 -252h-479q-134 0 -190 64.5t-56 187.5zM455 1759h213l86 -235h-172z" />
<glyph unicode="&#xda;" horiz-adv-x="1300" d="M164 252v1180h211v-1149q0 -93 82 -93h383q82 0 82 93v1149h215v-1180q0 -252 -248 -252h-479q-134 0 -190 64.5t-56 187.5zM537 1524l86 235h213l-127 -235h-172z" />
<glyph unicode="&#xdb;" horiz-adv-x="1300" d="M164 252v1180h211v-1149q0 -93 82 -93h383q82 0 82 93v1149h215v-1180q0 -252 -248 -252h-479q-134 0 -190 64.5t-56 187.5zM377 1524l158 235h210l162 -235h-205l-65 100l-68 -100h-192z" />
<glyph unicode="&#xdc;" horiz-adv-x="1300" d="M164 252v1180h211v-1149q0 -93 82 -93h383q82 0 82 93v1149h215v-1180q0 -252 -248 -252h-479q-134 0 -190 64.5t-56 187.5zM381 1548v187h186v-187h-186zM686 1548v187h186v-187h-186z" />
<glyph unicode="&#xdd;" horiz-adv-x="1140" d="M61 1432h244l258 -535l273 535h243l-413 -793v-639h-207v639zM459 1522l104 215h215l-151 -215h-168z" />
<glyph unicode="&#xde;" horiz-adv-x="1185" d="M164 0v1430h211v-269h430q116 0 181 -69.5t65 -182.5v-391q0 -252 -246 -252h-430v-266h-211zM375 457h373q92 0 92 90v334q0 92 -92 92h-373v-516z" />
<glyph unicode="&#xdf;" horiz-adv-x="1181" d="M143 0v1239q0 91 53 149t160 58h461q100 0 157.5 -59t57.5 -152v-246l-244 -184l156 -123q62 -48 88.5 -97.5t26.5 -123.5v-295q0 -78 -42 -122t-112 -44h-336l-12 190h213q76 0 76 70v162q0 71 -62 121l-186 149v182l221 181v110q0 90 -84 90h-293q-88 0 -88 -90v-1165 h-211z" />
<glyph unicode="&#xe0;" horiz-adv-x="1034" d="M102 211v141q0 95 62.5 158t177.5 70l340 22v141q0 82 -78 82h-446l10 195h567q74 0 115 -45.5t41 -120.5v-854h-148l-47 51l-49 -51h-344q-201 0 -201 211zM287 1374h213l106 -256h-172zM313 279q0 -86 86 -86h203q80 0 80 92v145l-289 -20q-80 -6 -80 -93v-38z" />
<glyph unicode="&#xe1;" horiz-adv-x="1034" d="M102 211v141q0 95 62.5 158t177.5 70l340 22v141q0 82 -78 82h-446l10 195h567q74 0 115 -45.5t41 -120.5v-854h-148l-47 51l-49 -51h-344q-201 0 -201 211zM313 279q0 -86 86 -86h203q80 0 80 92v145l-289 -20q-80 -6 -80 -93v-38zM369 1118l106 256h213l-147 -256h-172 z" />
<glyph unicode="&#xe2;" horiz-adv-x="1034" d="M102 211v141q0 95 62.5 158t177.5 70l340 22v141q0 82 -78 82h-446l10 195h567q74 0 115 -45.5t41 -120.5v-854h-148l-47 51l-49 -51h-344q-201 0 -201 211zM254 1118l158 256h211l161 -256h-204l-66 105l-68 -105h-192zM313 279q0 -86 86 -86h203q80 0 80 92v145 l-289 -20q-80 -6 -80 -93v-38z" />
<glyph unicode="&#xe3;" horiz-adv-x="1034" d="M102 211v141q0 95 62.5 158t177.5 70l340 22v141q0 82 -78 82h-446l10 195h567q74 0 115 -45.5t41 -120.5v-854h-148l-47 51l-49 -51h-344q-201 0 -201 211zM221 1130l148 232h116l185 -57l45 57h151l-143 -229h-133l-170 59l-43 -62h-156zM313 279q0 -86 86 -86h203 q80 0 80 92v145l-289 -20q-80 -6 -80 -93v-38z" />
<glyph unicode="&#xe4;" horiz-adv-x="1034" d="M102 211v141q0 95 62.5 158t177.5 70l340 22v141q0 82 -78 82h-446l10 195h567q74 0 115 -45.5t41 -120.5v-854h-148l-47 51l-49 -51h-344q-201 0 -201 211zM260 1157v182h180v-182h-180zM313 279q0 -86 86 -86h203q80 0 80 92v145l-289 -20q-80 -6 -80 -93v-38z M580 1157v182h182v-182h-182z" />
<glyph unicode="&#xe5;" horiz-adv-x="1034" d="M102 211v141q0 95 62.5 158t177.5 70l340 22v141q0 82 -78 82h-446l10 195h567q74 0 115 -45.5t41 -120.5v-854h-148l-47 51l-49 -51h-344q-201 0 -201 211zM313 279q0 -86 86 -86h203q80 0 80 92v145l-289 -20q-80 -6 -80 -93v-38zM340 1253v45q0 67 38.5 106.5 t110.5 39.5h27q72 0 112 -39.5t40 -106.5v-45q0 -65 -40 -105t-112 -40h-27q-71 0 -110 40t-39 105zM436 1264q0 -60 51 -60h31q51 0 51 60v24q0 32 -10.5 46t-40.5 14h-31q-51 0 -51 -60v-24z" />
<glyph unicode="&#xe6;" horiz-adv-x="1622" d="M102 211v141q0 201 199 213l381 23v160q0 77 -78 77h-446l10 195h475q69 0 139 -21q55 21 121 21h381q101 0 158 -58t57 -153v-207q0 -99 -53 -151t-150 -52h-344l-63 47v-170q0 -88 82 -88h493l-12 -188h-551q-82 0 -110 72q-25 -72 -111 -72h-377q-201 0 -201 211z M313 270q0 -77 86 -77h203q80 0 80 88v137l-289 -23q-80 -6 -80 -94v-31zM889 584h315q48 0 69 19t21 67v71q0 88 -82 88h-241q-82 0 -82 -79v-166z" />
<glyph unicode="&#xe7;" horiz-adv-x="931" d="M123 190v637q0 90 51 141.5t139 51.5h484l12 -197h-395q-37 0 -58.5 -19.5t-21.5 -51.5v-473q0 -82 80 -82h395l-12 -197h-209l-92 -156h61q44 0 73 -28t29 -72v-119q0 -46 -26 -71t-70 -25h-215v113h166q12 0 22.5 8t10.5 20v23q0 39 -33 39h-147v110l90 158h-144 q-90 0 -140 51.5t-50 138.5z" />
<glyph unicode="&#xe8;" d="M123 207v606q0 93 57 150t156 57h387q101 0 158 -56.5t57 -150.5v-211q0 -99 -53 -151t-150 -52h-346l-63 47v-167q0 -91 84 -91h493l-12 -188h-553q-103 0 -159 56t-56 151zM307 1374h213l107 -256h-172zM326 584h336q71 0 71 71v90q0 84 -82 84h-243q-82 0 -82 -79 v-166z" />
<glyph unicode="&#xe9;" d="M123 207v606q0 93 57 150t156 57h387q101 0 158 -56.5t57 -150.5v-211q0 -99 -53 -151t-150 -52h-346l-63 47v-167q0 -91 84 -91h493l-12 -188h-553q-103 0 -159 56t-56 151zM326 584h336q71 0 71 71v90q0 84 -82 84h-243q-82 0 -82 -79v-166zM430 1118l107 256h213 l-148 -256h-172z" />
<glyph unicode="&#xea;" d="M123 207v606q0 93 57 150t156 57h387q101 0 158 -56.5t57 -150.5v-211q0 -99 -53 -151t-150 -52h-346l-63 47v-167q0 -91 84 -91h493l-12 -188h-553q-103 0 -159 56t-56 151zM254 1118l158 256h211l161 -256h-204l-66 105l-68 -105h-192zM326 584h336q71 0 71 71v90 q0 84 -82 84h-243q-82 0 -82 -79v-166z" />
<glyph unicode="&#xeb;" d="M123 207v606q0 93 57 150t156 57h387q101 0 158 -56.5t57 -150.5v-211q0 -99 -53 -151t-150 -52h-346l-63 47v-167q0 -91 84 -91h493l-12 -188h-553q-103 0 -159 56t-56 151zM281 1157v182h180v-182h-180zM326 584h336q71 0 71 71v90q0 84 -82 84h-243q-82 0 -82 -79 v-166zM600 1157v182h182v-182h-182z" />
<glyph unicode="&#xec;" horiz-adv-x="489" d="M20 1374h213l107 -256h-172zM143 0v1020h203v-1020h-203z" />
<glyph unicode="&#xed;" horiz-adv-x="489" d="M143 0v1020h203v-1020h-203zM158 1118l106 256h213l-147 -256h-172z" />
<glyph unicode="&#xee;" horiz-adv-x="489" d="M-12 1118l157 256h211l162 -256h-205l-65 105l-68 -105h-192zM143 0v1020h203v-1020h-203z" />
<glyph unicode="&#xef;" horiz-adv-x="489" d="M-6 1157v182h180v-182h-180zM143 0v1020h203v-1020h-203zM313 1157v182h183v-182h-183z" />
<glyph unicode="&#xf0;" d="M123 207v606q0 93 56 150t157 57h321l70 -64v91q0 92 -72 133l-106 59l-66 -147l-145 63l72 158l-146 73l80 179l141 -68l70 145l141 -65l-73 -147l133 -76q98 -58 139 -129q43 -70 43 -207v-811q0 -93 -56 -150t-157 -57h-389q-101 0 -157 57t-56 150zM326 279 q0 -91 82 -91h241q84 0 84 91v460q0 90 -82 90h-243q-82 0 -82 -90v-460z" />
<glyph unicode="&#xf1;" horiz-adv-x="1091" d="M143 0v1020h158l51 -47l45 47h398q70 0 111.5 -44t41.5 -122v-854h-213v748q0 79 -76 79h-223q-82 0 -82 -88v-739h-211zM262 1130l148 232h116l185 -57l45 57h151l-143 -229h-133l-170 59l-43 -62h-156z" />
<glyph unicode="&#xf2;" d="M123 207v606q0 93 56 150t157 57h389q101 0 157 -57t56 -150v-606q0 -93 -56 -150t-157 -57h-389q-101 0 -157 57t-56 150zM326 279q0 -91 82 -91h243q82 0 82 91v460q0 90 -80 90h-243q-84 0 -84 -90v-460zM328 1374h213l106 -256h-172z" />
<glyph unicode="&#xf3;" d="M123 207v606q0 93 56 150t157 57h389q101 0 157 -57t56 -150v-606q0 -93 -56 -150t-157 -57h-389q-101 0 -157 57t-56 150zM326 279q0 -91 82 -91h243q82 0 82 91v460q0 90 -80 90h-243q-84 0 -84 -90v-460zM410 1118l106 256h213l-147 -256h-172z" />
<glyph unicode="&#xf4;" d="M123 207v606q0 93 56 150t157 57h389q101 0 157 -57t56 -150v-606q0 -93 -56 -150t-157 -57h-389q-101 0 -157 57t-56 150zM254 1118l158 256h211l161 -256h-204l-66 105l-68 -105h-192zM326 279q0 -91 82 -91h243q82 0 82 91v460q0 90 -80 90h-243q-84 0 -84 -90v-460z " />
<glyph unicode="&#xf5;" d="M123 207v606q0 93 56 150t157 57h389q101 0 157 -57t56 -150v-606q0 -93 -56 -150t-157 -57h-389q-101 0 -157 57t-56 150zM242 1130l147 232h117l184 -57l45 57h152l-144 -229h-133l-170 59l-43 -62h-155zM326 279q0 -91 82 -91h243q82 0 82 91v460q0 90 -80 90h-243 q-84 0 -84 -90v-460z" />
<glyph unicode="&#xf6;" d="M123 207v606q0 93 56 150t157 57h389q101 0 157 -57t56 -150v-606q0 -93 -56 -150t-157 -57h-389q-101 0 -157 57t-56 150zM264 1157v182h180v-182h-180zM326 279q0 -91 82 -91h243q82 0 82 91v460q0 90 -80 90h-243q-84 0 -84 -90v-460zM584 1157v182h182v-182h-182z " />
<glyph unicode="&#xf7;" horiz-adv-x="991" d="M102 641v178h787v-178h-787zM383 281v198h205v-198h-205zM383 977v199h205v-199h-205z" />
<glyph unicode="&#xf8;" d="M80 -8l74 98q-31 51 -31 117v606q0 93 56 150t157 57h389q46 0 92 -16l70 94l80 -54l-72 -98q43 -52 43 -133v-606q0 -93 -56 -150t-157 -57h-389q-67 0 -111 23l-63 -84zM326 444q0 -52 6 -102l362 479q-13 8 -41 8h-243q-84 0 -84 -90v-295zM350 205q24 -17 58 -17h243 q82 0 82 91v323q0 52 -6 105z" />
<glyph unicode="&#xf9;" horiz-adv-x="1083" d="M143 166v854h213v-748q0 -79 76 -79h215q82 0 82 88v739h211v-1020h-158l-51 47l-45 -47h-389q-70 0 -112 44t-42 122zM328 1374h213l106 -256h-172z" />
<glyph unicode="&#xfa;" horiz-adv-x="1083" d="M143 166v854h213v-748q0 -79 76 -79h215q82 0 82 88v739h211v-1020h-158l-51 47l-45 -47h-389q-70 0 -112 44t-42 122zM430 1118l107 256h213l-148 -256h-172z" />
<glyph unicode="&#xfb;" horiz-adv-x="1083" d="M143 166v854h213v-748q0 -79 76 -79h215q82 0 82 88v739h211v-1020h-158l-51 47l-45 -47h-389q-70 0 -112 44t-42 122zM274 1118l158 256h211l162 -256h-205l-65 105l-68 -105h-193z" />
<glyph unicode="&#xfc;" horiz-adv-x="1083" d="M143 166v854h213v-748q0 -79 76 -79h215q82 0 82 88v739h211v-1020h-158l-51 47l-45 -47h-389q-70 0 -112 44t-42 122zM281 1157v182h180v-182h-180zM600 1157v182h182v-182h-182z" />
<glyph unicode="&#xfd;" horiz-adv-x="1083" d="M143 166v854h213v-748q0 -79 76 -79h215q40 0 61 24t21 62v741h211v-1284q0 -92 -59 -149.5t-162 -57.5h-531l-10 197h469q82 0 82 90v233l-47 -49h-383q-70 0 -113 44t-43 122zM328 1374h213l106 -256h-172z" />
<glyph unicode="&#xfe;" horiz-adv-x="1085" d="M143 -471v1901l213 16v-479l47 53h347q99 0 156 -57t57 -150v-606q0 -91 -56.5 -149t-158.5 -58h-349l-43 45v-496zM356 279q0 -91 82 -91h240q82 0 82 91v460q0 90 -80 90h-240q-84 0 -84 -90v-460z" />
<glyph unicode="&#xff;" horiz-adv-x="1083" d="M143 166v854h213v-748q0 -79 76 -79h215q40 0 61 24t21 62v741h211v-1284q0 -92 -59 -149.5t-162 -57.5h-531l-10 197h469q82 0 82 90v233l-47 -49h-383q-70 0 -113 44t-43 122zM281 1157v182h180v-182h-180zM600 1157v182h182v-182h-182z" />
<glyph unicode="&#x152;" horiz-adv-x="1783" d="M143 250v932q0 112 60 181t186 69h1268v-189h-522v-430h434v-192h-434v-428h526v-193h-1272q-246 0 -246 250zM354 279q0 -42 23 -67.5t65 -25.5h482v1059h-478q-45 0 -68.5 -25t-23.5 -65v-876z" />
<glyph unicode="&#x153;" horiz-adv-x="1671" d="M123 207v606q0 93 56 150t157 57h389q58 0 113 -25q55 25 110 25h385q101 0 158 -56.5t57 -150.5v-211q0 -99 -52.5 -151t-149.5 -52h-347l-63 47v-178q0 -80 84 -80h493l-12 -188h-551q-60 0 -114 23q-54 -23 -111 -23h-389q-101 0 -157 57t-56 150zM326 279 q0 -91 82 -91h243q82 0 82 91v460q0 90 -80 90h-243q-84 0 -84 -90v-460zM936 584h336q71 0 71 71v90q0 84 -81 84h-244q-82 0 -82 -79v-166z" />
<glyph unicode="&#x178;" horiz-adv-x="1140" d="M61 1432h244l258 -535l273 535h243l-413 -793v-639h-207v639zM311 1530v182h181v-182h-181zM610 1530v182h183v-182h-183z" />
<glyph unicode="&#x2c6;" horiz-adv-x="702" d="M66 1176l157 256h211l162 -256h-205l-65 104l-68 -104h-192z" />
<glyph unicode="&#x2dc;" horiz-adv-x="825" d="M98 1206l148 232h116l185 -58l45 58h151l-143 -230h-133l-170 60l-43 -62h-156z" />
<glyph unicode="&#x2000;" horiz-adv-x="879" />
<glyph unicode="&#x2001;" horiz-adv-x="1759" />
<glyph unicode="&#x2002;" horiz-adv-x="879" />
<glyph unicode="&#x2003;" horiz-adv-x="1759" />
<glyph unicode="&#x2004;" horiz-adv-x="586" />
<glyph unicode="&#x2005;" horiz-adv-x="439" />
<glyph unicode="&#x2006;" horiz-adv-x="293" />
<glyph unicode="&#x2007;" horiz-adv-x="293" />
<glyph unicode="&#x2008;" horiz-adv-x="219" />
<glyph unicode="&#x2009;" horiz-adv-x="351" />
<glyph unicode="&#x200a;" horiz-adv-x="97" />
<glyph unicode="&#x2010;" horiz-adv-x="712" d="M82 403v177h549v-177h-549z" />
<glyph unicode="&#x2011;" horiz-adv-x="712" d="M82 403v177h549v-177h-549z" />
<glyph unicode="&#x2012;" horiz-adv-x="712" d="M82 403v177h549v-177h-549z" />
<glyph unicode="&#x2013;" horiz-adv-x="958" d="M41 408v170h877v-170h-877z" />
<glyph unicode="&#x2014;" horiz-adv-x="1511" d="M41 408v170h1429v-170h-1429z" />
<glyph unicode="&#x2018;" horiz-adv-x="425" d="M102 987v225l58 220h174l-60 -222h39v-223h-211z" />
<glyph unicode="&#x2019;" horiz-adv-x="425" d="M92 987l60 221h-39v224h211v-226l-58 -219h-174z" />
<glyph unicode="&#x201a;" horiz-adv-x="444" d="M109 -231l59 231h-39v231h213v-233l-57 -229h-176z" />
<glyph unicode="&#x201c;" horiz-adv-x="729" d="M102 987v225l58 220h174l-60 -222h39v-223h-211zM393 987v225l58 220h176l-60 -222h39v-223h-213z" />
<glyph unicode="&#x201d;" horiz-adv-x="729" d="M102 987l60 221h-39v224h211v-226l-58 -219h-174zM393 987l60 221h-39v224h213v-226l-58 -219h-176z" />
<glyph unicode="&#x201e;" horiz-adv-x="745" d="M109 -231l59 231h-39v231h213v-233l-57 -229h-176zM410 -231l59 231h-39v231h213v-233l-57 -229h-176z" />
<glyph unicode="&#x2022;" horiz-adv-x="555" d="M123 655v146q0 36 23 59t61 23h139q40 0 63 -23t23 -59v-146q0 -37 -22.5 -59.5t-63.5 -22.5h-139q-40 0 -62 22t-22 60z" />
<glyph unicode="&#x2026;" horiz-adv-x="1492" d="M109 0v231h213v-231h-213zM635 0v231h211v-231h-211zM1171 0v231h211v-231h-211z" />
<glyph unicode="&#x202f;" horiz-adv-x="351" />
<glyph unicode="&#x2039;" horiz-adv-x="694" d="M102 426v158l490 436v-246l-307 -266l307 -272v-242z" />
<glyph unicode="&#x203a;" horiz-adv-x="694" d="M102 -6v242l306 272l-306 266v246l490 -436v-158z" />
<glyph unicode="&#x205f;" horiz-adv-x="439" />
<glyph unicode="&#x20ac;" horiz-adv-x="1169" d="M20 446l21 187h166v151h-148l21 187h127v209q0 112 60 181t186 69h583l13 -189h-539q-92 0 -92 -90v-180h561l-21 -187h-540v-151h522l-20 -187h-502v-163q0 -93 82 -93h567v-190h-614q-246 0 -246 252v194h-187z" />
<glyph unicode="&#x2122;" horiz-adv-x="1286" d="M82 1300v132h432v-132h-145v-434h-144v434h-143zM614 866v566h131l144 -269l137 269h137v-566h-137v297l-82 -153h-113l-81 141v-285h-136z" />
<glyph unicode="&#x25fc;" horiz-adv-x="1024" d="M0 0v1024h1024v-1024h-1024z" />
</font>
</defs>
</svg>
