<?xml version="1.0" standalone="no"?>
<!DOCTYPE svg PUBLIC "-//W3C//DTD SVG 1.1//EN" "http://www.w3.org/Graphics/SVG/1.1/DTD/svg11.dtd" >
<svg xmlns="http://www.w3.org/2000/svg">
<metadata></metadata>
<defs>
<font id="lab_sans_prothin" horiz-adv-x="1005" >
<font-face units-per-em="2048" ascent="1546" descent="-502" />
<missing-glyph horiz-adv-x="409" />
<glyph unicode="&#xfb01;" horiz-adv-x="1095" d="M82 979v37h154v223q0 207 202 207h312q107 0 154.5 -41.5t47.5 -130.5v-82h-43v84q-2 71 -38 104t-121 33h-312q-159 0 -159 -170v-227h251v-37h-251v-979h-43v979h-154zM907 0v1016h43v-1016h-43z" />
<glyph unicode="&#xfb02;" horiz-adv-x="1095" d="M82 979v37h154v207q0 207 202 207h471l43 18v-1448h-43v1397h-471q-159 0 -159 -174v-207h251v-37h-251v-979h-43v979h-154z" />
<glyph unicode="&#xfb03;" horiz-adv-x="1769" d="M82 979v37h154v170q0 95 50 147.5t150 52.5h146l8 -32h-152q-159 0 -159 -170v-168h630v223q0 207 203 207h311q107 0 155 -41.5t48 -130.5v-82h-43v84q-2 71 -38 104t-122 33h-311q-160 0 -160 -170v-227h252v-37h-252v-979h-43v979h-630v-979h-43v979h-154zM1581 0 v1016h43v-1016h-43z" />
<glyph unicode="&#xfb04;" horiz-adv-x="1767" d="M82 979v37h154v170q0 95 50 147.5t150 52.5h146l8 -32h-152q-159 0 -159 -170v-168h630v207q0 207 203 207h471l41 18v-1448h-41v1397h-471q-160 0 -160 -174v-207h252v-37h-252v-979h-43v979h-630v-979h-43v979h-154z" />
<glyph horiz-adv-x="0" />
<glyph horiz-adv-x="682" />
<glyph unicode=" "  horiz-adv-x="409" />
<glyph unicode="&#x09;" horiz-adv-x="409" />
<glyph unicode="&#xa0;" horiz-adv-x="409" />
<glyph unicode="!" horiz-adv-x="325" d="M129 0v74h70v-74h-70zM131 1430h66l-13 -1205h-43z" />
<glyph unicode="&#x22;" horiz-adv-x="536" d="M143 1430h50l-9 -386h-32zM344 1430h49l-8 -386h-33z" />
<glyph unicode="#" horiz-adv-x="1226" d="M102 471v37h260l35 424h-272v37h276l39 461h39l-39 -461h363l37 461h39l-39 -461h274v-37h-278l-33 -424h289v-37h-293l-37 -471h-39l37 471h-363l-41 -471h-39l41 471h-256zM401 508h363l35 424h-363z" />
<glyph unicode="$" horiz-adv-x="1077" d="M123 899v365q0 78 43 122t113 44h233v169h39v-169h313l13 -41h-592q-119 0 -119 -125v-363q0 -107 115 -125l491 -82q141 -27 141 -172v-356q0 -79 -44.5 -122.5t-120.5 -43.5h-197v-168h-39v168h-371l-12 41h619q57 0 89.5 32.5t32.5 92.5v354q0 65 -27 94t-81 37 l-486 82q-153 27 -153 166z" />
<glyph unicode="%" horiz-adv-x="1384" d="M123 928v336q0 78 41.5 122t111.5 44h177q70 0 111.5 -44t41.5 -122v-336q0 -78 -41.5 -122t-111.5 -44h-177q-70 0 -111.5 44t-41.5 122zM166 928q0 -129 110 -129h177q110 0 110 129v336q0 62 -28 95.5t-82 33.5h-177q-110 0 -110 -129v-336zM377 0l596 1430h43 l-592 -1430h-47zM778 166v336q0 78 42 122t112 44h176q70 0 112 -44t42 -122v-336q0 -78 -42 -122t-112 -44h-176q-70 0 -112 44t-42 122zM821 166q0 -129 111 -129h176q111 0 111 129v336q0 62 -28.5 95.5t-82.5 33.5h-176q-111 0 -111 -129v-336z" />
<glyph unicode="&#x26;" horiz-adv-x="1236" d="M123 184v430q0 131 104 183q-84 78 -84 211v237q0 85 48.5 135t144.5 50h481q96 0 143.5 -49.5t47.5 -135.5v-295h-41v297q0 73 -41.5 112.5t-114.5 39.5h-471q-67 0 -110.5 -44t-43.5 -108v-239q0 -118 99 -209l721 -582v453h43v-490l127 -117l-11 -43l-121 113 q-24 -133 -186 -133h-543q-96 0 -144 49.5t-48 134.5zM166 182q0 -64 43 -106.5t110 -42.5h533q145 0 154 131l-744 598q-46 0 -71 -41.5t-25 -106.5v-432z" />
<glyph unicode="'" horiz-adv-x="335" d="M143 1430h50l-9 -386h-32z" />
<glyph unicode="(" horiz-adv-x="485" d="M123 485q0 552 219 963h41q-120 -242 -168 -465q-45 -208 -45 -498q0 -288 45 -493q49 -221 168 -463h-41q-219 411 -219 956z" />
<glyph unicode=")" horiz-adv-x="485" d="M102 -471q119 242 168 463q45 205 45 493q0 290 -45 498q-48 223 -168 465h41q219 -411 219 -963q0 -545 -219 -956h-41z" />
<glyph unicode="*" horiz-adv-x="606" d="M82 1255l20 37l179 -86v224h43v-226l180 88l20 -37l-186 -88l141 -166l-33 -26l-141 170l-145 -172l-33 26l143 166z" />
<glyph unicode="+" horiz-adv-x="909" d="M102 715v43h320v340h45v-340h319v-43h-319v-340h-45v340h-320z" />
<glyph unicode="," horiz-adv-x="348" d="M123 -160l47 160h-8v63h63v-65l-43 -158h-59z" />
<glyph unicode="-" horiz-adv-x="569" d="M41 477v33h487v-33h-487z" />
<glyph unicode="." horiz-adv-x="350" d="M143 0v63h64v-63h-64z" />
<glyph unicode="/" horiz-adv-x="663" d="M-174 -471l795 1901h43l-793 -1901h-45z" />
<glyph unicode="0" horiz-adv-x="1110" d="M143 184v1061q0 83 50.5 134t146.5 51h430q96 0 146.5 -51t50.5 -134v-1061q0 -83 -50.5 -133.5t-146.5 -50.5h-430q-96 0 -146.5 50.5t-50.5 133.5zM186 182q0 -145 154 -145h430q154 0 154 145v1065q0 146 -154 146h-430q-154 0 -154 -146v-1065z" />
<glyph unicode="1" horiz-adv-x="681" d="M123 0v37h221v1349l-207 -30v37l254 41v-1397h213v-37h-481z" />
<glyph unicode="2" d="M61 0v25l752 852q70 79 70 188v195q0 135 -150 135h-651l12 35h639q191 0 191 -170v-191q0 -71 -17 -119t-65 -102l-721 -813h844l-13 -35h-891z" />
<glyph unicode="3" horiz-adv-x="1028" d="M123 0v37h586q153 0 153 145v365q0 65 -41.5 102.5t-101.5 42.5h-535v37h535q60 0 101.5 36t41.5 101v381q0 146 -153 146h-586v37h586q97 0 146.5 -51t49.5 -140v-377q0 -53 -28 -93.5t-82 -57.5q110 -34 110 -160v-361q0 -89 -50 -139.5t-146 -50.5h-586z" />
<glyph unicode="4" horiz-adv-x="1081" d="M82 379v33l676 1020h41v-1018h200v-35h-200v-379h-43v379h-674zM131 414h625v946z" />
<glyph unicode="5" horiz-adv-x="1095" d="M123 709l39 721h737l2 -35h-706l-33 -650h608q197 0 197 -186v-373q0 -88 -48.5 -137t-148.5 -49h-639v37h639q154 0 154 145v373q0 154 -152 154h-649z" />
<glyph unicode="6" horiz-adv-x="1118" d="M143 190v1049q0 191 197 191h557l6 -37h-563q-154 0 -154 -150v-473h584q197 0 197 -186v-394q0 -89 -50 -139.5t-147 -50.5h-430q-197 0 -197 190zM186 182q0 -145 154 -145h430q154 0 154 145v398q0 153 -152 153h-586v-551z" />
<glyph unicode="7" horiz-adv-x="1052" d="M82 1393l10 37h879v-37l-592 -1393h-45l596 1393h-848z" />
<glyph unicode="8" horiz-adv-x="1110" d="M143 184v371q0 123 90 164q-3 0 -12 4t-22.5 13.5t-25.5 23.5t-21 38t-9 52v397q0 85 49 134t146 49h440q93 0 141 -49.5t48 -131.5v-426q0 -32 -8 -58.5t-18.5 -41.5t-22 -26t-18.5 -15t-9 -4q7 -1 17.5 -7.5t24.5 -20.5t24 -42.5t10 -66.5v-355q0 -186 -189 -186h-442 q-193 0 -193 184zM186 182q0 -145 154 -145h430q154 0 154 145v357q0 42 -21 75t-61 43l-533 43q-59 0 -91 -38.5t-32 -106.5v-373zM186 868q0 -110 103 -125l532 -45q103 6 103 129v410q0 87 -40 122.5t-120 35.5h-424q-154 0 -154 -150v-377z" />
<glyph unicode="9" horiz-adv-x="1118" d="M143 805v434q0 89 50 140t147 51h430q197 0 197 -191v-1049q0 -190 -197 -190h-557l-6 37h563q154 0 154 149v432h-584q-197 0 -197 187zM186 809q0 -154 152 -154h586v592q0 146 -154 146h-430q-154 0 -154 -146v-438z" />
<glyph unicode=":" horiz-adv-x="350" d="M143 0v63h64v-63h-64zM143 952v64h64v-64h-64z" />
<glyph unicode=";" horiz-adv-x="329" d="M104 -160l48 160h-9v63h64v-65l-43 -158h-60zM143 952v64h64v-64h-64z" />
<glyph unicode="&#x3c;" horiz-adv-x="1036" d="M125 487v33l790 500v-39l-745 -475l745 -469v-43z" />
<glyph unicode="=" horiz-adv-x="950" d="M102 514v41h746v-41h-746zM102 907v41h746v-41h-746z" />
<glyph unicode="&#x3e;" horiz-adv-x="1036" d="M123 -6v43l745 469l-745 475v39l790 -500v-33z" />
<glyph unicode="?" horiz-adv-x="1003" d="M123 1395l10 35h506q127 0 184.5 -57t57.5 -173v-182q0 -146 -115 -217l-182 -117q-64 -42 -89.5 -84t-25.5 -113v-262h-41v279q0 141 131 217l176 110q103 65 103 187v182q0 90 -55.5 142.5t-143.5 52.5h-516zM420 0v55h55v-55h-55z" />
<glyph unicode="@" horiz-adv-x="1968" d="M143 -225v1470q0 85 48.5 135t144.5 50h1294q97 0 146 -50t49 -135v-1061q0 -85 -47.5 -134.5t-143.5 -49.5h-284q-76 0 -103 74l-80 -74h-471q-62 0 -98.5 37t-36.5 102q0 21 2 27l72 684q18 166 153 166h488l43 -41l35 41h24l-104 -881q3 -91 72 -100h282 q154 0 154 147v1065q0 142 -154 142h-1288q-154 0 -154 -142v-1474q0 -68 39 -107t115 -39h879l-7 -37h-876q-96 0 -144.5 50t-48.5 135zM604 131q0 -42 24.5 -68t63.5 -26h432q41 0 72.5 31.5t36.5 68.5l88 754q0 39 -23 64.5t-71 25.5h-441q-44 0 -71.5 -32t-32.5 -75 l-78 -731v-12z" />
<glyph unicode="A" horiz-adv-x="1095" d="M61 0l465 1430h45l463 -1430h-49l-158 498h-559l-157 -498h-50zM281 537h534l-266 829z" />
<glyph unicode="B" horiz-adv-x="1130" d="M164 0v1430h627q96 0 146 -51t50 -134v-364q0 -111 -98 -160q98 -46 98 -154v-383q0 -83 -50 -133.5t-146 -50.5h-627zM207 39h584q72 0 112.5 37t40.5 106v383q0 60 -40 97.5t-103 37.5h-594v-661zM207 739h584q69 0 111 39t42 101v366q0 71 -40 108.5t-113 37.5h-584 v-652z" />
<glyph unicode="C" horiz-adv-x="1169" d="M143 184v1061q0 86 47.5 135.5t143.5 49.5h678l4 -39h-682q-148 0 -148 -144v-1065q0 -67 40 -105t114 -38h686v-39h-686q-96 0 -146.5 50.5t-50.5 133.5z" />
<glyph unicode="D" horiz-adv-x="1232" d="M164 0v1430h733q96 0 144.5 -50t48.5 -135v-1061q0 -85 -48.5 -134.5t-144.5 -49.5h-733zM207 39h690q70 0 110 37.5t40 105.5v1063q0 146 -150 146h-690v-1352z" />
<glyph unicode="E" horiz-adv-x="1056" d="M164 0v1430h770v-41h-727v-652h635v-39h-635v-657h727v-41h-770z" />
<glyph unicode="F" horiz-adv-x="1056" d="M164 0v1430h770v-41h-727v-652h573v-39h-573v-698h-43z" />
<glyph unicode="G" horiz-adv-x="1212" d="M143 184v1061q0 85 48.5 135t144.5 50h676l4 -39h-680q-150 0 -150 -144v-1065q0 -143 154 -143h532q154 0 154 143v500h-360v39h403v-537q0 -83 -50.5 -133.5t-146.5 -50.5h-532q-96 0 -146.5 50.5t-50.5 133.5z" />
<glyph unicode="H" horiz-adv-x="1191" d="M164 0v1430h43v-680h778v680h43v-1430h-43v713h-778v-713h-43z" />
<glyph unicode="I" horiz-adv-x="370" d="M41 0v35h123v1360h-123v35h289v-35h-123v-1360h123v-35h-289z" />
<glyph unicode="J" horiz-adv-x="757" d="M82 1395v35h512v-1240q0 -190 -197 -190h-305l-6 41h313q152 0 152 147v1207h-469z" />
<glyph unicode="K" horiz-adv-x="1128" d="M164 0v1430h43v-697h520q88 0 109 88l147 609h43l-147 -613q-21 -78 -74 -102q56 -27 78 -101l184 -614h-45l-180 606q-27 88 -109 88h-526v-694h-43z" />
<glyph unicode="L" horiz-adv-x="1015" d="M164 0v1430h43v-1389h706v-41h-749z" />
<glyph unicode="M" horiz-adv-x="1296" d="M164 0v1430h41l446 -977l439 977h43v-1430h-43v1327l-420 -938h-39l-424 928v-1317h-43z" />
<glyph unicode="N" horiz-adv-x="1191" d="M164 0v1430h39l782 -1332v1332h43v-1430h-37l-784 1341v-1341h-43z" />
<glyph unicode="O" horiz-adv-x="1253" d="M143 184v1061q0 83 50.5 134t146.5 51h573q96 0 146.5 -51t50.5 -134v-1061q0 -83 -50.5 -133.5t-146.5 -50.5h-573q-96 0 -146.5 50.5t-50.5 133.5zM186 182q0 -145 154 -145h573q154 0 154 145v1065q0 146 -154 146h-573q-154 0 -154 -146v-1065z" />
<glyph unicode="P" horiz-adv-x="1097" d="M164 0v1430h616q193 0 193 -179v-473q0 -95 -52.5 -145.5t-146.5 -50.5h-567v-582h-43zM207 618h565q70 0 114 43t44 117v471q0 65 -39 104.5t-111 39.5h-573v-775z" />
<glyph unicode="Q" horiz-adv-x="1212" d="M143 184v1061q0 83 50.5 134t146.5 51h573q96 0 146.5 -51t50.5 -134v-1061q0 -72 -37 -121l195 -151l-41 -16l-176 145q-47 -41 -138 -41h-573q-96 0 -146.5 50.5t-50.5 133.5zM186 182q0 -145 154 -145h573q154 0 154 145v1065q0 146 -154 146h-573q-154 0 -154 -146 v-1065z" />
<glyph unicode="R" horiz-adv-x="1110" d="M164 0v1430h616q193 0 193 -179v-473q0 -138 -109 -182q41 -27 56 -94l88 -502h-45l-89 492q-15 90 -102 90h-565v-582h-43zM207 618h565q158 0 158 168v451q0 156 -148 156h-575v-775z" />
<glyph unicode="S" horiz-adv-x="1036" d="M123 899v365q0 78 43 122t113 44h585l13 -41h-592q-119 0 -119 -125v-363q0 -107 115 -125l491 -82q141 -27 141 -172v-356q0 -79 -44.5 -122.5t-120.5 -43.5h-607l-12 41h619q57 0 89.5 32.5t32.5 92.5v354q0 65 -27 94t-81 37l-486 82q-153 27 -153 166z" />
<glyph unicode="T" horiz-adv-x="997" d="M61 1393v37h875v-37h-414v-1393h-43v1393h-418z" />
<glyph unicode="U" horiz-adv-x="1175" d="M143 184v1246h43v-1248q0 -145 154 -145h471q154 0 154 145v1248h43v-1246q0 -83 -50.5 -133.5t-146.5 -50.5h-471q-96 0 -146.5 50.5t-50.5 133.5z" />
<glyph unicode="V" horiz-adv-x="1095" d="M61 1430h50l434 -1356l440 1356h49l-465 -1430h-49z" />
<glyph unicode="W" horiz-adv-x="1855" d="M61 1430h50l413 -1356l379 1356h49l414 -1356l379 1356h49l-403 -1430h-50l-413 1360l-379 -1360h-49z" />
<glyph unicode="X" horiz-adv-x="1052" d="M82 0l416 733l-396 697h56l368 -650l369 650h55l-397 -697l418 -733h-53l-392 684l-391 -684h-53z" />
<glyph unicode="Y" horiz-adv-x="1112" d="M61 1430h50l448 -746l445 746h47l-471 -791v-639h-43v639z" />
<glyph unicode="Z" horiz-adv-x="1026" d="M61 0v31l867 1360h-832l13 39h876v-29l-868 -1362h850l-13 -39h-893z" />
<glyph unicode="[" horiz-adv-x="526" d="M143 -471v1982h301v-34h-254v-1911h254v-37h-301z" />
<glyph unicode="\" horiz-adv-x="837" d="M0 1430h49l789 -1901h-52z" />
<glyph unicode="]" horiz-adv-x="526" d="M82 -434h254v1911h-254v34h301v-1982h-301v37z" />
<glyph unicode="^" horiz-adv-x="1173" d="M123 0l436 748h53l439 -748h-54l-409 705l-414 -705h-51z" />
<glyph unicode="_" horiz-adv-x="794" d="M102 -434h590v-37h-590v37z" />
<glyph unicode="`" horiz-adv-x="374" d="M102 1430h72l98 -201h-55z" />
<glyph unicode="a" horiz-adv-x="921" d="M82 170v174q0 78 45.5 127t124.5 53l483 29v274q0 150 -147 150h-453l6 39h445q96 0 144 -50.5t48 -136.5v-829h-24l-29 37l-29 -37h-442q-85 0 -128.5 44.5t-43.5 125.5zM127 174q0 -135 129 -135h377q47 0 74.5 35t27.5 90v352l-483 -29q-59 -1 -92 -40t-33 -103v-170z " />
<glyph unicode="b" d="M143 0v1438l43 8v-475l56 45h481q75 0 117.5 -43.5t42.5 -122.5v-684q0 -166 -154 -166h-498l-28 37l-27 -37h-33zM186 166q0 -129 115 -129h426q113 0 113 131v682q0 129 -115 129h-424q-54 0 -84.5 -34.5t-30.5 -94.5v-684z" />
<glyph unicode="c" horiz-adv-x="868" d="M123 166v684q0 78 41.5 122t111.5 44h463l6 -37h-469q-110 0 -110 -129v-684q0 -60 29.5 -94.5t80.5 -34.5h465v-37h-465q-70 0 -111.5 44t-41.5 122z" />
<glyph unicode="d" d="M123 166v684q0 79 42.5 122.5t117.5 43.5h481l55 -45v467l43 8v-1446h-33l-28 37l-27 -37h-498q-153 0 -153 166zM166 168q0 -131 113 -131h426q114 0 114 129v684q0 60 -30 94.5t-84 34.5h-424q-115 0 -115 -129v-682z" />
<glyph unicode="e" horiz-adv-x="1026" d="M143 166v684q0 78 42 122t112 44h430q156 0 156 -166v-229q0 -166 -154 -166h-512l-31 20v-309q0 -127 111 -127h539l-5 -39h-534q-154 0 -154 166zM186 492h543q111 0 111 129v225q0 131 -111 131h-432q-111 0 -111 -127v-358z" />
<glyph unicode="f" horiz-adv-x="630" d="M82 979v37h154v229q0 95 50 148t150 53h146l8 -33h-152q-159 0 -159 -170v-227h251v-37h-251v-979h-43v979h-154z" />
<glyph unicode="g" d="M123 166v684q0 166 153 166h498l27 -37l28 37h33v-1321q0 -78 -41.5 -122t-111.5 -44h-527v37h527q51 0 80.5 34.5t29.5 94.5v350l-55 -45h-481q-75 0 -117.5 43.5t-42.5 122.5zM166 166q0 -129 115 -129h424q54 0 84 34.5t30 94.5v684q0 129 -114 129h-426 q-113 0 -113 -131v-682z" />
<glyph unicode="h" horiz-adv-x="1003" d="M143 0v1436l43 12v-469l45 37h474q155 0 155 -166v-850h-43v846q0 69 -26 100t-86 31h-404q-115 0 -115 -129v-848h-43z" />
<glyph unicode="i" horiz-adv-x="329" d="M141 1192v45h43v-45h-43zM143 0v1016h43v-1016h-43z" />
<glyph unicode="j" horiz-adv-x="327" d="M-63 -430h90q116 0 116 143v1303h41v-1299q0 -95 -38 -141.5t-126 -46.5h-75zM141 1192v45h43v-45h-43z" />
<glyph unicode="k" horiz-adv-x="944" d="M143 0v1434l41 12v-926h445q85 0 100 92l78 404h41l-94 -465l-49 -49l51 -51l106 -451h-41l-94 397q-21 88 -102 88h-441v-485h-41z" />
<glyph unicode="l" horiz-adv-x="329" d="M143 0v1436l43 10v-1446h-43z" />
<glyph unicode="m" horiz-adv-x="1476" d="M143 0v1016h29l33 -37l35 37h393q91 0 119 -78q10 32 43.5 55t66.5 23h318q153 0 153 -166v-850h-43v848q0 129 -110 129h-308q-48 0 -75 -36t-27 -93v-848h-43v848q0 129 -111 129h-315q-115 0 -115 -129v-848h-43z" />
<glyph unicode="n" horiz-adv-x="1003" d="M143 0v1016h31l29 -37l33 37h469q155 0 155 -166v-850h-43v846q0 131 -115 131h-401q-115 0 -115 -129v-848h-43z" />
<glyph unicode="o" horiz-adv-x="985" d="M123 166v684q0 78 41.5 122t111.5 44h431q155 0 155 -166v-684q0 -166 -153 -166h-430q-156 0 -156 166zM166 166q0 -127 110 -127h431q60 0 86 31.5t26 101.5v674q0 131 -110 131h-433q-110 0 -110 -127v-684z" />
<glyph unicode="p" d="M143 -471v1487h33l29 -37l26 37h498q154 0 154 -166v-684q0 -86 -37 -126t-123 -40h-481l-56 45v-508zM186 164q0 -125 111 -125h428q115 0 115 127v682q0 129 -111 129h-428q-115 0 -115 -127v-686z" />
<glyph unicode="q" d="M123 166v684q0 78 41.5 122t111.5 44h498l27 -37l28 37h33v-1487l-43 8v508l-55 -45h-485q-156 0 -156 166zM166 166q0 -127 110 -127h429q114 0 114 127v684q0 127 -110 127h-435q-108 0 -108 -129v-682z" />
<glyph unicode="r" horiz-adv-x="581" d="M143 0v1016h31l31 -37l26 37h269l-8 -39h-197q-109 0 -109 -109v-868h-43z" />
<glyph unicode="s" horiz-adv-x="870" d="M102 39h508q115 0 115 117v163q0 50 -21.5 76.5t-74.5 38.5l-387 90q-131 30 -131 148v190q0 73 41.5 113.5t111.5 40.5h486l8 -37h-496q-108 0 -108 -117v-190q0 -86 92 -107l387 -88q71 -18 103 -54t32 -104v-161q0 -76 -41.5 -117t-112.5 -41h-503z" />
<glyph unicode="t" horiz-adv-x="624" d="M82 981v35h149v239l43 11v-250h269v-35h-269v-791q0 -151 144 -151h104l-6 -39h-96q-89 0 -139 48.5t-50 139.5v793h-149z" />
<glyph unicode="u" d="M143 166v850h43v-846q0 -69 26.5 -100t86.5 -31h406q114 0 114 129v848h43v-1016h-31l-30 37l-27 -37h-475q-156 0 -156 166z" />
<glyph unicode="v" horiz-adv-x="903" d="M61 1016h45l347 -950l346 950h43l-371 -1016h-39z" />
<glyph unicode="w" horiz-adv-x="1435" d="M61 1016h50l301 -944l284 944h45l312 -946l278 946h43l-303 -1016h-41l-309 946l-289 -946h-41z" />
<glyph unicode="x" horiz-adv-x="907" d="M61 0l367 522l-346 494h49l322 -459l323 459h49l-348 -494l369 -522h-51l-342 487l-340 -487h-52z" />
<glyph unicode="y" d="M143 166v850h43v-846q0 -69 26.5 -100t86.5 -31h406q108 0 114 113v864h43v-1321q0 -78 -41.5 -122t-111.5 -44h-527v37h527q51 0 80.5 34.5t29.5 94.5v346l-45 -41h-475q-156 0 -156 166z" />
<glyph unicode="z" horiz-adv-x="892" d="M82 0v25l651 952h-627l9 39h678v-31l-648 -948h666l-8 -37h-721z" />
<glyph unicode="{" horiz-adv-x="649" d="M82 559v33h70q38 0 59.5 25.5t21.5 68.5v676q0 116 59 184t183 68h92v-35h-104q-91 0 -137.5 -55t-46.5 -152v-686q0 -79 -58 -113q58 -21 58 -120v-672q0 -102 49 -159.5t145 -57.5h94v-35h-92q-124 0 -183 68t-59 184v670q0 108 -81 108h-70z" />
<glyph unicode="|" horiz-adv-x="391" d="M164 -471v1917h43v-1917h-43z" />
<glyph unicode="}" horiz-adv-x="649" d="M82 -436h94q96 0 145.5 57.5t49.5 159.5v672q0 100 57 120q-57 34 -57 113v686q0 97 -47 152t-138 55h-104v35h92q124 0 183 -68t59 -184v-676q0 -43 22 -68.5t60 -25.5h69v-33h-69q-82 0 -82 -108v-670q0 -116 -59 -184t-183 -68h-92v35z" />
<glyph unicode="~" horiz-adv-x="987" d="M102 668l146 94h55l422 -53l76 61h84l-144 -98h-92l-387 49l-72 -53h-88z" />
<glyph unicode="&#xa1;" horiz-adv-x="315" d="M123 942v74h70v-74h-70zM125 -414l10 1205h43l12 -1205h-65z" />
<glyph unicode="&#xa2;" horiz-adv-x="870" d="M123 166v684q0 78 41.5 122t111.5 44h187v168h39v-168h237l6 -37h-469q-110 0 -110 -129v-684q0 -60 29.5 -94.5t80.5 -34.5h465v-37h-239v-168h-39v168h-187q-70 0 -111.5 44t-41.5 122z" />
<glyph unicode="&#xa3;" horiz-adv-x="1103" d="M102 0v39h152l22 666h-172l21 38h154l18 521q1 76 49.5 121t122.5 45h506l12 -37h-530q-57 0 -86 -37t-31 -90l-18 -523h616l-20 -38h-596l-23 -666h702v-39h-899z" />
<glyph unicode="&#xa4;" horiz-adv-x="1118" d="M102 203l127 127q-24 40 -24 102v418q0 54 22 96l-125 123l25 27l121 -121q41 41 110 41h402q67 0 110 -43l123 123l25 -27l-127 -125q22 -42 22 -94v-418q0 -58 -24 -102l129 -127l-25 -27l-129 127q-40 -37 -104 -37h-402q-63 0 -104 35l-127 -125zM248 432 q0 -129 110 -129h402q110 0 110 129v418q0 62 -28 95.5t-82 33.5h-402q-110 0 -110 -129v-418z" />
<glyph unicode="&#xa5;" horiz-adv-x="1112" d="M61 1430h50l448 -746l445 746h47l-451 -756h305v-35h-325v-141h325v-35h-325v-463h-43v463h-338v35h338v141h-338v35h317z" />
<glyph unicode="&#xa6;" horiz-adv-x="411" d="M164 352h43v-823h-43v823zM164 623v807h43v-807h-43z" />
<glyph unicode="&#xa7;" horiz-adv-x="1077" d="M143 401v316q0 51 22.5 92.5t59.5 60.5q-82 55 -82 138v256q0 78 43 122t113 44h586l12 -37h-592q-55 0 -87 -32.5t-32 -92.5v-260q0 -90 115 -131l492 -158q75 -26 108 -64.5t33 -111.5v-312q0 -98 -78 -133q78 -54 78 -151v-256q0 -77 -43 -119.5t-113 -42.5h-585 l-13 37h592q55 0 87 32.5t32 92.5v250q0 116 -115 151l-491 139q-72 21 -107 60.5t-35 109.5zM186 401q0 -99 109 -129l498 -145q98 3 98 100v316q0 55 -25 83.5t-84 49.5l-501 166q-46 -1 -70.5 -36.5t-24.5 -88.5v-316z" />
<glyph unicode="&#xa8;" horiz-adv-x="696" d="M156 1358v72h71v-72h-71zM381 1358v72h72v-72h-72z" />
<glyph unicode="&#xa9;" horiz-adv-x="1601" d="M143 184v1061q0 85 48.5 135t144.5 50h934q188 0 188 -185v-1061q0 -86 -47 -135t-143 -49h-932q-96 0 -144.5 49.5t-48.5 134.5zM186 182q0 -71 40.5 -109t113.5 -38h922q153 0 153 147v1065q0 148 -153 148h-922q-154 0 -154 -148v-1065zM539 500v438q0 78 41.5 122 t111.5 44h352l7 -37h-359q-110 0 -110 -129v-438q0 -60 29.5 -94.5t80.5 -34.5h355v-37h-355q-70 0 -111.5 44t-41.5 122z" />
<glyph unicode="&#xaa;" horiz-adv-x="724" d="M102 895v27q0 175 183 184l274 16v138q0 133 -131 133h-305l4 37h301q174 0 174 -166v-543h-16l-39 43l-45 -43h-234q-166 0 -166 174zM147 899q0 -68 33 -103.5t90 -35.5h195q94 0 94 137v190l-274 -16q-73 -4 -105.5 -40t-32.5 -111v-21zM166 520v37h424v-37h-424z" />
<glyph unicode="&#xab;" horiz-adv-x="940" d="M102 492v28l490 500v-53l-449 -459l449 -455v-59zM348 492v28l490 500v-53l-449 -459l449 -455v-59z" />
<glyph unicode="&#xac;" horiz-adv-x="1095" d="M123 893v39h848v-418h-41v379h-807z" />
<glyph unicode="&#xad;" horiz-adv-x="569" d="M41 477v33h487v-33h-487z" />
<glyph unicode="&#xae;" horiz-adv-x="1601" d="M143 184v1061q0 85 48.5 135t144.5 50h934q188 0 188 -185v-1061q0 -86 -47 -135t-143 -49h-932q-96 0 -144.5 49.5t-48.5 134.5zM186 182q0 -71 40.5 -109t113.5 -38h922q153 0 153 147v1065q0 148 -153 148h-922q-154 0 -154 -148v-1065zM543 334v768h325 q207 0 207 -193v-61q0 -73 -31.5 -125t-80.5 -66q21 -18 41 -67l104 -256h-45l-107 260q-21 53 -69 53h-301v-313h-43zM586 686h301q145 0 145 164v55q0 87 -40.5 122.5t-123.5 35.5h-282v-377z" />
<glyph unicode="&#xaf;" horiz-adv-x="632" d="M82 1391v39h469v-39h-469z" />
<glyph unicode="&#xb0;" horiz-adv-x="626" d="M102 1133v131q0 78 42 122t112 44h115q70 0 111.5 -44t41.5 -122v-131q0 -78 -41.5 -122t-111.5 -44h-115q-70 0 -112 44t-42 122zM145 1133q0 -127 111 -127h115q110 0 110 127v131q0 129 -110 129h-115q-51 0 -81 -34.5t-30 -94.5v-131z" />
<glyph unicode="&#xb1;" horiz-adv-x="927" d="M102 0v43h703v-43h-703zM102 723v41h320v340h45v-340h319v-41h-319v-340h-45v340h-320z" />
<glyph unicode="&#xb2;" horiz-adv-x="679" d="M61 618v25l377 350q30 26 49 49q19 21 34.5 61t15.5 81v76q0 135 -150 135h-305l12 35h293q191 0 191 -168v-76q0 -49 -19 -92q-16 -39 -33.5 -60t-62.5 -63l-340 -318h495l-12 -35h-545z" />
<glyph unicode="&#xb3;" horiz-adv-x="638" d="M82 653h287q75 0 111 28t36 97v140q0 88 -80 88h-315v34h315q80 0 80 86v140q0 129 -139 129h-295l6 35h293q89 0 132.5 -45.5t43.5 -116.5v-144q0 -67 -53 -102q53 -21 53 -104v-140q0 -71 -43.5 -115.5t-132.5 -44.5h-293z" />
<glyph unicode="&#xb4;" horiz-adv-x="374" d="M102 1229l99 201h71l-114 -201h-56z" />
<glyph unicode="&#xb5;" d="M143 -348v1364h43v-846q0 -69 26.5 -100t86.5 -31h406q114 0 114 129v848h43v-1016h-31l-30 37l-27 -37h-475q-78 0 -113 35v-373z" />
<glyph unicode="&#xb6;" horiz-adv-x="970" d="M123 1075v178q0 78 45 127.5t127 49.5h635v-37h-172v-1393h-51v1393h-187v-1393h-49v899h-176q-77 0 -124.5 46.5t-47.5 129.5z" />
<glyph unicode="&#xb7;" horiz-adv-x="276" d="M102 471v72h72v-72h-72z" />
<glyph unicode="&#xb8;" horiz-adv-x="450" d="M82 -426h178q57 0 57 51v94q0 60 -53 60h-178v41l90 180h49l-92 -178h133q103 0 103 -98v-99q0 -96 -97 -96h-190v45z" />
<glyph unicode="&#xb9;" horiz-adv-x="423" d="M61 618v33h146v742l-133 -21v31l176 27v-779h133v-33h-322z" />
<glyph unicode="&#xba;" horiz-adv-x="765" d="M123 887v377q0 166 153 166h213q154 0 154 -166v-377q0 -166 -154 -166h-213q-153 0 -153 166zM166 520v37h444v-37h-444zM166 887q0 -127 110 -127h213q111 0 111 127v377q0 129 -111 129h-213q-110 0 -110 -129v-377z" />
<glyph unicode="&#xbb;" horiz-adv-x="940" d="M102 -6v59l449 455l-449 459v53l490 -500v-28zM348 -6v59l449 455l-449 459v53l490 -500v-28z" />
<glyph unicode="&#xbc;" horiz-adv-x="1339" d="M102 618v37h154v731l-154 -18v35l197 27v-775h154v-37h-351zM348 0l625 1430h39l-623 -1430h-41zM698 262v29l381 540h33v-538h125v-31h-125v-262h-35v262h-379zM735 293h342v481z" />
<glyph unicode="&#xbd;" horiz-adv-x="1519" d="M102 618v37h154v731l-154 -18v35l197 27v-775h154v-37h-351zM348 0l625 1430h39l-623 -1430h-41zM860 0v25l369 350q106 97 106 190v76q0 135 -149 135h-305l12 35h293q190 0 190 -168v-74q0 -47 -16.5 -88.5t-38.5 -64.5q-18 -21 -64 -64l-333 -317h493l-12 -35h-545z " />
<glyph unicode="&#xbe;" horiz-adv-x="1380" d="M102 653h287q76 0 112 28t36 97v140q0 88 -80 88h-316v34h316q80 0 80 86v140q0 129 -140 129h-295l7 35h292q89 0 133 -45.5t44 -116.5v-144q0 -67 -54 -102q54 -22 54 -104v-140q0 -71 -44 -115.5t-133 -44.5h-292zM430 0l625 1430h39l-623 -1430h-41zM739 262v29 l381 540h33v-538h125v-31h-125v-262h-35v262h-379zM776 293h342v481z" />
<glyph unicode="&#xbf;" horiz-adv-x="1003" d="M123 -4q0 146 115 217l182 117q65 42 90 84t25 112v262h40v-278q0 -141 -131 -217l-176 -111q-102 -64 -102 -186v-182q0 -90 55.5 -142.5t143.5 -52.5h516l-11 -35h-505q-127 0 -184.5 57t-57.5 173v182zM528 958v56h56v-56h-56z" />
<glyph unicode="&#xc0;" horiz-adv-x="1095" d="M61 0l465 1430h45l463 -1430h-49l-158 498h-559l-157 -498h-50zM281 537h534l-266 829zM416 1722h51l98 -200h-35z" />
<glyph unicode="&#xc1;" horiz-adv-x="1095" d="M61 0l465 1430h45l463 -1430h-49l-158 498h-559l-157 -498h-50zM281 537h534l-266 829zM528 1522l99 200h51l-115 -200h-35z" />
<glyph unicode="&#xc2;" horiz-adv-x="1095" d="M61 0l465 1430h45l463 -1430h-49l-158 498h-559l-157 -498h-50zM281 537h534l-266 829zM391 1522l133 200h43l133 -200h-34l-121 159l-119 -159h-35z" />
<glyph unicode="&#xc3;" horiz-adv-x="1095" d="M61 0l465 1430h45l463 -1430h-49l-158 498h-559l-157 -498h-50zM248 1522l145 204h35l277 -178l129 187h32l-143 -213h-35l-276 178l-129 -178h-35zM281 537h534l-266 829z" />
<glyph unicode="&#xc4;" horiz-adv-x="1095" d="M61 0l465 1430h45l463 -1430h-49l-158 498h-559l-157 -498h-50zM281 537h534l-266 829zM418 1585v51h49v-51h-49zM621 1585v51h49v-51h-49z" />
<glyph unicode="&#xc5;" horiz-adv-x="1095" d="M61 0l453 1395q-100 15 -100 129v14q0 62 34.5 98.5t94.5 36.5h12q61 0 96 -36t35 -99v-10q0 -54 -27.5 -90t-76.5 -43l452 -1395h-49l-158 498h-559l-157 -498h-50zM281 537h534l-266 829zM457 1526q0 -94 86 -94h12q88 0 88 96v12q0 44 -23.5 70t-62.5 26h-14 q-39 0 -62.5 -26t-23.5 -72v-12z" />
<glyph unicode="&#xc6;" horiz-adv-x="1574" d="M41 0l641 1430h750v-41h-707v-652h635v-39h-635v-657h727v-41h-770v698h-281l-311 -698h-49zM418 737h264v592z" />
<glyph unicode="&#xc7;" horiz-adv-x="1169" d="M143 184v1061q0 86 47.5 135.5t143.5 49.5h678l4 -39h-682q-148 0 -148 -144v-1065q0 -67 40 -105t114 -38h686v-39h-391l-90 -178h131q102 0 102 -98v-99q0 -96 -96 -96h-190v45h178q57 0 57 51v94q0 60 -53 60h-178v41l90 180h-246q-96 0 -146.5 50.5t-50.5 133.5z" />
<glyph unicode="&#xc8;" horiz-adv-x="1056" d="M164 0v1430h770v-41h-727v-652h635v-39h-635v-657h727v-41h-770zM426 1722h51l98 -200h-34z" />
<glyph unicode="&#xc9;" horiz-adv-x="1056" d="M164 0v1430h770v-41h-727v-652h635v-39h-635v-657h727v-41h-770zM508 1522l98 200h51l-114 -200h-35z" />
<glyph unicode="&#xca;" horiz-adv-x="1056" d="M164 0v1430h770v-41h-727v-652h635v-39h-635v-657h727v-41h-770zM385 1522l133 200h43l133 -200h-35l-120 159l-119 -159h-35z" />
<glyph unicode="&#xcb;" horiz-adv-x="1056" d="M164 0v1430h770v-41h-727v-652h635v-39h-635v-657h727v-41h-770zM422 1585v51h49v-51h-49zM625 1585v51h49v-51h-49z" />
<glyph unicode="&#xcc;" horiz-adv-x="370" d="M41 0v35h123v1360h-123v35h289v-35h-123v-1360h123v-35h-289zM119 1722h51l98 -200h-35z" />
<glyph unicode="&#xcd;" horiz-adv-x="370" d="M41 0v35h123v1360h-123v35h289v-35h-123v-1360h123v-35h-289zM98 1522l99 200h51l-115 -200h-35z" />
<glyph unicode="&#xce;" horiz-adv-x="370" d="M29 1522l133 200h43l133 -200h-35l-121 159l-119 -159h-34zM41 0v35h123v1360h-123v35h289v-35h-123v-1360h123v-35h-289z" />
<glyph unicode="&#xcf;" horiz-adv-x="370" d="M41 0v35h123v1360h-123v35h289v-35h-123v-1360h123v-35h-289zM49 1585v51h49v-51h-49zM252 1585v51h49v-51h-49z" />
<glyph unicode="&#xd0;" horiz-adv-x="1232" d="M41 709v34h123v687h733q96 0 144.5 -50t48.5 -135v-1061q0 -85 -48.5 -134.5t-144.5 -49.5h-733v709h-123zM207 39h690q70 0 110 37.5t40 105.5v1063q0 146 -150 146h-690v-648h221v-34h-221v-670z" />
<glyph unicode="&#xd1;" horiz-adv-x="1193" d="M164 0v1430h39l782 -1332v1332h43v-1430h-37l-784 1341v-1341h-43zM289 1522l145 204h35l276 -178l129 187h33l-143 -213h-35l-276 178l-129 -178h-35z" />
<glyph unicode="&#xd2;" horiz-adv-x="1253" d="M143 184v1061q0 83 50.5 134t146.5 51h573q96 0 146.5 -51t50.5 -134v-1061q0 -83 -50.5 -133.5t-146.5 -50.5h-573q-96 0 -146.5 50.5t-50.5 133.5zM186 182q0 -145 154 -145h573q154 0 154 145v1065q0 146 -154 146h-573q-154 0 -154 -146v-1065zM528 1722h52l98 -200 h-35z" />
<glyph unicode="&#xd3;" horiz-adv-x="1253" d="M143 184v1061q0 83 50.5 134t146.5 51h573q96 0 146.5 -51t50.5 -134v-1061q0 -83 -50.5 -133.5t-146.5 -50.5h-573q-96 0 -146.5 50.5t-50.5 133.5zM186 182q0 -145 154 -145h573q154 0 154 145v1065q0 146 -154 146h-573q-154 0 -154 -146v-1065zM528 1522l99 200h51 l-115 -200h-35z" />
<glyph unicode="&#xd4;" horiz-adv-x="1253" d="M143 184v1061q0 83 50.5 134t146.5 51h573q96 0 146.5 -51t50.5 -134v-1061q0 -83 -50.5 -133.5t-146.5 -50.5h-573q-96 0 -146.5 50.5t-50.5 133.5zM186 182q0 -145 154 -145h573q154 0 154 145v1065q0 146 -154 146h-573q-154 0 -154 -146v-1065zM438 1522l133 200h43 l134 -200h-35l-119 161l-121 -161h-35z" />
<glyph unicode="&#xd5;" horiz-adv-x="1253" d="M143 184v1061q0 83 50.5 134t146.5 51h573q96 0 146.5 -51t50.5 -134v-1061q0 -83 -50.5 -133.5t-146.5 -50.5h-573q-96 0 -146.5 50.5t-50.5 133.5zM186 182q0 -145 154 -145h573q154 0 154 145v1065q0 146 -154 146h-573q-154 0 -154 -146v-1065zM309 1522l146 204h34 l277 -178l129 187h33l-144 -213h-34l-277 178l-129 -178h-35z" />
<glyph unicode="&#xd6;" horiz-adv-x="1253" d="M143 184v1061q0 83 50.5 134t146.5 51h573q96 0 146.5 -51t50.5 -134v-1061q0 -83 -50.5 -133.5t-146.5 -50.5h-573q-96 0 -146.5 50.5t-50.5 133.5zM186 182q0 -145 154 -145h573q154 0 154 145v1065q0 146 -154 146h-573q-154 0 -154 -146v-1065zM459 1585v51h49v-51 h-49zM662 1585v51h49v-51h-49z" />
<glyph unicode="&#xd7;" horiz-adv-x="774" d="M125 510l225 225l-225 226l33 32l225 -225l225 225l31 -30l-225 -226l223 -227l-31 -31l-225 226l-225 -226z" />
<glyph unicode="&#xd8;" horiz-adv-x="1216" d="M143 -41l52 88q-52 49 -52 137v1061q0 83 50.5 134t146.5 51h532q73 0 121 -31l51 84l29 -19l-51 -88q47 -47 47 -131v-1061q0 -83 -50.5 -133.5t-146.5 -50.5h-532q-70 0 -115 25l-51 -86zM186 182q0 -61 31 -100l758 1282q-43 29 -103 29h-532q-154 0 -154 -146v-1065z M244 59q42 -22 96 -22h532q154 0 154 145v1065q0 58 -27 92z" />
<glyph unicode="&#xd9;" horiz-adv-x="1150" d="M143 184v1246h43v-1248q0 -145 154 -145h471q154 0 154 145v1248h43v-1246q0 -83 -50.5 -133.5t-146.5 -50.5h-471q-96 0 -146.5 50.5t-50.5 133.5zM467 1722h51l98 -200h-34z" />
<glyph unicode="&#xda;" horiz-adv-x="1150" d="M143 184v1246h43v-1248q0 -145 154 -145h471q154 0 154 145v1248h43v-1246q0 -83 -50.5 -133.5t-146.5 -50.5h-471q-96 0 -146.5 50.5t-50.5 133.5zM502 1522l98 200h51l-114 -200h-35z" />
<glyph unicode="&#xdb;" horiz-adv-x="1150" d="M143 184v1246h43v-1248q0 -145 154 -145h471q154 0 154 145v1248h43v-1246q0 -83 -50.5 -133.5t-146.5 -50.5h-471q-96 0 -146.5 50.5t-50.5 133.5zM408 1522l133 200h43l133 -200h-35l-119 161l-121 -161h-34z" />
<glyph unicode="&#xdc;" horiz-adv-x="1150" d="M143 184v1246h43v-1248q0 -145 154 -145h471q154 0 154 145v1248h43v-1246q0 -83 -50.5 -133.5t-146.5 -50.5h-471q-96 0 -146.5 50.5t-50.5 133.5zM428 1585v51h49v-51h-49zM631 1585v51h49v-51h-49z" />
<glyph unicode="&#xdd;" horiz-adv-x="1112" d="M61 1430h50l448 -746l445 746h47l-471 -791v-639h-43v639zM516 1522l98 200h52l-115 -200h-35z" />
<glyph unicode="&#xde;" horiz-adv-x="1116" d="M164 0v1430h43v-287h573q193 0 193 -178v-473q0 -95 -52.5 -146t-146.5 -51h-567v-295h-43zM207 332h565q70 0 114 43t44 117v471q0 65 -39 104t-111 39h-573v-774z" />
<glyph unicode="&#xdf;" horiz-adv-x="1095" d="M143 0v1241q0 90 46.5 147.5t138.5 57.5h417q92 0 142.5 -48.5t50.5 -135.5v-78l-389 -336l313 -164q65 -35 88 -74t23 -112v-320q0 -178 -174 -178h-381l-8 41h385q74 0 104.5 34t30.5 101v324q0 101 -88 147l-330 176v39l383 336v59q0 69 -41.5 110.5t-108.5 41.5h-417 q-142 0 -142 -164v-1245h-43z" />
<glyph unicode="&#xe0;" horiz-adv-x="921" d="M82 170v174q0 78 45.5 127t124.5 53l483 29v274q0 150 -147 150h-453l6 39h445q96 0 144 -50.5t48 -136.5v-829h-24l-29 37l-29 -37h-442q-85 0 -128.5 44.5t-43.5 125.5zM127 174q0 -135 129 -135h377q47 0 74.5 35t27.5 90v352l-483 -29q-59 -1 -92 -40t-33 -103v-170z M350 1319h51l99 -201h-35z" />
<glyph unicode="&#xe1;" horiz-adv-x="921" d="M82 170v174q0 78 45.5 127t124.5 53l483 29v274q0 150 -147 150h-453l6 39h445q96 0 144 -50.5t48 -136.5v-829h-24l-29 37l-29 -37h-442q-85 0 -128.5 44.5t-43.5 125.5zM127 174q0 -135 129 -135h377q47 0 74.5 35t27.5 90v352l-483 -29q-59 -1 -92 -40t-33 -103v-170z M381 1118l98 201h51l-114 -201h-35z" />
<glyph unicode="&#xe2;" horiz-adv-x="978" d="M139 170v174q0 78 45.5 127t124.5 53l484 29v274q0 150 -148 150h-452l6 39h444q96 0 144.5 -50.5t48.5 -136.5v-829h-25l-29 37l-28 -37h-443q-85 0 -128.5 44.5t-43.5 125.5zM184 174q0 -135 129 -135h377q47 0 75 35t28 90v352l-484 -29q-59 -1 -92 -40t-33 -103v-170 zM350 1118l133 201h43l133 -201h-34l-119 162l-121 -162h-35z" />
<glyph unicode="&#xe3;" horiz-adv-x="925" d="M82 170v174q0 78 45.5 127t124.5 53l483 29v274q0 150 -147 150h-453l6 39h445q96 0 144 -50.5t48 -136.5v-829h-24l-29 37l-29 -37h-442q-85 0 -128.5 44.5t-43.5 125.5zM127 174q0 -135 129 -135h377q47 0 74.5 35t27.5 90v352l-483 -29q-59 -1 -92 -40t-33 -103v-170z M164 1120l145 205h35l277 -178l129 186h32l-143 -213h-35l-276 178l-129 -178h-35z" />
<glyph unicode="&#xe4;" horiz-adv-x="921" d="M82 170v174q0 78 45.5 127t124.5 53l483 29v274q0 150 -147 150h-453l6 39h445q96 0 144 -50.5t48 -136.5v-829h-24l-29 37l-29 -37h-442q-85 0 -128.5 44.5t-43.5 125.5zM127 174q0 -135 129 -135h377q47 0 74.5 35t27.5 90v352l-483 -29q-59 -1 -92 -40t-33 -103v-170z M322 1188v51h49v-51h-49zM524 1188v51h49v-51h-49z" />
<glyph unicode="&#xe5;" horiz-adv-x="921" d="M82 170v174q0 78 45.5 127t124.5 53l483 29v274q0 150 -147 150h-453l6 39h445q96 0 144 -50.5t48 -136.5v-829h-24l-29 37l-29 -37h-442q-85 0 -128.5 44.5t-43.5 125.5zM127 174q0 -135 129 -135h377q47 0 74.5 35t27.5 90v352l-483 -29q-59 -1 -92 -40t-33 -103v-170z M305 1260v14q0 62 34.5 98.5t94.5 36.5h12q62 0 97 -36t35 -99v-10q0 -62 -35.5 -99t-96.5 -37h-12q-61 0 -95 35t-34 97zM348 1262q0 -95 86 -95h12q89 0 89 97v12q0 44 -23.5 70t-62.5 26h-15q-39 0 -62.5 -26t-23.5 -72v-12z" />
<glyph unicode="&#xe6;" horiz-adv-x="1638" d="M102 170v174q0 78 45.5 127t124.5 53l484 29v287q-9 137 -148 137h-452l6 39h444q120 0 166 -82q37 82 137 82h430q156 0 156 -166v-229q0 -166 -154 -166h-512l-30 20v-309q0 -127 110 -127h539l-4 -39h-535q-100 0 -135 68q-38 -68 -119 -68h-381q-85 0 -128.5 44.5 t-43.5 125.5zM147 174q0 -135 129 -135h377q42 0 70 32.5t33 84.5v360l-484 -29q-59 -1 -92 -40t-33 -103v-170zM799 492h542q111 0 111 129v225q0 131 -111 131h-432q-110 0 -110 -127v-358z" />
<glyph unicode="&#xe7;" horiz-adv-x="868" d="M123 166v684q0 78 41.5 122t111.5 44h463l6 -37h-469q-110 0 -110 -129v-684q0 -60 29.5 -94.5t80.5 -34.5h465v-37h-239l-92 -178h133q102 0 102 -98v-99q0 -96 -96 -96h-191v45h179q57 0 57 51v94q0 60 -53 60h-179v41l91 180h-177q-70 0 -111.5 44t-41.5 122z" />
<glyph unicode="&#xe8;" horiz-adv-x="985" d="M123 166v684q0 78 41.5 122t111.5 44h431q155 0 155 -166v-229q0 -166 -153 -166h-512l-31 20v-309q0 -127 110 -127h539l-4 -39h-535q-153 0 -153 166zM166 492h543q110 0 110 129v225q0 131 -110 131h-433q-110 0 -110 -127v-358zM381 1319h51l98 -201h-34z" />
<glyph unicode="&#xe9;" horiz-adv-x="985" d="M123 166v684q0 78 41.5 122t111.5 44h431q155 0 155 -166v-229q0 -166 -153 -166h-512l-31 20v-309q0 -127 110 -127h539l-4 -39h-535q-153 0 -153 166zM166 492h543q110 0 110 129v225q0 131 -110 131h-433q-110 0 -110 -127v-358zM401 1118l99 201h51l-115 -201h-35z " />
<glyph unicode="&#xea;" horiz-adv-x="985" d="M123 166v684q0 78 41.5 122t111.5 44h431q155 0 155 -166v-229q0 -166 -153 -166h-512l-31 20v-309q0 -127 110 -127h539l-4 -39h-535q-153 0 -153 166zM166 492h543q110 0 110 129v225q0 131 -110 131h-433q-110 0 -110 -127v-358zM338 1118l133 201h43l133 -201h-35 l-118 162l-121 -162h-35z" />
<glyph unicode="&#xeb;" horiz-adv-x="985" d="M123 166v684q0 78 41.5 122t111.5 44h431q155 0 155 -166v-229q0 -166 -153 -166h-512l-31 20v-309q0 -127 110 -127h539l-4 -39h-535q-153 0 -153 166zM166 492h543q110 0 110 129v225q0 131 -110 131h-433q-110 0 -110 -127v-358zM352 1188v51h49v-51h-49zM555 1188v51 h49v-51h-49z" />
<glyph unicode="&#xec;" horiz-adv-x="329" d="M39 1319h51l98 -201h-34zM143 0v1016h43v-1016h-43z" />
<glyph unicode="&#xed;" horiz-adv-x="329" d="M141 1118l99 201h51l-115 -201h-35zM143 0v1016h43v-1016h-43z" />
<glyph unicode="&#xee;" horiz-adv-x="329" d="M8 1118l133 201h43l133 -201h-34l-119 162l-121 -162h-35zM143 0v1016h43v-1016h-43z" />
<glyph unicode="&#xef;" horiz-adv-x="329" d="M35 1188v51h49v-51h-49zM143 0v1016h43v-1016h-43zM238 1188v51h49v-51h-49z" />
<glyph unicode="&#xf0;" horiz-adv-x="985" d="M123 166v684q0 78 41.5 122t111.5 44h498l45 -35v35q0 112 -123 174l-266 129l-63 -143l-33 16l63 141l-223 99l16 30l224 -98l61 139l33 -14l-62 -135l273 -135q143 -67 143 -203v-850q0 -166 -153 -166h-435q-79 0 -115 40.5t-36 125.5zM166 166q0 -127 110 -127h433 q110 0 110 127v682q0 129 -110 129h-433q-110 0 -110 -127v-684z" />
<glyph unicode="&#xf1;" horiz-adv-x="1003" d="M143 0v1016h31l29 -37l33 37h469q155 0 155 -166v-850h-43v846q0 131 -115 131h-401q-115 0 -115 -129v-848h-43zM205 1120l145 205h35l277 -178l129 186h32l-143 -213h-35l-276 178l-129 -178h-35z" />
<glyph unicode="&#xf2;" horiz-adv-x="985" d="M123 166v684q0 78 41.5 122t111.5 44h431q155 0 155 -166v-684q0 -166 -153 -166h-430q-156 0 -156 166zM166 166q0 -127 110 -127h431q60 0 86 31.5t26 101.5v674q0 131 -110 131h-433q-110 0 -110 -127v-684zM381 1319h51l98 -201h-34z" />
<glyph unicode="&#xf3;" horiz-adv-x="985" d="M123 166v684q0 78 41.5 122t111.5 44h431q155 0 155 -166v-684q0 -166 -153 -166h-430q-156 0 -156 166zM166 166q0 -127 110 -127h431q60 0 86 31.5t26 101.5v674q0 131 -110 131h-433q-110 0 -110 -127v-684zM442 1118l99 201h51l-115 -201h-35z" />
<glyph unicode="&#xf4;" horiz-adv-x="985" d="M123 166v684q0 78 41.5 122t111.5 44h431q155 0 155 -166v-684q0 -166 -153 -166h-430q-156 0 -156 166zM166 166q0 -127 110 -127h431q60 0 86 31.5t26 101.5v674q0 131 -110 131h-433q-110 0 -110 -127v-684zM334 1118l133 201h43l133 -201h-35l-119 162l-120 -162h-35 z" />
<glyph unicode="&#xf5;" horiz-adv-x="985" d="M123 166v684q0 78 41.5 122t111.5 44h431q155 0 155 -166v-684q0 -166 -153 -166h-430q-156 0 -156 166zM166 166q0 -127 110 -127h431q60 0 86 31.5t26 101.5v674q0 131 -110 131h-433q-110 0 -110 -127v-684zM209 1118l145 205h35l277 -178l129 186h32l-143 -213h-35 l-276 178l-129 -178h-35z" />
<glyph unicode="&#xf6;" horiz-adv-x="985" d="M123 166v684q0 78 41.5 122t111.5 44h431q155 0 155 -166v-684q0 -166 -153 -166h-430q-156 0 -156 166zM166 166q0 -127 110 -127h431q60 0 86 31.5t26 101.5v674q0 131 -110 131h-433q-110 0 -110 -127v-684zM356 1188v51h50v-51h-50zM559 1188v51h49v-51h-49z" />
<glyph unicode="&#xf7;" horiz-adv-x="950" d="M102 715v43h684v-43h-684zM424 336v45h41v-45h-41zM424 1085v45h41v-45h-41z" />
<glyph unicode="&#xf8;" horiz-adv-x="985" d="M123 -27l51 78q-35 41 -35 115v684q0 78 42 122t112 44h401q51 0 94 -29l54 80l28 -20l-55 -84q33 -44 33 -113v-684q0 -78 -42 -122t-112 -44h-401q-53 0 -92 25l-47 -72zM182 166q0 -47 17 -78l567 866q-28 25 -72 25h-401q-111 0 -111 -129v-684zM223 57 q26 -20 70 -20h401q111 0 111 129v684q0 35 -17 74z" />
<glyph unicode="&#xf9;" d="M143 166v850h43v-846q0 -69 26.5 -100t86.5 -31h406q114 0 114 129v848h43v-1016h-31l-30 37l-27 -37h-475q-156 0 -156 166zM381 1319h51l98 -201h-34z" />
<glyph unicode="&#xfa;" d="M143 166v850h43v-846q0 -69 26.5 -100t86.5 -31h406q114 0 114 129v848h43v-1016h-31l-30 37l-27 -37h-475q-156 0 -156 166zM463 1118l98 201h51l-114 -201h-35z" />
<glyph unicode="&#xfb;" d="M143 166v850h43v-846q0 -69 26.5 -100t86.5 -31h406q114 0 114 129v848h43v-1016h-31l-30 37l-27 -37h-475q-156 0 -156 166zM340 1118l133 201h43l133 -201h-35l-118 162l-121 -162h-35z" />
<glyph unicode="&#xfc;" d="M143 166v850h43v-846q0 -69 26.5 -100t86.5 -31h406q114 0 114 129v848h43v-1016h-31l-30 37l-27 -37h-475q-156 0 -156 166zM360 1188v51h50v-51h-50zM563 1188v51h49v-51h-49z" />
<glyph unicode="&#xfd;" d="M143 166v850h43v-846q0 -69 26.5 -100t86.5 -31h406q108 0 114 113v864h43v-1321q0 -78 -41.5 -122t-111.5 -44h-527v37h527q51 0 80.5 34.5t29.5 94.5v346l-45 -41h-475q-156 0 -156 166zM463 1118l98 201h51l-114 -201h-35z" />
<glyph unicode="&#xfe;" d="M143 -471v1909l43 8v-475l56 45h481q75 0 117.5 -43.5t42.5 -122.5v-684q0 -166 -154 -166h-508l-35 37v-496zM186 166q0 -129 115 -129h426q113 0 113 131v682q0 129 -115 129h-424q-54 0 -84.5 -34.5t-30.5 -94.5v-684z" />
<glyph unicode="&#xff;" d="M143 166v850h43v-846q0 -69 26.5 -100t86.5 -31h406q108 0 114 113v864h43v-1321q0 -78 -41.5 -122t-111.5 -44h-527v37h527q51 0 80.5 34.5t29.5 94.5v346l-45 -41h-475q-156 0 -156 166zM365 1188v51h49v-51h-49zM567 1188v51h49v-51h-49z" />
<glyph unicode="&#x152;" horiz-adv-x="1896" d="M143 184v1061q0 83 50.5 134t146.5 51h1434v-39h-727v-654h573v-39h-573v-657h727v-41h-1434q-96 0 -146.5 50.5t-50.5 133.5zM186 182q0 -143 154 -143h664v1352h-664q-154 0 -154 -144v-1065z" />
<glyph unicode="&#x153;" horiz-adv-x="1650" d="M123 166v684q0 78 41.5 122t111.5 44h402q93 0 131 -72q41 72 133 72h430q156 0 156 -166v-229q0 -166 -154 -166h-512l-31 20v-309q0 -127 111 -127h539l-4 -39h-535q-100 0 -135 68q-38 -68 -129 -68h-402q-70 0 -111.5 44t-41.5 122zM166 166q0 -129 110 -129h402 q110 0 110 117v696q0 62 -28 95.5t-82 33.5h-402q-110 0 -110 -129v-684zM831 492h543q111 0 111 129v225q0 131 -111 131h-432q-111 0 -111 -127v-358z" />
<glyph unicode="&#x178;" horiz-adv-x="1112" d="M61 1430h50l448 -746l445 746h47l-471 -791v-639h-43v639zM412 1585v51h49v-51h-49zM614 1585v51h50v-51h-50z" />
<glyph unicode="&#x2c6;" horiz-adv-x="514" d="M102 1229l119 201h72l119 -201h-56l-100 141l-98 -141h-56z" />
<glyph unicode="&#x2dc;" horiz-adv-x="782" d="M82 1225l145 205h35l277 -179l129 187h32l-143 -213h-35l-276 178l-129 -178h-35z" />
<glyph unicode="&#x2000;" horiz-adv-x="867" />
<glyph unicode="&#x2001;" horiz-adv-x="1735" />
<glyph unicode="&#x2002;" horiz-adv-x="867" />
<glyph unicode="&#x2003;" horiz-adv-x="1735" />
<glyph unicode="&#x2004;" horiz-adv-x="578" />
<glyph unicode="&#x2005;" horiz-adv-x="433" />
<glyph unicode="&#x2006;" horiz-adv-x="289" />
<glyph unicode="&#x2007;" horiz-adv-x="289" />
<glyph unicode="&#x2008;" horiz-adv-x="216" />
<glyph unicode="&#x2009;" horiz-adv-x="347" />
<glyph unicode="&#x200a;" horiz-adv-x="96" />
<glyph unicode="&#x2010;" horiz-adv-x="569" d="M41 477v33h487v-33h-487z" />
<glyph unicode="&#x2011;" horiz-adv-x="569" d="M41 477v33h487v-33h-487z" />
<glyph unicode="&#x2012;" horiz-adv-x="569" d="M41 477v33h487v-33h-487z" />
<glyph unicode="&#x2013;" horiz-adv-x="958" d="M41 489v33h877v-33h-877z" />
<glyph unicode="&#x2014;" horiz-adv-x="1511" d="M41 483v33h1429v-33h-1429z" />
<glyph unicode="&#x2018;" horiz-adv-x="323" d="M123 1186v65l43 179h55l-43 -181h8v-63h-63z" />
<glyph unicode="&#x2019;" horiz-adv-x="323" d="M102 1186l43 180h-8v64h64v-66l-43 -178h-56z" />
<glyph unicode="&#x201a;" horiz-adv-x="348" d="M123 -160l47 160h-8v63h63v-65l-43 -158h-59z" />
<glyph unicode="&#x201c;" horiz-adv-x="477" d="M123 1186v65l43 179h55l-43 -181h8v-63h-63zM276 1186v65l43 179h56l-43 -181h8v-63h-64z" />
<glyph unicode="&#x201d;" horiz-adv-x="477" d="M102 1186l43 180h-8v64h64v-66l-43 -178h-56zM256 1186l43 180h-8v64h63v-66l-43 -178h-55z" />
<glyph unicode="&#x201e;" horiz-adv-x="552" d="M123 -160l47 160h-8v63h63v-65l-43 -158h-59zM328 -160l47 160h-8v63h63v-65l-43 -158h-59z" />
<glyph unicode="&#x2022;" horiz-adv-x="315" d="M102 729v16q0 48 50 48h12q49 0 49 -48v-16q0 -47 -49 -47h-12q-50 0 -50 47z" />
<glyph unicode="&#x2026;" horiz-adv-x="1189" d="M143 0v63h64v-63h-64zM553 0v63h63v-63h-63zM983 0v63h64v-63h-64z" />
<glyph unicode="&#x202f;" horiz-adv-x="347" />
<glyph unicode="&#x2039;" horiz-adv-x="694" d="M102 492v28l490 500v-53l-449 -459l449 -455v-59z" />
<glyph unicode="&#x203a;" horiz-adv-x="694" d="M102 -6v59l449 455l-449 459v53l490 -500v-28z" />
<glyph unicode="&#x205f;" horiz-adv-x="433" />
<glyph unicode="&#x20ac;" horiz-adv-x="1071" d="M0 522l20 41h123v295h-104l20 41h84v346q0 86 47.5 135.5t143.5 49.5h678l4 -39h-682q-148 0 -148 -144v-348h668l-20 -41h-648v-295h629l-20 -41h-609v-340q0 -67 40 -105t114 -38h686v-39h-686q-96 0 -146.5 50.5t-50.5 133.5v338h-143z" />
<glyph unicode="&#x2122;" horiz-adv-x="1261" d="M113 1399v31h407v-31h-186v-535h-37v535h-184zM621 864v566h30l219 -379l215 379h33v-566h-33v496l-200 -352h-31l-199 346v-490h-34z" />
<glyph unicode="&#x25fc;" horiz-adv-x="1013" d="M0 0v1014h1014v-1014h-1014z" />
</font>
</defs>
</svg>
