<?xml version="1.0" standalone="no"?>
<!DOCTYPE svg PUBLIC "-//W3C//DTD SVG 1.1//EN" "http://www.w3.org/Graphics/SVG/1.1/DTD/svg11.dtd" >
<svg xmlns="http://www.w3.org/2000/svg" xmlns:xlink="http://www.w3.org/1999/xlink" version="1.1">
<metadata></metadata>
<defs>
<font id="lab_sans_promedium_italic" horiz-adv-x="1077" >
<font-face units-per-em="2048" ascent="1544" descent="-504" />
<missing-glyph horiz-adv-x="409" />
<glyph unicode="&#xfb01;" horiz-adv-x="1110" d="M106 827l21 193h184l23 219q11 93 72 147t163 54h463q33 0 54.5 -20.5t21.5 -57.5l-23 -219h-208l4 35q0 71 -80 71h-170q-83 0 -92 -90l-15 -139h221l-20 -193h-223l-133 -1273l-213 -25l135 1298h-185zM756 0l112 1020h203l-106 -1020h-209z" />
<glyph unicode="&#xfb02;" horiz-adv-x="1118" d="M106 827l21 193h184l21 205q11 95 70 151t157 56h352l213 14l-149 -1446h-213l129 1241h-262q-81 0 -90 -90l-15 -131h221l-20 -193h-223l-137 -1273l-211 -25l137 1298h-185z" />
<glyph unicode="&#xfb03;" horiz-adv-x="1662" d="M106 827l21 193h184l17 166q11 95 69 151t158 56h211l-8 -191h-133q-81 0 -90 -90l-11 -92h338l23 219q11 93 72 147t163 54h463q33 0 54.5 -20.5t21.5 -57.5l-23 -219h-209l5 35q0 71 -74 71h-176q-83 0 -92 -90l-15 -139h221l-20 -193h-225l-127 -1230l-213 -25 l129 1255h-338l-133 -1273l-211 -25l133 1298h-185zM1305 0l112 1020h203l-107 -1020h-208z" />
<glyph unicode="&#xfb04;" horiz-adv-x="1669" d="M106 827l21 193h184l17 166q11 95 69 151t158 56h211l-8 -191h-133q-81 0 -90 -90l-11 -92h338l21 205q21 207 274 207h307l213 14l-151 -1446h-211l129 1241h-264q-81 0 -90 -90l-15 -131h221l-20 -193h-221l-131 -1230l-213 -25l131 1255h-340l-133 -1273l-211 -25 l133 1298h-185z" />
<glyph horiz-adv-x="0" />
<glyph horiz-adv-x="682" />
<glyph unicode=" "  horiz-adv-x="409" />
<glyph unicode="&#x09;" horiz-adv-x="409" />
<glyph unicode="&#xa0;" horiz-adv-x="409" />
<glyph unicode="!" horiz-adv-x="464" d="M123 0l20 213h217l-20 -213h-217zM182 340l90 1090h220l-140 -1090h-170z" />
<glyph unicode="&#x22;" horiz-adv-x="794" d="M260 1044l33 388h194l-49 -388h-178zM573 1044l33 388h195l-49 -388h-179z" />
<glyph unicode="#" horiz-adv-x="1224" d="M143 406l19 172h198l54 278h-203l18 172h217l78 402h178l-77 -402h239l78 402h178l-78 -402h187l-19 -172h-200l-54 -278h205l-18 -172h-219l-76 -406h-178l73 406h-237l-76 -406h-178l76 406h-185zM539 578h239l51 278h-237z" />
<glyph unicode="$" horiz-adv-x="1091" d="M162 0l8 197h508q73 0 82 69l31 232q0 67 -66 88l-358 82q-138 40 -138 147q0 29 45 449q7 78 54.5 122t117.5 44h154l18 184h189l-19 -184h261l-9 -197h-481q-78 0 -84 -70l-20 -213q0 -34 14 -49.5t51 -28.5l359 -81q135 -40 135 -148q0 -21 -49 -477 q-7 -78 -53.5 -122t-116.5 -44h-156l-21 -188h-188l21 188h-289z" />
<glyph unicode="%" horiz-adv-x="1585" d="M211 858l47 445q6 58 44.5 93.5t100.5 35.5h252q59 0 90 -30t31 -81l-47 -444q-6 -59 -43.5 -94t-101.5 -35h-252q-56 0 -88.5 30t-32.5 80zM389 950q0 -45 47 -45h78q50 0 59 58l27 262q0 47 -47 47h-78q-56 0 -59 -55zM465 0l631 1432h182l-629 -1432h-184zM956 111 l48 442q6 58 43.5 93.5t99.5 35.5h252q59 0 91 -30t32 -81l-45 -442q-6 -59 -44 -94t-102 -35h-254q-56 0 -88.5 30.5t-32.5 80.5zM1135 203q0 -45 47 -45h78q50 0 59 57l27 262q0 47 -50 47h-77q-55 0 -58 -55z" />
<glyph unicode="&#x26;" horiz-adv-x="1216" d="M160 215l43 381q22 155 159 189q2 1 3 1q-8 1 -22.5 18t-29 51.5t-14.5 72.5l29 241q14 125 87.5 193t194.5 68h289q223 0 223 -197q0 -13 -28 -281h-207l22 215q0 80 -82 80h-192q-91 0 -103 -92l-20 -170q0 -70 47 -117l356 -342l21 187h203l-39 -363l117 -112 l-35 -242l-129 121q-59 -117 -230 -117h-422q-116 0 -178.5 55.5t-62.5 159.5zM371 272q0 -38 24.5 -64t67.5 -26h325q92 0 101 90l-395 375q-84 -6 -93 -92z" />
<glyph unicode="'" horiz-adv-x="481" d="M260 1044l33 388h194l-49 -388h-178z" />
<glyph unicode="(" horiz-adv-x="628" d="M186 254q9 775 346 1364h191q-182 -318 -263 -655.5t-81 -735.5q0 -382 123 -698h-191q-125 287 -125 725z" />
<glyph unicode=")" horiz-adv-x="628" d="M23 -471q182 318 263 655.5t81 735.5q0 382 -123 698h190q125 -287 125 -725q-9 -775 -346 -1364h-190z" />
<glyph unicode="*" horiz-adv-x="704" d="M207 1190l76 137l125 -61l18 166h147l-18 -168l143 63l50 -137l-158 -68l92 -139l-121 -86l-100 141l-131 -143l-107 88l125 139z" />
<glyph unicode="+" horiz-adv-x="991" d="M168 641l20 178h304l32 326h178l-32 -326h305l-21 -178h-305l-33 -319h-182l37 319h-303z" />
<glyph unicode="," horiz-adv-x="452" d="M84 -231l84 231h-39l23 231h213l-25 -233l-80 -229h-176z" />
<glyph unicode="-" horiz-adv-x="655" d="M94 399l21 187h549l-21 -187h-549z" />
<glyph unicode="." horiz-adv-x="432" d="M109 0l22 231h213l-22 -231h-213z" />
<glyph unicode="/" horiz-adv-x="706" d="M-180 -471l837 1901h199l-840 -1901h-196z" />
<glyph unicode="0" horiz-adv-x="1157" d="M141 178l109 1045q11 93 73 150t162 57h486q92 0 142 -49t50 -130q0 -18 -108 -1044q-11 -93 -72.5 -150t-161.5 -57h-485q-92 0 -143.5 48.5t-51.5 129.5zM362 274q0 -79 78 -79h320q83 0 92 86l92 882q0 70 -74 70h-325q-83 0 -92 -90z" />
<glyph unicode="1" horiz-adv-x="727" d="M41 0l18 188h222l110 1045l-209 -23l19 183l422 41l-131 -1246h213l-19 -188h-645z" />
<glyph unicode="2" horiz-adv-x="1011" d="M61 0l19 188l694 793q43 52 49 106l11 84q0 27 -19 44.5t-51 17.5h-553l33 197h618q85 0 138 -45t53 -134l-15 -151q-10 -61 -20 -90t-37 -66l-25 -37q-2 -4 -34 -41l-33 -37l-561 -632h657l-33 -197h-891z" />
<glyph unicode="3" horiz-adv-x="1028" d="M117 0l18 197h481q92 0 101 90l26 256q0 67 -71 73h-430l20 195h426q81 6 90 92l31 262q0 72 -82 72h-481l30 193h529q223 0 223 -175q0 -31 -37 -370q-7 -63 -39.5 -109.5t-66.5 -58.5l-29 -10q20 -7 27 -11q23 -9 48 -47.5t25 -87.5l-32 -309q-27 -252 -269 -252h-538z " />
<glyph unicode="4" horiz-adv-x="1177" d="M117 350l20 176l707 904h217l-92 -881h200l-22 -199h-201l-35 -350h-217l35 350h-612zM369 547h381l59 567z" />
<glyph unicode="5" horiz-adv-x="1097" d="M133 0l21 197h544q47 0 68 19.5t25 68.5l28 272q0 61 -69 61h-564l127 812h787l-10 -197h-609l-65 -418h448q86 0 132 -43.5t46 -118.5l-49 -463q-10 -92 -70.5 -141t-154.5 -49h-635z" />
<glyph unicode="6" horiz-adv-x="1134" d="M141 178l109 1045q11 93 73 150t162 57h635l-10 -197h-559q-89 0 -98 -90l-33 -312h471q90 0 139 -46.5t49 -131.5l-47 -446q-10 -96 -75.5 -151.5t-153.5 -55.5h-473q-85 0 -137 49.5t-52 128.5zM360 264q0 -69 74 -69h297q85 0 94 79l29 283q0 80 -88 80h-367z" />
<glyph unicode="7" horiz-adv-x="1052" d="M203 1233l30 197h893l-20 -191l-645 -1239h-234l660 1233h-684z" />
<glyph unicode="8" horiz-adv-x="1128" d="M145 211l33 332q12 127 113 170q-2 0 -10.5 4.5t-20.5 15.5t-22.5 26t-18.5 38.5t-8 50.5l35 330q27 252 272 252h393q224 0 224 -197q0 -31 -37 -361q-4 -33 -16 -61t-26.5 -45t-30 -29t-26 -17t-14.5 -5l25 -13q17 -9 36 -47t19 -82q0 -30 -33 -321 q-12 -130 -75.5 -191t-194.5 -61h-385q-113 0 -172.5 54t-59.5 157zM360 264q0 -74 84 -74h275q93 0 102 91l25 241q0 67 -70 76l-297 14q-41 -1 -64 -27t-28 -65zM428 903q0 -67 74 -76l293 -14q83 6 92 92l26 258q0 76 -84 76h-274q-93 0 -102 -92z" />
<glyph unicode="9" horiz-adv-x="1134" d="M164 0l10 197h559q55 4 74.5 28t21.5 62l33 311h-471q-88 0 -137 46t-49 128l45 451q10 96 76 151.5t155 55.5h473q84 0 135.5 -51t51.5 -128l-109 -1044q-11 -93 -72 -150t-161 -57h-635zM426 854q0 -61 74 -61h383l41 381q0 61 -74 61h-299q-83 0 -92 -80z" />
<glyph unicode=":" horiz-adv-x="446" d="M117 0l22 231h213l-22 -231h-213zM199 782l24 234h213l-24 -234h-213z" />
<glyph unicode=";" horiz-adv-x="487" d="M92 -231l84 231h-39l23 231h213l-25 -233l-80 -229h-176zM219 782l25 234h213l-25 -234h-213z" />
<glyph unicode="&#x3c;" horiz-adv-x="1036" d="M166 412l18 186l836 422l-21 -201l-645 -311l578 -318l-21 -196z" />
<glyph unicode="=" horiz-adv-x="991" d="M150 449l18 178h786l-18 -178h-786zM188 834l19 178h786l-18 -178h-787z" />
<glyph unicode="&#x3e;" horiz-adv-x="1036" d="M121 -6l20 196l645 318l-577 311l20 201l746 -422l-19 -186z" />
<glyph unicode="?" horiz-adv-x="1009" d="M252 1241l31 189h508q116 0 169.5 -46.5t53.5 -140.5q0 -17 -31 -325q-15 -125 -123 -193l-155 -96q-53 -34 -76 -70t-29 -88l-14 -123h-193l25 232q9 98 94 155l178 115q47 29 69.5 61.5t28.5 94.5l17 157q0 78 -84 78h-469zM348 0l21 213h217l-21 -213h-217z" />
<glyph unicode="@" horiz-adv-x="2052" d="M113 -207l143 1387q11 112 83.5 181t188.5 69h1282q116 0 169 -49.5t53 -149.5q0 -42 -101 -979q-27 -252 -250 -252h-278q-83 0 -121 68l-55 -68h-426q-74 0 -118 45t-44 115l74 694q7 78 54.5 122t117.5 44h399l43 -57l41 57h170l-82 -766q3 -75 68 -84h112q84 0 93 92 l94 907q0 78 -82 78h-1180q-93 0 -102 -90l-135 -1309q0 -75 71 -75h1047l-43 -183h-1065q-118 0 -169.5 52t-51.5 151zM856 258q0 -68 68 -68h233q81 0 90 74l56 506q0 61 -74 61h-238q-76 0 -82 -69z" />
<glyph unicode="A" horiz-adv-x="1183" d="M41 0l590 1432h213l299 -1432h-232l-80 383h-403l-158 -383h-229zM498 573h303l-99 514z" />
<glyph unicode="B" horiz-adv-x="1193" d="M164 0l149 1432h633q117 0 169 -48.5t52 -150.5l-32 -346q-12 -115 -103 -160q80 -30 80 -129l-35 -346q-12 -119 -81.5 -185.5t-190.5 -66.5h-641zM393 186h373q93 0 102 90l29 285q0 70 -74 76h-383zM461 819h373q81 6 90 92l26 256q0 80 -82 80h-362z" />
<glyph unicode="C" horiz-adv-x="1095" d="M164 203l100 979q27 250 273 250h559l-9 -189h-514q-91 0 -100 -90l-88 -887q0 -76 72 -76h522l-18 -190h-574q-119 0 -171 52t-52 151z" />
<glyph unicode="D" horiz-adv-x="1277" d="M162 0l149 1432h725q221 0 221 -209q0 -43 -100 -971q-27 -252 -270 -252h-725zM395 184h463q83 0 92 88l92 897q0 78 -84 78h-454z" />
<glyph unicode="E" horiz-adv-x="1056" d="M164 0l149 1432h770l-20 -189h-555l-49 -430h487l-20 -195h-488l-45 -425h559l-18 -193h-770z" />
<glyph unicode="F" horiz-adv-x="1056" d="M164 0l149 1432h770l-20 -189h-559l-45 -436h467l-21 -195h-467l-63 -612h-211z" />
<glyph unicode="G" horiz-adv-x="1259" d="M166 203l100 979q27 250 273 250h606l-8 -187h-562q-91 0 -100 -90l-92 -895q0 -76 72 -76h385q83 0 92 92l29 263h-228l19 190h438l-51 -477q-13 -125 -75 -188.5t-196 -63.5h-479q-119 0 -171 52t-52 151z" />
<glyph unicode="H" horiz-adv-x="1239" d="M164 0l149 1432h211l-65 -619h487l66 619h213l-150 -1432h-213l64 623h-488l-63 -623h-211z" />
<glyph unicode="I" horiz-adv-x="731" d="M82 0l18 182h179l112 1067h-178l18 183h568l-19 -183h-178l-113 -1067h179l-19 -182h-567z" />
<glyph unicode="J" horiz-adv-x="757" d="M92 0l8 182h217q82 0 91 90l104 977h-299l18 183h512l-125 -1180q-13 -125 -74.5 -188.5t-195.5 -63.5h-256z" />
<glyph unicode="K" horiz-adv-x="1181" d="M164 0l149 1432h211l-65 -617h237q90 0 117 80l188 537h216l-197 -570q-34 -100 -90 -139q52 -52 67 -145l109 -578h-217l-111 547q-15 80 -100 80h-238l-63 -627h-213z" />
<glyph unicode="L" horiz-adv-x="999" d="M164 0l149 1432h211l-131 -1242h522l-18 -190h-733z" />
<glyph unicode="M" horiz-adv-x="1388" d="M164 0l149 1432h201l254 -738l393 738h213l-149 -1432h-213l98 952l-287 -563h-176l-176 545l-96 -934h-211z" />
<glyph unicode="N" horiz-adv-x="1239" d="M164 0l149 1432h207l395 -918l97 918h213l-150 -1432h-186l-412 977l-102 -977h-211z" />
<glyph unicode="O" horiz-adv-x="1257" d="M164 209l100 973q27 250 273 250h479q221 0 221 -207q0 -47 -100 -975q-24 -250 -271 -250h-479q-109 0 -166 54t-57 155zM383 264q0 -37 20 -58.5t60 -21.5h364q94 0 103 90l92 893q0 80 -82 80h-365q-43 0 -70 -26t-32 -64z" />
<glyph unicode="P" horiz-adv-x="1181" d="M164 0l149 1432h629q120 0 171.5 -43t51.5 -138l-45 -452q-24 -242 -270 -242h-418l-57 -557h-211zM453 743h358q91 0 100 91l35 333q0 80 -82 80h-358z" />
<glyph unicode="Q" horiz-adv-x="1259" d="M166 209l100 973q27 250 273 250h479q221 0 221 -207q0 -47 -100 -975q-6 -54 -21 -92l215 -271l-252 -26l-123 149q-38 -10 -90 -10h-479q-109 0 -166 54t-57 155zM385 264q0 -37 20 -58.5t60 -21.5h364q94 0 103 90l92 893q0 80 -82 80h-364q-43 0 -70.5 -26t-32.5 -64 z" />
<glyph unicode="R" horiz-adv-x="1155" d="M164 0l149 1432h621q221 0 221 -201q0 -33 -37 -391q-6 -53 -32 -97t-54 -59l-24 -12q7 -2 18 -13q14 -10 32 -50t19 -85l23 -524h-219l-17 479q-3 90 -92 90h-338l-59 -569h-211zM453 760h344q42 0 69.5 27t32.5 69l39 313q0 80 -88 80h-344z" />
<glyph unicode="S" horiz-adv-x="1060" d="M145 0l9 197h508q75 0 81 69l31 246q0 54 -57 72l-367 84q-137 34 -137 147l45 451q7 78 54.5 122t117.5 44h604l-8 -197h-479q-78 0 -84 -70l-23 -219q0 -51 58 -69l364 -86q137 -34 137 -148l-49 -477q-7 -78 -53.5 -122t-116.5 -44h-635z" />
<glyph unicode="T" horiz-adv-x="1089" d="M213 1249l18 183h926l-18 -183h-359l-131 -1249h-211l131 1249h-356z" />
<glyph unicode="U" horiz-adv-x="1236" d="M186 221l127 1211h211l-121 -1160q0 -36 21.5 -59t56.5 -23h316q83 0 92 93l121 1149h213l-125 -1180q-13 -125 -75 -188.5t-196 -63.5h-417q-224 0 -224 221z" />
<glyph unicode="V" horiz-adv-x="1175" d="M190 1432h220l229 -1076l387 1076h217l-530 -1432h-228z" />
<glyph unicode="W" horiz-adv-x="1671" d="M211 1432h219l107 -1055l335 1055h230l119 -1029l319 1029h219l-473 -1432h-221l-119 1016l-346 -1016h-227z" />
<glyph unicode="X" horiz-adv-x="1114" d="M88 0l424 715l-276 717h239l189 -498l276 498h231l-417 -734l272 -698h-235l-187 479l-285 -479h-231z" />
<glyph unicode="Y" horiz-adv-x="1140" d="M211 1432h244l202 -535l328 535h244l-498 -793l-65 -639h-207l65 639z" />
<glyph unicode="Z" horiz-adv-x="983" d="M61 0l17 162l708 1081h-561l33 189h805l-19 -172l-702 -1070h586l-31 -190h-836z" />
<glyph unicode="[" horiz-adv-x="661" d="M92 -471l223 2111h437l-21 -190h-233l-183 -1731h234l-21 -190h-436z" />
<glyph unicode="\" horiz-adv-x="714" d="M41 1432h197l454 -1903h-198z" />
<glyph unicode="]" horiz-adv-x="661" d="M31 -471l20 190h234l182 1731h-234l21 190h436l-223 -2111h-436z" />
<glyph unicode="^" horiz-adv-x="1153" d="M104 0l461 748h199l299 -748h-213l-205 573l-342 -573h-199z" />
<glyph unicode="_" horiz-adv-x="690" d="M51 -471l21 186h590l-21 -186h-590z" />
<glyph unicode="`" horiz-adv-x="493" d="M236 1432h213l83 -218h-172z" />
<glyph unicode="a" d="M143 176l66 637q11 94 74 150.5t161 56.5h322l47 -57l47 57h178l-75 -731q3 -96 98 -96l-17 -193h-110q-84 0 -125 59l-49 -59h-420q-96 0 -146.5 48t-50.5 128zM365 272q0 -75 73 -75h217q90 0 93 90l51 454q0 82 -72 82h-217q-85 0 -94 -90z" />
<glyph unicode="b" d="M143 0l150 1430l215 16l-51 -479l59 53h326q91 0 142.5 -48.5t51.5 -131.5l-63 -633q-8 -91 -70 -149t-164 -58h-340l-41 47l-55 -47h-160zM383 268q0 -71 74 -71h217q89 0 92 90l51 452q0 84 -72 84h-221q-82 0 -94 -90z" />
<glyph unicode="c" horiz-adv-x="882" d="M143 180l66 635q11 93 73.5 149t161.5 56h439l-9 -197h-370q-83 0 -92 -84l-50 -469q0 -73 74 -73h373l-33 -197h-440q-94 0 -143.5 49.5t-49.5 130.5z" />
<glyph unicode="d" d="M141 178l66 635q11 94 74 150.5t161 56.5h324l47 -49l49 459l223 16l-151 -1446h-170l-45 47l-49 -47h-332q-95 0 -146 48.5t-51 129.5zM365 283q0 -86 73 -86h221q84 0 93 90l47 452q0 35 -20 59.5t-56 24.5h-217q-85 0 -94 -90z" />
<glyph unicode="e" horiz-adv-x="1058" d="M143 178l66 635q11 94 74 150.5t161 56.5h379q93 0 144 -48.5t51 -131.5l-21 -203q-10 -100 -58 -151.5t-142 -65.5l-361 -51l-57 47l-14 -146q0 -73 73 -73h484l-31 -197h-551q-95 0 -146 47.5t-51 130.5zM395 547l314 45q79 12 82 72l8 79q0 80 -72 80h-217 q-38 0 -63.5 -23.5t-30.5 -60.5z" />
<glyph unicode="f" horiz-adv-x="679" d="M106 827l21 193h184l23 213q11 96 68 151.5t157 55.5h213v-191h-141q-83 0 -92 -90l-15 -139h221l-20 -193h-223l-133 -1276l-213 -22l135 1298h-185z" />
<glyph unicode="g" d="M141 176l66 637q10 96 73 151.5t162 55.5h334l43 -47l45 47h176l-135 -1284q-11 -89 -85 -148t-179 -59h-477v197h420q56 0 79 20t29 74l25 225l-47 -45h-332q-92 0 -144.5 45.5t-52.5 130.5zM365 283q0 -86 73 -86h221q84 0 93 90l47 452q0 35 -20 59.5t-56 24.5h-217 q-85 0 -94 -90z" />
<glyph unicode="h" horiz-adv-x="1091" d="M143 0l150 1430l211 16l-49 -471l49 45h397q64 0 100.5 -36t36.5 -101q0 -6 -90 -883h-213l78 750q0 33 -22.5 55t-57.5 22h-211q-72 0 -90 -73l-78 -754h-211z" />
<glyph unicode="i" horiz-adv-x="487" d="M143 0l107 1020h203l-107 -1020h-203zM262 1149l23 213h209l-23 -213h-209z" />
<glyph unicode="j" horiz-adv-x="491" d="M-70 -471l11 188h86q85 0 94 80l129 1223h203l-136 -1284q-11 -95 -71 -151t-160 -56h-156zM260 1149l23 213h211l-23 -213h-211z" />
<glyph unicode="k" horiz-adv-x="1040" d="M143 0l150 1430l213 16l-88 -842h192q90 0 117 80l102 336h211l-151 -475l-47 -39l41 -41l65 -465h-211l-49 328q-12 80 -94 80h-199l-41 -408h-211z" />
<glyph unicode="l" horiz-adv-x="489" d="M143 0l150 1430l215 16l-152 -1446h-213z" />
<glyph unicode="m" horiz-adv-x="1536" d="M143 0l107 1020h158l45 -47l51 47h375l45 -47l51 47h371q64 0 100.5 -36t36.5 -101q0 -6 -90 -883h-213l77 756q0 67 -67 67h-148q-81 0 -90 -82l-78 -741h-212l77 756q0 67 -67 67h-150q-83 0 -92 -88l-76 -735h-211z" />
<glyph unicode="n" horiz-adv-x="1071" d="M143 0l107 1020h158l45 -47l51 47h377q64 0 100.5 -36t36.5 -101q0 -6 -90 -883h-213l78 750q0 33 -22.5 55t-57.5 22h-191q-83 0 -92 -88l-76 -739h-211z" />
<glyph unicode="o" horiz-adv-x="1058" d="M143 178l66 635q11 93 73 150t162 57h379q94 0 144.5 -49t50.5 -131l-64 -633q-11 -93 -72 -150t-161 -57h-383q-92 0 -143.5 48.5t-51.5 129.5zM365 268q0 -71 73 -71h217q90 0 93 90l51 454q0 82 -72 82h-217q-85 0 -94 -90z" />
<glyph unicode="p" horiz-adv-x="1079" d="M92 -471l158 1491h160l47 -53l51 53h336q91 0 142.5 -48.5t51.5 -131.5q0 -16 -65 -633q-11 -92 -72 -149.5t-162 -57.5h-338l-41 45l-53 -496zM383 270q0 -73 72 -73h231q75 0 84 79l49 478q0 69 -71 69h-226q-81 0 -90 -78z" />
<glyph unicode="q" d="M141 176l66 637q10 96 73 151.5t162 55.5h334l43 -47l45 47h176l-155 -1471l-223 -20l55 516l-47 -45h-332q-92 0 -144.5 45.5t-52.5 130.5zM365 283q0 -86 73 -86h221q84 0 93 90l47 452q0 35 -20 59.5t-56 24.5h-217q-85 0 -94 -90z" />
<glyph unicode="r" horiz-adv-x="708" d="M143 0l107 1020h158l45 -47l51 47h250l-52 -205h-182q-81 0 -90 -88l-76 -727h-211z" />
<glyph unicode="s" horiz-adv-x="864" d="M104 0l7 190h403q71 0 80 66l6 51q0 52 -65 70l-236 65q-72 22 -104.5 52.5t-32.5 89.5q0 24 26 270q7 78 54.5 122t117.5 44h486l-8 -195h-369q-75 0 -84 -65l-6 -60q0 -46 57 -61l242 -70q72 -21 104.5 -54t32.5 -93q0 -1 -0.5 -5.5t-1.5 -14t-2 -19.5l-4 -45l-19 -172 q-7 -78 -53.5 -122t-116.5 -44h-514z" />
<glyph unicode="t" horiz-adv-x="714" d="M106 827l21 193h180l21 199l213 16l-23 -215h238l-21 -193h-237l-58 -557q0 -36 23 -60t63 -24h129l-30 -186h-183q-106 0 -163.5 53.5t-57.5 143.5l66 630h-181z" />
<glyph unicode="u" horiz-adv-x="1042" d="M156 139l94 881h211l-78 -744q0 -86 78 -86h180q81 0 90 86l76 744h205l-105 -1020h-143l-45 47l-51 -47h-371q-64 0 -102.5 37t-38.5 102z" />
<glyph unicode="v" horiz-adv-x="915" d="M158 1020h213l129 -690l268 690h203l-414 -1020h-197z" />
<glyph unicode="w" horiz-adv-x="1462" d="M158 1020h211l114 -686l250 686h211l113 -682l256 682h205l-402 -1020h-196l-117 686l-260 -686h-197z" />
<glyph unicode="x" horiz-adv-x="925" d="M63 0l340 510l-237 510h233l138 -309l202 309h219l-333 -502l239 -518h-223l-149 317l-211 -317h-218z" />
<glyph unicode="y" horiz-adv-x="1042" d="M156 139l94 881h211l-78 -744q0 -86 78 -86h180q81 0 90 86l76 744h205l-133 -1284q-11 -93 -73.5 -150t-162.5 -57h-467v197h416q83 0 92 90l25 231l-52 -47h-360q-64 0 -102.5 37t-38.5 102z" />
<glyph unicode="z" horiz-adv-x="884" d="M74 0l16 164l520 663h-434l33 193h690l-18 -172l-514 -664h462l-30 -184h-725z" />
<glyph unicode="{" horiz-adv-x="743" d="M121 461l20 190h70q83 0 92 92l68 646q13 123 75.5 187t196.5 64h191l-21 -190h-149q-84 0 -93 -92l-65 -631q-9 -115 -84 -172q49 -46 49 -127l-65 -672q0 -75 71 -75h150l-21 -191h-190q-118 0 -169.5 52t-51.5 151l67 692q0 76 -72 76h-69z" />
<glyph unicode="|" horiz-adv-x="477" d="M92 -471l201 1901h203l-201 -1901h-203z" />
<glyph unicode="}" horiz-adv-x="743" d="M25 -510l20 191h150q83 0 92 92l65 630q9 115 84 172q-49 46 -49 127l66 672q0 76 -72 76h-150l21 190h190q118 0 170 -51.5t52 -150.5l-68 -693q0 -75 72 -75h69l-20 -191h-70q-83 0 -92 -92l-68 -645q-13 -123 -75.5 -187.5t-196.5 -64.5h-190z" />
<glyph unicode="~" horiz-adv-x="987" d="M166 610l168 219h117l301 -53l57 62h162l-166 -224h-133l-283 50l-51 -54h-172z" />
<glyph unicode="&#xa1;" horiz-adv-x="464" d="M78 -414l139 1090h170l-90 -1090h-219zM207 803l22 213h217l-22 -213h-217z" />
<glyph unicode="&#xa2;" horiz-adv-x="870" d="M137 139l74 711q7 78 54.5 122t117.5 44h100l19 184h188l-18 -184h170l-8 -197h-349q-67 0 -73 -69l-52 -492q0 -61 70 -61h338l-33 -197h-170l-20 -184h-189l21 184h-101q-64 0 -101.5 37t-37.5 102z" />
<glyph unicode="&#xa3;" horiz-adv-x="1144" d="M123 0l20 197h150l65 417h-170l35 183h158l74 467q27 166 172 166h518l-8 -197h-396q-72 0 -84 -70l-61 -366h440l-35 -183h-428l-65 -417h534l-20 -197h-899z" />
<glyph unicode="&#xa4;" horiz-adv-x="1298" d="M135 322l170 149q-6 12 -6 41l47 432q2 34 14 72l-135 145l154 144l135 -146q33 10 70 10h385q36 0 59 -10l162 146l125 -144l-158 -141q2 -8 2 -39l-45 -440q-3 -46 -18 -76l133 -148l-156 -143l-131 150q-32 -7 -63 -7h-385q-43 0 -70 9l-164 -148zM498 575 q0 -69 71 -69h271q83 0 92 90l33 315q0 68 -74 68h-270q-45 0 -65 -22t-28 -68z" />
<glyph unicode="&#xa5;" horiz-adv-x="1142" d="M211 1430h244l209 -472l321 472h246l-381 -543h176l-16 -148h-236l-35 -61l-10 -86h266l-16 -148h-266l-45 -444h-215l45 444h-275l17 148h274l10 86l-22 61h-248l16 148h193z" />
<glyph unicode="&#xa6;" horiz-adv-x="487" d="M86 -471l88 823h213l-92 -823h-209zM201 623l86 817h213l-90 -817h-209z" />
<glyph unicode="&#xa7;" horiz-adv-x="1038" d="M90 -471l10 203h516q76 0 82 69l17 144q0 66 -60 84l-368 129q-135 50 -135 182l43 385q12 104 94 125q-68 38 -68 156l27 260q7 78 54.5 122t117.5 44h594l-10 -205h-488q-76 0 -82 -70l-14 -137q0 -64 65 -88l355 -135q145 -59 145 -219l-35 -328q-12 -113 -80 -166 q43 -43 43 -160l-24 -229q-7 -78 -54.5 -122t-117.5 -44h-627zM358 434q0 -66 72 -94l242 -94q78 0 84 69l24 226q0 63 -65 84l-248 92q-76 0 -82 -70z" />
<glyph unicode="&#xa8;" horiz-adv-x="679" d="M229 1247l19 183h182l-18 -183h-183zM530 1247l19 183h180l-18 -183h-181z" />
<glyph unicode="&#xa9;" horiz-adv-x="1499" d="M145 203l101 979q27 250 272 250h762q221 0 221 -207q0 -48 -100 -973q-13 -125 -75 -188.5t-196 -63.5h-761q-119 0 -171.5 52t-52.5 151zM330 250q0 -76 71 -76h727q84 0 93 92l96 918q0 73 -84 73h-707q-93 0 -102 -90zM530 481l48 449q7 78 54.5 122t117.5 44h356 l-8 -183h-264q-76 0 -82 -69l-25 -262q0 -60 68 -60h262l-31 -182h-356q-64 0 -102 37t-38 104z" />
<glyph unicode="&#xaa;" horiz-adv-x="704" d="M174 903l41 395q6 61 45.5 97.5t101.5 36.5h205l29 -37l33 37h151l-49 -463q3 -60 66 -60l-13 -125h-151q-56 0 -80 37l-33 -37h-223q-59 0 -91 33t-32 86zM186 496l17 157h440l-16 -157h-441zM358 1010q0 -60 52 -60h90q50 0 59 60l21 194q0 58 -48 58h-94 q-50 0 -59 -58z" />
<glyph unicode="&#xab;" horiz-adv-x="1071" d="M145 422l19 166l504 432l-27 -254l-301 -258l246 -264l-27 -250zM553 422l18 166l504 432l-26 -254l-301 -258l245 -264l-26 -250z" />
<glyph unicode="&#xac;" horiz-adv-x="1095" d="M201 752l18 180h848l-43 -443h-180l26 263h-669z" />
<glyph unicode="&#xad;" horiz-adv-x="655" d="M94 399l21 187h549l-21 -187h-549z" />
<glyph unicode="&#xae;" horiz-adv-x="1499" d="M145 203l101 979q27 250 272 250h762q221 0 221 -207q0 -48 -100 -973q-13 -125 -75 -188.5t-196 -63.5h-761q-119 0 -171.5 52t-52.5 151zM330 250q0 -76 71 -76h727q84 0 93 92l96 918q0 73 -84 73h-707q-93 0 -102 -90zM514 334l80 768h393q121 0 121 -113l-23 -223 q-4 -30 -19.5 -53t-33.5 -29l-14 -8q31 -16 37 -80l24 -262h-174l-22 223q-3 47 -47 47h-121l-29 -270h-172zM729 764h135q53 0 56 45l12 100q0 43 -47 43h-137z" />
<glyph unicode="&#xaf;" horiz-adv-x="643" d="M223 1268l17 170h471l-19 -170h-469z" />
<glyph unicode="&#xb0;" horiz-adv-x="681" d="M213 1063l25 240q6 58 44.5 93.5t100.5 35.5h213q59 0 90 -30t31 -81l-25 -240q-6 -59 -44.5 -94t-102.5 -35h-213q-56 0 -87.5 30.5t-31.5 80.5zM375 1153q0 -49 47 -49h70q54 0 57 59l8 72q0 45 -47 45h-68q-52 0 -61 -55z" />
<glyph unicode="&#xb1;" horiz-adv-x="991" d="M102 0l17 168h786l-16 -168h-787zM168 641l20 178h304l32 326h178l-32 -326h305l-21 -178h-305l-33 -317h-178l33 317h-303z" />
<glyph unicode="&#xb2;" horiz-adv-x="667" d="M125 621l16 147l373 371q29 29 37 65l4 27q0 49 -51 49h-287l25 152h376q53 0 81 -25.5t28 -69.5l-12 -112q-6 -59 -25 -99t-63 -88l-275 -268h334l-24 -149h-537z" />
<glyph unicode="&#xb3;" horiz-adv-x="645" d="M145 621l17 149h264q57 0 66 59l8 72q0 44 -47 47h-234l17 150h233q50 3 59 57l11 76q0 49 -54 49h-270l23 152h319q143 0 143 -117l-18 -182q-4 -35 -20.5 -64.5t-34.5 -40.5l-17 -8q49 -15 49 -86l-16 -156q-6 -73 -52 -115t-120 -42h-326z" />
<glyph unicode="&#xb4;" horiz-adv-x="493" d="M213 1212l129 218h213l-170 -218h-172z" />
<glyph unicode="&#xb5;" horiz-adv-x="1042" d="M106 -348l144 1368h203l-80 -748q0 -34 21 -58t55 -24h184q81 0 90 86l78 744h205l-107 -1020h-143l-47 47l-50 -47h-233q-50 0 -78 25l-39 -373h-203z" />
<glyph unicode="&#xb6;" horiz-adv-x="1288" d="M233 1057l21 205q8 77 57.5 123.5t132.5 46.5h928l-20 -191h-172l-129 -1241h-187l129 1241h-209l-129 -1241h-184l94 901h-176q-69 0 -112.5 42t-43.5 114z" />
<glyph unicode="&#xb7;" horiz-adv-x="446" d="M160 399l22 222h207l-22 -222h-207z" />
<glyph unicode="&#xb8;" horiz-adv-x="423" d="M35 -471l12 113h160q34 0 37 28l4 29q0 33 -31 33h-141l10 110l119 168h125l-113 -166h62q42 0 66 -24.5t24 -63.5l-13 -131q-4 -46 -33 -71t-73 -25h-215z" />
<glyph unicode="&#xb9;" horiz-adv-x="520" d="M111 621l14 135h133l55 524l-120 -12l14 137l289 27l-72 -676h133l-14 -135h-432z" />
<glyph unicode="&#xba;" horiz-adv-x="710" d="M174 905l39 385q6 63 49 101.5t111 38.5h264q62 0 95.5 -33t33.5 -88l-39 -385q-6 -62 -48.5 -101t-109.5 -39h-264q-62 0 -96.5 33t-34.5 88zM186 496l17 157h440l-16 -157h-441zM354 993q0 -43 37 -43h121q40 0 43 49l27 222q0 41 -33 41h-121q-44 0 -47 -45z" />
<glyph unicode="&#xbb;" horiz-adv-x="1071" d="M100 -6l27 250l303 264l-248 258l27 254l414 -432l-19 -166zM508 -6l27 250l303 264l-248 258l26 254l414 -432l-18 -166z" />
<glyph unicode="&#xbc;" horiz-adv-x="1597" d="M166 621l14 135h133l56 524l-121 -12l14 137l289 27l-72 -676h133l-14 -135h-432zM430 0l668 1432h176l-666 -1432h-178zM891 201l14 137l393 524h162l-55 -520h125l-14 -141h-125l-21 -201h-156l21 201h-344zM1053 340h196l33 307z" />
<glyph unicode="&#xbd;" horiz-adv-x="1626" d="M166 621l14 135h133l56 524l-121 -12l14 137l289 27l-72 -676h133l-14 -135h-432zM430 0l668 1432h176l-666 -1432h-178zM979 0l16 147l373 371q29 29 37 66l4 26q0 49 -51 49h-287l25 152h377q53 0 80.5 -25t27.5 -69l-12 -113q-6 -59 -25 -98t-63 -88l-275 -268h334 l-24 -150h-537z" />
<glyph unicode="&#xbe;" horiz-adv-x="1603" d="M166 621l16 149h267q56 0 65 59l8 72q0 44 -47 47h-235l16 150h236q50 3 59 57l6 76q0 49 -53 49h-268l22 152h322q143 0 143 -117l-18 -182q-7 -42 -25 -71.5t-33 -37.5l-14 -4q49 -15 49 -86l-16 -156q-6 -73 -52 -115t-120 -42h-328zM434 0l668 1432h176l-666 -1432 h-178zM895 201l14 137l396 524h161l-55 -520h125l-14 -141h-125l-21 -201h-155l20 201h-346zM1055 340h200l33 307z" />
<glyph unicode="&#xbf;" horiz-adv-x="1009" d="M102 -223q0 17 31 325q15 125 123 193l156 96q54 36 76.5 71.5t27.5 86.5l14 123h193l-25 -232q-9 -98 -94 -155l-178 -115q-47 -29 -69.5 -61.5t-28.5 -94.5l-17 -157q0 -78 84 -78h469l-30 -189h-508q-117 0 -170.5 46.5t-53.5 140.5zM530 807l21 213h217l-20 -213 h-218z" />
<glyph unicode="&#xc0;" horiz-adv-x="1183" d="M41 0l590 1432h213l299 -1432h-232l-80 383h-403l-158 -383h-229zM498 573h303l-99 514zM543 1743h221l86 -221h-176z" />
<glyph unicode="&#xc1;" horiz-adv-x="1183" d="M41 0l590 1432h213l299 -1432h-232l-80 383h-403l-158 -383h-229zM498 573h303l-99 514zM655 1522l131 221h222l-177 -221h-176z" />
<glyph unicode="&#xc2;" horiz-adv-x="1183" d="M41 0l590 1432h213l299 -1432h-232l-80 383h-403l-158 -383h-229zM477 1522l180 221h224l141 -221h-211l-57 84l-76 -84h-201zM498 573h303l-99 514z" />
<glyph unicode="&#xc3;" horiz-adv-x="1183" d="M41 0l590 1432h213l299 -1432h-232l-80 383h-403l-158 -383h-229zM449 1524l167 211h117l164 -47l47 55h156l-166 -215h-133l-148 53l-45 -57h-159zM498 573h303l-99 514z" />
<glyph unicode="&#xc4;" horiz-adv-x="1183" d="M41 0l590 1432h213l299 -1432h-232l-80 383h-403l-158 -383h-229zM492 1530l20 186h186l-20 -186h-186zM498 573h303l-99 514zM797 1530l20 186h187l-21 -186h-186z" />
<glyph unicode="&#xc5;" horiz-adv-x="1183" d="M41 0l565 1372q-35 35 -35 94l7 66q6 64 49.5 101.5t115.5 37.5h27q65 0 100 -36t35 -95l-4 -65q-6 -65 -45 -101l287 -1374h-232l-80 383h-403l-158 -383h-229zM498 573h303l-99 514zM670 1481q0 -46 37 -49h38q55 0 58 59l4 39q0 45 -45 45h-31q-51 0 -57 -55z" />
<glyph unicode="&#xc6;" horiz-adv-x="1591" d="M33 0l794 1432h791l-21 -189h-557l-45 -430h486l-21 -195h-485l-45 -425h557l-19 -193h-770l41 399h-256l-213 -399h-237zM580 594h180l45 430z" />
<glyph unicode="&#xc7;" horiz-adv-x="1095" d="M164 203l100 979q27 250 273 250h559l-9 -189h-514q-91 0 -100 -90l-88 -887q0 -76 72 -76h522l-18 -190h-291l-109 -156h62q42 0 66 -24.5t24 -63.5l-13 -131q-4 -46 -33 -71t-73 -25h-215l12 113h160q34 0 37 28l4 29q0 33 -31 33h-141l10 110l113 158h-156 q-119 0 -171 52t-52 151z" />
<glyph unicode="&#xc8;" horiz-adv-x="1056" d="M164 0l149 1432h770l-20 -189h-555l-49 -430h487l-20 -195h-488l-45 -425h559l-18 -193h-770zM502 1737h213l84 -215h-170z" />
<glyph unicode="&#xc9;" horiz-adv-x="1056" d="M164 0l149 1432h770l-20 -189h-555l-49 -430h487l-20 -195h-488l-45 -425h559l-18 -193h-770zM602 1522l129 215h213l-172 -215h-170z" />
<glyph unicode="&#xca;" horiz-adv-x="1056" d="M164 0l149 1432h770l-20 -189h-555l-49 -430h487l-20 -195h-488l-45 -425h559l-18 -193h-770zM438 1522l178 215h213l138 -215h-203l-57 84l-76 -84h-193z" />
<glyph unicode="&#xcb;" horiz-adv-x="1056" d="M164 0l149 1432h770l-20 -189h-555l-49 -430h487l-20 -195h-488l-45 -425h559l-18 -193h-770zM461 1530l18 182h180l-18 -182h-180zM760 1530l18 182h183l-19 -182h-182z" />
<glyph unicode="&#xcc;" horiz-adv-x="731" d="M82 0l18 182h179l112 1067h-178l18 183h568l-19 -183h-178l-113 -1067h179l-19 -182h-567zM311 1737h213l84 -215h-170z" />
<glyph unicode="&#xcd;" horiz-adv-x="731" d="M82 0l18 182h179l112 1067h-178l18 183h568l-19 -183h-178l-113 -1067h179l-19 -182h-567zM418 1522l129 215h213l-172 -215h-170z" />
<glyph unicode="&#xce;" horiz-adv-x="731" d="M82 0l18 182h179l112 1067h-178l18 183h568l-19 -183h-178l-113 -1067h179l-19 -182h-567zM260 1522l178 215h213l137 -215h-202l-58 84l-75 -84h-193z" />
<glyph unicode="&#xcf;" horiz-adv-x="731" d="M82 0l18 182h179l112 1067h-178l18 183h568l-19 -183h-178l-113 -1067h179l-19 -182h-567zM279 1530l18 182h182l-18 -182h-182zM580 1530l18 182h180l-18 -182h-180z" />
<glyph unicode="&#xd0;" horiz-adv-x="1277" d="M106 625l19 172h119l67 635h725q221 0 221 -209q0 -43 -100 -971q-27 -252 -270 -252h-725l65 625h-121zM395 184h463q83 0 92 88l92 897q0 78 -84 78h-454l-47 -450h194l-14 -172h-197z" />
<glyph unicode="&#xd1;" horiz-adv-x="1239" d="M164 0l149 1432h207l395 -918l97 918h213l-150 -1432h-186l-412 977l-102 -977h-211zM451 1526l167 213h117l160 -58l51 58h154l-166 -211h-133l-148 53l-45 -55h-157z" />
<glyph unicode="&#xd2;" horiz-adv-x="1259" d="M166 209l100 973q27 250 273 250h479q221 0 221 -207q0 -47 -100 -975q-24 -250 -271 -250h-479q-109 0 -166 54t-57 155zM385 264q0 -37 20 -58.5t60 -21.5h364q94 0 103 90l92 893q0 80 -82 80h-364q-43 0 -70.5 -26t-32.5 -64zM569 1737h213l84 -215h-170z" />
<glyph unicode="&#xd3;" horiz-adv-x="1259" d="M166 209l100 973q27 250 273 250h479q221 0 221 -207q0 -47 -100 -975q-24 -250 -271 -250h-479q-109 0 -166 54t-57 155zM385 264q0 -37 20 -58.5t60 -21.5h364q94 0 103 90l92 893q0 80 -82 80h-364q-43 0 -70.5 -26t-32.5 -64zM692 1522l129 215h213l-172 -215h-170z " />
<glyph unicode="&#xd4;" horiz-adv-x="1259" d="M166 209l100 973q27 250 273 250h479q221 0 221 -207q0 -47 -100 -975q-24 -250 -271 -250h-479q-109 0 -166 54t-57 155zM385 264q0 -37 20 -58.5t60 -21.5h364q94 0 103 90l92 893q0 80 -82 80h-364q-43 0 -70.5 -26t-32.5 -64zM530 1522l179 215h213l139 -215h-205 l-57 84l-76 -84h-193z" />
<glyph unicode="&#xd5;" horiz-adv-x="1259" d="M166 209l100 973q27 250 273 250h479q221 0 221 -207q0 -47 -100 -975q-24 -250 -271 -250h-479q-109 0 -166 54t-57 155zM385 264q0 -37 20 -58.5t60 -21.5h364q94 0 103 90l92 893q0 80 -82 80h-364q-43 0 -70.5 -26t-32.5 -64zM471 1526l168 213h117l159 -58l52 58 h153l-166 -211h-133l-147 53l-45 -55h-158z" />
<glyph unicode="&#xd6;" horiz-adv-x="1259" d="M166 209l100 973q27 250 273 250h479q221 0 221 -207q0 -47 -100 -975q-24 -250 -271 -250h-479q-109 0 -166 54t-57 155zM385 264q0 -37 20 -58.5t60 -21.5h364q94 0 103 90l92 893q0 80 -82 80h-364q-43 0 -70.5 -26t-32.5 -64zM539 1530l18 182h180l-18 -182h-180z M838 1530l18 182h182l-18 -182h-182z" />
<glyph unicode="&#xd7;" horiz-adv-x="892" d="M154 508l245 223l-194 213l139 127l193 -215l247 223l113 -125l-246 -223l191 -215l-137 -125l-193 213l-248 -223z" />
<glyph unicode="&#xd8;" horiz-adv-x="1259" d="M92 -6l88 123q-14 35 -14 90l100 975q27 250 273 250h479q75 0 135 -31l70 96l73 -53l-79 -109q22 -46 22 -110q0 -47 -100 -975q-24 -250 -271 -250h-479q-100 0 -151 39l-72 -100zM385 238q9 -54 80 -54h364q94 0 103 90l67 644q0 60 -4 106zM406 420l610 790 q-15 37 -74 37h-364q-43 0 -70.5 -26t-32.5 -64l-65 -622q-4 -58 -4 -115z" />
<glyph unicode="&#xd9;" horiz-adv-x="1236" d="M186 221l127 1211h211l-121 -1160q0 -36 21.5 -59t56.5 -23h316q83 0 92 93l121 1149h213l-125 -1180q-13 -125 -75 -188.5t-196 -63.5h-417q-224 0 -224 221zM575 1737h216l81 -215h-167z" />
<glyph unicode="&#xda;" horiz-adv-x="1236" d="M186 221l127 1211h211l-121 -1160q0 -36 21.5 -59t56.5 -23h316q83 0 92 93l121 1149h213l-125 -1180q-13 -125 -75 -188.5t-196 -63.5h-417q-224 0 -224 221zM674 1522l129 215h213l-172 -215h-170z" />
<glyph unicode="&#xdb;" horiz-adv-x="1236" d="M186 221l127 1211h211l-121 -1160q0 -36 21.5 -59t56.5 -23h316q83 0 92 93l121 1149h213l-125 -1180q-13 -125 -75 -188.5t-196 -63.5h-417q-224 0 -224 221zM512 1522l178 215h213l139 -215h-204l-58 84l-75 -84h-193z" />
<glyph unicode="&#xdc;" horiz-adv-x="1236" d="M186 221l127 1211h211l-121 -1160q0 -36 21.5 -59t56.5 -23h316q83 0 92 93l121 1149h213l-125 -1180q-13 -125 -75 -188.5t-196 -63.5h-417q-224 0 -224 221zM524 1530l19 182h182l-18 -182h-183zM825 1530l19 182h180l-18 -182h-181z" />
<glyph unicode="&#xdd;" horiz-adv-x="1140" d="M211 1432h244l202 -535l328 535h244l-498 -793l-65 -639h-207l65 639zM618 1522l127 215h216l-175 -215h-168z" />
<glyph unicode="&#xde;" horiz-adv-x="1185" d="M164 0l149 1430h211l-28 -269h430q107 0 164 -58.5t57 -158.5l-41 -426q-24 -252 -256 -252h-449l-26 -266h-211zM422 457h373q93 0 102 90l35 346q0 80 -84 80h-373z" />
<glyph unicode="&#xdf;" horiz-adv-x="1163" d="M143 0l129 1239q8 90 68.5 148.5t167.5 58.5h440q92 0 143.5 -50.5t51.5 -131.5q0 -3 -1 -14t-1 -15l-27 -260l-262 -184l141 -123q94 -76 94 -181q0 -31 -2 -41l-30 -280q-7 -78 -53.5 -122t-116.5 -44h-330v190h213q78 0 84 70l18 182q0 56 -51 101l-170 149l19 182 l239 181l17 110q-3 90 -97 90h-254q-89 0 -98 -90l-121 -1165h-211z" />
<glyph unicode="&#xe0;" d="M143 176l66 637q11 94 74 150.5t161 56.5h322l47 -57l47 57h178l-75 -731q3 -96 98 -96l-17 -193h-110q-84 0 -125 59l-49 -59h-420q-96 0 -146.5 48t-50.5 128zM365 272q0 -75 73 -75h217q90 0 93 90l51 454q0 82 -72 82h-217q-85 0 -94 -90zM381 1362h213l129 -213 h-172z" />
<glyph unicode="&#xe1;" d="M143 176l66 637q11 94 74 150.5t161 56.5h322l47 -57l47 57h178l-75 -731q3 -96 98 -96l-17 -193h-110q-84 0 -125 59l-49 -59h-420q-96 0 -146.5 48t-50.5 128zM365 272q0 -75 73 -75h217q90 0 93 90l51 454q0 82 -72 82h-217q-85 0 -94 -90zM524 1149l129 213h213 l-170 -213h-172z" />
<glyph unicode="&#xe2;" d="M143 176l66 637q11 94 74 150.5t161 56.5h322l47 -57l47 57h178l-75 -731q3 -96 98 -96l-17 -193h-110q-84 0 -125 59l-49 -59h-420q-96 0 -146.5 48t-50.5 128zM365 272q0 -75 73 -75h217q90 0 93 90l51 454q0 82 -72 82h-217q-85 0 -94 -90zM377 1147l180 215h211 l139 -215h-205l-57 84l-76 -84h-192z" />
<glyph unicode="&#xe3;" d="M143 176l66 637q11 94 74 150.5t161 56.5h322l47 -57l47 57h178l-75 -731q3 -96 98 -96l-17 -193h-110q-84 0 -125 59l-49 -59h-420q-96 0 -146.5 48t-50.5 128zM348 1149l166 211h117l162 -57l51 57h151l-166 -209h-133l-145 59l-47 -61h-156zM365 272q0 -75 73 -75h217 q90 0 93 90l51 454q0 82 -72 82h-217q-85 0 -94 -90z" />
<glyph unicode="&#xe4;" d="M143 176l66 637q11 94 74 150.5t161 56.5h322l47 -57l47 57h178l-75 -731q3 -96 98 -96l-17 -193h-110q-84 0 -125 59l-49 -59h-420q-96 0 -146.5 48t-50.5 128zM365 272q0 -75 73 -75h217q90 0 93 90l51 454q0 82 -72 82h-217q-85 0 -94 -90zM381 1165l18 183h181 l-19 -183h-180zM680 1165l18 183h183l-19 -183h-182z" />
<glyph unicode="&#xe5;" d="M143 176l66 637q11 94 74 150.5t161 56.5h322l47 -57l47 57h178l-75 -731q3 -96 98 -96l-17 -193h-110q-84 0 -125 59l-49 -59h-420q-96 0 -146.5 48t-50.5 128zM365 272q0 -75 73 -75h217q90 0 93 90l51 454q0 82 -72 82h-217q-85 0 -94 -90zM469 1239l6 66 q6 64 50 101.5t116 37.5h27q65 0 100 -36t35 -95l-4 -66q-5 -63 -49.5 -101t-118.5 -38h-27q-65 0 -100 36t-35 95zM567 1253q0 -49 45 -49h31q54 0 57 60l5 39q0 45 -46 45h-30q-52 0 -58 -56z" />
<glyph unicode="&#xe6;" horiz-adv-x="1640" d="M143 178l66 635q11 94 74 150.5t161 56.5h394l45 -55q61 55 159 55h363q92 0 143 -48.5t51 -131.5l-20 -203q-10 -99 -60 -151t-145 -66l-340 -51l-59 47l-12 -129q0 -41 20 -65.5t53 -24.5h463l-31 -197h-530q-92 0 -139 47l-41 -47h-418q-95 0 -146 48.5t-51 129.5z M365 268q0 -71 73 -71h219q84 0 93 90l49 454q0 82 -72 82h-217q-85 0 -94 -90zM989 547l301 45q71 9 80 72l12 79q0 80 -71 80h-209q-38 0 -62.5 -23.5t-29.5 -60.5z" />
<glyph unicode="&#xe7;" horiz-adv-x="882" d="M143 180l66 635q11 93 73.5 149t161.5 56h439l-9 -197h-370q-83 0 -92 -84l-50 -469q0 -73 74 -73h373l-33 -197h-209l-108 -156h61q42 0 66 -24.5t24 -63.5l-12 -131q-4 -46 -33 -71t-73 -25h-216l13 113h160q33 0 36 28l4 29q0 33 -30 33h-142l11 110l108 158h-100 q-94 0 -143.5 49.5t-49.5 130.5z" />
<glyph unicode="&#xe8;" horiz-adv-x="1058" d="M143 178l66 635q11 94 74 150.5t161 56.5h379q93 0 144 -48.5t51 -131.5l-21 -203q-10 -100 -58 -151.5t-142 -65.5l-361 -51l-57 47l-14 -146q0 -73 73 -73h484l-31 -197h-551q-95 0 -146 47.5t-51 130.5zM395 547l314 45q79 12 82 72l8 79q0 80 -72 80h-217 q-38 0 -63.5 -23.5t-30.5 -60.5zM401 1362h213l129 -213h-172z" />
<glyph unicode="&#xe9;" horiz-adv-x="1058" d="M143 178l66 635q11 94 74 150.5t161 56.5h379q93 0 144 -48.5t51 -131.5l-21 -203q-10 -100 -58 -151.5t-142 -65.5l-361 -51l-57 47l-14 -146q0 -73 73 -73h484l-31 -197h-551q-95 0 -146 47.5t-51 130.5zM395 547l314 45q79 12 82 72l8 79q0 80 -72 80h-217 q-38 0 -63.5 -23.5t-30.5 -60.5zM524 1149l129 213h213l-170 -213h-172z" />
<glyph unicode="&#xea;" horiz-adv-x="1058" d="M143 178l66 635q11 94 74 150.5t161 56.5h379q93 0 144 -48.5t51 -131.5l-21 -203q-10 -100 -58 -151.5t-142 -65.5l-361 -51l-57 47l-14 -146q0 -73 73 -73h484l-31 -197h-551q-95 0 -146 47.5t-51 130.5zM356 1147l181 215h211l139 -215h-205l-57 84l-76 -84h-193z M395 547l314 45q79 12 82 72l8 79q0 80 -72 80h-217q-38 0 -63.5 -23.5t-30.5 -60.5z" />
<glyph unicode="&#xeb;" horiz-adv-x="1058" d="M143 178l66 635q11 94 74 150.5t161 56.5h379q93 0 144 -48.5t51 -131.5l-21 -203q-10 -100 -58 -151.5t-142 -65.5l-361 -51l-57 47l-14 -146q0 -73 73 -73h484l-31 -197h-551q-95 0 -146 47.5t-51 130.5zM381 1165l18 183h181l-19 -183h-180zM395 547l314 45 q79 12 82 72l8 79q0 80 -72 80h-217q-38 0 -63.5 -23.5t-30.5 -60.5zM680 1165l18 183h183l-19 -183h-182z" />
<glyph unicode="&#xec;" horiz-adv-x="495" d="M115 1362h213l129 -213h-172zM143 0l107 1020h203l-107 -1020h-203z" />
<glyph unicode="&#xed;" horiz-adv-x="495" d="M143 0l107 1020h203l-107 -1020h-203zM272 1149l129 213h213l-170 -213h-172z" />
<glyph unicode="&#xee;" horiz-adv-x="495" d="M104 1147l181 215h211l139 -215h-205l-57 84l-76 -84h-193zM143 0l107 1020h203l-107 -1020h-203z" />
<glyph unicode="&#xef;" horiz-adv-x="491" d="M119 1165l18 183h180l-18 -183h-180zM143 0l107 1020h203l-107 -1020h-203zM418 1165l18 183h182l-18 -183h-182z" />
<glyph unicode="&#xf0;" horiz-adv-x="1058" d="M143 178l66 635q11 93 73 150t162 57h316l63 -64l8 88q0 87 -61 136q-46 37 -96 59l-80 -147l-139 63l88 158l-137 73l98 179l133 -72l78 143l135 -65l-82 -141q148 -75 212 -158.5t64 -218.5l-90 -846q-11 -93 -72 -150t-161 -57h-383q-92 0 -143.5 48.5t-51.5 129.5z M365 268q0 -71 73 -71h217q84 0 93 90l51 454q0 82 -72 82h-219q-82 0 -94 -90z" />
<glyph unicode="&#xf1;" horiz-adv-x="1071" d="M143 0l107 1020h158l45 -47l51 47h377q64 0 100.5 -36t36.5 -101q0 -6 -90 -883h-213l78 750q0 33 -22.5 55t-57.5 22h-191q-83 0 -92 -88l-76 -739h-211zM348 1149l166 211h117l162 -57l51 57h151l-166 -209h-133l-145 59l-47 -61h-156z" />
<glyph unicode="&#xf2;" horiz-adv-x="1036" d="M143 178l66 635q11 93 73 150t162 57h359q94 0 144 -49t50 -131l-63 -633q-11 -93 -72.5 -150t-161.5 -57h-362q-92 0 -143.5 48.5t-51.5 129.5zM365 268q0 -71 73 -71h197q89 0 92 90l51 454q0 82 -71 82h-197q-85 0 -94 -90zM381 1362h213l129 -213h-172z" />
<glyph unicode="&#xf3;" horiz-adv-x="1036" d="M143 178l66 635q11 93 73 150t162 57h359q94 0 144 -49t50 -131l-63 -633q-11 -93 -72.5 -150t-161.5 -57h-362q-92 0 -143.5 48.5t-51.5 129.5zM365 268q0 -71 73 -71h197q89 0 92 90l51 454q0 82 -71 82h-197q-85 0 -94 -90zM524 1149l129 213h213l-170 -213h-172z" />
<glyph unicode="&#xf4;" horiz-adv-x="1036" d="M143 178l66 635q11 93 73 150t162 57h359q94 0 144 -49t50 -131l-63 -633q-11 -93 -72.5 -150t-161.5 -57h-362q-92 0 -143.5 48.5t-51.5 129.5zM365 268q0 -71 73 -71h197q89 0 92 90l51 454q0 82 -71 82h-197q-85 0 -94 -90zM371 1147l180 215h211l139 -215h-205 l-57 84l-76 -84h-192z" />
<glyph unicode="&#xf5;" horiz-adv-x="1036" d="M143 178l66 635q11 93 73 150t162 57h359q94 0 144 -49t50 -131l-63 -633q-11 -93 -72.5 -150t-161.5 -57h-362q-92 0 -143.5 48.5t-51.5 129.5zM328 1149l166 211h116l162 -57l51 57h152l-166 -209h-133l-146 59l-47 -61h-155zM365 268q0 -71 73 -71h197q89 0 92 90 l51 454q0 82 -71 82h-197q-85 0 -94 -90z" />
<glyph unicode="&#xf6;" horiz-adv-x="1036" d="M143 178l66 635q11 93 73 150t162 57h359q94 0 144 -49t50 -131l-63 -633q-11 -93 -72.5 -150t-161.5 -57h-362q-92 0 -143.5 48.5t-51.5 129.5zM365 268q0 -71 73 -71h197q89 0 92 90l51 454q0 82 -71 82h-197q-85 0 -94 -90zM381 1165l18 183h181l-19 -183h-180z M680 1165l18 183h183l-19 -183h-182z" />
<glyph unicode="&#xf7;" horiz-adv-x="991" d="M168 641l20 178h787l-21 -178h-786zM412 281l20 198h205l-21 -198h-204zM485 977l21 199h205l-21 -199h-205z" />
<glyph unicode="&#xf8;" horiz-adv-x="1036" d="M76 -8l86 102q-19 40 -19 84l66 635q11 93 73 150t162 57h359q63 0 110 -27l84 101l74 -54l-94 -112q20 -39 20 -88l-63 -633q-11 -93 -72.5 -150t-161.5 -57h-362q-66 0 -113 27l-73 -88zM381 215q18 -18 57 -18h197q89 0 92 90l31 278q0 67 -6 105zM383 352l373 453 q-21 18 -49 18h-197q-85 0 -94 -90l-29 -278q-4 -46 -4 -103z" />
<glyph unicode="&#xf9;" horiz-adv-x="1042" d="M156 139l94 881h211l-78 -744q0 -86 78 -86h180q81 0 90 86l76 744h205l-105 -1020h-143l-45 47l-51 -47h-371q-64 0 -102.5 37t-38.5 102zM395 1362h213l129 -213h-172z" />
<glyph unicode="&#xfa;" horiz-adv-x="1042" d="M156 139l94 881h211l-78 -744q0 -86 78 -86h180q81 0 90 86l76 744h205l-105 -1020h-143l-45 47l-51 -47h-371q-64 0 -102.5 37t-38.5 102zM539 1149l129 213h213l-170 -213h-172z" />
<glyph unicode="&#xfb;" horiz-adv-x="1042" d="M156 139l94 881h211l-78 -744q0 -86 78 -86h180q81 0 90 86l76 744h205l-105 -1020h-143l-45 47l-51 -47h-371q-64 0 -102.5 37t-38.5 102zM377 1147l180 215h211l139 -215h-205l-57 84l-76 -84h-192z" />
<glyph unicode="&#xfc;" horiz-adv-x="1042" d="M156 139l94 881h211l-78 -744q0 -86 78 -86h180q81 0 90 86l76 744h205l-105 -1020h-143l-45 47l-51 -47h-371q-64 0 -102.5 37t-38.5 102zM381 1165l18 183h181l-19 -183h-180zM680 1165l18 183h183l-19 -183h-182z" />
<glyph unicode="&#xfd;" horiz-adv-x="1042" d="M156 139l94 881h211l-78 -744q0 -86 78 -86h180q81 0 90 86l76 744h205l-133 -1284q-11 -93 -73.5 -150t-162.5 -57h-467v197h416q83 0 92 90l25 231l-52 -47h-360q-64 0 -102.5 37t-38.5 102zM539 1149l129 213h213l-170 -213h-172z" />
<glyph unicode="&#xfe;" horiz-adv-x="1075" d="M92 -471l197 1901l219 16l-51 -479l59 53h326q91 0 141.5 -48.5t50.5 -131.5l-63 -633q-8 -91 -70 -149t-164 -58h-338l-43 45l-53 -496zM381 274q0 -77 76 -77h217q81 0 90 90l51 458q0 33 -19.5 55.5t-50.5 22.5h-223q-81 0 -90 -84z" />
<glyph unicode="&#xff;" horiz-adv-x="1042" d="M156 139l94 881h211l-78 -744q0 -86 78 -86h180q81 0 90 86l76 744h205l-133 -1284q-11 -93 -73.5 -150t-162.5 -57h-467v197h416q83 0 92 90l25 231l-52 -47h-360q-64 0 -102.5 37t-38.5 102zM389 1165l19 183h180l-19 -183h-180zM688 1165l19 183h182l-19 -183h-182z " />
<glyph unicode="&#x152;" horiz-adv-x="1708" d="M166 207l100 975q11 112 78.5 181t194.5 69h1237l-21 -189h-559l-45 -430h487l-20 -195h-488l-45 -425h560l-19 -193h-1237q-223 0 -223 207zM383 264q0 -78 78 -78h413l111 1059h-410q-45 0 -70 -24.5t-30 -65.5z" />
<glyph unicode="&#x153;" horiz-adv-x="1619" d="M143 178l66 635q11 93 73 150t162 57h363q55 0 106 -23q58 23 113 23h363q92 0 143 -48.5t51 -131.5l-18 -191q-18 -176 -226 -203l-317 -40l-59 47l-17 -187q0 -69 76 -69h461l-31 -197h-530q-60 0 -111 23q-54 -23 -111 -23h-362q-92 0 -143.5 48.5t-51.5 129.5z M365 268q0 -71 73 -71h201q83 0 92 90l47 454q0 82 -71 82h-201q-85 0 -94 -90zM977 584l299 47q77 9 80 71l4 41q0 80 -72 80h-203q-38 0 -62.5 -23.5t-29.5 -60.5z" />
<glyph unicode="&#x178;" horiz-adv-x="1140" d="M211 1432h244l202 -535l328 535h244l-498 -793l-65 -639h-207l65 639zM471 1530l18 182h181l-19 -182h-180zM770 1530l18 182h183l-19 -182h-182z" />
<glyph unicode="&#x2c6;" horiz-adv-x="702" d="M213 1212l178 218h213l139 -218h-204l-58 84l-75 -84h-193z" />
<glyph unicode="&#x2dc;" horiz-adv-x="825" d="M225 1225l168 205h117l162 -50l49 58h153l-163 -209h-133l-148 51l-47 -55h-158z" />
<glyph unicode="&#x2000;" horiz-adv-x="871" />
<glyph unicode="&#x2001;" horiz-adv-x="1743" />
<glyph unicode="&#x2002;" horiz-adv-x="871" />
<glyph unicode="&#x2003;" horiz-adv-x="1743" />
<glyph unicode="&#x2004;" horiz-adv-x="581" />
<glyph unicode="&#x2005;" horiz-adv-x="435" />
<glyph unicode="&#x2006;" horiz-adv-x="290" />
<glyph unicode="&#x2007;" horiz-adv-x="290" />
<glyph unicode="&#x2008;" horiz-adv-x="217" />
<glyph unicode="&#x2009;" horiz-adv-x="348" />
<glyph unicode="&#x200a;" horiz-adv-x="96" />
<glyph unicode="&#x2010;" horiz-adv-x="655" d="M94 399l21 187h549l-21 -187h-549z" />
<glyph unicode="&#x2011;" horiz-adv-x="655" d="M94 399l21 187h549l-21 -187h-549z" />
<glyph unicode="&#x2012;" horiz-adv-x="655" d="M94 399l21 187h549l-21 -187h-549z" />
<glyph unicode="&#x2013;" horiz-adv-x="958" d="M82 408l18 170h877l-19 -170h-876z" />
<glyph unicode="&#x2014;" horiz-adv-x="1511" d="M82 408l18 170h1430l-19 -170h-1429z" />
<glyph unicode="&#x2018;" horiz-adv-x="425" d="M205 987l24 225l80 220h174l-82 -222h39l-24 -223h-211z" />
<glyph unicode="&#x2019;" horiz-adv-x="425" d="M195 987l84 221h-39l22 224h211l-24 -226l-80 -219h-174z" />
<glyph unicode="&#x201a;" horiz-adv-x="444" d="M84 -231l84 231h-39l23 231h213l-25 -233l-80 -229h-176z" />
<glyph unicode="&#x201c;" horiz-adv-x="729" d="M205 987l24 225l80 220h174l-82 -222h39l-24 -223h-211zM496 987l24 225l80 220h176l-82 -222h39l-24 -223h-213z" />
<glyph unicode="&#x201d;" horiz-adv-x="729" d="M205 987l84 221h-39l22 224h211l-24 -226l-80 -219h-174zM496 987l84 221h-39l22 224h213l-24 -226l-80 -219h-176z" />
<glyph unicode="&#x201e;" horiz-adv-x="745" d="M84 -231l84 231h-39l23 231h213l-25 -233l-80 -229h-176zM385 -231l84 231h-39l23 231h213l-25 -233l-80 -229h-176z" />
<glyph unicode="&#x2022;" horiz-adv-x="555" d="M190 645l17 156q5 37 28.5 59.5t63.5 22.5h139q78 0 78 -72l-16 -156q-5 -38 -29.5 -60t-64.5 -22h-140q-76 0 -76 72z" />
<glyph unicode="&#x2026;" horiz-adv-x="1492" d="M109 0l22 231h213l-22 -231h-213zM635 0l22 231h211l-22 -231h-211zM1171 0l23 231h211l-23 -231h-211z" />
<glyph unicode="&#x202f;" horiz-adv-x="348" />
<glyph unicode="&#x2039;" horiz-adv-x="694" d="M145 426l17 158l536 436l-26 -246l-334 -266l278 -272l-26 -242z" />
<glyph unicode="&#x203a;" horiz-adv-x="694" d="M100 -6l27 242l334 272l-279 266l27 246l442 -436l-16 -158z" />
<glyph unicode="&#x205f;" horiz-adv-x="435" />
<glyph unicode="&#x20ac;" horiz-adv-x="1118" d="M66 446l40 187h166l17 151h-148l39 187h127l23 209q11 112 78.5 181t193.5 69h502l-8 -189h-457q-91 0 -100 -90l-21 -180h479l-39 -187h-458l-17 -151h441l-41 -187h-420l-17 -180q0 -76 72 -76h486l-19 -190h-532q-224 0 -224 209l23 237h-186z" />
<glyph unicode="&#x2122;" horiz-adv-x="1286" d="M217 1300l14 132h433l-15 -132h-145l-45 -434h-144l45 434h-143zM705 866l59 566h131l115 -269l166 269h137l-60 -566h-137l31 297l-98 -153h-113l-66 141l-30 -285h-135z" />
<glyph unicode="&#x25fc;" horiz-adv-x="1024" d="M0 0v1024h1024v-1024h-1024z" />
</font>
</defs>
</svg>
