<?xml version="1.0" standalone="no"?>
<!DOCTYPE svg PUBLIC "-//W3C//DTD SVG 1.1//EN" "http://www.w3.org/Graphics/SVG/1.1/DTD/svg11.dtd" >
<svg xmlns="http://www.w3.org/2000/svg" xmlns:xlink="http://www.w3.org/1999/xlink" version="1.1">
<metadata></metadata>
<defs>
<font id="lab_sans_proextrabold" horiz-adv-x="1177" >
<font-face units-per-em="2048" ascent="1544" descent="-504" />
<missing-glyph horiz-adv-x="409" />
<glyph unicode="&#xfb01;" horiz-adv-x="1251" d="M20 768v248h185v223q0 93 56 150t157 57h493q94 0 145.5 -52.5t51.5 -154.5v-100h-289v10q0 51 -57 51h-184q-82 0 -82 -90v-94h221v-248h-223v-768h-289v768h-185zM817 0v1016h289v-1016h-289z" />
<glyph unicode="&#xfb02;" horiz-adv-x="1251" d="M20 768v248h185v207q0 207 194 207h420l287 16l2 -1446h-289v1200h-241q-82 0 -82 -90v-94h221v-248h-223v-768h-289v768h-185z" />
<glyph unicode="&#xfb03;" horiz-adv-x="1865" d="M20 768v248h185v182q0 207 194 207h287l12 -229h-120q-82 0 -82 -91v-69h323v223q0 93 56 150t157 57h494q94 0 145 -52t51 -155v-100h-288v10q0 51 -58 51h-186q-82 0 -82 -90v-94h219v-248h-219v-768h-289v768h-325v-768h-289v768h-185zM1432 0v1016h288v-1016h-288z " />
<glyph unicode="&#xfb04;" horiz-adv-x="1863" d="M20 768v248h185v182q0 207 194 207h287l12 -229h-120q-82 0 -82 -91v-69h321v207q0 207 195 207h420l286 16l2 -1446h-288v1200h-242q-82 0 -82 -90v-94h221v-248h-223v-768h-289v768h-323v-768h-289v768h-185z" />
<glyph horiz-adv-x="0" />
<glyph horiz-adv-x="682" />
<glyph unicode=" "  horiz-adv-x="409" />
<glyph unicode="&#x09;" horiz-adv-x="409" />
<glyph unicode="&#xa0;" horiz-adv-x="409" />
<glyph unicode="!" horiz-adv-x="542" d="M123 0v291h295v-291h-295zM123 1430h297l-25 -1000h-248z" />
<glyph unicode="&#x22;" horiz-adv-x="884" d="M143 1430h246l-8 -386h-229zM496 1430h245l-8 -386h-229z" />
<glyph unicode="#" horiz-adv-x="1224" d="M102 391v197h177l22 254h-178v196h194l35 392h217l-34 -392h213l34 392h217l-34 -392h157v-196h-174l-22 -254h176v-197h-193l-32 -391h-218l33 391h-213l-33 -391h-217l33 391h-160zM496 588h213l22 254h-213z" />
<glyph unicode="$" horiz-adv-x="1077" d="M102 829v435q0 78 42 122t112 44h182v210h228v-210h260l12 -248h-471q-76 0 -76 -70v-123q0 -31 17.5 -48.5t58.5 -29.5l356 -82q152 -35 152 -186v-477q0 -78 -42 -122t-112 -44h-155v-211h-228v211h-317l-12 248h501q76 0 76 69v150q0 73 -70 94l-360 82 q-154 35 -154 186z" />
<glyph unicode="%" horiz-adv-x="1892" d="M102 850v450q0 58 34.5 94t96.5 36h383q64 0 99 -35.5t35 -94.5v-450q0 -59 -35 -94t-99 -35h-383q-62 0 -96.5 35.5t-34.5 93.5zM319 975q0 -57 54 -57h106q53 0 53 57v203q0 55 -53 55h-106q-54 0 -54 -55v-203zM614 0l430 1430h234l-428 -1430h-236zM1143 129v451 q0 58 34.5 93.5t96.5 35.5h383q64 0 98.5 -35t34.5 -94v-451q0 -59 -34.5 -94t-98.5 -35h-383q-62 0 -96.5 35.5t-34.5 93.5zM1360 254q0 -57 53 -57h107q53 0 53 57v203q0 55 -53 55h-107q-53 0 -53 -55v-203z" />
<glyph unicode="&#x26;" horiz-adv-x="1318" d="M143 252v276q0 110 58 174q59 65 110 68q-43 19 -70.5 69t-27.5 115v224q0 252 246 252h413q246 0 246 -252v-230h-289v154q0 92 -90 92h-145q-92 0 -92 -94v-121q0 -72 67 -121l334 -246v162h289v-358l127 -107v-313l-152 121q-23 -55 -81.5 -86t-137.5 -31h-559 q-246 0 -246 252zM432 326q0 -90 92 -90h295q84 0 84 75l-389 303q-82 -6 -82 -98v-190z" />
<glyph unicode="'" horiz-adv-x="532" d="M143 1430h246l-8 -386h-229z" />
<glyph unicode="(" horiz-adv-x="679" d="M143 594q0 301 56 596q60 298 163 489h256q-212 -435 -212 -1085q0 -630 212 -1065h-256q-106 197 -163 481q-56 282 -56 584z" />
<glyph unicode=")" horiz-adv-x="679" d="M143 -471q213 437 213 1065q0 648 -213 1085h256q107 -197 162 -489q57 -285 57 -596q0 -308 -55 -584q-56 -281 -164 -481h-256z" />
<glyph unicode="*" horiz-adv-x="815" d="M82 1118l86 203l129 -51v160h215v-160l129 51l92 -203l-149 -59l104 -133l-170 -127l-112 137l-109 -137l-166 129l102 129z" />
<glyph unicode="+" horiz-adv-x="991" d="M102 616v230h279v299h229v-299h279v-230h-279v-284h-229v284h-279z" />
<glyph unicode="," horiz-adv-x="555" d="M123 -231l59 231h-39v309h289v-311l-57 -229h-252z" />
<glyph unicode="-" horiz-adv-x="630" d="M41 375v237h549v-237h-549z" />
<glyph unicode="." horiz-adv-x="534" d="M123 0v309h289v-309h-289z" />
<glyph unicode="/" horiz-adv-x="778" d="M-59 -471l563 1901h274l-561 -1901h-276z" />
<glyph unicode="0" horiz-adv-x="1275" d="M143 207v1016q0 93 56 150t157 57h564q101 0 157 -57t56 -150v-1016q0 -93 -56 -150t-157 -57h-564q-101 0 -157 57t-56 150zM432 336q0 -39 22.5 -64.5t59.5 -25.5h250q37 0 59.5 25.5t22.5 64.5v760q0 90 -82 90h-250q-40 0 -61 -25t-21 -65v-760z" />
<glyph unicode="1" horiz-adv-x="804" d="M41 0v254h221v928l-207 -23v234l496 41v-1180h213v-254h-723z" />
<glyph unicode="2" horiz-adv-x="1087" d="M61 0v227l568 727q49 64 49 121v37q0 30 -21.5 50t-56.5 20h-518l12 248h680q92 0 151.5 -53t59.5 -158v-136q0 -141 -106 -274l-441 -561h588l-12 -248h-953z" />
<glyph unicode="3" horiz-adv-x="1110" d="M123 0v248h465q90 0 90 90v162q0 86 -80 92h-414v248h414q80 6 80 92v160q0 90 -90 90h-465l10 248h590q158 0 207 -78q37 -58 37 -135v-332q-2 -45 -19 -80.5t-40.5 -55t-44 -29t-36.5 -11.5l-16 -2q6 -1 16.5 -4t37.5 -16t47.5 -30t37.5 -49t17 -71v-285 q0 -252 -244 -252h-600z" />
<glyph unicode="4" horiz-adv-x="1224" d="M82 338v227l612 865h289v-842h201v-250h-201v-338h-289v338h-612zM369 586h323v477z" />
<glyph unicode="5" horiz-adv-x="1179" d="M123 592l41 838h860l10 -248h-620l-21 -344h490q70 0 111.5 -43t41.5 -121v-484q0 -81 -59.5 -135.5t-147.5 -54.5h-696v248h537q75 0 75 88v186q0 70 -75 70h-547z" />
<glyph unicode="6" horiz-adv-x="1275" d="M143 203v1020q0 93 56 150t157 57h723l11 -244h-576q-82 0 -82 -90v-265h547q70 0 112 -43.5t42 -121.5v-459q0 -96 -60 -151.5t-149 -55.5h-574q-91 0 -149 58t-58 145zM432 319q0 -73 82 -73h252q76 0 76 80v194q0 70 -76 70h-334v-271z" />
<glyph unicode="7" horiz-adv-x="1052" d="M59 1182l11 248h919v-228l-489 -1202h-310l502 1182h-633z" />
<glyph unicode="8" horiz-adv-x="1275" d="M143 225v328q0 126 95 170q-2 0 -11.5 5.5t-23.5 18t-27.5 30t-23 45t-9.5 59.5v317q0 232 226 232h538q120 0 173 -57.5t53 -180.5v-305q0 -33 -9.5 -61t-22.5 -45.5t-27.5 -29.5t-24.5 -17t-13 -5q10 -2 29 -14q22 -13 45 -57.5t23 -98.5v-307q0 -132 -53.5 -192 t-184.5 -60h-518q-234 0 -234 225zM432 336q0 -92 92 -92h230q92 0 92 92v106q0 78 -72 103l-260 41q-82 0 -82 -92v-158zM432 985q0 -77 82 -92l250 -41q82 6 82 92v150q0 92 -92 92h-230q-92 0 -92 -92v-109z" />
<glyph unicode="9" horiz-adv-x="1275" d="M143 682v541q0 96 60 151.5t149 55.5h574q91 0 149 -58t58 -145v-1020q0 -93 -56 -150t-157 -57h-723l-11 246h578q82 0 82 90v180h-549q-70 0 -112 44t-42 122zM432 827q0 -69 76 -69h338v334q0 39 -21.5 66.5t-60.5 27.5h-250q-38 0 -60 -23.5t-22 -60.5v-275z" />
<glyph unicode=":" horiz-adv-x="534" d="M123 0v309h289v-309h-289zM123 707v309h289v-309h-289z" />
<glyph unicode=";" horiz-adv-x="555" d="M123 -231l59 231h-39v309h289v-311l-57 -229h-252zM143 707v309h289v-309h-289z" />
<glyph unicode="&#x3c;" horiz-adv-x="1036" d="M123 387v238l790 395v-252l-573 -260l573 -266v-248z" />
<glyph unicode="=" horiz-adv-x="991" d="M102 412v229h787v-229h-787zM102 821v230h787v-230h-787z" />
<glyph unicode="&#x3e;" horiz-adv-x="1036" d="M123 -6v248l573 266l-573 260v252l790 -395v-238z" />
<glyph unicode="?" horiz-adv-x="1105" d="M123 1190l10 240h604q130 0 188 -57t58 -173v-323q0 -64 -30.5 -118t-71.5 -79l-95 -55q-108 -65 -108 -154v-41h-258v191q0 97 98 155l117 70q80 30 80 160v94q0 90 -92 90h-500zM406 0v291h294v-291h-294z" />
<glyph unicode="@" horiz-adv-x="2275" d="M123 -158v1336q0 113 65 181t181 68h1538q131 0 188 -61t57 -188v-926q0 -123 -55.5 -187.5t-189.5 -64.5h-457q-81 0 -119 68l-57 -68h-498q-64 0 -101.5 37t-37.5 102q0 21 2 27l72 684q7 78 54.5 122t117.5 44h424l43 -58l41 58h233l-76 -711q3 -75 72 -84h182 q82 0 82 92v801q0 90 -92 90h-1309q-92 0 -92 -90v-1210q0 -92 82 -92h1036l-26 -222h-1114q-134 0 -190 64.5t-56 187.5zM926 303q0 -67 67 -67h189q81 0 90 73l49 422q0 62 -74 62h-194q-76 0 -82 -70l-45 -408v-12z" />
<glyph unicode="A" horiz-adv-x="1204" d="M41 0l418 1430h284l420 -1430h-307l-92 311h-324l-92 -311h-307zM498 559h204l-102 399z" />
<glyph unicode="B" horiz-adv-x="1251" d="M164 0v1430h674q131 0 188 -61t57 -191v-289q0 -116 -79 -156q45 -19 74 -58.5t30 -96.5v-326q0 -119 -62.5 -185.5t-183.5 -66.5h-698zM453 238h274q92 0 92 90v172q0 92 -82 92h-284v-354zM453 840h260q82 0 82 92v170q0 92 -93 92h-249v-354z" />
<glyph unicode="C" horiz-adv-x="1173" d="M143 252v928q0 83 37 151q24 46 78 72.5t131 26.5h627l12 -240h-504q-92 0 -92 -90v-766q0 -92 82 -92h516v-242h-641q-134 0 -190 64.5t-56 187.5z" />
<glyph unicode="D" horiz-adv-x="1376" d="M164 0v1430h823q131 0 188.5 -61t57.5 -191v-926q0 -252 -246 -252h-823zM453 238h409q82 0 82 88v776q0 90 -92 90h-399v-954z" />
<glyph unicode="E" horiz-adv-x="1056" d="M164 0v1430h743v-240h-454v-350h362v-246h-362v-350h454v-244h-743z" />
<glyph unicode="F" horiz-adv-x="1036" d="M164 0v1430h770v-240h-481v-371h389v-246h-389v-573h-289z" />
<glyph unicode="G" horiz-adv-x="1273" d="M143 252v928q0 83 37 151q24 46 78 72.5t131 26.5h766l12 -236h-643q-92 0 -92 -90v-776q0 -92 82 -92h328q82 0 82 92v170h-209v270h497v-516q0 -123 -55.5 -187.5t-189.5 -64.5h-578q-134 0 -190 64.5t-56 187.5z" />
<glyph unicode="H" horiz-adv-x="1357" d="M164 0v1430h289v-590h452v590h289v-1430h-289v592h-452v-592h-289z" />
<glyph unicode="I" horiz-adv-x="808" d="M82 0v233h178v963h-178v234h645v-234h-178v-963h178v-233h-645z" />
<glyph unicode="J" horiz-adv-x="757" d="M82 233h141q82 0 82 89v874h-223v234h512v-1178q0 -123 -56 -187.5t-190 -64.5h-256z" />
<glyph unicode="K" horiz-adv-x="1280" d="M164 0v1430h289v-590h182q87 0 108 80l125 510h291l-145 -594q-21 -83 -94 -113q77 -35 104 -127l174 -596h-295l-151 514q-24 80 -109 80h-190v-594h-289z" />
<glyph unicode="L" horiz-adv-x="1009" d="M164 0v1430h289v-1186h454v-244h-743z" />
<glyph unicode="M" horiz-adv-x="1542" d="M164 0v1430h278l332 -633l316 633h288v-1430h-288v838l-203 -449h-228l-206 428v-817h-289z" />
<glyph unicode="N" horiz-adv-x="1357" d="M164 0v1430h285l456 -771v771h289v-1430h-262l-479 844v-844h-289z" />
<glyph unicode="O" horiz-adv-x="1355" d="M143 250v930q0 122 62.5 186t183.5 64h578q245 0 245 -250v-930q0 -250 -245 -250h-578q-121 0 -183.5 64t-62.5 186zM432 326q0 -39 24.5 -64.5t67.5 -25.5h307q93 0 93 90v778q0 90 -93 90h-307q-43 0 -67.5 -25.5t-24.5 -64.5v-778z" />
<glyph unicode="P" horiz-adv-x="1253" d="M164 0v1430h721q134 0 189.5 -54t55.5 -178v-436q0 -242 -245 -242h-432v-520h-289zM453 758h297q92 0 92 90v254q0 92 -92 92h-297v-436z" />
<glyph unicode="Q" horiz-adv-x="1355" d="M143 250v930q0 122 62.5 186t183.5 64h578q245 0 245 -250v-930q0 -40 -10 -92l213 -271l-348 -26l-102 145q-21 -6 -62 -6h-514q-121 0 -183.5 64t-62.5 186zM432 326q0 -39 24.5 -64.5t67.5 -25.5h307q93 0 93 90v778q0 90 -93 90h-307q-43 0 -67.5 -25.5t-24.5 -64.5 v-778z" />
<glyph unicode="R" horiz-adv-x="1255" d="M164 0v1430h721q137 0 191 -52.5t54 -171.5v-379q0 -63 -26.5 -116t-59.5 -74l-28 -19q62 -30 80 -126l98 -492h-297l-90 434q-18 86 -102 86h-252v-520h-289zM453 760h297q44 0 68 25t24 67v250q0 92 -92 92h-297v-434z" />
<glyph unicode="S" horiz-adv-x="1077" d="M102 829v435q0 78 42 122t112 44h670l12 -248h-471q-76 0 -76 -70v-123q0 -31 17.5 -48.5t58.5 -29.5l356 -82q152 -35 152 -186v-477q0 -78 -42 -122t-112 -44h-700l-12 248h501q76 0 76 69v150q0 73 -70 94l-360 82q-154 35 -154 186z" />
<glyph unicode="T" horiz-adv-x="1140" d="M82 1190v240h1028v-240h-367v-1190h-288v1190h-373z" />
<glyph unicode="U" horiz-adv-x="1318" d="M164 252v1178h289v-1096q0 -92 82 -92h288q82 0 82 92v1096h289v-1178q0 -124 -55 -188t-189 -64h-540q-134 0 -190 64.5t-56 187.5z" />
<glyph unicode="V" horiz-adv-x="1204" d="M61 1430h308l231 -959l236 959h307l-400 -1430h-284z" />
<glyph unicode="W" horiz-adv-x="1900" d="M61 1430h308l211 -938l215 938h311l211 -938l215 938h307l-379 -1430h-284l-226 877l-227 -877h-285z" />
<glyph unicode="X" horiz-adv-x="1183" d="M61 0l375 731l-354 699h330l186 -379l195 379h309l-354 -678l374 -752h-315l-223 438l-228 -438h-295z" />
<glyph unicode="Y" horiz-adv-x="1230" d="M61 1430h334l215 -431l230 431h329l-417 -791v-639h-285v639z" />
<glyph unicode="Z" horiz-adv-x="1048" d="M61 0v203l560 987h-525l13 240h856v-209l-545 -977h567l-12 -244h-914z" />
<glyph unicode="[" horiz-adv-x="727" d="M143 -471v2159h502v-242h-233v-1675h233v-242h-502z" />
<glyph unicode="\" horiz-adv-x="802" d="M0 1430h274l605 -1901h-277z" />
<glyph unicode="]" horiz-adv-x="727" d="M82 -229h233v1675h-233v242h502v-2159h-502v242z" />
<glyph unicode="^" horiz-adv-x="1153" d="M74 0l397 748h223l389 -748h-264l-237 485l-258 -485h-250z" />
<glyph unicode="_" horiz-adv-x="794" d="M102 -233h590v-238h-590v238z" />
<glyph unicode="`" horiz-adv-x="493" d="M61 1430h252l119 -242h-211z" />
<glyph unicode="a" horiz-adv-x="1146" d="M123 211v172q0 218 219 233l373 21v49q0 82 -74 82h-463l10 248h603q96 0 154.5 -55t58.5 -152v-809h-216l-49 47l-47 -47h-368q-201 0 -201 211zM412 326q0 -78 77 -78h146q80 0 80 86v98l-230 -16q-73 -6 -73 -82v-8z" />
<glyph unicode="b" horiz-adv-x="1179" d="M143 0v1425l291 21v-477l53 47h359q100 0 155.5 -58t55.5 -149v-602q0 -91 -57 -149t-160 -58h-363l-45 47l-51 -47h-238zM432 340q0 -92 84 -92h172q80 0 80 90v342q0 88 -82 88h-172q-82 0 -82 -90v-338z" />
<glyph unicode="c" horiz-adv-x="993" d="M123 207v602q0 95 56 151t159 56h520l12 -248h-376q-36 0 -59 -21.5t-23 -54.5v-354q0 -90 80 -90h378l-12 -248h-522q-102 0 -157.5 58t-55.5 149z" />
<glyph unicode="d" horiz-adv-x="1179" d="M123 207v602q0 91 55.5 149t155.5 58h358l53 -47v456l291 21v-1446h-237l-51 47l-46 -47h-362q-103 0 -160 58t-57 149zM412 338q0 -90 80 -90h172q84 0 84 92v338q0 90 -82 90h-172q-82 0 -82 -88v-342z" />
<glyph unicode="e" horiz-adv-x="1161" d="M123 207v602q0 96 58 151.5t157 55.5h485q98 0 156.5 -56.5t58.5 -150.5v-223q0 -99 -56.5 -153t-154.5 -54h-352l-63 47v-88q0 -90 82 -90h499l-12 -248h-643q-99 0 -157 55.5t-58 151.5zM412 610h264q72 0 72 72v8q0 78 -80 78h-174q-38 0 -60 -23.5t-22 -62.5v-72z " />
<glyph unicode="f" horiz-adv-x="759" d="M20 768v248h185v207q0 207 194 207h308l12 -230h-141q-82 0 -82 -90v-94h221v-248h-223v-768h-289v768h-185z" />
<glyph unicode="g" horiz-adv-x="1179" d="M123 207v602q0 91 56.5 149t158.5 58h354l51 -47l43 47h250v-1280q0 -93 -56 -150t-157 -57h-614l-10 248h467q82 0 82 90v180l-46 -47h-364q-102 0 -158.5 58t-56.5 149zM412 338q0 -90 82 -90h172q82 0 82 88v342q0 90 -80 90h-172q-84 0 -84 -92v-338z" />
<glyph unicode="h" horiz-adv-x="1198" d="M143 0v1430l289 16v-475l43 45h371q98 0 153.5 -55t55.5 -152v-809h-289v686q0 82 -76 82h-176q-82 0 -82 -84v-684h-289z" />
<glyph unicode="i" horiz-adv-x="561" d="M143 0v1016h275v-1016h-275zM143 1135v274h275v-274h-275z" />
<glyph unicode="j" horiz-adv-x="557" d="M-10 -244h67q86 0 86 80v1180h269l-2 -1280q0 -207 -195 -207h-215zM143 1135v274h275v-274h-275z" />
<glyph unicode="k" horiz-adv-x="1107" d="M143 0v1430l289 16v-815h135q94 0 109 80l67 305h289l-100 -471l-43 -39l45 -41l113 -465h-289l-82 303q-21 80 -103 80h-141v-383h-289z" />
<glyph unicode="l" horiz-adv-x="577" d="M143 0v1430l291 16v-1446h-291z" />
<glyph unicode="m" horiz-adv-x="1718" d="M143 0v1016h236l51 -47l45 47h440l52 -47l45 47h356q98 0 152.5 -55t54.5 -152v-809h-289v688q0 80 -76 80h-125q-81 0 -81 -82v-686h-289v688q0 80 -76 80h-125q-82 0 -82 -88v-680h-289z" />
<glyph unicode="n" horiz-adv-x="1187" d="M143 0v1016h236l51 -47l45 47h361q98 0 153 -55t55 -152v-809h-288v688q0 80 -76 80h-166q-82 0 -82 -88v-680h-289z" />
<glyph unicode="o" horiz-adv-x="1159" d="M123 207v602q0 93 56 150t157 57h487q101 0 157 -57t56 -150v-602q0 -93 -56 -150t-157 -57h-487q-101 0 -157 57t-56 150zM412 338q0 -90 82 -90h172q82 0 82 88v342q0 90 -80 90h-172q-84 0 -84 -92v-338z" />
<glyph unicode="p" horiz-adv-x="1179" d="M143 -471v1487h238l51 -47l45 47h363q103 0 160 -58t57 -149v-602q0 -91 -55.5 -149t-155.5 -58h-359l-53 47v-498zM432 338q0 -90 82 -90h172q82 0 82 88v342q0 90 -80 90h-172q-84 0 -84 -92v-338z" />
<glyph unicode="q" horiz-adv-x="1179" d="M123 207v602q0 91 57 149t160 58h362l46 -47l51 47h237v-1467l-291 -20v518l-53 -47h-358q-100 0 -155.5 58t-55.5 149zM412 336q0 -88 82 -88h172q82 0 82 90v338q0 92 -84 92h-172q-80 0 -80 -90v-342z" />
<glyph unicode="r" horiz-adv-x="765" d="M143 0v1016h236l51 -47l45 47h250l-29 -248h-182q-82 0 -82 -88v-680h-289z" />
<glyph unicode="s" horiz-adv-x="870" d="M82 233h377q61 0 61 60v10q0 30 -17 45t-59 23l-200 41q-78 18 -116 56t-38 110v272q0 78 42 122t112 44h501l13 -242h-324q-76 0 -76 -55v-12q0 -43 76 -58l201 -41q82 -17 117.5 -60.5t35.5 -125.5v-256q0 -78 -41.5 -122t-111.5 -44h-541z" />
<glyph unicode="t" horiz-adv-x="808" d="M41 768v248h180v203l289 16v-219h238v-248h-238v-453q0 -90 82 -90h156l-13 -225h-301q-101 0 -157 57t-56 150v561h-180z" />
<glyph unicode="u" d="M143 207v809h289v-688q0 -80 76 -80h156q81 0 81 88v680h289v-1016h-235l-51 47l-46 -47h-350q-98 0 -153.5 55t-55.5 152z" />
<glyph unicode="v" horiz-adv-x="952" d="M41 1016h283l163 -545l156 545h268l-307 -1016h-248z" />
<glyph unicode="w" horiz-adv-x="1519" d="M41 1016h274l164 -545l142 545h274l160 -545l155 545h269l-308 -1016h-247l-164 580l-164 -580h-248z" />
<glyph unicode="x" horiz-adv-x="991" d="M61 1016h308l137 -250l141 250h283l-287 -502l285 -514h-301l-138 246l-139 -246h-280l280 496z" />
<glyph unicode="y" d="M143 166v850h289v-688q0 -80 76 -80h156q81 0 81 74v694h289v-1280q0 -93 -56 -150t-157 -57h-633l-10 248h486q81 0 81 90v178l-45 -45h-403q-70 0 -112 44t-42 122z" />
<glyph unicode="z" horiz-adv-x="892" d="M61 0v207l396 579h-391l12 230h735v-209l-383 -580h401l-12 -227h-758z" />
<glyph unicode="{" horiz-adv-x="835" d="M82 481v242h90q82 0 82 92v621q0 123 56 187.5t190 64.5h254v-242h-150q-82 0 -82 -92v-580q0 -119 -65 -172q65 -56 65 -172v-567q0 -92 82 -92h150v-242h-254q-134 0 -190 64.5t-56 187.5v608q0 92 -82 92h-90z" />
<glyph unicode="|" horiz-adv-x="555" d="M143 -471v1901h269v-1901h-269z" />
<glyph unicode="}" horiz-adv-x="835" d="M82 -229h149q82 0 82 92v567q0 115 66 172q-66 54 -66 172v580q0 92 -82 92h-149v242h254q134 0 190 -64.5t56 -187.5v-621q0 -92 82 -92h90v-242h-90q-82 0 -82 -92v-608q0 -123 -56 -187.5t-190 -64.5h-254v242z" />
<glyph unicode="~" horiz-adv-x="987" d="M102 586l146 270h117l282 -53l51 61h187l-144 -274h-133l-250 49l-45 -53h-211z" />
<glyph unicode="&#xa1;" horiz-adv-x="542" d="M123 -414l24 1000h248l25 -1000h-297zM123 725v291h295v-291h-295z" />
<glyph unicode="&#xa2;" horiz-adv-x="993" d="M123 207v602q0 95 56 151t159 56h82v209h227v-209h211l12 -248h-376q-36 0 -59 -21.5t-23 -54.5v-354q0 -90 80 -90h378l-12 -248h-211v-209h-227v209h-84q-102 0 -157.5 58t-55.5 149z" />
<glyph unicode="&#xa3;" horiz-adv-x="1226" d="M123 0v248h149l23 342h-170l14 221h168l33 453q12 166 154 166h583l13 -244h-381q-70 0 -76 -70l-27 -305h426l-12 -221h-426l-25 -342h535v-248h-981z" />
<glyph unicode="&#xa4;" horiz-adv-x="1294" d="M102 352l148 146q-4 28 -4 69v361q0 7 4 69l-148 142l164 168l146 -144q21 6 47 6h385q29 0 41 -6l143 144l164 -168l-139 -135q4 -32 4 -41v-406q0 -38 -4 -70l139 -137l-162 -168l-139 140q-25 -5 -47 -5h-385q-28 0 -53 5l-142 -138zM479 639q0 -90 82 -90h182 q82 0 82 90v207q0 90 -82 90h-182q-82 0 -82 -90v-207z" />
<glyph unicode="&#xa5;" horiz-adv-x="1193" d="M61 1430h334l195 -369l209 369h334l-324 -543h176v-160h-250v-147h250v-160h-250v-420h-305v420h-252v160h252v147h-252v160h193z" />
<glyph unicode="&#xa6;" horiz-adv-x="616" d="M164 352h289l-4 -823h-285v823zM164 623v807h289l-4 -807h-285z" />
<glyph unicode="&#xa7;" horiz-adv-x="1200" d="M143 348v236q0 116 82 186q-82 55 -82 182v312q0 78 42 122t112 44h690l12 -269h-491q-76 0 -76 -69v-52q0 -74 76 -98l385 -113q71 -21 117.5 -79t46.5 -134v-260q0 -117 -82 -151q82 -49 82 -166v-344q0 -78 -42 -122t-112 -44h-721l-12 268h522q76 0 76 70v80 q0 73 -76 94l-395 100q-154 59 -154 207zM391 489q0 -39 18.5 -59.5t63.5 -38.5l260 -69q76 0 76 69v105q0 71 -76 92l-266 74q-76 0 -76 -70v-103z" />
<glyph unicode="&#xa8;" horiz-adv-x="790" d="M102 1208v219h213v-219h-213zM475 1208v219h213v-219h-213z" />
<glyph unicode="&#xa9;" horiz-adv-x="1622" d="M123 252v928q0 83 37 151q24 46 78 72.5t131 26.5h884q77 0 131 -26.5t78 -72.5q37 -68 37 -151v-928q0 -123 -56 -187.5t-190 -64.5h-884q-134 0 -190 64.5t-56 187.5zM330 293q0 -92 82 -92h798q82 0 82 92v848q0 90 -92 90h-778q-92 0 -92 -90v-848zM553 520v398 q0 78 42 121.5t112 43.5h356l12 -206h-239q-76 0 -76 -70v-176q0 -70 76 -70h239l-12 -207h-356q-70 0 -112 44t-42 122z" />
<glyph unicode="&#xaa;" horiz-adv-x="776" d="M113 928v98q0 143 149 152l223 14v27q0 45 -45 45h-295l7 166h378q66 0 105 -39t39 -101v-506h-150l-22 29l-25 -29h-227q-66 0 -101.5 38.5t-35.5 105.5zM143 455v198h467v-198h-467zM301 975q0 -41 47 -41h98q39 0 39 45v72l-139 -11q-45 -3 -45 -53v-12z" />
<glyph unicode="&#xab;" horiz-adv-x="1206" d="M102 393v225l490 402v-338l-234 -174l234 -180v-334zM614 393v225l490 402v-338l-234 -174l234 -180v-334z" />
<glyph unicode="&#xac;" horiz-adv-x="1095" d="M123 715v217h848l2 -479h-217v262h-633z" />
<glyph unicode="&#xad;" horiz-adv-x="630" d="M41 375v237h549v-237h-549z" />
<glyph unicode="&#xae;" horiz-adv-x="1560" d="M123 252v928q0 83 37 151q24 46 78 72.5t131 26.5h823q77 0 131 -26.5t78 -72.5q37 -68 37 -151v-928q0 -123 -56 -187.5t-190 -64.5h-823q-134 0 -190 64.5t-56 187.5zM330 293q0 -92 82 -92h737q82 0 82 92v848q0 90 -92 90h-717q-92 0 -92 -90v-848zM500 334v768h446 q133 0 133 -135v-213q0 -29 -16 -52t-35 -30l-18 -8q30 -15 45 -80l55 -250h-211l-49 211q-9 47 -53 47h-90v-258h-207zM705 762h120q52 0 52 45v94q0 49 -52 49h-120v-188z" />
<glyph unicode="&#xaf;" horiz-adv-x="714" d="M102 1223v207h510v-207h-510z" />
<glyph unicode="&#xb0;" horiz-adv-x="667" d="M82 1055v245q0 58 34.5 94t96.5 36h240q64 0 98.5 -35.5t34.5 -94.5v-245q0 -59 -34.5 -94t-98.5 -35h-240q-62 0 -96.5 35.5t-34.5 93.5zM258 1159q0 -57 53 -57h45q54 0 54 57v39q0 55 -54 55h-45q-53 0 -53 -55v-39z" />
<glyph unicode="&#xb1;" horiz-adv-x="991" d="M102 0v147h787v-147h-787zM102 616v230h279v299h229v-299h279v-230h-279v-280h-229v280h-279z" />
<glyph unicode="&#xb2;" horiz-adv-x="722" d="M61 618v175l351 313q30 38 30 80v16q0 20 -16 34.5t-39 14.5h-315l8 179h430q56 0 87.5 -30.5t31.5 -82.5v-158q0 -121 -84 -190l-187 -174h304l-9 -177h-592z" />
<glyph unicode="&#xb3;" horiz-adv-x="659" d="M82 618v177h242q59 0 59 59v23q0 54 -53 57h-209v176h209q53 3 53 57v25q0 59 -59 59h-242l6 179h334q156 0 156 -140v-160q-1 -43 -16 -71.5t-30 -34.5l-14 -6q2 -1 6.5 -2.5t14.5 -9.5t18 -19t14.5 -31t6.5 -45v-135q0 -73 -41 -115.5t-115 -42.5h-340z" />
<glyph unicode="&#xb4;" horiz-adv-x="493" d="M61 1188l119 242h252l-160 -242h-211z" />
<glyph unicode="&#xb5;" d="M143 -471v1487h289v-680q0 -39 20 -63.5t56 -24.5h156q81 0 81 88v680h289v-1016h-235l-51 47l-46 -47h-270v-451z" />
<glyph unicode="&#xb6;" horiz-adv-x="1417" d="M123 1075v178q0 78 45 127.5t127 49.5h1081v-254h-172v-1176h-262v1176h-209v-1176h-262v899h-176q-77 0 -124.5 46.5t-47.5 129.5z" />
<glyph unicode="&#xb7;" horiz-adv-x="575" d="M143 362v310h289v-310h-289z" />
<glyph unicode="&#xb8;" horiz-adv-x="548" d="M94 -342h176q33 0 33 35v22q0 33 -39 33h-162v121l91 131h161l-88 -123h68q48 0 80 -29.5t32 -76.5v-136q0 -46 -31 -76t-75 -30h-246v129z" />
<glyph unicode="&#xb9;" horiz-adv-x="667" d="M61 618v175h175v448l-162 -12v174l379 27v-637h174v-175h-566z" />
<glyph unicode="&#xba;" horiz-adv-x="813" d="M102 924v366q0 63 39 101.5t107 38.5h319q68 0 106 -38.5t38 -101.5v-366q0 -62 -38.5 -101t-105.5 -39h-319q-68 0 -107 39t-39 101zM178 455v198h467v-198h-467zM289 1020q0 -70 61 -70h115q59 0 59 70v178q0 66 -59 66h-115q-61 0 -61 -66v-178z" />
<glyph unicode="&#xbb;" horiz-adv-x="1206" d="M102 -6v334l234 180l-234 174v338l490 -402v-225zM614 -6v334l234 180l-234 174v338l490 -402v-225z" />
<glyph unicode="&#xbc;" horiz-adv-x="1662" d="M61 618v175h175v448l-162 -12v174l379 27v-637h174v-175h-566zM504 0l518 1430h227l-516 -1430h-229zM942 164v162l334 485h201v-481h125v-166h-125v-164h-195v164h-340zM1143 328h139v202z" />
<glyph unicode="&#xbd;" horiz-adv-x="1746" d="M61 618v175h175v448l-162 -12v174l379 27v-637h174v-175h-566zM504 0l518 1430h227l-516 -1430h-229zM1085 0v174l351 313q30 37 30 80v17q0 20 -16 34.5t-39 14.5h-315l8 178h430q56 0 87.5 -30.5t31.5 -82.5v-157q0 -122 -84 -191l-187 -174h304l-9 -176h-592z" />
<glyph unicode="&#xbe;" horiz-adv-x="1622" d="M82 618v177h242q59 0 59 59v23q0 54 -53 57h-209v176h209q53 3 53 57v25q0 59 -59 59h-242l6 179h334q156 0 156 -140v-160q-1 -43 -16 -71.5t-30 -34.5l-14 -6q2 -1 6.5 -2.5t14.5 -9.5t18 -19t14.5 -31t6.5 -45v-135q0 -73 -41 -115.5t-115 -42.5h-340zM442 0l519 1430 h227l-516 -1430h-230zM901 164v162l334 485h201v-481h125v-166h-125v-164h-195v164h-340zM1102 328h139v202z" />
<glyph unicode="&#xbf;" horiz-adv-x="1105" d="M123 139q0 58 42.5 111t100.5 86l94 55q109 65 109 154v41h258v-191q0 -97 -98 -155l-117 -70q-121 -47 -121 -160v-94q0 -90 92 -90h500l-10 -240h-604q-130 0 -188 57t-58 173v323zM446 725v291h295v-291h-295z" />
<glyph unicode="&#xc0;" horiz-adv-x="1204" d="M41 0l418 1430h284l420 -1430h-307l-92 311h-324l-92 -311h-307zM358 1798h252l119 -274h-211zM498 559h204l-102 399z" />
<glyph unicode="&#xc1;" horiz-adv-x="1204" d="M41 0l418 1430h284l420 -1430h-307l-92 311h-324l-92 -311h-307zM481 1524l119 274h252l-160 -274h-211zM498 559h204l-102 399z" />
<glyph unicode="&#xc2;" horiz-adv-x="1204" d="M41 0l418 1430h284l420 -1430h-307l-92 311h-324l-92 -311h-307zM303 1524l170 274h262l174 -274h-239l-66 110l-67 -110h-234zM498 559h204l-102 399z" />
<glyph unicode="&#xc3;" horiz-adv-x="1204" d="M41 0l418 1430h284l420 -1430h-307l-92 311h-324l-92 -311h-307zM268 1524l146 274h116l236 -72l37 72h186l-143 -274h-133l-217 80l-37 -80h-191zM498 559h204l-102 399z" />
<glyph unicode="&#xc4;" horiz-adv-x="1204" d="M41 0l418 1430h284l420 -1430h-307l-92 311h-324l-92 -311h-307zM303 1552v220h213v-220h-213zM498 559h204l-102 399zM676 1552v220h213v-220h-213z" />
<glyph unicode="&#xc5;" horiz-adv-x="1204" d="M41 0l403 1380q-22 36 -22 82v72q0 67 38.5 106t110.5 39h54q72 0 111.5 -39t39.5 -106v-72q0 -45 -20 -78l407 -1384h-307l-92 311h-324l-92 -311h-307zM498 559h204l-102 399zM532 1479q0 -49 43 -49h48q43 0 43 49v43q0 49 -43 49h-48q-43 0 -43 -49v-43z" />
<glyph unicode="&#xc6;" horiz-adv-x="1486" d="M41 0l592 1430h751v-240h-454v-350h362v-246h-362v-350h454v-244h-743v276h-162l-110 -276h-328zM555 522h86v232z" />
<glyph unicode="&#xc7;" horiz-adv-x="1173" d="M143 252v928q0 83 37 151q24 46 78 72.5t131 26.5h627l12 -240h-504q-92 0 -92 -90v-766q0 -92 82 -92h516v-242h-285l-81 -123h61q48 0 80.5 -29.5t32.5 -76.5v-136q0 -46 -31.5 -76t-75.5 -30h-237v129h168q32 0 32 35v22q0 33 -39 33h-161v121l90 131h-195 q-134 0 -190 64.5t-56 187.5z" />
<glyph unicode="&#xc8;" horiz-adv-x="1009" d="M164 0v1430h743v-240h-454v-350h362v-246h-362v-350h454v-244h-743zM295 1763h252l119 -241h-203z" />
<glyph unicode="&#xc9;" horiz-adv-x="1009" d="M164 0v1430h743v-240h-454v-350h362v-246h-362v-350h454v-244h-743zM397 1522l119 241h252l-168 -241h-203z" />
<glyph unicode="&#xca;" horiz-adv-x="1009" d="M164 0v1430h743v-240h-454v-350h362v-246h-362v-350h454v-244h-743zM221 1524l170 274h262l174 -274h-239l-66 110l-67 -110h-234z" />
<glyph unicode="&#xcb;" horiz-adv-x="1009" d="M164 0v1430h743v-240h-454v-350h362v-246h-362v-350h454v-244h-743zM242 1552v220h213v-220h-213zM614 1552v220h213v-220h-213z" />
<glyph unicode="&#xcc;" horiz-adv-x="808" d="M82 0v233h178v963h-178v234h645v-234h-178v-963h178v-233h-645zM154 1798h252l118 -274h-211z" />
<glyph unicode="&#xcd;" horiz-adv-x="808" d="M82 0v233h178v963h-178v234h645v-234h-178v-963h178v-233h-645zM276 1524l119 274h252l-160 -274h-211z" />
<glyph unicode="&#xce;" horiz-adv-x="808" d="M82 0v233h178v963h-178v234h645v-234h-178v-963h178v-233h-645zM98 1524l170 274h262l175 -274h-240l-66 110l-67 -110h-234z" />
<glyph unicode="&#xcf;" horiz-adv-x="808" d="M82 0v233h178v963h-178v234h645v-234h-178v-963h178v-233h-645zM102 1552v220h213v-220h-213zM475 1552v220h213v-220h-213z" />
<glyph unicode="&#xd0;" horiz-adv-x="1376" d="M41 604v234h123v592h823q131 0 188.5 -61t57.5 -191v-926q0 -252 -246 -252h-823v604h-123zM453 238h409q82 0 82 88v776q0 90 -92 90h-399v-354h180v-234h-180v-366z" />
<glyph unicode="&#xd1;" horiz-adv-x="1357" d="M164 0v1430h285l456 -771v771h289v-1430h-262l-479 844v-844h-289zM350 1524l146 274h116l236 -72l37 72h186l-143 -274h-133l-217 80l-37 -80h-191z" />
<glyph unicode="&#xd2;" horiz-adv-x="1355" d="M143 250v930q0 122 62.5 186t183.5 64h578q245 0 245 -250v-930q0 -250 -245 -250h-578q-121 0 -183.5 64t-62.5 186zM420 1798h252l119 -274h-211zM432 326q0 -39 24.5 -64.5t67.5 -25.5h307q93 0 93 90v778q0 90 -93 90h-307q-43 0 -67.5 -25.5t-24.5 -64.5v-778z" />
<glyph unicode="&#xd3;" horiz-adv-x="1355" d="M143 250v930q0 122 62.5 186t183.5 64h578q245 0 245 -250v-930q0 -250 -245 -250h-578q-121 0 -183.5 64t-62.5 186zM432 326q0 -39 24.5 -64.5t67.5 -25.5h307q93 0 93 90v778q0 90 -93 90h-307q-43 0 -67.5 -25.5t-24.5 -64.5v-778zM543 1524l119 274h251l-159 -274 h-211z" />
<glyph unicode="&#xd4;" horiz-adv-x="1355" d="M143 250v930q0 122 62.5 186t183.5 64h578q245 0 245 -250v-930q0 -250 -245 -250h-578q-121 0 -183.5 64t-62.5 186zM365 1524l170 274h262l174 -274h-240l-65 110l-68 -110h-233zM432 326q0 -39 24.5 -64.5t67.5 -25.5h307q93 0 93 90v778q0 90 -93 90h-307 q-43 0 -67.5 -25.5t-24.5 -64.5v-778z" />
<glyph unicode="&#xd5;" horiz-adv-x="1355" d="M143 250v930q0 122 62.5 186t183.5 64h578q245 0 245 -250v-930q0 -250 -245 -250h-578q-121 0 -183.5 64t-62.5 186zM330 1524l145 274h117l235 -72l37 72h187l-144 -274h-133l-217 80l-37 -80h-190zM432 326q0 -39 24.5 -64.5t67.5 -25.5h307q93 0 93 90v778 q0 90 -93 90h-307q-43 0 -67.5 -25.5t-24.5 -64.5v-778z" />
<glyph unicode="&#xd6;" horiz-adv-x="1355" d="M143 250v930q0 122 62.5 186t183.5 64h578q245 0 245 -250v-930q0 -250 -245 -250h-578q-121 0 -183.5 64t-62.5 186zM365 1552v220h213v-220h-213zM432 326q0 -39 24.5 -64.5t67.5 -25.5h307q93 0 93 90v778q0 90 -93 90h-307q-43 0 -67.5 -25.5t-24.5 -64.5v-778z M737 1552v220h213v-220h-213z" />
<glyph unicode="&#xd7;" horiz-adv-x="892" d="M92 926l162 161l201 -194l196 197l162 -162l-197 -197l197 -194l-162 -162l-196 194l-197 -196l-162 162l197 196z" />
<glyph unicode="&#xd8;" horiz-adv-x="1355" d="M94 -6l78 117q-29 66 -29 139v930q0 122 62.5 186t183.5 64h578q84 0 143 -33l76 114l78 -53l-86 -129q34 -58 34 -149v-930q0 -250 -245 -250h-578q-91 0 -149 37l-66 -98zM432 326q0 -39 24.5 -64.5t67.5 -25.5h307q93 0 93 90v510q0 52 -6 108zM432 610q0 -54 6 -110 l486 616q-9 78 -93 78h-307q-43 0 -67.5 -25.5t-24.5 -64.5v-494z" />
<glyph unicode="&#xd9;" horiz-adv-x="1357" d="M164 252v1178h289v-1096q0 -92 82 -92h288q82 0 82 92v1096h289v-1178q0 -124 -55 -188t-189 -64h-540q-134 0 -190 64.5t-56 187.5zM440 1798h252l119 -274h-211z" />
<glyph unicode="&#xda;" horiz-adv-x="1357" d="M164 252v1178h289v-1096q0 -92 82 -92h288q82 0 82 92v1096h289v-1178q0 -124 -55 -188t-189 -64h-540q-134 0 -190 64.5t-56 187.5zM563 1524l119 274h252l-160 -274h-211z" />
<glyph unicode="&#xdb;" horiz-adv-x="1357" d="M164 252v1178h289v-1096q0 -92 82 -92h288q82 0 82 92v1096h289v-1178q0 -124 -55 -188t-189 -64h-540q-134 0 -190 64.5t-56 187.5zM387 1522l170 241h262l174 -241h-239l-66 88l-67 -88h-234z" />
<glyph unicode="&#xdc;" horiz-adv-x="1357" d="M164 252v1178h289v-1096q0 -92 82 -92h288q82 0 82 92v1096h289v-1178q0 -124 -55 -188t-189 -64h-540q-134 0 -190 64.5t-56 187.5zM367 1552v220h213v-220h-213zM739 1552v220h213v-220h-213z" />
<glyph unicode="&#xdd;" horiz-adv-x="1230" d="M61 1430h334l215 -431l230 431h329l-417 -791v-639h-285v639zM500 1522l118 241h252l-168 -241h-202z" />
<glyph unicode="&#xde;" horiz-adv-x="1251" d="M164 0v1430h289v-254h430q116 0 180.5 -69.5t64.5 -182.5v-406q0 -252 -245 -252h-430v-266h-289zM453 508h295q92 0 92 90v246q0 92 -92 92h-295v-428z" />
<glyph unicode="&#xdf;" horiz-adv-x="1241" d="M143 0v1239q0 91 53 149t160 58h535q101 0 156 -56t55 -149v-293l-187 -153l99 -88q104 -94 104 -236v-305q0 -78 -42.5 -122t-112.5 -44h-377l-13 233h179q75 0 75 70v121q0 58 -61 119l-154 149v182l222 185v71q0 91 -84 91h-230q-88 0 -88 -91v-1130h-289z" />
<glyph unicode="&#xe0;" horiz-adv-x="1146" d="M123 211v172q0 218 219 233l373 21v49q0 82 -74 82h-463l10 248h603q96 0 154.5 -55t58.5 -152v-809h-216l-49 47l-47 -47h-368q-201 0 -201 211zM356 1409h252l119 -274h-211zM412 326q0 -78 77 -78h146q80 0 80 86v98l-230 -16q-73 -6 -73 -82v-8z" />
<glyph unicode="&#xe1;" horiz-adv-x="1146" d="M123 211v172q0 218 219 233l373 21v49q0 82 -74 82h-463l10 248h603q96 0 154.5 -55t58.5 -152v-809h-216l-49 47l-47 -47h-368q-201 0 -201 211zM412 326q0 -78 77 -78h146q80 0 80 86v98l-230 -16q-73 -6 -73 -82v-8zM418 1135l119 274h251l-159 -274h-211z" />
<glyph unicode="&#xe2;" horiz-adv-x="1146" d="M123 211v172q0 218 219 233l373 21v49q0 82 -74 82h-463l10 248h603q96 0 154.5 -55t58.5 -152v-809h-216l-49 47l-47 -47h-368q-201 0 -201 211zM285 1135l170 274h262l174 -274h-240l-65 110l-68 -110h-233zM412 326q0 -78 77 -78h146q80 0 80 86v98l-230 -16 q-73 -6 -73 -82v-8z" />
<glyph unicode="&#xe3;" horiz-adv-x="1146" d="M123 211v172q0 218 219 233l373 21v49q0 82 -74 82h-463l10 248h603q96 0 154.5 -55t58.5 -152v-809h-216l-49 47l-47 -47h-368q-201 0 -201 211zM227 1135l146 274h116l236 -72l37 72h186l-143 -274h-133l-217 79l-37 -79h-191zM412 326q0 -78 77 -78h146q80 0 80 86v98 l-230 -16q-73 -6 -73 -82v-8z" />
<glyph unicode="&#xe4;" horiz-adv-x="1146" d="M123 211v172q0 218 219 233l373 21v49q0 82 -74 82h-463l10 248h603q96 0 154.5 -55t58.5 -152v-809h-216l-49 47l-47 -47h-368q-201 0 -201 211zM291 1163v219h213v-219h-213zM412 326q0 -78 77 -78h146q80 0 80 86v98l-230 -16q-73 -6 -73 -82v-8zM664 1163v219h213 v-219h-213z" />
<glyph unicode="&#xe5;" horiz-adv-x="1146" d="M123 211v172q0 218 219 233l373 21v49q0 82 -74 82h-463l10 248h603q96 0 154.5 -55t58.5 -152v-809h-216l-49 47l-47 -47h-368q-201 0 -201 211zM393 1253v72q0 67 39 106t111 39h53q72 0 112 -39t40 -106v-72q0 -65 -40 -105t-112 -40h-53q-72 0 -111 40t-39 105z M412 326q0 -78 77 -78h146q80 0 80 86v98l-230 -16q-73 -6 -73 -82v-8zM504 1270q0 -49 43 -49h47q43 0 43 49v43q0 49 -43 49h-47q-43 0 -43 -49v-43z" />
<glyph unicode="&#xe6;" horiz-adv-x="1753" d="M123 211v172q0 218 219 233l373 21v49q0 82 -74 82h-463l10 248h603q42 0 69 -8q36 8 70 8h485q98 0 156.5 -56.5t58.5 -150.5v-223q0 -99 -56.5 -153t-154.5 -54h-352l-63 47v-88q0 -90 81 -90h500l-12 -248h-744l-49 47l-47 -47h-409q-201 0 -201 211zM412 326 q0 -78 77 -78h146q80 0 80 86v98l-230 -16q-73 -6 -73 -82v-8zM1004 610h264q71 0 71 72v8q0 78 -79 78h-175q-38 0 -59.5 -23.5t-21.5 -62.5v-72z" />
<glyph unicode="&#xe7;" horiz-adv-x="993" d="M123 207v602q0 95 56 151t159 56h520l12 -248h-376q-36 0 -59 -21.5t-23 -54.5v-354q0 -90 80 -90h378l-12 -248h-219l-82 -123h61q48 0 80.5 -29.5t32.5 -76.5v-136q0 -46 -31 -76t-75 -30h-238v129h168q33 0 33 35v22q0 33 -39 33h-162v121l90 131h-141 q-102 0 -157.5 58t-55.5 149z" />
<glyph unicode="&#xe8;" horiz-adv-x="1161" d="M123 207v602q0 96 58 151.5t157 55.5h485q98 0 156.5 -56.5t58.5 -150.5v-223q0 -99 -56.5 -153t-154.5 -54h-352l-63 47v-88q0 -90 82 -90h499l-12 -248h-643q-99 0 -157 55.5t-58 151.5zM315 1409h252l119 -274h-211zM412 610h264q72 0 72 72v8q0 78 -80 78h-174 q-38 0 -60 -23.5t-22 -62.5v-72z" />
<glyph unicode="&#xe9;" horiz-adv-x="1161" d="M123 207v602q0 96 58 151.5t157 55.5h485q98 0 156.5 -56.5t58.5 -150.5v-223q0 -99 -56.5 -153t-154.5 -54h-352l-63 47v-88q0 -90 82 -90h499l-12 -248h-643q-99 0 -157 55.5t-58 151.5zM412 610h264q72 0 72 72v8q0 78 -80 78h-174q-38 0 -60 -23.5t-22 -62.5v-72z M459 1135l119 274h251l-159 -274h-211z" />
<glyph unicode="&#xea;" horiz-adv-x="1161" d="M123 207v602q0 96 58 151.5t157 55.5h485q98 0 156.5 -56.5t58.5 -150.5v-223q0 -99 -56.5 -153t-154.5 -54h-352l-63 47v-88q0 -90 82 -90h499l-12 -248h-643q-99 0 -157 55.5t-58 151.5zM264 1135l170 274h262l174 -274h-239l-66 110l-67 -110h-234zM412 610h264 q72 0 72 72v8q0 78 -80 78h-174q-38 0 -60 -23.5t-22 -62.5v-72z" />
<glyph unicode="&#xeb;" horiz-adv-x="1161" d="M123 207v602q0 96 58 151.5t157 55.5h485q98 0 156.5 -56.5t58.5 -150.5v-223q0 -99 -56.5 -153t-154.5 -54h-352l-63 47v-88q0 -90 82 -90h499l-12 -248h-643q-99 0 -157 55.5t-58 151.5zM272 1163v219h213v-219h-213zM412 610h264q72 0 72 72v8q0 78 -80 78h-174 q-38 0 -60 -23.5t-22 -62.5v-72zM645 1163v219h213v-219h-213z" />
<glyph unicode="&#xec;" horiz-adv-x="561" d="M29 1409h252l118 -274h-211zM143 0v1016h275v-1016h-275z" />
<glyph unicode="&#xed;" horiz-adv-x="561" d="M143 0v1016h275v-1016h-275zM152 1135l118 274h252l-160 -274h-210z" />
<glyph unicode="&#xee;" horiz-adv-x="561" d="M-23 1135l170 274h263l174 -274h-240l-65 110l-68 -110h-234zM143 0v1016h275v-1016h-275z" />
<glyph unicode="&#xef;" horiz-adv-x="561" d="M-16 1163v219h213v-219h-213zM143 0v1016h275v-1016h-275zM356 1163v219h213v-219h-213z" />
<glyph unicode="&#xf0;" horiz-adv-x="1159" d="M123 207v602q0 93 56 150t157 57h336l69 -64v60q0 86 -67 123l-162 92l-70 -152l-143 64l74 157l-148 74l103 209l139 -63l65 143l138 -68l-64 -139l268 -137q88 -43 125 -119t37 -199v-790q0 -93 -56 -150t-157 -57h-487q-101 0 -157 57t-56 150zM412 338q0 -90 82 -90 h172q82 0 82 88v342q0 90 -80 90h-172q-84 0 -84 -92v-338z" />
<glyph unicode="&#xf1;" horiz-adv-x="1187" d="M143 0v1016h236l51 -47l45 47h361q98 0 153 -55t55 -152v-809h-288v688q0 80 -76 80h-166q-82 0 -82 -88v-680h-289zM268 1135l146 274h116l236 -72l37 72h186l-143 -274h-133l-217 79l-37 -79h-191z" />
<glyph unicode="&#xf2;" horiz-adv-x="1159" d="M123 207v602q0 93 56 150t157 57h487q101 0 157 -57t56 -150v-602q0 -93 -56 -150t-157 -57h-487q-101 0 -157 57t-56 150zM336 1409h252l119 -274h-211zM412 338q0 -90 82 -90h172q82 0 82 88v342q0 90 -80 90h-172q-84 0 -84 -92v-338z" />
<glyph unicode="&#xf3;" horiz-adv-x="1159" d="M123 207v602q0 93 56 150t157 57h487q101 0 157 -57t56 -150v-602q0 -93 -56 -150t-157 -57h-487q-101 0 -157 57t-56 150zM412 338q0 -90 82 -90h172q82 0 82 88v342q0 90 -80 90h-172q-84 0 -84 -92v-338zM459 1135l119 274h251l-159 -274h-211z" />
<glyph unicode="&#xf4;" horiz-adv-x="1159" d="M123 207v602q0 93 56 150t157 57h487q101 0 157 -57t56 -150v-602q0 -93 -56 -150t-157 -57h-487q-101 0 -157 57t-56 150zM285 1135l170 274h262l174 -274h-240l-65 110l-68 -110h-233zM412 338q0 -90 82 -90h172q82 0 82 88v342q0 90 -80 90h-172q-84 0 -84 -92v-338z " />
<glyph unicode="&#xf5;" horiz-adv-x="1159" d="M123 207v602q0 93 56 150t157 57h487q101 0 157 -57t56 -150v-602q0 -93 -56 -150t-157 -57h-487q-101 0 -157 57t-56 150zM227 1135l146 274h116l236 -72l37 72h186l-143 -274h-133l-217 79l-37 -79h-191zM412 338q0 -90 82 -90h172q82 0 82 88v342q0 90 -80 90h-172 q-84 0 -84 -92v-338z" />
<glyph unicode="&#xf6;" horiz-adv-x="1159" d="M123 207v602q0 93 56 150t157 57h487q101 0 157 -57t56 -150v-602q0 -93 -56 -150t-157 -57h-487q-101 0 -157 57t-56 150zM285 1163v219h213v-219h-213zM412 338q0 -90 82 -90h172q82 0 82 88v342q0 90 -80 90h-172q-84 0 -84 -92v-338zM657 1163v219h213v-219h-213z " />
<glyph unicode="&#xf7;" horiz-adv-x="991" d="M102 616v230h787v-230h-787zM365 205v250h256v-250h-256zM365 1004v249h256v-249h-256z" />
<glyph unicode="&#xf8;" horiz-adv-x="1159" d="M66 -55l100 127q-43 52 -43 135v602q0 93 56 150t157 57h487q58 0 113 -25l90 115l80 -57l-98 -125q28 -54 28 -115v-602q0 -93 -56 -150t-157 -57h-487q-50 0 -88 12l-98 -125zM412 457q0 -38 6 -76l315 356q-22 31 -65 31h-172q-84 0 -84 -92v-219zM442 260 q21 -12 52 -12h172q82 0 82 88v186q0 44 -7 72z" />
<glyph unicode="&#xf9;" d="M143 207v809h289v-688q0 -80 76 -80h156q81 0 81 88v680h289v-1016h-235l-51 47l-46 -47h-350q-98 0 -153.5 55t-55.5 152zM336 1409h252l119 -274h-211z" />
<glyph unicode="&#xfa;" d="M143 207v809h289v-688q0 -80 76 -80h156q81 0 81 88v680h289v-1016h-235l-51 47l-46 -47h-350q-98 0 -153.5 55t-55.5 152zM459 1135l119 274h251l-159 -274h-211z" />
<glyph unicode="&#xfb;" d="M143 207v809h289v-688q0 -80 76 -80h156q81 0 81 88v680h289v-1016h-235l-51 47l-46 -47h-350q-98 0 -153.5 55t-55.5 152zM285 1135l170 274h262l174 -274h-240l-65 110l-68 -110h-233z" />
<glyph unicode="&#xfc;" d="M143 207v809h289v-688q0 -80 76 -80h156q81 0 81 88v680h289v-1016h-235l-51 47l-46 -47h-350q-98 0 -153.5 55t-55.5 152zM291 1163v219h213v-219h-213zM664 1163v219h213v-219h-213z" />
<glyph unicode="&#xfd;" d="M143 166v850h289v-688q0 -80 76 -80h156q81 0 81 74v694h289v-1280q0 -93 -56 -150t-157 -57h-633l-10 248h486q81 0 81 90v178l-45 -45h-403q-70 0 -112 44t-42 122zM459 1135l119 274h251l-159 -274h-211z" />
<glyph unicode="&#xfe;" horiz-adv-x="1179" d="M143 -471v1901l291 16v-477l53 47h359q100 0 155.5 -58t55.5 -149v-602q0 -91 -57 -149t-160 -58h-363l-43 45v-496zM434 340q0 -92 84 -92h170q80 0 80 90v342q0 88 -82 88h-170q-82 0 -82 -90v-338z" />
<glyph unicode="&#xff;" d="M143 166v850h289v-688q0 -80 76 -80h156q81 0 81 74v694h289v-1280q0 -93 -56 -150t-157 -57h-633l-10 248h486q81 0 81 90v178l-45 -45h-403q-70 0 -112 44t-42 122zM283 1163v219h213v-219h-213zM655 1163v219h213v-219h-213z" />
<glyph unicode="&#x152;" horiz-adv-x="1796" d="M143 250v930q0 122 62.5 186t183.5 64h1278v-236h-455v-354h363v-246h-363v-354h455v-240h-1278q-121 0 -183.5 64t-62.5 186zM432 326q0 -39 24.5 -64.5t67.5 -25.5h400v958h-400q-43 0 -67.5 -25.5t-24.5 -64.5v-778z" />
<glyph unicode="&#x153;" horiz-adv-x="1785" d="M123 207v602q0 93 56 150t157 57h487q34 0 70 -8q36 8 70 8h485q98 0 156.5 -56.5t58.5 -150.5v-223q0 -99 -56.5 -153t-154.5 -54h-352l-64 47v-88q0 -90 82 -90h500l-12 -248h-643q-46 0 -70 8q-24 -8 -70 -8h-487q-101 0 -157 57t-56 150zM412 338q0 -90 82 -90h172 q82 0 82 88v342q0 90 -80 90h-172q-84 0 -84 -92v-338zM1036 610h264q72 0 72 72v8q0 78 -80 78h-174q-38 0 -60 -23.5t-22 -62.5v-72z" />
<glyph unicode="&#x178;" horiz-adv-x="1230" d="M61 1430h334l215 -431l230 431h329l-417 -791v-639h-285v639zM315 1540v207h207v-207h-207zM682 1540v207h207v-207h-207z" />
<glyph unicode="&#x2c6;" horiz-adv-x="729" d="M59 1155l170 275h263l174 -275h-240l-66 111l-67 -111h-234z" />
<glyph unicode="&#x2dc;" horiz-adv-x="761" d="M43 1171l145 275h117l236 -72l37 72h186l-143 -275h-134l-217 80l-37 -80h-190z" />
<glyph unicode="&#x2000;" horiz-adv-x="899" />
<glyph unicode="&#x2001;" horiz-adv-x="1798" />
<glyph unicode="&#x2002;" horiz-adv-x="899" />
<glyph unicode="&#x2003;" horiz-adv-x="1798" />
<glyph unicode="&#x2004;" horiz-adv-x="599" />
<glyph unicode="&#x2005;" horiz-adv-x="449" />
<glyph unicode="&#x2006;" horiz-adv-x="299" />
<glyph unicode="&#x2007;" horiz-adv-x="299" />
<glyph unicode="&#x2008;" horiz-adv-x="224" />
<glyph unicode="&#x2009;" horiz-adv-x="359" />
<glyph unicode="&#x200a;" horiz-adv-x="99" />
<glyph unicode="&#x2010;" horiz-adv-x="630" d="M41 375v237h549v-237h-549z" />
<glyph unicode="&#x2011;" horiz-adv-x="630" d="M41 375v237h549v-237h-549z" />
<glyph unicode="&#x2012;" horiz-adv-x="630" d="M41 375v237h549v-237h-549z" />
<glyph unicode="&#x2013;" horiz-adv-x="958" d="M41 395v197h877v-197h-877z" />
<glyph unicode="&#x2014;" horiz-adv-x="1511" d="M41 395v197h1429v-197h-1429z" />
<glyph unicode="&#x2018;" horiz-adv-x="493" d="M102 930v270l58 230h231l-59 -232h59v-268h-289z" />
<glyph unicode="&#x2019;" horiz-adv-x="493" d="M102 930l60 231h-60v269h289v-271l-57 -229h-232z" />
<glyph unicode="&#x201a;" horiz-adv-x="555" d="M123 -231l59 231h-39v309h289v-311l-57 -229h-252z" />
<glyph unicode="&#x201c;" horiz-adv-x="841" d="M102 930v270l58 230h231l-59 -232h59v-268h-289zM451 930v270l57 230h231l-59 -232h59v-268h-288z" />
<glyph unicode="&#x201d;" horiz-adv-x="841" d="M102 930l60 231h-60v269h289v-271l-57 -229h-232zM451 930l59 231h-59v269h288v-271l-57 -229h-231z" />
<glyph unicode="&#x201e;" horiz-adv-x="944" d="M123 -231l59 231h-39v309h289v-311l-57 -229h-252zM512 -231l59 231h-39v309h289v-311l-57 -229h-252z" />
<glyph unicode="&#x2022;" horiz-adv-x="581" d="M123 643v172q0 36 23 59t61 23h166q40 0 63 -23t23 -59v-172q0 -37 -22.5 -59.5t-63.5 -22.5h-166q-40 0 -62 22t-22 60z" />
<glyph unicode="&#x2026;" horiz-adv-x="1845" d="M123 0v309h289v-309h-289zM778 0v309h289v-309h-289zM1434 0v309h288v-309h-288z" />
<glyph unicode="&#x202f;" horiz-adv-x="359" />
<glyph unicode="&#x2039;" horiz-adv-x="694" d="M102 393v225l490 402v-338l-234 -174l234 -180v-334z" />
<glyph unicode="&#x203a;" horiz-adv-x="694" d="M102 -6v334l234 180l-234 174v338l490 -402v-225z" />
<glyph unicode="&#x205f;" horiz-adv-x="449" />
<glyph unicode="&#x20ac;" horiz-adv-x="1255" d="M41 399l20 238h205v151h-186l20 238h166v154q0 83 37 151q24 46 78 72.5t131 26.5h627l12 -240h-504q-92 0 -92 -90v-74h483l-20 -238h-463v-151h444l-20 -238h-424v-65q0 -92 82 -92h516v-242h-641q-134 0 -190 64.5t-56 187.5v147h-225z" />
<glyph unicode="&#x2122;" horiz-adv-x="1417" d="M82 1262v168h491v-168h-145v-398h-203v398h-143zM674 864v566h178l143 -246l138 246h182v-566h-182v248l-82 -145h-113l-82 133v-236h-182z" />
<glyph unicode="&#x25fc;" horiz-adv-x="1013" d="M0 0v1014h1014v-1014h-1014z" />
</font>
</defs>
</svg>
