<?xml version="1.0" standalone="no"?>
<!DOCTYPE svg PUBLIC "-//W3C//DTD SVG 1.1//EN" "http://www.w3.org/Graphics/SVG/1.1/DTD/svg11.dtd" >
<svg xmlns="http://www.w3.org/2000/svg" xmlns:xlink="http://www.w3.org/1999/xlink" version="1.1">
<metadata></metadata>
<defs>
<font id="lab_sans_prothin_italic" horiz-adv-x="1005" >
<font-face units-per-em="2048" ascent="1546" descent="-502" />
<missing-glyph horiz-adv-x="409" />
<glyph unicode="&#xfb01;" horiz-adv-x="1009" d="M184 979l4 37h154l23 223q21 207 225 207h227q99 0 141.5 -43t42.5 -129l-4 -43h-43l7 45q0 137 -148 137h-227q-157 0 -178 -170l-23 -227h252l-4 -37h-252l-152 -1440l-43 -10l152 1450h-154zM823 0l107 1016h43l-107 -1016h-43z" />
<glyph unicode="&#xfb02;" horiz-adv-x="991" d="M184 -430l154 1409h-154l4 37h154l20 207q21 207 226 207h366l45 18l-151 -1448h-43l145 1397h-366q-157 0 -178 -174l-21 -207h252l-4 -37h-252l-154 -1399z" />
<glyph unicode="&#xfb03;" horiz-adv-x="1646" d="M184 979l4 37h154l16 170q21 200 224 200h145l4 -32h-151q-158 0 -179 -170l-16 -168h530l23 223q21 207 225 207h228q99 0 141.5 -43t42.5 -129l-4 -43h-43l6 45q0 137 -148 137h-227q-157 0 -178 -170l-23 -227h252l-4 -37h-252l-151 -1399l-43 -10l151 1409h-530 l-152 -1440l-43 -10l152 1450h-154zM1397 0l106 1016h43l-106 -1016h-43z" />
<glyph unicode="&#xfb04;" horiz-adv-x="1562" d="M184 -471l154 1450h-154l4 37h154l16 170q21 200 224 200h145l4 -32h-151q-158 0 -179 -170l-16 -168h530l21 207q21 207 225 207h367l43 18l-152 -1448h-41l146 1397h-367q-157 0 -178 -174l-21 -207h252l-4 -37h-252l-153 -1399l-43 -10l153 1409h-530l-154 -1440z" />
<glyph horiz-adv-x="0" />
<glyph horiz-adv-x="682" />
<glyph unicode=" "  horiz-adv-x="409" />
<glyph unicode="&#x09;" horiz-adv-x="409" />
<glyph unicode="&#xa0;" horiz-adv-x="409" />
<glyph unicode="!" horiz-adv-x="325" d="M129 0l6 74h70l-6 -74h-70zM164 225l117 1205h65l-139 -1205h-43z" />
<glyph unicode="&#x22;" horiz-adv-x="536" d="M260 1044l33 386h49l-49 -386h-33zM461 1044l33 386h49l-49 -386h-33z" />
<glyph unicode="#" horiz-adv-x="1226" d="M152 471l4 37h260l78 424h-273l4 37h277l88 461h39l-88 -461h362l86 461h39l-88 -461h274l-4 -37h-278l-76 -424h289l-4 -37h-293l-86 -471h-39l86 471h-363l-90 -471h-39l91 471h-256zM455 508h362l78 424h-363z" />
<glyph unicode="$" horiz-adv-x="1077" d="M133 41h619q57 0 93 32.5t42 92.5l39 383q0 53 -26.5 75t-70.5 27l-477 82q-137 24 -137 139q0 31 39 392q7 78 55 122t119 44h234l18 169h39l-19 -169h314l8 -41h-592q-121 0 -133 -125l-39 -383q0 -87 102 -105l484 -82q125 -21 125 -139l-39 -389q-7 -78 -56.5 -122 t-125.5 -44h-197l-19 -168h-38l18 168h-371z" />
<glyph unicode="%" horiz-adv-x="1343" d="M217 903l37 361q7 78 54.5 122t117.5 44h156q64 0 100.5 -36.5t36.5 -101.5l-37 -364q-7 -78 -53.5 -122t-116.5 -44h-156q-64 0 -101.5 37t-37.5 104zM260 905q0 -106 98 -106h156q54 0 86.5 33.5t38.5 95.5l37 362q0 103 -98 103h-156q-110 0 -125 -129zM356 0 l746 1430h43l-742 -1430h-47zM772 141l37 361q7 78 54.5 122t117.5 44h156q64 0 100.5 -36.5t36.5 -101.5l-37 -364q-7 -78 -53.5 -122t-116.5 -44h-156q-64 0 -101.5 37t-37.5 104zM815 143q0 -106 98 -106h156q54 0 86.5 33.5t38.5 95.5l37 362q0 103 -98 103h-156 q-110 0 -125 -129z" />
<glyph unicode="&#x26;" horiz-adv-x="1114" d="M139 160l47 454q7 74 41 123.5t82 63.5q-63 63 -63 168l26 276q8 85 62 135t151 50h420q172 0 172 -156q0 -33 -33 -324h-40l34 320q0 129 -143 129h-410q-67 0 -114.5 -44t-53.5 -108l-28 -270q0 -103 78 -178l600 -582l47 453h43l-51 -490l114 -117l-14 -43l-111 113 q-38 -133 -198 -133h-482q-87 0 -131.5 44t-44.5 116zM184 166q0 -131 138 -131h471q147 0 168 129l-621 604q-101 -15 -113 -154z" />
<glyph unicode="'" horiz-adv-x="335" d="M260 1044l33 386h49l-49 -386h-33z" />
<glyph unicode="(" horiz-adv-x="485" d="M156 207q0 354 86 678q89 326 252 563h41q-184 -311 -259 -602q-73 -293 -73 -656q0 -326 129 -661h-41q-135 313 -135 678z" />
<glyph unicode=")" horiz-adv-x="485" d="M51 -471q184 314 256 602q76 294 76 657q0 322 -129 660h41q133 -313 133 -680q0 -344 -88 -674q-86 -333 -248 -565h-41z" />
<glyph unicode="*" horiz-adv-x="606" d="M213 1255l25 37l168 -86l24 224h43l-24 -226l190 88l16 -37l-196 -88l125 -166l-35 -26l-125 170l-164 -172l-29 26l160 166z" />
<glyph unicode="+" horiz-adv-x="909" d="M176 715l4 43h320l37 340h45l-37 -340h319l-4 -43h-319l-35 -340h-45l35 340h-320z" />
<glyph unicode="," horiz-adv-x="348" d="M119 -160l63 160h-20l6 63h63l-8 -65l-59 -158h-45z" />
<glyph unicode="-" horiz-adv-x="569" d="M90 477l4 33h488l-4 -33h-488z" />
<glyph unicode="." horiz-adv-x="350" d="M143 0l7 63h63l-6 -63h-64z" />
<glyph unicode="/" horiz-adv-x="663" d="M-223 -471l993 1901h43l-991 -1901h-45z" />
<glyph unicode="0" horiz-adv-x="1114" d="M164 158q0 33 112 1087q8 83 64.5 134t153.5 51h430q89 0 133.5 -43t44.5 -115q0 -28 -113 -1088q-8 -84 -63 -134t-152 -50h-430q-89 0 -134.5 43t-45.5 115zM207 160q0 -123 139 -123h430q155 0 170 145l115 1088q0 123 -141 123h-431q-152 0 -167 -146z" />
<glyph unicode="1" horiz-adv-x="681" d="M123 0l2 37h221l143 1349l-210 -30l4 37l258 41l-148 -1397h213l-2 -37h-481z" />
<glyph unicode="2" d="M61 0l2 25l840 852q81 81 90 188q6 57 12 112t8.5 78.5t2.5 26.5q0 113 -137 113h-652l17 35h639q174 0 174 -144l-23 -217q-6 -70 -27.5 -116.5t-76.5 -102.5l-807 -815h844l-15 -35h-891z" />
<glyph unicode="3" horiz-adv-x="1028" d="M123 0l2 37h586q155 0 170 145l39 383q0 58 -36.5 90t-92.5 37h-535l4 37h535q60 0 105.5 36t51.5 101l43 404q0 123 -141 123h-586l6 37h584q178 0 178 -158q0 -15 -41 -410q-5 -55 -38.5 -96.5t-88.5 -58.5q95 -30 95 -136l-39 -381q-21 -190 -215 -190h-586z" />
<glyph unicode="4" horiz-adv-x="1081" d="M121 379l4 33l782 1020h41l-106 -1018h200l-4 -35h-200l-39 -379h-43l39 379h-674zM174 414h625l100 946z" />
<glyph unicode="5" horiz-adv-x="1095" d="M131 0l2 37h639q155 0 170 145l41 404q0 123 -137 123h-649l114 721h738l-2 -35h-707l-100 -650h608q178 0 178 -155q0 -15 -41 -404q-18 -186 -207 -186h-647z" />
<glyph unicode="6" horiz-adv-x="1118" d="M160 160l112 1079q21 191 217 191h558l2 -37h-564q-155 0 -170 -150l-49 -473h584q178 0 178 -156q0 -27 -43 -424q-18 -190 -215 -190h-430q-180 0 -180 160zM203 158q0 -121 139 -121h430q155 0 170 145l45 430q0 121 -139 121h-586z" />
<glyph unicode="7" horiz-adv-x="1052" d="M227 1393l15 37h878l-4 -37l-737 -1393h-45l741 1393h-848z" />
<glyph unicode="8" horiz-adv-x="1110" d="M160 156l41 399q9 122 106 164q-3 0 -10.5 3t-19 11.5t-21.5 20t-17.5 32t-7.5 45.5l43 416q18 183 213 183h441q85 0 128.5 -42t43.5 -112q0 -4 -6 -59q-3 -31 -41 -394q-4 -32 -15 -58.5t-23 -41.5t-24.5 -26t-20.5 -15t-9 -4q6 -1 14.5 -6.5t20.5 -17t20 -34.5t8 -53 l-39 -381q-18 -186 -207 -186h-442q-176 0 -176 156zM203 156q0 -119 139 -119h430q155 0 170 145l37 373q0 87 -70 102l-528 43q-59 0 -95 -39t-42 -106zM274 848q0 -90 93 -105l526 -45q105 6 117 129l45 443q0 125 -146 125h-424q-155 0 -170 -150z" />
<glyph unicode="9" horiz-adv-x="1118" d="M209 37h563q155 0 170 149l51 473h-585q-179 0 -179 156q0 33 45 434q18 181 211 181h435q178 0 178 -160q0 -23 -113 -1080q-21 -190 -211 -190h-561zM270 821q0 -125 140 -125h587l60 574q0 125 -142 125h-430q-155 0 -170 -148z" />
<glyph unicode=":" horiz-adv-x="350" d="M143 0l7 63h63l-6 -63h-64zM242 952l8 64h63l-8 -64h-63z" />
<glyph unicode=";" horiz-adv-x="329" d="M119 -160l63 160h-20l6 63h63l-8 -65l-59 -158h-45zM242 952l8 64h63l-8 -64h-63z" />
<glyph unicode="&#x3c;" horiz-adv-x="1036" d="M176 487l2 33l844 500l-4 -39l-797 -475l697 -469l-5 -43z" />
<glyph unicode="=" horiz-adv-x="950" d="M156 514l4 41h745l-4 -41h-745zM197 907l4 41h745l-4 -41h-745z" />
<glyph unicode="&#x3e;" horiz-adv-x="1036" d="M121 -6l4 43l795 469l-695 475l4 39l738 -500l-2 -33z" />
<glyph unicode="?" horiz-adv-x="1003" d="M266 1374l17 56h505q220 0 220 -187q0 -8 -23 -246q-7 -72 -37 -115t-98 -81l-195 -113q-118 -69 -133 -201l-28 -262h-48l29 279q15 151 152 229l188 111q57 32 80 64.5t29 97.5l22 223q0 145 -164 145h-516zM420 0l6 72h70l-7 -72h-69z" />
<glyph unicode="@" horiz-adv-x="1845" d="M117 -254q0 1 2 18.5t6 60.5t8 91q87 816 139 1329q8 85 62 135t151 50h1172q89 0 132.5 -42t43.5 -114q0 -5 -12 -119l-101 -971q-8 -85 -60.5 -134.5t-148.5 -49.5h-147q-77 0 -104 74l-78 -74h-471q-61 0 -99 34t-39 93l74 723q15 166 154 166h487l43 -41l35 41h25 l-105 -895q9 -77 72 -86h149q155 0 170 147l115 1086q0 121 -141 121h-1166q-153 0 -168 -142l-157 -1495q0 -125 139 -125h838l-11 -37h-835q-174 0 -174 156zM616 129q0 -42 25.5 -67t63.5 -25h432q41 0 72 31t36 69l86 766q-9 78 -92 78h-440q-44 0 -72 -32.5t-33 -74.5z " />
<glyph unicode="A" horiz-adv-x="1095" d="M61 0l615 1430h45l313 -1430h-49l-106 498h-560l-208 -498h-50zM336 537h534l-178 829z" />
<glyph unicode="B" horiz-adv-x="1087" d="M164 0l149 1430h586q89 0 133.5 -43t44.5 -115q0 -30 -39 -391q-12 -124 -116 -164q84 -35 84 -152l-41 -381q-8 -84 -63 -134t-152 -50h-586zM209 39h543q73 0 118 37.5t52 105.5l41 379q0 139 -132 139h-552zM283 739h542q155 0 170 140l39 389q0 123 -139 123h-543z " />
<glyph unicode="C" horiz-adv-x="1148" d="M160 158q0 33 112 1087q8 85 61.5 135t149.5 50h678v-39h-682q-147 0 -162 -144l-114 -1085q0 -123 139 -123h686l-2 -39h-686q-89 0 -134.5 43t-45.5 115z" />
<glyph unicode="D" horiz-adv-x="1232" d="M164 0l149 1430h734q174 0 174 -156l-113 -1090q-8 -85 -61 -134.5t-150 -49.5h-733zM209 39h690q151 0 166 143l113 1080q0 61 -36.5 95t-99.5 34h-690z" />
<glyph unicode="E" horiz-adv-x="1056" d="M164 0l149 1430h770l-4 -37h-727l-67 -641h614l-4 -39h-614l-70 -676h727l-4 -37h-770z" />
<glyph unicode="F" horiz-adv-x="1056" d="M164 0l149 1430h770l-4 -37h-727l-67 -662h594l-5 -39h-593l-74 -692h-43z" />
<glyph unicode="G" horiz-adv-x="1212" d="M160 158q0 4 12 121l100 966q18 185 213 185h676v-39h-680q-151 0 -166 -144l-112 -1085q0 -123 139 -123h532q74 0 118.5 36t51.5 107l52 500h-361l4 39h404l-56 -537q-18 -184 -215 -184h-532q-89 0 -134.5 43t-45.5 115z" />
<glyph unicode="H" horiz-adv-x="1212" d="M164 0l149 1430h43l-71 -680h778l72 680h43l-150 -1430h-43l74 713h-778l-74 -713h-43z" />
<glyph unicode="I" horiz-adv-x="548" d="M82 0l2 35h178l144 1360h-179l4 35h400l-4 -35h-178l-144 -1360h178l-2 -35h-399z" />
<glyph unicode="J" horiz-adv-x="757" d="M90 41h313q151 0 166 147l131 1207h-473l4 35h512l-131 -1240q-21 -190 -215 -190h-305z" />
<glyph unicode="K" horiz-adv-x="1128" d="M164 0l149 1430h43l-73 -697h520q89 0 119 88l211 609h43l-213 -613q-28 -78 -80 -102q48 -26 63 -101l121 -614h-45l-117 606q-18 88 -100 88h-526l-72 -694h-43z" />
<glyph unicode="L" horiz-adv-x="1056" d="M164 0l149 1430h43l-145 -1389h727l-4 -41h-770z" />
<glyph unicode="M" horiz-adv-x="1296" d="M164 0l149 1430h41l344 -977l541 977h43l-149 -1430h-43l139 1327l-520 -938h-39l-326 928l-137 -1317h-43z" />
<glyph unicode="N" horiz-adv-x="1191" d="M164 0l149 1430h39l643 -1332l140 1332h43l-150 -1430h-37l-645 1341l-139 -1341h-43z" />
<glyph unicode="O" horiz-adv-x="1263" d="M164 178q0 23 110 1067q18 185 218 185h573q89 0 133.5 -43t44.5 -115q0 -25 -113 -1088q-8 -91 -57.5 -137.5t-157.5 -46.5h-573q-89 0 -133.5 49.5t-44.5 128.5zM209 180q0 -64 34 -103.5t103 -39.5h572q84 0 123.5 36.5t45.5 108.5l113 1080q0 60 -36 95.5t-105 35.5 h-572q-153 0 -168 -146z" />
<glyph unicode="P" horiz-adv-x="1112" d="M164 0l149 1430h621q178 0 178 -148q0 -4 -6 -59q-9 -69 -10 -84q-21 -177 -39 -361q-10 -95 -67.5 -145.5t-151.5 -50.5h-570l-59 -582h-45zM272 623h568q156 0 174 155l55 492q0 56 -35 87.5t-102 31.5h-578z" />
<glyph unicode="Q" horiz-adv-x="1263" d="M164 178q0 23 110 1067q18 185 218 185h573q89 0 133.5 -43t44.5 -115q0 -25 -113 -1088q-9 -86 -49 -129l136 -143l-43 -16l-119 139q-47 -35 -140 -35h-573q-89 0 -133.5 49.5t-44.5 128.5zM209 180q0 -64 34 -103.5t103 -39.5h572q84 0 123.5 36.5t45.5 108.5 l113 1080q0 60 -36 95.5t-105 35.5h-572q-153 0 -168 -146z" />
<glyph unicode="R" horiz-adv-x="1159" d="M164 0l149 1430h639q176 0 176 -148q0 -16 -53 -504q-15 -136 -131 -182q43 -27 49 -94l37 -502h-45l-35 492q-9 90 -96 90h-588l-57 -582h-45zM270 618h588q155 0 176 168l53 480q0 125 -137 125h-598z" />
<glyph unicode="S" horiz-adv-x="1036" d="M133 41h619q57 0 93 32.5t42 92.5l39 383q0 53 -26.5 75t-70.5 27l-477 82q-137 24 -137 139l39 392q7 78 55 122t119 44h586l8 -41h-592q-121 0 -133 -125l-39 -383q0 -87 102 -105l484 -82q125 -21 125 -139l-39 -389q-18 -166 -182 -166h-607z" />
<glyph unicode="T" horiz-adv-x="1058" d="M207 1393l4 37h874l-4 -37h-413l-146 -1393h-43l146 1393h-418z" />
<glyph unicode="U" horiz-adv-x="1171" d="M160 178l133 1252h43l-133 -1250q0 -64 35 -103.5t104 -39.5h471q155 0 170 145l131 1248h43l-131 -1246q-18 -184 -215 -184h-471q-87 0 -133.5 50t-46.5 128z" />
<glyph unicode="V" horiz-adv-x="1095" d="M211 1430h49l291 -1356l584 1356h49l-615 -1430h-49z" />
<glyph unicode="W" horiz-adv-x="1648" d="M211 1430h49l215 -1332l469 1332h45l189 -1317l510 1317h49l-551 -1430h-43l-185 1327l-471 -1327h-45z" />
<glyph unicode="X" horiz-adv-x="1052" d="M82 0l491 733l-321 697h55l301 -650l436 650h56l-471 -697l342 -733h-53l-320 684l-463 -684h-53z" />
<glyph unicode="Y" horiz-adv-x="1112" d="M211 1430h49l371 -746l522 746h47l-555 -791l-65 -639h-43l65 639z" />
<glyph unicode="Z" horiz-adv-x="1026" d="M61 0l2 31l1010 1360h-831l16 39h877l-5 -29l-1011 -1362h850l-15 -39h-893z" />
<glyph unicode="[" horiz-adv-x="526" d="M92 -471l209 1982h301l-4 -34h-254l-201 -1911h254l-4 -37h-301z" />
<glyph unicode="\" horiz-adv-x="837" d="M150 1430h49l587 -1901h-51z" />
<glyph unicode="]" horiz-adv-x="526" d="M31 -471l4 37h254l200 1911h-253l4 34h301l-209 -1982h-301z" />
<glyph unicode="^" horiz-adv-x="1173" d="M123 0l514 748h53l361 -748h-54l-335 705l-488 -705h-51z" />
<glyph unicode="_" horiz-adv-x="794" d="M51 -471l4 37h590l-4 -37h-590z" />
<glyph unicode="`" horiz-adv-x="374" d="M252 1430h72l77 -201h-55z" />
<glyph unicode="a" horiz-adv-x="1009" d="M137 137q0 8 74 713q18 166 172 166h498l28 -37l27 37h33l-95 -885q3 -83 74 -92l-4 -39h-12q-68 0 -92 70q-52 -70 -133 -70h-424q-69 0 -107.5 35.5t-38.5 101.5zM180 139q0 -102 103 -102h424q54 0 88.5 34.5t40.5 94.5l77 713q0 100 -106 100h-426q-112 0 -127 -131z " />
<glyph unicode="b" d="M143 0l150 1438l45 8l-51 -475l61 45h481q144 0 144 -137l-74 -713q-18 -166 -176 -166h-492l-28 37l-27 -37h-33zM201 137q0 -100 102 -100h420q118 0 133 131l74 709q0 102 -103 102h-424q-54 0 -88.5 -34.5t-40.5 -94.5z" />
<glyph unicode="c" horiz-adv-x="915" d="M143 139q0 9 74 711q7 79 52.5 122.5t119.5 43.5h504l2 -37h-510q-54 0 -86.5 -33.5t-38.5 -95.5l-74 -707q0 -47 32.5 -76.5t82.5 -29.5h502l-6 -37h-504q-65 0 -107.5 37.5t-42.5 101.5z" />
<glyph unicode="d" horiz-adv-x="1011" d="M143 129q0 25 76 727q18 160 176 160h482l49 -45l49 467l45 8l-152 -1446h-24l-31 37l-33 -37h-497q-140 0 -140 129zM186 139q0 -102 101 -102h426q114 0 129 129l76 704q0 51 -28.5 80t-76.5 29h-424q-114 0 -129 -129z" />
<glyph unicode="e" horiz-adv-x="995" d="M143 139q0 9 74 711q7 79 53 122.5t119 43.5h418q69 0 110 -35t41 -100l-14 -152q-7 -83 -46.5 -125.5t-115.5 -62.5l-549 -140l-20 15l-27 -275q0 -104 103 -104h555l-6 -37h-555q-64 0 -102 37t-38 102zM215 436l561 144q116 31 125 149l14 141q0 47 -29.5 77t-76.5 30 h-418q-116 0 -131 -127z" />
<glyph unicode="f" horiz-adv-x="630" d="M184 979l4 37h154l23 229q21 201 210 201h158l4 -33h-153q-90 0 -131 -43t-47 -127l-21 -227h250l-2 -37h-252l-152 -1440l-43 -10l152 1450h-154z" />
<glyph unicode="g" horiz-adv-x="1011" d="M137 -471l4 37h527q51 0 85 34.5t40 94.5l36 350l-59 -45h-481q-69 0 -107.5 35.5t-38.5 101.5l74 713q7 78 54.5 122t117.5 44h488l32 -37l33 37h33l-139 -1317q-7 -78 -54.5 -124t-117.5 -46h-527zM186 139q0 -47 28 -74.5t75 -27.5h428q51 0 85 34.5t40 94.5 q15 136 65 622q3 25 5.5 47.5t4 32.5t1.5 11q0 43 -29 70.5t-82 27.5h-416q-116 0 -131 -129z" />
<glyph unicode="h" horiz-adv-x="1003" d="M143 0l150 1436l45 12l-49 -469l49 37h473q139 0 139 -129q0 -10 -90 -887h-43l92 879q0 98 -102 98h-404q-114 0 -129 -129l-88 -848h-43z" />
<glyph unicode="i" horiz-adv-x="329" d="M143 0l107 1016h43l-107 -1016h-43zM270 1231l4 45h43l-4 -45h-43z" />
<glyph unicode="j" horiz-adv-x="350" d="M-109 -430h109q118 0 133 143l137 1303h41l-137 -1299q-11 -95 -53.5 -141.5t-128.5 -46.5h-96zM291 1231l4 45h43l-4 -45h-43z" />
<glyph unicode="k" horiz-adv-x="944" d="M143 0l150 1434l43 12l-98 -926h444q84 0 111 92l120 404h41l-143 -465l-55 -49l47 -51l59 -451h-41l-53 397q-12 88 -94 88h-441l-49 -485h-41z" />
<glyph unicode="l" horiz-adv-x="350" d="M143 0l150 1436l45 10l-152 -1446h-43z" />
<glyph unicode="m" horiz-adv-x="1476" d="M143 0l107 1016h29l28 -37l39 37h477l47 -51l50 51h366q137 0 137 -135q0 -4 -8.5 -88.5t-33.5 -325t-48 -467.5h-43l90 877q0 100 -98 100h-307q-49 0 -80 -35.5t-37 -93.5l-88 -848h-43l90 874q0 103 -98 103h-316q-114 0 -129 -129l-88 -848h-43z" />
<glyph unicode="n" horiz-adv-x="1003" d="M143 0l107 1016h31l26 -37l31 37h473q139 0 139 -129l-90 -887h-43l90 879q0 98 -100 98h-404q-114 0 -129 -129l-88 -848h-43z" />
<glyph unicode="o" horiz-adv-x="991" d="M143 139l74 711q7 78 54.5 122t117.5 44h424q145 0 145 -137l-73 -713q-7 -78 -53.5 -122t-116.5 -44h-428q-64 0 -104 37t-40 102zM186 145q0 -51 27.5 -79.5t75.5 -28.5h428q54 0 86.5 33.5t38.5 95.5l73 706q0 49 -28 77t-78 28h-418q-116 0 -131 -127z" />
<glyph unicode="p" d="M92 -471l158 1487h33l24 -37l31 37h491q144 0 144 -129l-74 -721q-18 -166 -166 -166h-491l-52 45l-53 -508zM201 145q0 -51 27.5 -79.5t74.5 -28.5h424q114 0 129 129l74 711q0 100 -107 100h-420q-114 0 -129 -127z" />
<glyph unicode="q" horiz-adv-x="1011" d="M143 137l74 713q7 78 54.5 122t117.5 44h488l32 -37l33 37h33l-158 -1487l-41 8l53 508l-59 -45h-481q-69 0 -107.5 35.5t-38.5 101.5zM186 139q0 -47 28 -74.5t75 -27.5h428q51 0 85 34.5t40 94.5l76 713q0 43 -30 70.5t-79 27.5h-418q-116 0 -131 -129z" />
<glyph unicode="r" horiz-adv-x="581" d="M143 0l107 1016h31l26 -37l31 37h268l-12 -39h-197q-56 0 -86 -31t-35 -78l-90 -868h-43z" />
<glyph unicode="s" horiz-adv-x="868" d="M102 39h508q114 0 129 117l21 184q0 73 -88 94l-379 90q-113 27 -113 131l19 207q7 74 50 114t113 40h492l4 -37h-496q-111 0 -120 -117l-19 -200q0 -76 80 -97l377 -88q121 -27 121 -131q0 -6 -19 -188q-11 -82 -51 -120t-119 -38h-503z" />
<glyph unicode="t" horiz-adv-x="624" d="M184 981l4 35h150l24 239l44 11l-25 -250h268l-4 -35h-268l-86 -815q0 -127 129 -127h104l-8 -39h-96q-82 0 -127 41t-45 119l86 821h-150z" />
<glyph unicode="u" d="M158 131l92 885h43l-92 -879q0 -98 100 -98h406q114 0 129 129l90 848h43l-107 -1016h-31l-28 37l-29 -37h-475q-141 0 -141 131z" />
<glyph unicode="v" horiz-adv-x="903" d="M168 1016h45l246 -950l446 950h43l-477 -1016h-39z" />
<glyph unicode="w" horiz-adv-x="1435" d="M168 1016h49l201 -944l385 944h45l211 -946l379 946h43l-410 -1016h-41l-211 946l-387 -946h-41z" />
<glyph unicode="x" horiz-adv-x="907" d="M61 0l420 522l-293 494h50l272 -459l373 459h49l-402 -494l316 -522h-51l-291 487l-391 -487h-52z" />
<glyph unicode="y" d="M131 -471l4 37h527q51 0 84.5 34.5t39.5 94.5l37 346l-49 -41h-475q-141 0 -141 139l92 877h43l-92 -871q0 -106 100 -106h406q112 0 127 113l92 864h43l-140 -1321q-7 -78 -54.5 -122t-117.5 -44h-526z" />
<glyph unicode="z" horiz-adv-x="892" d="M82 0l2 25l752 952h-627l12 39h678l-4 -31l-748 -948h666l-10 -37h-721z" />
<glyph unicode="{" horiz-adv-x="649" d="M139 559l4 33h70q38 0 62.5 25.5t29.5 68.5l70 676q27 252 256 252h104l-2 -35h-104q-91 0 -143.5 -55t-63.5 -152l-72 -686q-6 -79 -69 -113q47 -21 47 -92l-76 -737q0 -180 174 -180h94l-4 -35h-92q-217 0 -217 209q0 32 76 737q0 84 -74 84h-70z" />
<glyph unicode="|" horiz-adv-x="391" d="M113 -471l202 1917h43l-202 -1917h-43z" />
<glyph unicode="}" horiz-adv-x="649" d="M33 -471l2 35h104q91 0 143.5 55t63.5 152l74 686q9 78 67 112q-47 21 -47 93q0 4 9 83q9 68 12 125l20 205l35 324q0 180 -174 180h-94l4 35h92q217 0 217 -209l-76 -737q0 -84 74 -84h70l-4 -33h-70q-38 0 -62.5 -25.5t-29.5 -68.5l-70 -676q-27 -252 -256 -252h-104z " />
<glyph unicode="~" horiz-adv-x="987" d="M172 668l156 94h55l416 -53l82 61h84l-154 -98h-92l-383 49l-76 -53h-88z" />
<glyph unicode="&#xa1;" horiz-adv-x="315" d="M80 -414l137 1205h43l-115 -1205h-65zM221 942l8 74h70l-8 -74h-70z" />
<glyph unicode="&#xa2;" horiz-adv-x="870" d="M137 139q0 9 74 711q7 78 54.5 122t117.5 44h186l17 168h39l-17 -168h238l2 -37h-469q-54 0 -86.5 -33.5t-38.5 -95.5l-74 -707q0 -106 99 -106h464l-2 -37h-239l-19 -168h-39l19 168h-187q-64 0 -101.5 37t-37.5 102z" />
<glyph unicode="&#xa3;" horiz-adv-x="1103" d="M102 0l2 39h152l94 666h-172l25 38h153l72 521q10 78 64.5 122t134.5 44h497l9 -37h-510q-70 0 -107.5 -36t-44.5 -91l-72 -523h617l-25 -38h-596l-94 -666h703l-3 -39h-899z" />
<glyph unicode="&#xa4;" horiz-adv-x="1118" d="M123 203l139 127q-14 25 -14 71q0 29 45 449q6 49 33 96l-113 123l29 27l108 -121q47 41 115 41h401q68 0 105 -43l137 123l20 -27l-139 -125q15 -35 15 -67q0 -19 -46 -445q-6 -58 -36 -102l116 -127l-26 -27l-117 127q-43 -37 -109 -37h-401q-59 0 -100 35l-140 -125z M291 406q0 -103 98 -103h402q54 0 86 33.5t38 95.5l46 440q0 107 -99 107h-401q-110 0 -125 -129z" />
<glyph unicode="&#xa5;" horiz-adv-x="1112" d="M211 1430h49l371 -746l522 746h47l-409 -584h202l-4 -35h-223l-121 -172l-2 -18h326l-2 -35h-326l-61 -586h-43l61 586h-338l2 35h338l2 18l-86 172h-233l4 35h213z" />
<glyph unicode="&#xa6;" horiz-adv-x="411" d="M113 -471l88 823h43l-88 -823h-43zM227 623l86 807h43l-86 -807h-43z" />
<glyph unicode="&#xa7;" horiz-adv-x="1040" d="M113 -434h592q56 0 91.5 32t41.5 93l26 274q0 95 -100 121l-477 145q-125 37 -125 146l35 340q15 112 98 153q-68 53 -68 121l29 273q7 78 54.5 122t117.5 44h586l8 -37h-592q-55 0 -90 -32.5t-41 -92.5l-29 -275q0 -72 103 -110l473 -164q66 -24 95.5 -56t29.5 -90 l-35 -342q-9 -107 -94 -135q65 -41 65 -131l-26 -274q-15 -162 -174 -162h-586zM207 385q0 -83 94 -113l483 -145q100 3 109 100l35 340q0 43 -22 66t-75 43l-483 166q-46 -1 -74.5 -36.5t-33.5 -88.5z" />
<glyph unicode="&#xa8;" horiz-adv-x="696" d="M297 1358l8 72h72l-8 -72h-72zM522 1358l8 72h72l-8 -72h-72z" />
<glyph unicode="&#xa9;" horiz-adv-x="1519" d="M160 156q0 4 12 118l100 971q8 85 62 135t151 50h852q170 0 170 -154l-112 -1092q-8 -85 -60.5 -134.5t-148.5 -49.5h-850q-89 0 -132.5 42t-43.5 114zM203 160q0 -61 36 -93t103 -32h840q155 0 170 147l114 1088q0 125 -141 125h-840q-156 0 -168 -148zM547 473 q0 18 49 465q7 78 53.5 122t116.5 44h352l2 -37h-358q-111 0 -123 -129l-49 -459q0 -50 26.5 -79t73.5 -29h354l-4 -37h-354q-64 0 -101.5 37t-37.5 102z" />
<glyph unicode="&#xaa;" horiz-adv-x="704" d="M180 825l49 488q12 117 121 117h357l20 -25l18 25h25l-70 -617q3 -59 52 -65l-4 -27h-9q-52 0 -67 45q-36 -45 -94 -45h-297q-49 0 -75 27t-26 77zM199 520l4 37h424l-4 -37h-424zM219 827q0 -71 80 -71h279q79 0 88 82l55 495q0 66 -78 66h-285q-81 0 -90 -88z" />
<glyph unicode="&#xab;" horiz-adv-x="940" d="M154 492l2 28l542 500l-6 -53l-495 -459l399 -455l-6 -59zM399 492l2 28l543 500l-6 -53l-496 -459l400 -455l-6 -59z" />
<glyph unicode="&#xac;" horiz-adv-x="1095" d="M215 893l4 39h848l-43 -418h-41l39 379h-807z" />
<glyph unicode="&#xad;" horiz-adv-x="569" d="M90 477l4 33h488l-4 -33h-488z" />
<glyph unicode="&#xae;" horiz-adv-x="1519" d="M160 156q0 32 112 1089q18 185 213 185h852q170 0 170 -154l-112 -1092q-8 -85 -60.5 -134.5t-148.5 -49.5h-850q-89 0 -132.5 42t-43.5 114zM203 160q0 -61 36 -93t103 -32h840q155 0 170 147l114 1088q0 125 -141 125h-840q-156 0 -168 -148zM528 334l80 768h326 q188 0 188 -156l-8 -98q-15 -157 -133 -191q20 -17 35 -67l78 -256h-45l-78 260q-15 53 -66 53h-301l-33 -313h-43zM608 686h301q147 0 162 164l8 86q0 70 -36.5 98.5t-112.5 28.5h-283z" />
<glyph unicode="&#xaf;" horiz-adv-x="632" d="M227 1391l4 39h469l-4 -39h-469z" />
<glyph unicode="&#xb0;" horiz-adv-x="626" d="M219 1108l14 156q7 78 54.5 122t118.5 44h114q64 0 100.5 -37.5t36.5 -104.5l-14 -155q-7 -78 -54.5 -122t-117.5 -44h-115q-64 0 -100.5 37t-36.5 104zM262 1106q0 -100 98 -100h115q113 0 125 127l14 157q0 103 -98 103h-115q-51 0 -85 -34.5t-40 -94.5z" />
<glyph unicode="&#xb1;" horiz-adv-x="927" d="M102 0l4 43h703l-4 -43h-703zM178 723l4 41h320l35 340h45l-35 -340h319l-4 -41h-319l-37 -340h-45l37 340h-320z" />
<glyph unicode="&#xb2;" horiz-adv-x="679" d="M125 618l4 25l412 350q53 42 80 82t38 109q2 20 3.5 36.5t3 25.5t2 16t1 10t1 5.5t0.5 4.5q0 113 -138 113h-305l17 35h293q174 0 174 -142l-11 -102q-3 -46 -26 -94q-22 -39 -41.5 -59.5t-69.5 -61.5l-373 -318h496l-16 -35h-545z" />
<glyph unicode="&#xb3;" horiz-adv-x="638" d="M150 653h286q148 0 160 125l16 152q0 76 -71 76h-316l4 34h316q79 0 88 86l16 164q0 105 -127 105h-295l11 35h292q82 0 122 -38t40 -102q0 -31 -18 -166q-6 -72 -64 -102q43 -15 43 -88l-16 -156q-8 -79 -51 -119.5t-142 -40.5h-292z" />
<glyph unicode="&#xb4;" horiz-adv-x="374" d="M231 1229l119 201h72l-135 -201h-56z" />
<glyph unicode="&#xb6;" horiz-adv-x="966" d="M233 1055l21 205q8 77 57.5 123.5t132.5 46.5h635l-4 -37h-172l-145 -1393h-51l145 1393h-186l-146 -1393h-49l94 899h-176q-69 0 -112.5 42t-43.5 114z" />
<glyph unicode="&#xb7;" horiz-adv-x="276" d="M152 471l6 72h71l-6 -72h-71z" />
<glyph unicode="&#xb8;" horiz-adv-x="321" d="M53 -471l2 39h154q49 0 61 57l11 94q0 34 -16 50t-38 16h-145v35l37 180h43l-41 -178h100q103 0 103 -98l-11 -99q-11 -51 -33 -73.5t-65 -22.5h-162z" />
<glyph unicode="&#xb9;" horiz-adv-x="432" d="M113 618l4 33h166l77 742l-155 -21l2 31l201 27l-82 -779h166l-5 -33h-374z" />
<glyph unicode="&#xba;" horiz-adv-x="710" d="M193 850q0 26 40 414q18 166 173 166h192q137 0 137 -130q0 -18 -41 -413q-18 -166 -172 -166h-192q-137 0 -137 129zM199 520l4 37h424l-4 -37h-424zM236 858q0 -98 98 -98h192q110 0 125 127l41 405q0 101 -98 101h-193q-110 0 -125 -129z" />
<glyph unicode="&#xbb;" horiz-adv-x="940" d="M100 -6l6 59l498 455l-401 459l6 53l436 -500l-2 -28zM346 -6l6 59l498 455l-401 459l6 53l436 -500l-2 -28z" />
<glyph unicode="&#xbc;" horiz-adv-x="1212" d="M104 618l5 37h153l78 731l-156 -18l2 35l201 27l-82 -775h154l-4 -37h-351zM287 0l774 1430h39l-772 -1430h-41zM643 262l2 29l418 540h33l-56 -538h125l-4 -31h-125l-26 -262h-35l26 262h-358zM684 293h322l49 481z" />
<glyph unicode="&#xbd;" horiz-adv-x="1437" d="M104 618l5 37h153l78 731l-156 -18l2 35l201 27l-82 -775h154l-4 -37h-351zM287 0l774 1430h39l-772 -1430h-41zM799 0l2 25l405 350q121 103 127 190l6 97q0 114 -135 114h-305l16 35h293q171 0 174 -135l-4 -101q-1 -47 -22.5 -89.5t-48.5 -69.5q-16 -16 -74 -64 l-369 -317h494l-15 -35h-544z" />
<glyph unicode="&#xbe;" horiz-adv-x="1396" d="M170 653h287q147 0 159 125l17 152q0 76 -72 76h-315l4 34h315q79 0 88 86l17 164q0 105 -127 105h-295l10 35h293q82 0 122 -38t40 -102q0 -24 -19 -166q-6 -73 -63 -102q43 -15 43 -88l-17 -156q-18 -160 -186 -160h-299zM430 0l774 1430h39l-772 -1430h-41zM786 262 l2 29l418 540h33l-55 -538h125l-4 -31h-125l-27 -262h-35l27 262h-359zM827 293h322l49 481z" />
<glyph unicode="&#xbf;" horiz-adv-x="1003" d="M100 -227q0 19 25 239q15 140 135 207l195 113q121 74 133 196l26 263h48l-29 -279q-15 -149 -152 -225l-188 -109q-53 -32 -77.5 -67.5t-31.5 -100.5l-24 -221q0 -147 166 -147h516l-17 -56h-506q-107 0 -163 49t-56 138zM618 944l9 72h69l-8 -72h-70z" />
<glyph unicode="&#xc0;" horiz-adv-x="1095" d="M61 0l615 1430h45l313 -1430h-49l-106 498h-560l-208 -498h-50zM336 537h534l-178 829zM596 1722h51l78 -200h-35z" />
<glyph unicode="&#xc1;" horiz-adv-x="1095" d="M61 0l615 1430h45l313 -1430h-49l-106 498h-560l-208 -498h-50zM336 537h534l-178 829zM688 1522l119 200h51l-135 -200h-35z" />
<glyph unicode="&#xc2;" horiz-adv-x="1095" d="M61 0l615 1430h45l313 -1430h-49l-106 498h-560l-208 -498h-50zM336 537h534l-178 829zM551 1522l154 200h43l112 -200h-35l-104 159l-135 -159h-35z" />
<glyph unicode="&#xc3;" horiz-adv-x="1095" d="M61 0l615 1430h45l313 -1430h-49l-106 498h-560l-208 -498h-50zM336 537h534l-178 829zM408 1522l165 204h35l258 -178l150 187h33l-166 -213h-35l-258 178l-148 -178h-34z" />
<glyph unicode="&#xc4;" horiz-adv-x="1095" d="M61 0l615 1430h45l313 -1430h-49l-106 498h-560l-208 -498h-50zM336 537h534l-178 829zM584 1585l4 51h49l-4 -51h-49zM786 1585l5 51h49l-4 -51h-50z" />
<glyph unicode="&#xc5;" horiz-adv-x="1095" d="M61 0l601 1395q-47 6 -74 36.5t-27 77.5l2 35q15 131 144 131h12q55 0 87 -31.5t32 -87.5l-2 -30q-12 -114 -109 -129l307 -1397h-49l-106 498h-560l-208 -498h-50zM336 537h534l-178 829zM606 1516q0 -82 76 -82h12q90 0 99 90l2 28q0 38 -21.5 62t-56.5 24h-15 q-39 0 -64.5 -25t-29.5 -69z" />
<glyph unicode="&#xc6;" horiz-adv-x="1574" d="M41 0l788 1430h770l-4 -37h-725l-69 -641h614l-4 -39h-614v-15l-70 -661h727l-4 -37h-770l72 698h-279l-383 -698h-49zM494 737h262l63 596z" />
<glyph unicode="&#xc7;" horiz-adv-x="1148" d="M160 158q0 33 112 1087q8 85 61.5 135t149.5 50h678v-39h-682q-147 0 -162 -144l-114 -1085q0 -123 139 -123h686l-2 -39h-395l-35 -178h98q103 0 103 -98l-11 -99q-11 -51 -33 -73.5t-65 -22.5h-162l2 39h154q49 0 61 57l11 94q0 34 -16 50t-38 16h-145v35l37 180h-252 q-89 0 -134.5 43t-45.5 115z" />
<glyph unicode="&#xc8;" horiz-adv-x="1056" d="M164 0l149 1430h770l-4 -37h-727l-67 -641h614l-4 -39h-614l-70 -676h727l-4 -37h-770zM606 1722h51l78 -200h-35z" />
<glyph unicode="&#xc9;" horiz-adv-x="1056" d="M164 0l149 1430h770l-4 -37h-727l-67 -641h614l-4 -39h-614l-70 -676h727l-4 -37h-770zM668 1522l118 200h52l-136 -200h-34z" />
<glyph unicode="&#xca;" horiz-adv-x="1056" d="M164 0l149 1430h770l-4 -37h-727l-67 -641h614l-4 -39h-614l-70 -676h727l-4 -37h-770zM545 1522l153 200h43l113 -200h-35l-104 159l-135 -159h-35z" />
<glyph unicode="&#xcb;" horiz-adv-x="1056" d="M164 0l149 1430h770l-4 -37h-727l-67 -641h614l-4 -39h-614l-70 -676h727l-4 -37h-770zM575 1585l5 51h49l-4 -51h-50zM778 1585l4 51h49l-4 -51h-49z" />
<glyph unicode="&#xcc;" horiz-adv-x="548" d="M82 0l2 35h178l144 1360h-179l4 35h400l-4 -35h-178l-144 -1360h178l-2 -35h-399zM381 1722h51l78 -200h-35z" />
<glyph unicode="&#xcd;" horiz-adv-x="548" d="M82 0l2 35h178l144 1360h-179l4 35h400l-4 -35h-178l-144 -1360h178l-2 -35h-399zM381 1522l119 200h51l-135 -200h-35z" />
<glyph unicode="&#xce;" horiz-adv-x="548" d="M82 0l2 35h178l144 1360h-179l4 35h400l-4 -35h-178l-144 -1360h178l-2 -35h-399zM279 1522l153 200h43l113 -200h-35l-104 159l-136 -159h-34z" />
<glyph unicode="&#xcf;" horiz-adv-x="548" d="M82 0l2 35h178l144 1360h-179l4 35h400l-4 -35h-178l-144 -1360h178l-2 -35h-399zM311 1585l4 51h50l-5 -51h-49zM514 1585l4 51h49l-4 -51h-49z" />
<glyph unicode="&#xd0;" horiz-adv-x="1232" d="M115 709l4 34h123l71 687h734q174 0 174 -156l-113 -1090q-8 -85 -61 -134.5t-150 -49.5h-733l74 709h-123zM209 39h690q151 0 166 143l113 1080q0 61 -36.5 95t-99.5 34h-690l-69 -648h223l-4 -34h-223z" />
<glyph unicode="&#xd1;" horiz-adv-x="1193" d="M164 0l149 1430h39l643 -1332l140 1332h43l-150 -1430h-37l-645 1341l-139 -1341h-43zM449 1522l165 204h35l258 -178l150 187h33l-166 -213h-35l-258 178l-148 -178h-34z" />
<glyph unicode="&#xd2;" horiz-adv-x="1263" d="M164 178q0 23 110 1067q18 185 218 185h573q89 0 133.5 -43t44.5 -115q0 -25 -113 -1088q-8 -91 -57.5 -137.5t-157.5 -46.5h-573q-89 0 -133.5 49.5t-44.5 128.5zM209 180q0 -64 34 -103.5t103 -39.5h572q84 0 123.5 36.5t45.5 108.5l115 1080q0 59 -36.5 95t-106.5 36 h-572q-153 0 -168 -146zM711 1722h51l78 -200h-35z" />
<glyph unicode="&#xd3;" horiz-adv-x="1263" d="M164 178q0 23 110 1067q18 185 218 185h573q89 0 133.5 -43t44.5 -115q0 -25 -113 -1088q-8 -91 -57.5 -137.5t-157.5 -46.5h-573q-89 0 -133.5 49.5t-44.5 128.5zM209 180q0 -64 34 -103.5t103 -39.5h572q84 0 123.5 36.5t45.5 108.5l115 1080q0 59 -36.5 95t-106.5 36 h-572q-153 0 -168 -146zM690 1522l119 200h51l-135 -200h-35z" />
<glyph unicode="&#xd4;" horiz-adv-x="1263" d="M164 178q0 23 110 1067q18 185 218 185h573q89 0 133.5 -43t44.5 -115q0 -25 -113 -1088q-8 -91 -57.5 -137.5t-157.5 -46.5h-573q-89 0 -133.5 49.5t-44.5 128.5zM209 180q0 -64 34 -103.5t103 -39.5h572q84 0 123.5 36.5t45.5 108.5l115 1080q0 59 -36.5 95t-106.5 36 h-572q-153 0 -168 -146zM621 1522l153 200h43l113 -200h-35l-102 161l-138 -161h-34z" />
<glyph unicode="&#xd5;" horiz-adv-x="1263" d="M164 178q0 23 110 1067q18 185 218 185h573q89 0 133.5 -43t44.5 -115q0 -25 -113 -1088q-8 -91 -57.5 -137.5t-157.5 -46.5h-573q-89 0 -133.5 49.5t-44.5 128.5zM209 180q0 -64 34 -103.5t103 -39.5h572q84 0 123.5 36.5t45.5 108.5l115 1080q0 59 -36.5 95t-106.5 36 h-572q-153 0 -168 -146zM492 1522l165 204h35l258 -178l150 187h33l-166 -213h-35l-258 178l-148 -178h-34z" />
<glyph unicode="&#xd6;" horiz-adv-x="1263" d="M164 178q0 23 110 1067q18 185 218 185h573q89 0 133.5 -43t44.5 -115q0 -25 -113 -1088q-8 -91 -57.5 -137.5t-157.5 -46.5h-573q-89 0 -133.5 49.5t-44.5 128.5zM209 180q0 -64 34 -103.5t103 -39.5h572q84 0 123.5 36.5t45.5 108.5l115 1080q0 59 -36.5 95t-106.5 36 h-572q-153 0 -168 -146zM647 1585l4 51h49l-4 -51h-49zM850 1585l4 51h49l-4 -51h-49z" />
<glyph unicode="&#xd7;" horiz-adv-x="774" d="M178 510l248 225l-201 226l35 32l203 -225l248 225l28 -30l-250 -226l201 -227l-35 -31l-200 226l-250 -226z" />
<glyph unicode="&#xd8;" horiz-adv-x="1263" d="M143 -41l66 90q-45 45 -45 129q0 23 110 1067q18 185 218 185h573q67 0 111 -27l57 80l33 -23l-60 -82q37 -43 37 -106q0 -25 -113 -1088q-8 -91 -57.5 -137.5t-157.5 -46.5h-573q-62 0 -106 27l-64 -88zM207 180q0 -55 26 -94l918 1282q-36 25 -90 25h-574 q-153 0 -168 -146zM260 59q36 -22 84 -22h574q84 0 123.5 36.5t45.5 108.5l115 1080q0 48 -22 79z" />
<glyph unicode="&#xd9;" horiz-adv-x="1171" d="M160 178l133 1252h43l-133 -1250q0 -64 35 -103.5t104 -39.5h471q155 0 170 145l131 1248h43l-131 -1246q-18 -184 -215 -184h-471q-87 0 -133.5 50t-46.5 128zM647 1722h51l78 -200h-35z" />
<glyph unicode="&#xda;" horiz-adv-x="1171" d="M160 178l133 1252h43l-133 -1250q0 -64 35 -103.5t104 -39.5h471q155 0 170 145l131 1248h43l-131 -1246q-18 -184 -215 -184h-471q-87 0 -133.5 50t-46.5 128zM662 1522l118 200h51l-135 -200h-34z" />
<glyph unicode="&#xdb;" horiz-adv-x="1171" d="M160 178l133 1252h43l-133 -1250q0 -64 35 -103.5t104 -39.5h471q155 0 170 145l131 1248h43l-131 -1246q-18 -184 -215 -184h-471q-87 0 -133.5 50t-46.5 128zM567 1522l154 200h43l113 -200h-35l-103 161l-137 -161h-35z" />
<glyph unicode="&#xdc;" horiz-adv-x="1171" d="M160 178l133 1252h43l-133 -1250q0 -64 35 -103.5t104 -39.5h471q155 0 170 145l131 1248h43l-131 -1246q-18 -184 -215 -184h-471q-87 0 -133.5 50t-46.5 128zM594 1585l4 51h49l-4 -51h-49zM797 1585l4 51h49l-4 -51h-49z" />
<glyph unicode="&#xdd;" horiz-adv-x="1112" d="M211 1430h49l371 -746l522 746h47l-555 -791l-65 -639h-43l65 639zM676 1522l119 200h51l-135 -200h-35z" />
<glyph unicode="&#xde;" horiz-adv-x="1144" d="M164 0l149 1430h45l-28 -273h575q178 0 178 -147q0 -4 -6 -60q-9 -69 -10 -84q-21 -182 -39 -360q-10 -96 -68 -146.5t-151 -50.5h-567l-33 -309h-45zM246 350h565q156 0 174 156l55 491q0 56 -35 87.5t-102 31.5h-577z" />
<glyph unicode="&#xdf;" horiz-adv-x="1075" d="M143 0l129 1241q11 99 58 152t149 53h398q174 0 174 -156q0 -22 -2 -28l-29 -283l-436 -217l319 -160q94 -46 94 -145q0 -31 -2 -41l-24 -238q-21 -178 -193 -178h-381l-4 41h385q75 0 109.5 34t40.5 101l24 242q0 3 1 12t1 12q0 90 -73 127l-353 176l4 35l447 219 l29 279q0 60 -37 95.5t-99 35.5h-397q-142 0 -160 -164l-129 -1245h-43z" />
<glyph unicode="&#xe0;" horiz-adv-x="1009" d="M137 137l74 713q18 166 172 166h498l28 -37l27 37h33l-95 -885q3 -83 74 -92l-4 -39h-12q-68 0 -92 70q-52 -70 -133 -70h-424q-69 0 -107.5 35.5t-38.5 101.5zM180 139q0 -102 103 -102h424q54 0 88.5 34.5t40.5 94.5l77 713q0 100 -106 100h-426q-112 0 -127 -131z M487 1319h52l77 -201h-34z" />
<glyph unicode="&#xe1;" horiz-adv-x="1009" d="M137 137q0 8 74 713q18 166 172 166h498l28 -37l27 37h33l-95 -885q3 -83 74 -92l-4 -39h-12q-68 0 -92 70q-52 -70 -133 -70h-424q-69 0 -107.5 35.5t-38.5 101.5zM180 139q0 -102 103 -102h424q54 0 88.5 34.5t40.5 94.5l77 713q0 100 -106 100h-426q-112 0 -127 -131z M539 1118l118 201h52l-136 -201h-34z" />
<glyph unicode="&#xe2;" horiz-adv-x="1067" d="M137 137q0 8 74 713q18 166 172 166h498l28 -37l27 37h33l-95 -885q3 -83 74 -92l-4 -39h-12q-68 0 -92 70q-52 -70 -133 -70h-424q-69 0 -107.5 35.5t-38.5 101.5zM180 139q0 -102 103 -102h424q54 0 88.5 34.5t40.5 94.5l77 713q0 100 -106 100h-426q-112 0 -127 -131z M451 1118l153 201h43l113 -201h-35l-102 162l-138 -162h-34z" />
<glyph unicode="&#xe3;" horiz-adv-x="1009" d="M137 137q0 8 74 713q18 166 172 166h498l28 -37l27 37h33l-95 -885q3 -83 74 -92l-4 -39h-12q-68 0 -92 70q-52 -70 -133 -70h-424q-69 0 -107.5 35.5t-38.5 101.5zM180 139q0 -102 103 -102h424q54 0 88.5 34.5t40.5 94.5l77 713q0 100 -106 100h-426q-112 0 -127 -131z M322 1120l167 205h35l256 -178l150 186h33l-166 -213h-35l-258 178l-148 -178h-34z" />
<glyph unicode="&#xe4;" horiz-adv-x="1009" d="M137 137q0 8 74 713q18 166 172 166h498l28 -37l27 37h33l-95 -885q3 -83 74 -92l-4 -39h-12q-68 0 -92 70q-52 -70 -133 -70h-424q-69 0 -107.5 35.5t-38.5 101.5zM180 139q0 -102 103 -102h424q54 0 88.5 34.5t40.5 94.5l77 713q0 100 -106 100h-426q-112 0 -127 -131z M465 1188l6 51h49l-6 -51h-49zM668 1188l6 51h49l-6 -51h-49z" />
<glyph unicode="&#xe5;" horiz-adv-x="1009" d="M137 137q0 8 74 713q18 166 172 166h498l28 -37l27 37h33l-95 -885q3 -83 74 -92l-4 -39h-12q-68 0 -92 70q-52 -70 -133 -70h-424q-69 0 -107.5 35.5t-38.5 101.5zM180 139q0 -102 103 -102h424q54 0 88.5 34.5t40.5 94.5l77 713q0 100 -106 100h-426q-112 0 -127 -131z M475 1243l4 35q15 131 142 131h12q55 0 87 -31.5t32 -87.5l-2 -30q-12 -132 -136 -132h-16q-57 0 -90 30.5t-33 84.5zM520 1249q0 -82 76 -82h12q90 0 99 90l2 29q0 38 -21.5 62t-56.5 24h-15q-39 0 -64.5 -25t-29.5 -69z" />
<glyph unicode="&#xe6;" horiz-adv-x="1691" d="M143 137q0 8 74 713q18 166 172 166h518l39 -49l37 49h528q144 0 144 -131q0 -18 -15 -156q-7 -83 -46 -125.5t-115 -62.5l-547 -140l-21 15l-28 -275q0 -104 102 -104h555l-6 -37h-563q-92 0 -119 76q-37 -76 -133 -76h-430q-69 0 -107.5 35.5t-38.5 101.5zM186 139 q0 -102 103 -102h424q54 0 88.5 34.5t40.5 94.5l73 713q0 100 -102 100h-426q-112 0 -127 -131zM913 436l560 144q115 30 124 149l15 145q0 47 -29.5 75t-77.5 28h-418q-116 0 -131 -127z" />
<glyph unicode="&#xe7;" horiz-adv-x="915" d="M143 139q0 9 74 711q7 79 52.5 122.5t119.5 43.5h504l2 -37h-510q-54 0 -86.5 -33.5t-38.5 -95.5l-74 -707q0 -47 32.5 -76.5t82.5 -29.5h502l-6 -37h-291l-35 -178h98q103 0 103 -98l-10 -99q-11 -51 -33.5 -73.5t-65.5 -22.5h-162l2 39h154q49 0 61 57l11 94 q0 34 -16 50t-38 16h-145v35l37 180h-174q-65 0 -107.5 37.5t-42.5 101.5z" />
<glyph unicode="&#xe8;" horiz-adv-x="995" d="M143 139q0 9 74 711q7 79 53 122.5t119 43.5h418q69 0 110 -35t41 -100l-14 -152q-7 -83 -46.5 -125.5t-115.5 -62.5l-549 -140l-20 15l-27 -275q0 -104 103 -104h555l-6 -37h-555q-64 0 -102 37t-38 102zM215 436l561 144q116 31 125 149l14 141q0 47 -29.5 77t-76.5 30 h-418q-116 0 -131 -127zM504 1319h51l78 -201h-35z" />
<glyph unicode="&#xe9;" horiz-adv-x="995" d="M143 139q0 9 74 711q7 79 53 122.5t119 43.5h418q69 0 110 -35t41 -100l-14 -152q-7 -83 -46.5 -125.5t-115.5 -62.5l-549 -140l-20 15l-27 -275q0 -104 103 -104h555l-6 -37h-555q-64 0 -102 37t-38 102zM215 436l561 144q116 31 125 149l14 141q0 47 -29.5 77t-76.5 30 h-418q-116 0 -131 -127zM565 1118l119 201h51l-135 -201h-35z" />
<glyph unicode="&#xea;" horiz-adv-x="995" d="M143 139q0 9 74 711q7 79 53 122.5t119 43.5h418q69 0 110 -35t41 -100l-14 -152q-7 -83 -46.5 -125.5t-115.5 -62.5l-549 -140l-20 15l-27 -275q0 -104 103 -104h555l-6 -37h-555q-64 0 -102 37t-38 102zM215 436l561 144q116 31 125 149l14 141q0 47 -29.5 77t-76.5 30 h-418q-116 0 -131 -127zM440 1118l154 201h43l113 -201h-35l-103 162l-137 -162h-35z" />
<glyph unicode="&#xeb;" horiz-adv-x="995" d="M143 139q0 9 74 711q7 79 53 122.5t119 43.5h418q69 0 110 -35t41 -100l-14 -152q-7 -83 -46.5 -125.5t-115.5 -62.5l-549 -140l-20 15l-27 -275q0 -104 103 -104h555l-6 -37h-555q-64 0 -102 37t-38 102zM215 436l561 144q116 31 125 149l14 141q0 47 -29.5 77t-76.5 30 h-418q-116 0 -131 -127zM481 1188l6 51h50l-7 -51h-49zM684 1188l6 51h49l-6 -51h-49z" />
<glyph unicode="&#xec;" horiz-adv-x="331" d="M143 0l107 1016h43l-107 -1016h-43zM176 1319h51l78 -201h-35z" />
<glyph unicode="&#xed;" horiz-adv-x="329" d="M143 0l107 1016h43l-107 -1016h-43zM258 1118l119 201h51l-135 -201h-35z" />
<glyph unicode="&#xee;" horiz-adv-x="329" d="M125 1118l154 201h43l112 -201h-35l-102 162l-137 -162h-35zM143 0l107 1016h43l-107 -1016h-43z" />
<glyph unicode="&#xef;" horiz-adv-x="329" d="M143 0l107 1016h43l-107 -1016h-43zM158 1188l6 51h49l-6 -51h-49zM360 1188l7 51h49l-6 -51h-50z" />
<glyph unicode="&#xf0;" horiz-adv-x="993" d="M143 139q0 12 74 711q18 166 174 166h420q63 0 98 -35l-2 12q-21 170 -334 320l-77 -144l-39 19l80 141l-134 62l21 36l131 -61l78 139l37 -16l-76 -135q70 -37 111 -62q43 -22 94 -63q62 -46 86 -82q32 -40 54 -101t22 -126l-76 -754q-15 -166 -170 -166h-428 q-64 0 -104 37t-40 102zM186 143q0 -106 103 -106h428q113 0 125 133l73 711q0 45 -31 70.5t-75 25.5h-418q-116 0 -131 -127z" />
<glyph unicode="&#xf1;" horiz-adv-x="1003" d="M143 0l107 1016h31l26 -37l31 37h473q139 0 139 -129l-90 -887h-43l90 879q0 98 -100 98h-404q-114 0 -129 -129l-88 -848h-43zM301 1120l168 205h35l256 -178l149 186h33l-166 -213h-35l-258 178l-147 -178h-35z" />
<glyph unicode="&#xf2;" horiz-adv-x="991" d="M143 139l74 711q7 78 54.5 122t117.5 44h424q145 0 145 -137l-73 -713q-7 -78 -53.5 -122t-116.5 -44h-428q-64 0 -104 37t-40 102zM186 145q0 -51 27.5 -79.5t75.5 -28.5h428q54 0 86.5 33.5t38.5 95.5l73 706q0 49 -28 77t-78 28h-418q-116 0 -131 -127zM524 1319h51 l78 -201h-35z" />
<glyph unicode="&#xf3;" horiz-adv-x="991" d="M143 139l74 711q7 78 54.5 122t117.5 44h424q145 0 145 -137l-73 -713q-7 -78 -53.5 -122t-116.5 -44h-428q-64 0 -104 37t-40 102zM186 145q0 -51 27.5 -79.5t75.5 -28.5h428q54 0 86.5 33.5t38.5 95.5l73 706q0 49 -28 77t-78 28h-418q-116 0 -131 -127zM545 1118 l119 201h51l-135 -201h-35z" />
<glyph unicode="&#xf4;" horiz-adv-x="991" d="M143 139l74 711q7 78 54.5 122t117.5 44h424q145 0 145 -137l-73 -713q-7 -78 -53.5 -122t-116.5 -44h-428q-64 0 -104 37t-40 102zM186 145q0 -51 27.5 -79.5t75.5 -28.5h428q54 0 86.5 33.5t38.5 95.5l73 706q0 49 -28 77t-78 28h-418q-116 0 -131 -127zM457 1118 l153 201h43l113 -201h-35l-102 162l-137 -162h-35z" />
<glyph unicode="&#xf5;" horiz-adv-x="991" d="M143 139l74 711q7 78 54.5 122t117.5 44h424q145 0 145 -137l-73 -713q-7 -78 -53.5 -122t-116.5 -44h-428q-64 0 -104 37t-40 102zM186 145q0 -51 27.5 -79.5t75.5 -28.5h428q54 0 86.5 33.5t38.5 95.5l73 706q0 49 -28 77t-78 28h-418q-116 0 -131 -127zM307 1118 l166 205h35l258 -178l149 186h33l-166 -213h-34l-259 178l-147 -178h-35z" />
<glyph unicode="&#xf6;" horiz-adv-x="991" d="M143 139l74 711q7 78 54.5 122t117.5 44h424q145 0 145 -137l-73 -713q-7 -78 -53.5 -122t-116.5 -44h-428q-64 0 -104 37t-40 102zM186 145q0 -51 27.5 -79.5t75.5 -28.5h428q54 0 86.5 33.5t38.5 95.5l73 706q0 49 -28 77t-78 28h-418q-116 0 -131 -127zM500 1188l6 51 h49l-6 -51h-49zM702 1188l7 51h49l-6 -51h-50z" />
<glyph unicode="&#xf7;" horiz-adv-x="950" d="M176 715l4 43h684l-4 -43h-684zM459 336l4 45h41l-4 -45h-41zM537 1085l6 45h41l-6 -45h-41z" />
<glyph unicode="&#xf8;" horiz-adv-x="989" d="M102 -27l64 80q-23 38 -23 86l74 711q7 78 54.5 122t117.5 44h424q63 0 100 -29l64 80l27 -20l-66 -82q20 -33 20 -86l-73 -713q-7 -78 -53.5 -122t-116.5 -44h-428q-60 0 -97 29l-59 -76zM186 145q0 -29 11 -55l688 860q-30 27 -76 27h-418q-116 0 -131 -127zM217 61 q24 -24 72 -24h428q54 0 86.5 33.5t38.5 95.5l73 706q0 25 -10 52z" />
<glyph unicode="&#xf9;" d="M158 131l92 885h43l-92 -879q0 -98 100 -98h406q114 0 129 129l90 848h43l-107 -1016h-31l-28 37l-29 -37h-475q-141 0 -141 131zM518 1319h51l78 -201h-35z" />
<glyph unicode="&#xfa;" d="M158 131l92 885h43l-92 -879q0 -98 100 -98h406q114 0 129 129l90 848h43l-107 -1016h-31l-28 37l-29 -37h-475q-141 0 -141 131zM580 1118l118 201h52l-136 -201h-34z" />
<glyph unicode="&#xfb;" d="M158 131l92 885h43l-92 -879q0 -98 100 -98h406q114 0 129 129l90 848h43l-107 -1016h-31l-28 37l-29 -37h-475q-141 0 -141 131zM457 1118l153 201h43l113 -201h-35l-102 162l-137 -162h-35z" />
<glyph unicode="&#xfc;" d="M158 131l92 885h43l-92 -879q0 -98 100 -98h406q114 0 129 129l90 848h43l-107 -1016h-31l-28 37l-29 -37h-475q-141 0 -141 131zM483 1188l6 51h50l-7 -51h-49zM686 1188l6 51h49l-6 -51h-49z" />
<glyph unicode="&#xfd;" d="M131 -471l4 37h527q51 0 84.5 34.5t39.5 94.5l37 346l-49 -41h-475q-141 0 -141 139l92 877h43l-92 -871q0 -106 100 -106h406q112 0 127 113l92 864h43l-140 -1321q-7 -78 -54.5 -122t-117.5 -44h-526zM580 1118l118 201h52l-136 -201h-34z" />
<glyph unicode="&#xfe;" d="M92 -471l201 1909l45 8l-51 -475l61 45h481q144 0 144 -137q0 -14 -74 -713q-18 -166 -170 -166h-487l-49 45l-52 -504zM201 137q0 -100 102 -100h426q112 0 127 131l74 709q0 102 -103 102h-424q-54 0 -88.5 -34.5t-40.5 -94.5z" />
<glyph unicode="&#xff;" d="M131 -471l4 37h527q51 0 84.5 34.5t39.5 94.5l37 346l-49 -41h-475q-141 0 -141 139l92 877h43l-92 -871q0 -106 100 -106h406q112 0 127 113l92 864h43l-140 -1321q-7 -78 -54.5 -122t-117.5 -44h-526zM487 1188l7 51h49l-6 -51h-50zM690 1188l6 51h49l-6 -51h-49z" />
<glyph unicode="&#x152;" horiz-adv-x="1900" d="M164 158l112 1087q8 85 62 135t151 50h1438l-4 -37h-727l-68 -641h615l-4 -39h-615l-71 -676h729l-4 -37h-1434q-89 0 -134.5 43t-45.5 115zM207 160q0 -123 139 -123h664l143 1356h-664q-152 0 -167 -146z" />
<glyph unicode="&#x153;" horiz-adv-x="1619" d="M143 139q0 15 74 711q7 78 54.5 122t117.5 44h424q105 0 133 -72q47 72 141 72h426q144 0 144 -131q0 -18 -15 -156q-7 -83 -46 -125.5t-115 -62.5l-549 -140l-21 15l-26 -275q0 -104 102 -104h555l-6 -37h-555q-92 0 -127 74q-47 -74 -139 -74h-428q-64 0 -104 37 t-40 102zM186 145q0 -51 27.5 -79.5t75.5 -28.5h428q54 0 86.5 33.5t38.5 95.5l76 706q0 49 -29.5 77t-79.5 28h-418q-116 0 -131 -127zM915 436l560 144q115 30 124 149l15 145q0 47 -29.5 75t-77.5 28h-417q-117 0 -132 -127z" />
<glyph unicode="&#x178;" horiz-adv-x="1112" d="M211 1430h49l371 -746l522 746h47l-555 -791l-65 -639h-43l65 639zM578 1585l4 51h49l-4 -51h-49zM780 1585l4 51h50l-5 -51h-49z" />
<glyph unicode="&#x2c6;" horiz-adv-x="514" d="M231 1229l140 201h71l99 -201h-56l-86 141l-112 -141h-56z" />
<glyph unicode="&#x2dc;" horiz-adv-x="782" d="M209 1225l168 205h35l258 -179l147 187h33l-166 -213h-35l-258 178l-147 -178h-35z" />
<glyph unicode="&#x2000;" horiz-adv-x="867" />
<glyph unicode="&#x2001;" horiz-adv-x="1735" />
<glyph unicode="&#x2002;" horiz-adv-x="867" />
<glyph unicode="&#x2003;" horiz-adv-x="1735" />
<glyph unicode="&#x2004;" horiz-adv-x="578" />
<glyph unicode="&#x2005;" horiz-adv-x="433" />
<glyph unicode="&#x2006;" horiz-adv-x="289" />
<glyph unicode="&#x2007;" horiz-adv-x="289" />
<glyph unicode="&#x2008;" horiz-adv-x="216" />
<glyph unicode="&#x2009;" horiz-adv-x="347" />
<glyph unicode="&#x200a;" horiz-adv-x="96" />
<glyph unicode="&#x2010;" horiz-adv-x="569" d="M90 477l4 33h488l-4 -33h-488z" />
<glyph unicode="&#x2011;" horiz-adv-x="569" d="M90 477l4 33h488l-4 -33h-488z" />
<glyph unicode="&#x2012;" horiz-adv-x="569" d="M90 477l4 33h488l-4 -33h-488z" />
<glyph unicode="&#x2013;" horiz-adv-x="958" d="M92 489l2 33h877l-2 -33h-877z" />
<glyph unicode="&#x2014;" horiz-adv-x="1511" d="M90 483l4 33h1430l-4 -33h-1430z" />
<glyph unicode="&#x2018;" horiz-adv-x="323" d="M252 1186l8 65l59 179h39l-57 -181h21l-7 -63h-63z" />
<glyph unicode="&#x2019;" horiz-adv-x="284" d="M240 1186l57 180h-21l7 64h63l-8 -66l-59 -178h-39z" />
<glyph unicode="&#x201a;" horiz-adv-x="348" d="M119 -160l63 160h-20l6 63h63l-8 -65l-59 -158h-45z" />
<glyph unicode="&#x201c;" horiz-adv-x="444" d="M246 1186l8 65l59 179h39l-57 -181h20l-6 -63h-63zM399 1186l9 65l59 179h39l-57 -181h20l-6 -63h-64z" />
<glyph unicode="&#x201d;" horiz-adv-x="442" d="M244 1186l57 180h-20l6 64h63l-8 -66l-57 -178h-41zM397 1186l58 180h-21l6 64h64l-8 -66l-58 -178h-41z" />
<glyph unicode="&#x201e;" horiz-adv-x="552" d="M119 -160l63 160h-20l6 63h63l-8 -65l-59 -158h-45zM324 -160l63 160h-20l6 63h63l-8 -65l-59 -158h-45z" />
<glyph unicode="&#x2022;" horiz-adv-x="315" d="M178 729l2 16q9 48 53 48h13q45 0 45 -48l-2 -16q-9 -47 -53 -47h-15q-43 0 -43 47z" />
<glyph unicode="&#x2026;" horiz-adv-x="1189" d="M143 0l7 63h63l-6 -63h-64zM553 0l6 63h64l-7 -63h-63zM983 0l6 63h64l-6 -63h-64z" />
<glyph unicode="&#x202f;" horiz-adv-x="347" />
<glyph unicode="&#x2039;" horiz-adv-x="694" d="M154 492l2 28l542 500l-6 -53l-495 -459l399 -455l-6 -59z" />
<glyph unicode="&#x203a;" horiz-adv-x="694" d="M100 -6l6 59l498 455l-401 459l6 53l436 -500l-2 -28z" />
<glyph unicode="&#x205f;" horiz-adv-x="433" />
<glyph unicode="&#x20ac;" horiz-adv-x="1071" d="M53 522l25 41h123l32 295h-104l25 41h84l36 346q8 85 60.5 135t148.5 50h678v-39h-682q-147 0 -162 -144l-36 -348h667l-24 -41h-648l-32 -295h628l-24 -41h-608l-37 -360q0 -123 139 -123h686l-2 -39h-686q-89 0 -134.5 43t-45.5 115q0 22 37 364h-144z" />
<glyph unicode="&#x2122;" horiz-adv-x="1261" d="M258 1399l4 31h408l-4 -31h-187l-55 -535h-37l55 535h-184zM711 864l59 566h31l178 -379l256 379h33l-60 -566h-32l53 496l-240 -352h-31l-161 352l-52 -496h-34z" />
<glyph unicode="&#x25fc;" horiz-adv-x="1013" d="M0 0v1014h1014v-1014h-1014z" />
</font>
</defs>
</svg>
