<?xml version="1.0" standalone="no"?>
<!DOCTYPE svg PUBLIC "-//W3C//DTD SVG 1.1//EN" "http://www.w3.org/Graphics/SVG/1.1/DTD/svg11.dtd" >
<svg xmlns="http://www.w3.org/2000/svg" xmlns:xlink="http://www.w3.org/1999/xlink" version="1.1">
<metadata></metadata>
<defs>
<font id="lab_sans_prolight" horiz-adv-x="985" >
<font-face units-per-em="2048" ascent="1544" descent="-504" />
<missing-glyph horiz-adv-x="409" />
<glyph unicode="&#xfb01;" horiz-adv-x="1077" d="M82 926v90h154v223q0 207 182 207h346q170 0 170 -152v-65h-105v31q0 90 -92 90h-309q-88 0 -88 -90v-244h176v-90h-176v-926h-104v926h-154zM829 0v1016h105v-1016h-105z" />
<glyph unicode="&#xfb02;" horiz-adv-x="1077" d="M82 926v90h154v231q0 84 43.5 135.5t136.5 51.5h413l105 12v-1446h-105v1337h-407q-82 0 -82 -90v-231h176v-90h-176v-926h-104v926h-154z" />
<glyph unicode="&#xfb03;" horiz-adv-x="1671" d="M82 926v90h154v164q0 206 182 206h102l8 -96h-106q-82 0 -82 -102v-172h489v223q0 207 183 207h346q170 0 170 -152v-65h-105v31q0 90 -92 90h-309q-88 0 -88 -90v-244h176v-90h-176v-926h-105v926h-489v-926h-104v926h-154zM1423 0v1016h105v-1016h-105z" />
<glyph unicode="&#xfb04;" horiz-adv-x="1710" d="M82 926v90h154v164q0 206 182 206h102l8 -96h-106q-82 0 -82 -102v-172h530v231q0 84 44 135.5t137 51.5h413l103 12v-1446h-105v1337h-405q-82 0 -82 -90v-231h176v-90h-176v-926h-105v926h-530v-926h-104v926h-154z" />
<glyph horiz-adv-x="0" />
<glyph horiz-adv-x="682" />
<glyph unicode=" "  horiz-adv-x="409" />
<glyph unicode="&#x09;" horiz-adv-x="409" />
<glyph unicode="&#xa0;" horiz-adv-x="409" />
<glyph unicode="!" horiz-adv-x="358" d="M123 1430h113l-25 -1205h-64zM125 0v106h111v-106h-111z" />
<glyph unicode="&#x22;" horiz-adv-x="598" d="M143 1430h107l-8 -386h-90zM348 1430h107l-9 -386h-90z" />
<glyph unicode="#" horiz-adv-x="1144" d="M102 416v92h207l35 422h-219v92h227l37 408h94l-34 -408h296l35 408h92l-34 -408h204v-92h-213l-36 -422h227v-92h-236l-34 -416h-93l37 416h-299l-35 -416h-96l35 416h-197zM403 508h299l35 422h-297z" />
<glyph unicode="$" horiz-adv-x="1097" d="M143 868v396q0 78 42 122t112 44h211v169h96v-169h301l13 -99h-594q-76 0 -76 -69v-381q0 -63 76 -78l489 -88q73 -12 107 -52.5t34 -117.5v-379q0 -78 -41.5 -122t-111.5 -44h-203v-170h-96v170h-340l-12 102h624q76 0 76 70v367q0 70 -68 79l-485 84q-154 27 -154 166z " />
<glyph unicode="%" horiz-adv-x="1466" d="M123 946v297q0 187 186 187h125q193 0 193 -187v-295q0 -186 -193 -186h-119q-93 0 -142.5 48t-49.5 136zM227 956q0 -90 82 -90h131q82 0 82 90v281q0 88 -82 88h-131q-82 0 -82 -90v-279zM430 0l512 1430h111l-510 -1430h-113zM840 184v297q0 187 186 187h125 q192 0 192 -187v-295q0 -186 -192 -186h-119q-93 0 -142.5 48t-49.5 136zM944 195q0 -91 82 -91h131q82 0 82 91v280q0 88 -82 88h-131q-82 0 -82 -90v-278z" />
<glyph unicode="&#x26;" horiz-adv-x="1239" d="M82 170v426q0 132 100 158q-39 29 -39 127v372q0 177 193 177h459q192 0 192 -170v-304h-98v299q0 80 -80 80h-487q-34 0 -56 -22.5t-22 -52.5v-373q0 -82 75 -133l629 -439v355h105v-441l125 -100l-9 -129l-125 111q-27 -111 -163 -111h-613q-186 0 -186 170zM184 195 q0 -91 84 -91h592q88 0 88 78l-694 482q-70 0 -70 -78v-391z" />
<glyph unicode="'" horiz-adv-x="393" d="M143 1430h107l-8 -386h-90z" />
<glyph unicode="(" horiz-adv-x="536" d="M143 573q0 634 219 1045h93q-213 -437 -213 -1045q0 -607 213 -1044h-93q-219 411 -219 1044z" />
<glyph unicode=")" horiz-adv-x="577" d="M82 -471q213 437 213 1044q0 608 -213 1045h92q219 -411 219 -1045q0 -633 -219 -1044h-92z" />
<glyph unicode="*" horiz-adv-x="649" d="M82 1227l39 84l155 -74v197h93v-199l159 76l39 -84l-164 -76l121 -156l-69 -53l-129 156l-131 -158l-74 55l129 154z" />
<glyph unicode="+" horiz-adv-x="991" d="M102 688v86h351v371h86v-371h350v-86h-350v-371h-86v371h-351z" />
<glyph unicode="," horiz-adv-x="323" d="M88 -170l53 170h-39v129h119v-131l-51 -168h-82z" />
<glyph unicode="-" horiz-adv-x="712" d="M102 451v88h508v-88h-508z" />
<glyph unicode="." horiz-adv-x="323" d="M102 0v129h119v-129h-119z" />
<glyph unicode="/" horiz-adv-x="663" d="M-129 -471l690 1917h103l-684 -1917h-109z" />
<glyph unicode="0" horiz-adv-x="1150" d="M143 184v1061q0 83 50.5 134t146.5 51h471q96 0 146.5 -51t50.5 -134v-1061q0 -83 -50.5 -133.5t-146.5 -50.5h-471q-96 0 -146.5 50.5t-50.5 133.5zM248 182q0 -43 25 -66.5t67 -23.5h471q42 0 67 23.5t25 66.5v1065q0 43 -25 66.5t-67 23.5h-471q-42 0 -67 -23.5 t-25 -66.5v-1065z" />
<glyph unicode="1" horiz-adv-x="702" d="M102 0v90h222v1235l-207 -22v90l311 41v-1344h213v-90h-539z" />
<glyph unicode="2" horiz-adv-x="1026" d="M61 0v84l709 860q51 60 51 121v201q0 30 -21.5 49.5t-56.5 19.5h-661l12 95h639q49 0 75.5 -4.5t55.5 -20.5q60 -26 60 -145v-162q0 -117 -88 -224l-641 -780h770l-13 -94h-891z" />
<glyph unicode="3" horiz-adv-x="1028" d="M123 0v92h586q44 0 70 27.5t26 62.5v387q0 93 -78 93h-541v94h539q80 6 80 92v397q0 43 -27.5 67.5t-70.5 24.5h-584l8 93h578q90 0 143 -46.5t53 -144.5v-395q0 -88 -53 -135q53 -41 53 -134v-393q0 -94 -52 -138t-142 -44h-588z" />
<glyph unicode="4" horiz-adv-x="1089" d="M82 379v74l614 979h111v-959h201v-94h-201v-379h-111v379h-614zM207 473h487v776z" />
<glyph unicode="5" horiz-adv-x="1138" d="M143 672l41 758h785l6 -95h-696l-31 -567h561q85 0 135.5 -49t50.5 -152v-377q0 -190 -192 -190h-649v94h663q78 0 78 94v387q0 97 -78 97h-674z" />
<glyph unicode="6" horiz-adv-x="1150" d="M143 190v1049q0 191 197 191h598l6 -93h-604q-43 0 -67.5 -25.5t-24.5 -64.5v-477h563q197 0 197 -190v-390q0 -99 -44.5 -144.5t-152.5 -45.5h-471q-197 0 -197 190zM248 182q0 -39 24.5 -64.5t67.5 -25.5h471q50 0 71 20.5t21 69.5v406q0 39 -24.5 64.5t-67.5 25.5 h-563v-496z" />
<glyph unicode="7" horiz-adv-x="1052" d="M82 1335l10 95h879v-95l-533 -1335h-104l530 1335h-782z" />
<glyph unicode="8" horiz-adv-x="1150" d="M143 184v412q0 91 54 133q-54 48 -54 135v381q0 94 53.5 139.5t143.5 45.5h469q86 0 142.5 -44.5t56.5 -125.5v-476q0 -47 -9.5 -69t-40.5 -45q50 -30 50 -154v-332q0 -93 -53.5 -138.5t-141.5 -45.5h-471q-90 0 -144.5 45t-54.5 139zM248 180q0 -38 22.5 -63t67.5 -25 h475q90 6 90 90v348q0 84 -76 93l-512 59q-67 -6 -67 -92v-410zM248 868q0 -83 76 -92l497 -59q39 1 60.5 27.5t21.5 64.5v436q0 92 -92 92h-473q-41 0 -65.5 -24.5t-24.5 -67.5v-377z" />
<glyph unicode="9" horiz-adv-x="1150" d="M143 788v451q0 99 44.5 145t152.5 46h471q197 0 197 -191v-1049q0 -190 -197 -190h-598l-6 92h604q43 0 67.5 25.5t24.5 64.5v416h-563q-197 0 -197 190zM248 780q0 -39 24.5 -64.5t67.5 -25.5h563v557q0 39 -24.5 64.5t-67.5 25.5h-471q-50 0 -71 -20.5t-21 -69.5v-467z " />
<glyph unicode=":" horiz-adv-x="323" d="M102 0v129h119v-129h-119zM102 887v129h119v-129h-119z" />
<glyph unicode=";" horiz-adv-x="323" d="M88 -170l53 170h-39v129h119v-131l-51 -168h-82zM102 887v129h119v-129h-119z" />
<glyph unicode="&#x3c;" horiz-adv-x="1036" d="M123 459v94l790 467v-109l-696 -403l696 -410v-104z" />
<glyph unicode="=" horiz-adv-x="991" d="M102 514v86h787v-86h-787zM102 883v86h787v-86h-787z" />
<glyph unicode="&#x3e;" horiz-adv-x="1036" d="M123 -6v104l696 410l-696 403v109l790 -467v-94z" />
<glyph unicode="?" horiz-adv-x="983" d="M123 1346l10 84h533q99 0 146.5 -44t47.5 -145v-305q0 -66 -20 -105q-13 -27 -29 -43t-28.5 -22.5t-49.5 -22.5l-168 -79q-88 -40 -88 -154v-285h-84v320q0 129 121 188l172 82q48 24 65 49.5t17 79.5v299q0 44 -23.5 73.5t-68.5 29.5h-553zM385 0v106h111v-106h-111z " />
<glyph unicode="@" horiz-adv-x="1927" d="M123 -158v1344q0 112 64.5 176.5t181.5 64.5h1190q131 0 188 -61t57 -188v-965q0 -101 -47 -157t-137 -56h-295q-89 0 -127 68l-57 -68h-461q-64 0 -101.5 37t-37.5 102q0 21 2 27l71 684q7 78 54.5 122t117.5 44h410l43 -58l41 58h78l-84 -826q3 -75 72 -84h266 q82 0 82 93v981q0 60 -35 104.5t-94 44.5h-1203q-61 0 -96 -40t-35 -99v-1358q0 -141 123 -141h858l-20 -101h-823q-134 0 -190 64.5t-56 187.5zM659 174q0 -68 68 -68h340q81 0 90 74l72 680q0 62 -74 62h-342q-76 0 -82 -70l-72 -666v-12z" />
<glyph unicode="A" horiz-adv-x="1054" d="M41 0l420 1430h114l439 -1430h-113l-139 459h-473l-135 -459h-113zM313 553h422l-213 715z" />
<glyph unicode="B" horiz-adv-x="1130" d="M164 0v1430h627q103 0 149.5 -45.5t46.5 -139.5v-399q0 -89 -55 -135q55 -40 55 -133v-394q0 -94 -46.5 -139t-149.5 -45h-627zM268 94h523q50 0 71 21t21 69v391q0 44 -18 66t-60 23h-537v-570zM268 758h523q50 0 71 21t21 69v397q0 48 -21 69t-71 21h-523v-577z" />
<glyph unicode="C" horiz-adv-x="1153" d="M143 190v1049q0 191 197 191h655l6 -93h-661q-43 0 -67.5 -25.5t-24.5 -64.5v-1065q0 -39 24.5 -64.5t67.5 -25.5h670v-92h-670q-197 0 -197 190z" />
<glyph unicode="D" horiz-adv-x="1232" d="M164 0v1430h729q103 0 150 -45.5t47 -139.5v-1061q0 -94 -47 -139t-150 -45h-729zM268 92h625q50 0 71 21t21 69v1063q0 90 -92 90h-625v-1243z" />
<glyph unicode="E" horiz-adv-x="1056" d="M164 0v1430h770v-95h-666v-565h594v-90h-594v-586h666v-94h-770z" />
<glyph unicode="F" horiz-adv-x="1056" d="M164 0v1430h770v-95h-666v-600h574v-90h-574v-645h-104z" />
<glyph unicode="G" horiz-adv-x="1212" d="M143 190v1049q0 191 197 191h655l6 -93h-661q-43 0 -67.5 -25.5t-24.5 -64.5v-1065q0 -39 24.5 -64.5t67.5 -25.5h532q43 0 68 25.5t25 64.5v430h-299v95h403v-517q0 -190 -197 -190h-532q-197 0 -197 190z" />
<glyph unicode="H" horiz-adv-x="1232" d="M164 0v1430h104v-672h697v672h104v-1430h-104v668h-697v-668h-104z" />
<glyph unicode="I" horiz-adv-x="624" d="M82 0v90h178v1249h-178v91h461v-91h-178v-1249h178v-90h-461z" />
<glyph unicode="J" horiz-adv-x="757" d="M82 1337v93h512v-1240q0 -190 -197 -190h-305l-6 92h311q43 0 67.5 25.5t24.5 64.5v1155h-407z" />
<glyph unicode="K" horiz-adv-x="1148" d="M164 0v1430h104v-672h408q90 0 108 80l138 592h104l-143 -615q-14 -71 -70 -108q48 -20 70 -91l184 -616h-106l-181 584q-24 80 -108 80h-404v-664h-104z" />
<glyph unicode="L" horiz-adv-x="1036" d="M164 0v1430h104v-1336h666v-94h-770z" />
<glyph unicode="M" horiz-adv-x="1296" d="M164 0v1430h94l393 -900l377 900h105v-1430h-105v1163l-326 -774h-104l-330 758v-1147h-104z" />
<glyph unicode="N" horiz-adv-x="1232" d="M164 0v1430h100l701 -1180v1180h104v-1430h-98l-703 1202v-1202h-104z" />
<glyph unicode="O" horiz-adv-x="1212" d="M143 184v1061q0 83 50.5 134t146.5 51h532q96 0 146.5 -51t50.5 -134v-1061q0 -83 -50.5 -133.5t-146.5 -50.5h-532q-96 0 -146.5 50.5t-50.5 133.5zM248 182q0 -43 25 -66.5t67 -23.5h532q42 0 67.5 23.5t25.5 66.5v1065q0 43 -25.5 66.5t-67.5 23.5h-532 q-42 0 -67 -23.5t-25 -66.5v-1065z" />
<glyph unicode="P" horiz-adv-x="1138" d="M164 0v1430h659q193 0 193 -185v-467q0 -101 -53.5 -148.5t-145.5 -47.5h-549v-582h-104zM268 676h553q37 0 63.5 28.5t26.5 71.5v467q0 92 -92 92h-551v-659z" />
<glyph unicode="Q" horiz-adv-x="1212" d="M143 184v1061q0 83 50.5 134t146.5 51h532q96 0 146.5 -51t50.5 -134v-1061q0 -50 -14 -82l241 -215l-125 -26l-180 168q-50 -29 -119 -29h-532q-96 0 -146.5 50.5t-50.5 133.5zM248 182q0 -43 25 -66.5t67 -23.5h532q42 0 67.5 23.5t25.5 66.5v1065q0 43 -25.5 66.5 t-67.5 23.5h-532q-42 0 -67 -23.5t-25 -66.5v-1065z" />
<glyph unicode="R" horiz-adv-x="1159" d="M164 0v1430h659q193 0 193 -185v-467q0 -118 -78 -168q41 -41 49 -90l90 -520h-108l-88 492q-15 90 -109 90h-504v-582h-104zM268 676h553q90 0 90 100v469q0 90 -92 90h-551v-659z" />
<glyph unicode="S" horiz-adv-x="1097" d="M143 868v396q0 78 42 122t112 44h608l13 -99h-594q-76 0 -76 -69v-375q0 -72 76 -84l489 -88q73 -12 107 -52.5t34 -117.5v-379q0 -78 -41.5 -122t-111.5 -44h-639l-12 102h624q76 0 76 70v367q0 70 -68 79l-485 84q-154 27 -154 166z" />
<glyph unicode="T" horiz-adv-x="1058" d="M61 1343v87h936v-87h-413v-1343h-105v1343h-418z" />
<glyph unicode="U" horiz-adv-x="1232" d="M164 190v1240h104v-1248q0 -39 24.5 -64.5t67.5 -25.5h512q50 0 71.5 21t21.5 69v1248h104v-1246q0 -94 -47 -139t-150 -45h-512q-196 0 -196 190z" />
<glyph unicode="V" horiz-adv-x="1095" d="M61 1430h113l369 -1252l379 1252h112l-438 -1430h-115z" />
<glyph unicode="W" horiz-adv-x="1792" d="M61 1430h113l346 -1252l320 1252h112l348 -1252l318 1252h113l-377 -1430h-115l-340 1237l-326 -1237h-114z" />
<glyph unicode="X" horiz-adv-x="1132" d="M186 0l371 725l-371 705h117l311 -592l304 592h116l-360 -705l381 -725h-117l-322 612l-313 -612h-117z" />
<glyph unicode="Y" horiz-adv-x="1112" d="M61 1430h117l373 -680l385 680h115l-451 -791v-639h-104v639z" />
<glyph unicode="Z" horiz-adv-x="1005" d="M61 0v74l762 1263h-727l13 93h835v-82l-760 -1254h742l-13 -94h-852z" />
<glyph unicode="[" horiz-adv-x="583" d="M164 -471v2085h338v-98h-234v-1889h234v-98h-338z" />
<glyph unicode="\" horiz-adv-x="663" d="M-129 1446h102l691 -1917h-109z" />
<glyph unicode="]" horiz-adv-x="583" d="M82 -373h233v1889h-233v98h338v-2085h-338v98z" />
<glyph unicode="^" horiz-adv-x="1153" d="M123 682l397 748h121l410 -748h-121l-342 649l-346 -649h-119z" />
<glyph unicode="_" horiz-adv-x="794" d="M102 -383h590v-88h-590v88z" />
<glyph unicode="`" horiz-adv-x="436" d="M102 1430h134l98 -201h-92z" />
<glyph unicode="a" d="M102 170v172q0 178 189 190l446 27v277q0 90 -86 90h-497l6 90h526q69 0 112.5 -44t43.5 -122v-850h-76l-35 43l-33 -43h-424q-85 0 -128.5 44.5t-43.5 125.5zM207 166q0 -76 76 -76h379q75 0 75 80v305l-446 -26q-84 -6 -84 -97v-186z" />
<glyph unicode="b" horiz-adv-x="1026" d="M143 0v1434l105 12v-475l39 45h463q70 0 111.5 -44t41.5 -122v-684q0 -78 -41.5 -122t-111.5 -44h-463l-33 43l-35 -43h-76zM248 172q0 -80 82 -80h393q76 0 76 86v672q0 33 -20.5 54.5t-55.5 21.5h-393q-82 0 -82 -80v-674z" />
<glyph unicode="c" horiz-adv-x="911" d="M123 166v684q0 78 41.5 122t111.5 44h506l6 -90h-485q-35 0 -55.5 -21.5t-20.5 -54.5v-684q0 -33 20.5 -54.5t55.5 -21.5h485l-6 -90h-506q-70 0 -111.5 44t-41.5 122z" />
<glyph unicode="d" horiz-adv-x="1026" d="M123 166v684q0 75 42.5 120.5t110.5 45.5h463l39 -45v463l105 12v-1446h-76l-35 43l-33 -43h-463q-70 0 -111.5 44t-41.5 122zM227 170q0 -80 76 -80h393q82 0 82 74v682q0 80 -82 80h-393q-35 0 -55.5 -21.5t-20.5 -54.5v-680z" />
<glyph unicode="e" horiz-adv-x="1005" d="M123 166v686q0 78 41.5 121t111.5 43h453q68 0 111 -43.5t43 -122.5v-227q0 -79 -43 -120.5t-113 -41.5h-467l-33 41v-324q0 -88 84 -88h537l-8 -90h-559q-72 0 -115 42t-43 124zM227 547h480q31 0 51 21t20 57v211q0 90 -84 90h-391q-76 0 -76 -82v-297z" />
<glyph unicode="f" horiz-adv-x="606" d="M82 926v90h154v223q0 207 182 207h98l8 -96h-102q-82 0 -82 -103v-231h176v-90h-176v-926h-104v926h-154z" />
<glyph unicode="g" horiz-adv-x="1005" d="M123 166v684q0 78 41.5 122t111.5 44h463l33 -43l33 43h78v-1319q0 -80 -42 -124t-110 -44h-563l-10 90h540q45 0 62.5 21t17.5 65v340l-39 -45h-463q-70 0 -111.5 44t-41.5 122zM227 164q0 -33 20 -53.5t56 -20.5h393q82 0 82 74v686q0 76 -78 76h-397q-76 0 -76 -80 v-682z" />
<glyph unicode="h" horiz-adv-x="1036" d="M143 0v1434l105 12v-473l31 43h460q70 0 112 -44t42 -122v-850h-105v846q0 80 -75 80h-383q-37 0 -59.5 -23.5t-22.5 -64.5v-838h-105z" />
<glyph unicode="i" horiz-adv-x="391" d="M143 0v1016h105v-1016h-105zM143 1178v106h105v-106h-105z" />
<glyph unicode="j" horiz-adv-x="391" d="M-43 -367h111q42 0 58.5 19t16.5 61v1303h105v-1299q0 -96 -41.5 -142t-140.5 -46h-101zM143 1178v106h105v-106h-105z" />
<glyph unicode="k" d="M143 0v1434l105 12v-893h360q90 0 105 82l71 381h105l-96 -473l-48 -37l46 -33l112 -473h-104l-82 383q-18 80 -103 80h-366v-463h-105z" />
<glyph unicode="l" horiz-adv-x="391" d="M143 0v1436l105 10v-1446h-105z" />
<glyph unicode="m" horiz-adv-x="1558" d="M143 0v1016h70l33 -43l33 43h495l33 -43l33 43h422q70 0 111.5 -44t41.5 -122v-850h-104v846q0 80 -76 80h-322q-82 0 -82 -82v-844h-104v844q0 82 -76 82h-321q-82 0 -82 -88v-838h-105z" />
<glyph unicode="n" horiz-adv-x="1026" d="M143 0v1016h70l33 -43l33 43h450q70 0 112 -44t42 -122v-850h-105v846q0 80 -76 80h-372q-37 0 -59.5 -23.5t-22.5 -64.5v-838h-105z" />
<glyph unicode="o" horiz-adv-x="1005" d="M123 166v684q0 78 41.5 122t111.5 44h453q70 0 112 -44t42 -122v-684q0 -78 -42 -122t-112 -44h-453q-70 0 -111.5 44t-41.5 122zM227 170q0 -80 76 -80h399q76 0 76 80v676q0 80 -76 80h-399q-76 0 -76 -80v-676z" />
<glyph unicode="p" horiz-adv-x="1046" d="M143 -471v1487h76l35 -43l33 43h463q70 0 111.5 -44t41.5 -122v-684q0 -78 -41.5 -122t-111.5 -44h-455l-47 45v-504zM248 164q0 -74 82 -74h393q76 0 76 70v686q0 80 -76 80h-393q-82 0 -82 -74v-688z" />
<glyph unicode="q" horiz-adv-x="1046" d="M123 166v672q0 178 151 178h465l33 -43l35 43h76v-1475l-105 -12v516l-39 -45h-463q-75 0 -114 45.5t-39 120.5zM227 172q0 -82 78 -82h391q82 0 82 72v684q0 80 -82 80h-391q-78 0 -78 -80v-674z" />
<glyph unicode="r" horiz-adv-x="643" d="M143 0v1016h68l35 -43l33 43h303l-9 -98h-243q-82 0 -82 -89v-829h-105z" />
<glyph unicode="s" horiz-adv-x="870" d="M102 90h486q76 0 76 70v200q0 29 -15.5 42.5t-60.5 27.5l-324 82q-79 20 -116 57t-37 109v172q0 78 41.5 122t111.5 44h465l8 -90h-446q-36 0 -56 -20.5t-20 -53.5v-166q0 -31 17.5 -48.5t58.5 -29.5l323 -82q79 -20 116.5 -57t37.5 -109v-194q0 -78 -42 -122t-112 -44 h-503z" />
<glyph unicode="t" horiz-adv-x="604" d="M41 926v90h170v209l104 10v-219h228v-90h-228v-736q0 -92 91 -92h116l-6 -98h-108q-98 0 -147.5 43.5t-49.5 144.5v738h-170z" />
<glyph unicode="u" horiz-adv-x="1015" d="M143 166v850h105v-846q0 -80 76 -80h362q37 0 59.5 23.5t22.5 64.5v838h104v-1016h-69l-33 43l-33 -43h-440q-70 0 -112 44t-42 122z" />
<glyph unicode="v" horiz-adv-x="903" d="M61 1016h111l281 -832l284 832h105l-338 -1016h-105z" />
<glyph unicode="w" horiz-adv-x="1435" d="M61 1016h111l260 -826l234 826h110l230 -826l264 826h104l-317 -1016h-105l-233 807l-236 -807h-104z" />
<glyph unicode="x" horiz-adv-x="888" d="M61 0l320 518l-318 498h123l252 -398l250 398h119l-307 -496l327 -520h-116l-271 422l-262 -422h-117z" />
<glyph unicode="y" horiz-adv-x="1015" d="M143 166v850h105v-846q0 -80 76 -80h366q34 0 56 22t22 62v842h104v-1319q0 -77 -38.5 -122.5t-110.5 -45.5h-537l-8 90h508q82 0 82 84v336l-33 -39h-438q-70 0 -112 44t-42 122z" />
<glyph unicode="z" horiz-adv-x="913" d="M82 0v70l580 848h-556l9 98h698v-78l-580 -848h598l-8 -90h-741z" />
<glyph unicode="{" horiz-adv-x="673" d="M82 512v98h70q81 0 81 92v721q0 191 185 191h153v-98h-151q-82 0 -82 -93v-710q0 -122 -80 -152q80 -30 80 -151v-670q0 -46 23 -79.5t59 -33.5h151v-98h-155q-97 0 -140 52t-43 159v680q0 92 -81 92h-70z" />
<glyph unicode="|" horiz-adv-x="391" d="M143 -471v1917h105v-1917h-105z" />
<glyph unicode="}" horiz-adv-x="673" d="M82 -373h151q36 0 59 33.5t23 79.5v670q0 121 80 151q-80 30 -80 152v710q0 93 -82 93h-151v98h154q184 0 184 -191v-721q0 -92 82 -92h69v-98h-69q-82 0 -82 -92v-680q0 -107 -42.5 -159t-139.5 -52h-156v98z" />
<glyph unicode="~" horiz-adv-x="987" d="M102 627l146 147h117l323 -53l51 61h146l-144 -151h-133l-311 49l-45 -53h-150z" />
<glyph unicode="&#xa1;" horiz-adv-x="358" d="M123 -414l24 1205h64l25 -1205h-113zM123 909v107h110v-107h-110z" />
<glyph unicode="&#xa2;" horiz-adv-x="911" d="M123 166v684q0 78 41.5 122t111.5 44h183v170h96v-170h227l6 -98h-485q-35 0 -55.5 -21.5t-20.5 -54.5v-668q0 -33 20.5 -54.5t55.5 -21.5h485l-6 -98h-227v-170h-96v170h-183q-70 0 -111.5 44t-41.5 122z" />
<glyph unicode="&#xa3;" horiz-adv-x="1185" d="M123 0v109h151v542h-149l18 103h131v510q0 78 42 122t112 44h567l13 -103h-545q-76 0 -76 -70v-503h569l-18 -103h-551v-542h676v-109h-940z" />
<glyph unicode="&#xa4;" horiz-adv-x="1265" d="M102 279l140 135q-17 39 -17 88v481q0 55 17 94l-140 135l70 72l135 -135q39 20 105 20h432q61 0 110 -22l140 137l69 -72l-141 -139q14 -32 14 -90v-479q0 -56 -14 -88l141 -137l-69 -72l-136 133q-51 -23 -114 -23h-426q-60 0 -111 23l-135 -133zM330 512q0 -90 82 -90 h438q82 0 82 90v465q0 88 -82 88h-438q-82 0 -82 -90v-463z" />
<glyph unicode="&#xa5;" horiz-adv-x="1112" d="M61 1430h117l373 -599l385 599h115l-422 -648h274v-84h-303v-147h303v-84h-303v-467h-104v467h-318v84h318v147h-318v84h289z" />
<glyph unicode="&#xa6;" horiz-adv-x="438" d="M164 352h110l-4 -823h-106v823zM164 623v804h110l-4 -804h-106z" />
<glyph unicode="&#xa7;" horiz-adv-x="1077" d="M143 340v428q0 84 62 131q-62 47 -62 148v217q0 78 42 122t112 44h588l12 -99h-571q-35 0 -55.5 -21.5t-20.5 -54.5v-204q0 -75 76 -99l444 -133q164 -50 164 -196v-428q0 -87 -53 -125q53 -53 53 -138v-237q0 -78 -42 -122t-112 -44h-598l-12 102h584q75 0 75 70v229 q0 69 -75 95l-457 127q-154 41 -154 188zM250 354q0 -39 18.5 -59.5t63.5 -38.5l422 -121q75 0 75 70v411q0 72 -75 93l-428 131q-35 0 -55.5 -22t-20.5 -58v-406z" />
<glyph unicode="&#xa8;" horiz-adv-x="573" d="M102 1305v125h125v-125h-125zM346 1305v125h125v-125h-125z" />
<glyph unicode="&#xa9;" horiz-adv-x="1579" d="M123 184v1061q0 83 50 134t146 51h941q96 0 146 -51t50 -134v-1061q0 -83 -50 -133.5t-146 -50.5h-941q-96 0 -146 50.5t-50 133.5zM227 182q0 -43 25 -66.5t67 -23.5h941q42 0 67 23.5t25 66.5v1065q0 43 -25 66.5t-67 23.5h-941q-42 0 -67 -23.5t-25 -66.5v-1065z M518 498v438q0 78 42 122t112 44h356l6 -105h-336q-75 0 -75 -69v-422q0 -70 75 -70h336l-6 -104h-356q-70 0 -112 44t-42 122z" />
<glyph unicode="&#xaa;" horiz-adv-x="724" d="M102 958v33q0 171 183 180l227 11v75q0 72 -70 72h-297l9 101h290q179 0 179 -173v-473h-62l-33 39l-36 -39h-224q-166 0 -166 174zM164 520v90h446v-90h-446zM215 954q0 -69 80 -69h143q74 0 74 71v127l-219 -8q-78 -3 -78 -80v-41z" />
<glyph unicode="&#xab;" horiz-adv-x="1019" d="M102 455v102l490 459v-142l-395 -362l395 -369v-149zM428 455v102l490 459v-142l-396 -362l396 -369v-149z" />
<glyph unicode="&#xac;" horiz-adv-x="1095" d="M123 838v94h848l2 -418h-90v324h-760z" />
<glyph unicode="&#xad;" horiz-adv-x="712" d="M102 451v88h508v-88h-508z" />
<glyph unicode="&#xae;" horiz-adv-x="1579" d="M123 184v1061q0 83 50 134t146 51h941q96 0 146 -51t50 -134v-1061q0 -83 -50 -133.5t-146 -50.5h-941q-96 0 -146 50.5t-50 133.5zM227 182q0 -43 25 -66.5t67 -23.5h941q42 0 67 23.5t25 66.5v1065q0 43 -25 66.5t-67 23.5h-941q-42 0 -67 -23.5t-25 -66.5v-1065z M532 332v807h324q104 0 149.5 -47t45.5 -150v-127q0 -55 -16 -96t-36 -53l-16 -11q27 -27 43 -88l53 -235h-112l-47 213q-21 76 -82 76h-199v-289h-107zM637 721h227q82 0 82 94v125q0 94 -84 94h-225v-313z" />
<glyph unicode="&#xaf;" horiz-adv-x="673" d="M102 1333v97h469v-97h-469z" />
<glyph unicode="&#xb0;" horiz-adv-x="585" d="M102 1157v143q0 58 34.5 94t96.5 36h117q64 0 98.5 -35.5t34.5 -94.5v-143q0 -59 -34.5 -94t-98.5 -35h-117q-62 0 -96.5 35.5t-34.5 93.5zM197 1180q0 -58 53 -58h86q53 0 53 58v100q0 55 -53 55h-86q-53 0 -53 -55v-100z" />
<glyph unicode="&#xb1;" horiz-adv-x="991" d="M102 0v90h787v-90h-787zM102 684v94h320v340h92v-340h320v-94h-320v-340h-92v340h-320z" />
<glyph unicode="&#xb2;" horiz-adv-x="696" d="M61 618v93l412 432q31 39 31 80v65q0 20 -16 34.5t-39 14.5h-357l8 93h389q56 0 87.5 -30.5t31.5 -82.5v-92q0 -38 -26 -88l-17 -25l-41 -51l-338 -348h449l-8 -95h-566z" />
<glyph unicode="&#xb3;" horiz-adv-x="679" d="M102 618v95h314q59 0 59 59v146q0 54 -53 57h-281v94h281q53 3 53 57v150q0 59 -59 59h-314l7 95h313q156 0 156 -140v-160q0 -31 -14 -60t-32 -42l-14 -10q2 -1 6.5 -2.5t14.5 -9.5t18 -19t14.5 -31t6.5 -45v-135q0 -73 -41 -115.5t-115 -42.5h-320z" />
<glyph unicode="&#xb4;" horiz-adv-x="423" d="M102 1229l99 201h121l-132 -201h-88z" />
<glyph unicode="&#xb5;" d="M143 -348v1364h105v-848q0 -70 76 -70h352q37 0 59.5 23.5t22.5 64.5v830h104v-1016h-69l-33 43l-33 -43h-416q-36 0 -63 18v-346z" />
<glyph unicode="&#xb6;" horiz-adv-x="1103" d="M123 1075v178q0 78 45 127.5t127 49.5h768v-95h-172v-1335h-107v1335h-209v-1335h-104v899h-176q-77 0 -124.5 46.5t-47.5 129.5z" />
<glyph unicode="&#xb7;" horiz-adv-x="370" d="M123 442v125h125v-125h-125z" />
<glyph unicode="&#xb8;" horiz-adv-x="491" d="M102 -379h162q12 0 22.5 8.5t10.5 20.5v63q0 39 -33 39h-158v90l91 158h100l-90 -156h80q44 0 73 -28t29 -72v-119q0 -46 -26 -71t-70 -25h-191v92z" />
<glyph unicode="&#xb9;" horiz-adv-x="475" d="M61 618v89h134v622l-121 -12v86l227 27v-723h133v-89h-373z" />
<glyph unicode="&#xba;" horiz-adv-x="751" d="M123 956v291q0 80 47 131.5t129 51.5h154q83 0 129.5 -50.5t46.5 -130.5v-282q0 -82 -46 -132.5t-130 -50.5h-150q-84 0 -132 47.5t-48 124.5zM143 520v90h467v-90h-467zM233 963q0 -30 18.5 -50t49.5 -20h152q67 0 67 70v288q0 74 -63 74h-154q-70 0 -70 -76v-286z" />
<glyph unicode="&#xbb;" horiz-adv-x="1019" d="M102 -6v149l396 369l-396 362v142l490 -459v-102zM428 -6v149l395 369l-395 362v142l490 -459v-102z" />
<glyph unicode="&#xbc;" horiz-adv-x="1558" d="M102 618v89h134v622l-121 -12v86l227 27v-723h133v-89h-373zM422 0l559 1430h104l-557 -1430h-106zM778 205v80l389 526h105v-522h125v-84h-125v-205h-98v205h-396zM877 287h297v405z" />
<glyph unicode="&#xbd;" horiz-adv-x="1605" d="M102 618v89h134v622l-121 -12v86l227 27v-723h133v-89h-373zM422 0l559 1430h104l-557 -1430h-106zM963 0v92l391 432q30 38 30 80v66q0 20 -16 34.5t-39 14.5h-336l8 92h369q56 0 87.5 -30.5t31.5 -82.5v-92q0 -36 -27 -88q-16 -27 -37 -51q-19 -22 -20 -25l-318 -348 h414l-8 -94h-530z" />
<glyph unicode="&#xbe;" horiz-adv-x="1478" d="M82 618v95h313q60 0 60 59v146q0 54 -54 57h-280v94h280q54 3 54 57v150q0 59 -60 59h-313l6 95h313q156 0 156 -140v-160q0 -31 -13.5 -60t-31.5 -42l-14 -10q2 -1 6 -2.5t14.5 -9.5t18 -19t14 -31t6.5 -45v-135q0 -73 -41 -115.5t-115 -42.5h-319zM422 0l559 1430h104 l-557 -1430h-106zM778 205v80l389 526h105v-522h125v-84h-125v-205h-98v205h-396zM877 287h297v405z" />
<glyph unicode="&#xbf;" horiz-adv-x="983" d="M123 80q0 65 20 104q13 27 29 43t28.5 22.5t49.5 22.5l168 80q88 40 88 154v285h84v-320q0 -129 -121 -188l-172 -82q-48 -24 -65 -49.5t-17 -79.5v-299q0 -44 23.5 -73.5t68.5 -29.5h553l-10 -84h-533q-99 0 -146.5 44t-47.5 145v305zM487 909v107h111v-107h-111z" />
<glyph unicode="&#xc0;" horiz-adv-x="1054" d="M41 0l420 1430h114l439 -1430h-113l-139 459h-473l-135 -459h-113zM313 553h422l-213 715zM332 1722h133l98 -200h-92z" />
<glyph unicode="&#xc1;" horiz-adv-x="1054" d="M41 0l420 1430h114l439 -1430h-113l-139 459h-473l-135 -459h-113zM313 553h422l-213 715zM479 1522l99 200h133l-140 -200h-92z" />
<glyph unicode="&#xc2;" horiz-adv-x="1054" d="M41 0l420 1430h114l439 -1430h-113l-139 459h-473l-135 -459h-113zM313 553h422l-213 715zM342 1522l123 200h110l127 -200h-96l-84 108l-90 -108h-90z" />
<glyph unicode="&#xc3;" horiz-adv-x="1054" d="M41 0l420 1430h114l439 -1430h-113l-139 459h-473l-135 -459h-113zM229 1518l146 213h76l215 -119l82 119h100l-143 -209h-87l-202 116l-84 -120h-103zM313 553h422l-213 715z" />
<glyph unicode="&#xc4;" horiz-adv-x="1054" d="M41 0l420 1430h114l439 -1430h-113l-139 459h-473l-135 -459h-113zM313 553h422l-213 715zM317 1561v125h125v-125h-125zM582 1561v125h125v-125h-125z" />
<glyph unicode="&#xc5;" horiz-adv-x="1054" d="M41 0l397 1354q-80 35 -80 135v31q0 67 39 106t111 39h12q72 0 112 -39t40 -106v-31q0 -93 -74 -131l416 -1358h-113l-139 459h-473l-135 -459h-113zM313 553h422l-213 715zM446 1497q0 -65 58 -65h20q58 0 58 65v14q0 66 -58 66h-20q-58 0 -58 -66v-14z" />
<glyph unicode="&#xc6;" horiz-adv-x="1472" d="M41 0l551 1430h778v-95h-665v-565h593v-90h-593v-586h665v-94h-770v465h-276l-170 -465h-113zM360 563h240v645z" />
<glyph unicode="&#xc7;" horiz-adv-x="1153" d="M143 190v1049q0 191 197 191h655l6 -93h-661q-43 0 -67.5 -25.5t-24.5 -64.5v-1065q0 -39 24.5 -64.5t67.5 -25.5h670v-92h-330l-90 -156h80q44 0 73 -28t29 -72v-119q0 -46 -26 -71t-70 -25h-191v92h162q12 0 22.5 8.5t10.5 20.5v63q0 39 -33 39h-158v90l91 158h-240 q-197 0 -197 190z" />
<glyph unicode="&#xc8;" horiz-adv-x="1056" d="M164 0v1430h770v-95h-666v-565h594v-90h-594v-586h666v-94h-770zM377 1722h133l98 -200h-92z" />
<glyph unicode="&#xc9;" horiz-adv-x="1056" d="M164 0v1430h770v-95h-666v-565h594v-90h-594v-586h666v-94h-770zM479 1522l99 200h133l-140 -200h-92z" />
<glyph unicode="&#xca;" horiz-adv-x="1056" d="M164 0v1430h770v-95h-666v-565h594v-90h-594v-586h666v-94h-770zM373 1522l123 200h110l127 -200h-96l-84 108l-90 -108h-90z" />
<glyph unicode="&#xcb;" horiz-adv-x="1056" d="M164 0v1430h770v-95h-666v-565h594v-90h-594v-586h666v-94h-770zM358 1561v125h125v-125h-125zM602 1561v125h125v-125h-125z" />
<glyph unicode="&#xcc;" horiz-adv-x="624" d="M82 0v90h178v1249h-178v91h461v-91h-178v-1249h178v-90h-461zM131 1722h133l98 -200h-92z" />
<glyph unicode="&#xcd;" horiz-adv-x="624" d="M82 0v90h178v1249h-178v91h461v-91h-178v-1249h178v-90h-461zM254 1522l98 200h133l-139 -200h-92z" />
<glyph unicode="&#xce;" horiz-adv-x="624" d="M82 0v90h178v1249h-178v91h461v-91h-178v-1249h178v-90h-461zM125 1522l123 200h110l127 -200h-96l-84 108l-90 -108h-90z" />
<glyph unicode="&#xcf;" horiz-adv-x="686" d="M143 0v90h179v1249h-179v91h461v-91h-178v-1249h178v-90h-461zM182 1561v125h125v-125h-125zM426 1561v125h125v-125h-125z" />
<glyph unicode="&#xd0;" horiz-adv-x="1232" d="M41 682v94h123v654h729q103 0 150 -45.5t47 -139.5v-1061q0 -94 -47 -139t-150 -45h-729v682h-123zM268 92h625q50 0 71 21t21 69v1063q0 48 -21 69t-71 21h-625v-559h160v-94h-160v-590z" />
<glyph unicode="&#xd1;" horiz-adv-x="1232" d="M164 0v1430h100l701 -1180v1180h104v-1430h-98l-703 1202v-1202h-104zM311 1518l146 208h75l216 -118l81 123h101l-144 -213h-86l-202 116l-84 -116h-103z" />
<glyph unicode="&#xd2;" horiz-adv-x="1212" d="M143 184v1061q0 83 50.5 134t146.5 51h532q96 0 146.5 -51t50.5 -134v-1061q0 -83 -50.5 -133.5t-146.5 -50.5h-532q-96 0 -146.5 50.5t-50.5 133.5zM248 182q0 -43 25 -66.5t67 -23.5h532q42 0 67.5 23.5t25.5 66.5v1065q0 43 -25.5 66.5t-67.5 23.5h-532 q-42 0 -67 -23.5t-25 -66.5v-1065zM459 1722h133l98 -200h-92z" />
<glyph unicode="&#xd3;" horiz-adv-x="1212" d="M143 184v1061q0 83 50.5 134t146.5 51h532q96 0 146.5 -51t50.5 -134v-1061q0 -83 -50.5 -133.5t-146.5 -50.5h-532q-96 0 -146.5 50.5t-50.5 133.5zM248 182q0 -43 25 -66.5t67 -23.5h532q42 0 67.5 23.5t25.5 66.5v1065q0 43 -25.5 66.5t-67.5 23.5h-532 q-42 0 -67 -23.5t-25 -66.5v-1065zM543 1522l98 200h133l-139 -200h-92z" />
<glyph unicode="&#xd4;" horiz-adv-x="1212" d="M143 184v1061q0 83 50.5 134t146.5 51h532q96 0 146.5 -51t50.5 -134v-1061q0 -83 -50.5 -133.5t-146.5 -50.5h-532q-96 0 -146.5 50.5t-50.5 133.5zM248 182q0 -43 25 -66.5t67 -23.5h532q42 0 67.5 23.5t25.5 66.5v1065q0 43 -25.5 66.5t-67.5 23.5h-532 q-42 0 -67 -23.5t-25 -66.5v-1065zM418 1522l123 200h110l127 -200h-96l-84 108l-90 -108h-90z" />
<glyph unicode="&#xd5;" horiz-adv-x="1212" d="M143 184v1061q0 83 50.5 134t146.5 51h532q96 0 146.5 -51t50.5 -134v-1061q0 -83 -50.5 -133.5t-146.5 -50.5h-532q-96 0 -146.5 50.5t-50.5 133.5zM248 182q0 -43 25 -66.5t67 -23.5h532q42 0 67.5 23.5t25.5 66.5v1065q0 43 -25.5 66.5t-67.5 23.5h-532 q-42 0 -67 -23.5t-25 -66.5v-1065zM311 1518l146 208h75l216 -118l81 123h101l-144 -213h-86l-202 116l-84 -116h-103z" />
<glyph unicode="&#xd6;" horiz-adv-x="1212" d="M143 184v1061q0 83 50.5 134t146.5 51h532q96 0 146.5 -51t50.5 -134v-1061q0 -83 -50.5 -133.5t-146.5 -50.5h-532q-96 0 -146.5 50.5t-50.5 133.5zM248 182q0 -43 25 -66.5t67 -23.5h532q42 0 67.5 23.5t25.5 66.5v1065q0 43 -25.5 66.5t-67.5 23.5h-532 q-42 0 -67 -23.5t-25 -66.5v-1065zM406 1561v125h124v-125h-124zM670 1561v125h125v-125h-125z" />
<glyph unicode="&#xd7;" horiz-adv-x="851" d="M102 993l62 62l262 -262l248 247l61 -61l-248 -248l263 -262l-62 -61l-262 262l-248 -248l-61 61l248 248z" />
<glyph unicode="&#xd8;" horiz-adv-x="1212" d="M94 -6l64 108q-15 35 -15 82v1061q0 83 50.5 134t146.5 51h532q67 0 117 -29l53 90l78 -53l-65 -113q14 -32 14 -80v-1061q0 -83 -50.5 -133.5t-146.5 -50.5h-532q-70 0 -115 25l-51 -86zM248 354q0 -68 6 -102l684 1063q-28 22 -66 22h-532q-42 0 -67 -23.5t-25 -66.5 v-893zM276 113q21 -21 64 -21h532q42 0 67.5 23.5t25.5 66.5v883q0 65 -7 109z" />
<glyph unicode="&#xd9;" horiz-adv-x="1232" d="M164 190v1240h104v-1248q0 -39 24.5 -64.5t67.5 -25.5h512q50 0 71.5 21t21.5 69v1248h104v-1246q0 -94 -47 -139t-150 -45h-512q-196 0 -196 190zM440 1722h133l99 -200h-92z" />
<glyph unicode="&#xda;" horiz-adv-x="1232" d="M164 190v1240h104v-1248q0 -39 24.5 -64.5t67.5 -25.5h512q50 0 71.5 21t21.5 69v1248h104v-1246q0 -94 -47 -139t-150 -45h-512q-196 0 -196 190zM543 1522l98 200h133l-139 -200h-92z" />
<glyph unicode="&#xdb;" horiz-adv-x="1232" d="M164 190v1240h104v-1248q0 -39 24.5 -64.5t67.5 -25.5h512q50 0 71.5 21t21.5 69v1248h104v-1246q0 -94 -47 -139t-150 -45h-512q-196 0 -196 190zM430 1522l123 200h111l127 -200h-97l-84 108l-90 -108h-90z" />
<glyph unicode="&#xdc;" horiz-adv-x="1232" d="M164 190v1240h104v-1248q0 -39 24.5 -64.5t67.5 -25.5h512q50 0 71.5 21t21.5 69v1248h104v-1246q0 -94 -47 -139t-150 -45h-512q-196 0 -196 190zM416 1561v125h125v-125h-125zM659 1561v125h125v-125h-125z" />
<glyph unicode="&#xdd;" horiz-adv-x="1112" d="M61 1430h117l373 -680l385 680h115l-451 -791v-639h-104v639zM459 1522l98 200h133l-139 -200h-92z" />
<glyph unicode="&#xde;" horiz-adv-x="1138" d="M164 0v1430h104v-287h555q193 0 193 -185v-466q0 -101 -53.5 -149t-145.5 -48h-549v-295h-104zM268 389h553q37 0 63.5 28.5t26.5 71.5v467q0 93 -92 93h-551v-660z" />
<glyph unicode="&#xdf;" horiz-adv-x="1095" d="M143 0v1260q0 186 185 186h420q101 0 145.5 -45.5t44.5 -138.5v-246l-322 -195l242 -168q115 -80 115 -200v-287q0 -78 -42 -122t-112 -44h-356l-12 98h344q75 0 75 70v274q0 84 -55 121l-303 211v80l322 205v198q0 91 -82 91h-422q-82 0 -82 -91v-1257h-105z" />
<glyph unicode="&#xe0;" d="M102 170v172q0 178 189 190l446 27v277q0 90 -86 90h-497l6 90h526q69 0 112.5 -44t43.5 -122v-850h-76l-35 43l-33 -43h-424q-85 0 -128.5 44.5t-43.5 125.5zM207 166q0 -76 76 -76h379q75 0 75 80v305l-446 -26q-84 -6 -84 -97v-186zM319 1319h121l99 -201h-88z" />
<glyph unicode="&#xe1;" d="M102 170v172q0 178 189 190l446 27v277q0 90 -86 90h-497l6 90h526q69 0 112.5 -44t43.5 -122v-850h-76l-35 43l-33 -43h-424q-85 0 -128.5 44.5t-43.5 125.5zM207 166q0 -76 76 -76h379q75 0 75 80v305l-446 -26q-84 -6 -84 -97v-186zM381 1118l98 201h121l-131 -201 h-88z" />
<glyph unicode="&#xe2;" d="M102 170v172q0 178 189 190l446 27v277q0 90 -86 90h-497l6 90h526q69 0 112.5 -44t43.5 -122v-850h-76l-35 43l-33 -43h-424q-85 0 -128.5 44.5t-43.5 125.5zM207 166q0 -76 76 -76h379q75 0 75 80v305l-446 -26q-84 -6 -84 -97v-186zM293 1118l123 201h110l127 -201 h-96l-84 109l-90 -109h-90z" />
<glyph unicode="&#xe3;" d="M102 170v172q0 178 189 190l446 27v277q0 90 -86 90h-497l6 90h526q69 0 112.5 -44t43.5 -122v-850h-76l-35 43l-33 -43h-424q-85 0 -128.5 44.5t-43.5 125.5zM186 1118l146 213h76l215 -123l82 123h100l-143 -213h-87l-202 121l-84 -121h-103zM207 166q0 -76 76 -76h379 q75 0 75 80v305l-446 -26q-84 -6 -84 -97v-186z" />
<glyph unicode="&#xe4;" d="M102 170v172q0 178 189 190l446 27v277q0 90 -86 90h-497l6 90h526q69 0 112.5 -44t43.5 -122v-850h-76l-35 43l-33 -43h-424q-85 0 -128.5 44.5t-43.5 125.5zM207 166q0 -76 76 -76h379q75 0 75 80v305l-446 -26q-84 -6 -84 -97v-186zM272 1167v125h125v-125h-125z M516 1167v125h125v-125h-125z" />
<glyph unicode="&#xe5;" d="M102 170v172q0 178 189 190l446 27v277q0 90 -86 90h-497l6 90h526q69 0 112.5 -44t43.5 -122v-850h-76l-35 43l-33 -43h-424q-85 0 -128.5 44.5t-43.5 125.5zM207 166q0 -76 76 -76h379q75 0 75 80v305l-446 -26q-84 -6 -84 -97v-186zM328 1253v31q0 67 38.5 106.5 t110.5 39.5h12q72 0 112 -39.5t40 -106.5v-31q0 -65 -40 -105t-112 -40h-12q-71 0 -110 40t-39 105zM416 1262q0 -66 57 -66h21q57 0 57 66v14q0 65 -57 65h-21q-57 0 -57 -65v-14z" />
<glyph unicode="&#xe6;" horiz-adv-x="1619" d="M102 170v174q0 176 191 188l444 27v291q0 76 -82 76h-501l6 90h526q68 0 109 -41q47 41 129 41h417q70 0 113 -43.5t43 -122.5v-213q0 -79 -43 -120.5t-115 -41.5h-465l-32 41v-334q0 -90 84 -90h536l-8 -92h-522q-97 0 -139 51q-45 -51 -121 -51h-398q-172 0 -172 170z M207 166q0 -76 76 -76h374q80 0 80 84v301l-446 -26q-84 -6 -84 -103v-180zM842 561h479q31 0 51.5 22t20.5 58v195q0 90 -84 90h-389q-78 0 -78 -82v-283z" />
<glyph unicode="&#xe7;" horiz-adv-x="911" d="M123 166v684q0 78 41.5 122t111.5 44h506l6 -90h-485q-35 0 -55.5 -21.5t-20.5 -54.5v-684q0 -33 20.5 -54.5t55.5 -21.5h485l-6 -90h-227l-90 -156h80q44 0 73 -28t29 -72v-119q0 -46 -26 -71t-70 -25h-191v92h162q12 0 22.5 8.5t10.5 20.5v63q0 39 -33 39h-157v90 l90 158h-179q-70 0 -111.5 44t-41.5 122z" />
<glyph unicode="&#xe8;" d="M123 166v686q0 78 41.5 121t111.5 43h453q68 0 111 -43.5t43 -122.5v-227q0 -79 -43 -120.5t-113 -41.5h-467l-33 41v-324q0 -88 84 -88h537l-8 -90h-559q-72 0 -115 42t-43 124zM227 547h480q31 0 51 21t20 57v211q0 90 -84 90h-391q-76 0 -76 -82v-297zM342 1319h121 l98 -201h-88z" />
<glyph unicode="&#xe9;" d="M123 166v686q0 78 41.5 121t111.5 43h453q68 0 111 -43.5t43 -122.5v-227q0 -79 -43 -120.5t-113 -41.5h-467l-33 41v-324q0 -88 84 -88h537l-8 -90h-559q-72 0 -115 42t-43 124zM227 547h480q31 0 51 21t20 57v211q0 90 -84 90h-391q-76 0 -76 -82v-297zM442 1118 l99 201h121l-132 -201h-88z" />
<glyph unicode="&#xea;" d="M123 166v686q0 78 41.5 121t111.5 43h453q68 0 111 -43.5t43 -122.5v-227q0 -79 -43 -120.5t-113 -41.5h-467l-33 41v-324q0 -88 84 -88h537l-8 -90h-559q-72 0 -115 42t-43 124zM227 547h480q31 0 51 21t20 57v211q0 90 -84 90h-391q-76 0 -76 -82v-297zM319 1118 l123 201h111l127 -201h-96l-84 109l-90 -109h-91z" />
<glyph unicode="&#xeb;" d="M123 166v686q0 78 41.5 121t111.5 43h453q68 0 111 -43.5t43 -122.5v-227q0 -79 -43 -120.5t-113 -41.5h-467l-33 41v-324q0 -88 84 -88h537l-8 -90h-559q-72 0 -115 42t-43 124zM227 547h480q31 0 51 21t20 57v211q0 90 -84 90h-391q-76 0 -76 -82v-297zM295 1167v125 h125v-125h-125zM559 1167v125h125v-125h-125z" />
<glyph unicode="&#xec;" horiz-adv-x="391" d="M33 1319h121l98 -201h-88zM143 0v1016h105v-1016h-105z" />
<glyph unicode="&#xed;" horiz-adv-x="391" d="M143 0v1016h105v-1016h-105zM143 1118l99 201h120l-131 -201h-88z" />
<glyph unicode="&#xee;" horiz-adv-x="391" d="M16 1118l123 201h111l127 -201h-96l-84 109l-91 -109h-90zM143 0v1016h105v-1016h-105z" />
<glyph unicode="&#xef;" horiz-adv-x="391" d="M10 1167v125h125v-125h-125zM143 0v1016h105v-1016h-105zM254 1167v125h125v-125h-125z" />
<glyph unicode="&#xf0;" horiz-adv-x="1005" d="M123 164v567q0 187 186 187h402l65 -50v52q0 156 -123 221l-172 92l-65 -150l-90 43l65 146l-145 71l45 89l143 -68l62 139l90 -41l-64 -139l189 -96q96 -49 134 -125t38 -213v-723q0 -75 -40 -120.5t-112 -45.5h-452q-76 0 -116 44t-40 120zM227 182q0 -44 17.5 -64 t62.5 -20h395q76 0 76 82v559q-9 74 -82 74h-387q-82 0 -82 -90v-541z" />
<glyph unicode="&#xf1;" horiz-adv-x="1026" d="M143 0v1016h70l33 -43l33 43h450q70 0 112 -44t42 -122v-850h-105v846q0 80 -76 80h-372q-37 0 -59.5 -23.5t-22.5 -64.5v-838h-105zM209 1118l145 213h76l215 -123l82 123h100l-143 -213h-86l-203 121l-84 -121h-102z" />
<glyph unicode="&#xf2;" d="M123 166v684q0 78 41.5 122t111.5 44h453q70 0 112 -44t42 -122v-684q0 -78 -42 -122t-112 -44h-453q-70 0 -111.5 44t-41.5 122zM227 170q0 -80 76 -80h399q76 0 76 80v676q0 80 -76 80h-399q-76 0 -76 -80v-676zM342 1319h121l98 -201h-88z" />
<glyph unicode="&#xf3;" d="M123 166v684q0 78 41.5 122t111.5 44h453q70 0 112 -44t42 -122v-684q0 -78 -42 -122t-112 -44h-453q-70 0 -111.5 44t-41.5 122zM227 170q0 -80 76 -80h399q76 0 76 80v676q0 80 -76 80h-399q-76 0 -76 -80v-676zM444 1118l99 201h121l-132 -201h-88z" />
<glyph unicode="&#xf4;" d="M123 166v684q0 78 41.5 122t111.5 44h453q70 0 112 -44t42 -122v-684q0 -78 -42 -122t-112 -44h-453q-70 0 -111.5 44t-41.5 122zM227 170q0 -80 76 -80h399q76 0 76 80v676q0 80 -76 80h-399q-76 0 -76 -80v-676zM324 1118l122 201h111l127 -201h-96l-84 109l-90 -109 h-90z" />
<glyph unicode="&#xf5;" d="M123 166v684q0 78 41.5 122t111.5 44h453q70 0 112 -44t42 -122v-684q0 -78 -42 -122t-112 -44h-453q-70 0 -111.5 44t-41.5 122zM188 1118l146 211h76l215 -121l82 123h100l-143 -213h-86l-203 119l-84 -119h-103zM227 170q0 -80 76 -80h399q76 0 76 80v676q0 80 -76 80 h-399q-76 0 -76 -80v-676z" />
<glyph unicode="&#xf6;" d="M123 166v684q0 78 41.5 122t111.5 44h453q70 0 112 -44t42 -122v-684q0 -78 -42 -122t-112 -44h-453q-70 0 -111.5 44t-41.5 122zM227 170q0 -80 76 -80h399q76 0 76 80v676q0 80 -76 80h-399q-76 0 -76 -80v-676zM295 1167v125h125v-125h-125zM559 1167v125h125v-125 h-125z" />
<glyph unicode="&#xf7;" horiz-adv-x="991" d="M102 688v86h787v-86h-787zM446 369v86h86v-86h-86zM446 1004v86h86v-86h-86z" />
<glyph unicode="&#xf8;" d="M102 -23l52 78q-31 42 -31 111v684q0 78 41.5 122t111.5 44h453q42 0 78 -19l47 70l55 -37l-53 -78q27 -44 27 -102v-684q0 -78 -42 -122t-112 -44h-453q-44 0 -69 14l-49 -73zM227 225q0 -23 6 -67l510 757q-26 11 -41 11h-399q-76 0 -76 -80v-621zM270 94q12 -4 33 -4 h399q76 0 76 86v584q0 48 -6 78z" />
<glyph unicode="&#xf9;" horiz-adv-x="1015" d="M143 166v850h105v-846q0 -80 76 -80h362q37 0 59.5 23.5t22.5 64.5v838h104v-1016h-69l-33 43l-33 -43h-440q-70 0 -112 44t-42 122zM346 1319h121l98 -201h-88z" />
<glyph unicode="&#xfa;" horiz-adv-x="1015" d="M143 166v850h105v-846q0 -80 76 -80h362q37 0 59.5 23.5t22.5 64.5v838h104v-1016h-69l-33 43l-33 -43h-440q-70 0 -112 44t-42 122zM444 1118l99 201h121l-132 -201h-88z" />
<glyph unicode="&#xfb;" horiz-adv-x="1015" d="M143 166v850h105v-846q0 -80 76 -80h362q37 0 59.5 23.5t22.5 64.5v838h104v-1016h-69l-33 43l-33 -43h-440q-70 0 -112 44t-42 122zM336 1118l123 201h110l127 -201h-96l-84 109l-90 -109h-90z" />
<glyph unicode="&#xfc;" horiz-adv-x="1015" d="M143 166v850h105v-846q0 -80 76 -80h362q37 0 59.5 23.5t22.5 64.5v838h104v-1016h-69l-33 43l-33 -43h-440q-70 0 -112 44t-42 122zM315 1167v125h125v-125h-125zM580 1167v125h125v-125h-125z" />
<glyph unicode="&#xfd;" horiz-adv-x="1026" d="M143 166v850h105v-846q0 -80 76 -80h366q34 0 56 22t22 62v842h104v-1319q0 -77 -38.5 -122.5t-110.5 -45.5h-537l-8 90h508q82 0 82 84v336l-33 -39h-438q-70 0 -112 44t-42 122zM444 1118l99 201h121l-132 -201h-88z" />
<glyph unicode="&#xfe;" horiz-adv-x="1026" d="M143 -471v1905l105 12v-475l39 45h463q70 0 111.5 -44t41.5 -122v-684q0 -78 -41.5 -122t-111.5 -44h-463l-33 43l-6 -8v-486zM248 178q0 -80 82 -80h393q76 0 76 86v658q0 33 -20.5 54.5t-55.5 21.5h-393q-79 0 -82 -72v-668z" />
<glyph unicode="&#xff;" horiz-adv-x="1026" d="M143 166v850h105v-846q0 -80 76 -80h366q34 0 56 22t22 62v842h104v-1319q0 -77 -38.5 -122.5t-110.5 -45.5h-537l-8 90h508q82 0 82 84v336l-33 -39h-438q-70 0 -112 44t-42 122zM309 1167v125h125v-125h-125zM573 1167v125h125v-125h-125z" />
<glyph unicode="&#x152;" horiz-adv-x="1857" d="M143 184v1061q0 83 50.5 134t146.5 51h1395v-95h-666v-567h573v-88h-573v-586h666v-94h-1395q-96 0 -146.5 50.5t-50.5 133.5zM248 184q0 -43 25 -66.5t67 -23.5h625v1241h-625q-42 0 -67 -23.5t-25 -66.5v-1061z" />
<glyph unicode="&#x153;" horiz-adv-x="1660" d="M123 166v684q0 78 41.5 122t111.5 44h453q61 0 100 -33q42 33 103 33h452q68 0 111 -43.5t43 -122.5v-227q0 -79 -43 -120.5t-113 -41.5h-467l-32 41v-334q0 -78 84 -78h536l-8 -90h-565q-62 0 -101 31q-42 -31 -100 -31h-453q-70 0 -111.5 44t-41.5 122zM227 170 q0 -80 76 -80h399q76 0 76 80v676q0 80 -76 80h-399q-76 0 -76 -80v-676zM883 555h479q32 0 52 21t20 57v203q0 90 -84 90h-392q-75 0 -75 -82v-289z" />
<glyph unicode="&#x178;" horiz-adv-x="1112" d="M61 1430h117l373 -680l385 680h115l-451 -791v-639h-104v639zM348 1561v125h125v-125h-125zM592 1561v125h125v-125h-125z" />
<glyph unicode="&#x2c6;" horiz-adv-x="565" d="M102 1229l123 201h111l127 -201h-96l-84 108l-90 -108h-91z" />
<glyph unicode="&#x2dc;" horiz-adv-x="823" d="M102 1225l146 205h76l215 -111l82 119h100l-143 -209h-86l-203 108l-84 -112h-103z" />
<glyph unicode="&#x2000;" horiz-adv-x="865" />
<glyph unicode="&#x2001;" horiz-adv-x="1731" />
<glyph unicode="&#x2002;" horiz-adv-x="865" />
<glyph unicode="&#x2003;" horiz-adv-x="1731" />
<glyph unicode="&#x2004;" horiz-adv-x="577" />
<glyph unicode="&#x2005;" horiz-adv-x="432" />
<glyph unicode="&#x2006;" horiz-adv-x="288" />
<glyph unicode="&#x2007;" horiz-adv-x="288" />
<glyph unicode="&#x2008;" horiz-adv-x="216" />
<glyph unicode="&#x2009;" horiz-adv-x="346" />
<glyph unicode="&#x200a;" horiz-adv-x="96" />
<glyph unicode="&#x2010;" horiz-adv-x="712" d="M102 451v88h508v-88h-508z" />
<glyph unicode="&#x2011;" horiz-adv-x="712" d="M102 451v88h508v-88h-508z" />
<glyph unicode="&#x2012;" horiz-adv-x="712" d="M102 451v88h508v-88h-508z" />
<glyph unicode="&#x2013;" horiz-adv-x="958" d="M41 457v96h877v-96h-877z" />
<glyph unicode="&#x2014;" horiz-adv-x="1511" d="M41 442v97h1429v-97h-1429z" />
<glyph unicode="&#x2018;" horiz-adv-x="337" d="M102 1130v132l52 168h82l-54 -170h39v-130h-119z" />
<glyph unicode="&#x2019;" horiz-adv-x="337" d="M102 1130l54 170h-39v130h119v-132l-52 -168h-82z" />
<glyph unicode="&#x201a;" horiz-adv-x="323" d="M88 -170l53 170h-39v129h119v-131l-51 -168h-82z" />
<glyph unicode="&#x201c;" horiz-adv-x="532" d="M102 1130v132l52 168h82l-54 -170h39v-130h-119zM297 1130v132l51 168h82l-53 -170h39v-130h-119z" />
<glyph unicode="&#x201d;" horiz-adv-x="532" d="M102 1130l54 170h-39v130h119v-132l-52 -168h-82zM297 1130l53 170h-39v130h119v-132l-51 -168h-82z" />
<glyph unicode="&#x201e;" horiz-adv-x="507" d="M88 -170l53 170h-39v129h119v-131l-51 -168h-82zM272 -170l54 170h-39v129h119v-131l-52 -168h-82z" />
<glyph unicode="&#x2022;" horiz-adv-x="540" d="M143 684v90q0 36 23 59t61 23h84q40 0 63 -23t23 -59v-90q0 -37 -22.5 -59.5t-63.5 -22.5h-84q-40 0 -62 22t-22 60z" />
<glyph unicode="&#x2026;" horiz-adv-x="1284" d="M102 0v129h119v-129h-119zM573 0v129h119v-129h-119zM1063 0v129h119v-129h-119z" />
<glyph unicode="&#x202f;" horiz-adv-x="346" />
<glyph unicode="&#x2039;" horiz-adv-x="694" d="M102 455v102l490 459v-142l-395 -362l395 -369v-149z" />
<glyph unicode="&#x203a;" horiz-adv-x="694" d="M102 -6v137l398 371l-398 372v142l490 -459v-102z" />
<glyph unicode="&#x205f;" horiz-adv-x="432" />
<glyph unicode="&#x20ac;" horiz-adv-x="1193" d="M41 518l20 94h144v213h-125l20 95h105v319q0 191 196 191h656l6 -93h-662q-43 0 -67.5 -25.5t-24.5 -64.5v-327h688l-20 -95h-668v-213h649l-20 -94h-629v-336q0 -39 24.5 -64.5t67.5 -25.5h670v-92h-670q-196 0 -196 190v328h-164z" />
<glyph unicode="&#x2122;" horiz-adv-x="1253" d="M123 1343v87h430v-87h-166v-499h-100v499h-164zM653 844v586h97l143 -281l137 281h100v-586h-100v375l-94 -211h-88l-94 198v-362h-101z" />
<glyph unicode="&#x25fc;" horiz-adv-x="1013" d="M0 0v1014h1014v-1014h-1014z" />
</font>
</defs>
</svg>
