<?xml version="1.0" standalone="no"?>
<!DOCTYPE svg PUBLIC "-//W3C//DTD SVG 1.1//EN" "http://www.w3.org/Graphics/SVG/1.1/DTD/svg11.dtd" >
<svg xmlns="http://www.w3.org/2000/svg" xmlns:xlink="http://www.w3.org/1999/xlink" version="1.1">
<metadata></metadata>
<defs>
<font id="lab_sans_probold" horiz-adv-x="1138" >
<font-face units-per-em="2048" ascent="1546" descent="-502" />
<missing-glyph horiz-adv-x="409" />
<glyph unicode="&#xfb01;" horiz-adv-x="1200" d="M20 799v225h185v203q0 209 192 209h459q201 0 201 -209v-86h-258v12q0 68 -84 68h-168q-82 0 -82 -91v-106h219v-225h-221v-799h-258v799h-185zM797 0v1024h258v-1024h-258z" />
<glyph unicode="&#xfb02;" horiz-adv-x="1198" d="M20 799v225h185v203q0 111 60.5 159t205.5 48h326l258 16v-1450h-258v1221h-250q-82 0 -82 -91v-106h221v-225h-223v-799h-258v799h-185z" />
<glyph unicode="&#xfb03;" horiz-adv-x="1794" d="M20 799v225h185v170q0 96 49.5 151.5t148.5 55.5h256l13 -215h-125q-82 0 -82 -90v-72h332v201q0 209 192 209h461q201 0 201 -209v-86h-248v12q0 68 -84 68h-180q-82 0 -82 -91v-104h219v-225h-221v-799h-258v799h-334v-799h-258v799h-185zM1391 0v1024h258v-1024h-258z " />
<glyph unicode="&#xfb04;" horiz-adv-x="1792" d="M20 799v225h185v170q0 96 49.5 151.5t148.5 55.5h256l13 -215h-125q-82 0 -82 -90v-72h334v193q0 217 227 217h369l252 16l2 -1450h-258v1221h-252q-82 0 -82 -91v-106h221v-225h-223v-799h-258v799h-334v-799h-258v799h-185z" />
<glyph horiz-adv-x="0" />
<glyph horiz-adv-x="682" />
<glyph unicode=" "  horiz-adv-x="409" />
<glyph unicode="&#x09;" horiz-adv-x="409" />
<glyph unicode="&#xa0;" horiz-adv-x="409" />
<glyph unicode="!" horiz-adv-x="512" d="M123 0v260h264v-260h-264zM123 1430h266l-24 -1037h-218z" />
<glyph unicode="&#x22;" horiz-adv-x="847" d="M143 1434h226l-9 -390h-208zM479 1434h226l-9 -390h-209z" />
<glyph unicode="#" horiz-adv-x="1265" d="M102 397v187h185l24 264h-188v186h203l34 396h203l-35 -396h265l34 396h201l-35 -396h170v-186h-184l-25 -264h189v-187h-203l-35 -397h-200l32 397h-264l-33 -397h-202l34 397h-170zM489 584h265l22 264h-264z" />
<glyph unicode="$" horiz-adv-x="1087" d="M113 834v434q0 78 41.5 122t111.5 44h176v198h213v-198h271l12 -228h-492q-75 0 -75 -69v-164q0 -31 17 -48.5t58 -29.5l377 -82q152 -30 152 -180v-467q0 -78 -42 -122t-112 -44h-690l-12 227h522q76 0 76 70v186q0 67 -72 88l-379 82q-153 35 -153 181zM442 -2h213 v-201h-213v201z" />
<glyph unicode="%" horiz-adv-x="1744" d="M82 864v441q0 58 34.5 93.5t96.5 35.5h348q64 0 98.5 -35t34.5 -94v-441q0 -59 -34.5 -94t-98.5 -35h-348q-62 0 -96.5 35.5t-34.5 93.5zM279 973q0 -58 53 -58h112q54 0 54 58v223q0 55 -54 55h-112q-53 0 -53 -55v-223zM543 0l450 1434h213l-448 -1434h-215zM1053 129 v440q0 58 34.5 93.5t96.5 35.5h346q64 0 98.5 -35t34.5 -94v-440q0 -59 -34.5 -94t-98.5 -35h-346q-62 0 -96.5 35.5t-34.5 93.5zM1249 238q0 -58 54 -58h110q53 0 53 58v223q0 55 -53 55h-110q-54 0 -54 -55v-223z" />
<glyph unicode="&#x26;" horiz-adv-x="1314" d="M123 252v326q0 47 15.5 84t34 56.5t44.5 33.5t37 17t20 5q-9 1 -25.5 16t-33 50t-16.5 78v243q0 125 72.5 199t193.5 74h354q246 0 246 -238v-248h-238v189q0 92 -92 92h-203q-92 0 -92 -92v-166q0 -67 80 -129l387 -267v173h240v-359l127 -108l-2 -283l-148 119 q-46 -117 -213 -117h-520q-126 0 -197 66t-71 186zM365 295q0 -90 92 -90h358q92 0 92 90l-461 332q-81 -6 -81 -92v-240z" />
<glyph unicode="'" horiz-adv-x="512" d="M143 1434h226l-9 -390h-208z" />
<glyph unicode="(" horiz-adv-x="659" d="M143 573q0 634 219 1045h230q-213 -437 -213 -1045q0 -607 213 -1044h-230q-219 411 -219 1044z" />
<glyph unicode=")" horiz-adv-x="659" d="M66 -471q213 437 213 1044q0 608 -213 1045h231q219 -411 219 -1045q0 -633 -219 -1044h-231z" />
<glyph unicode="*" horiz-adv-x="741" d="M82 1157l74 170l120 -55v162h183v-162l121 55l79 -170l-141 -65l98 -127l-141 -107l-106 133l-107 -135l-141 109l102 127z" />
<glyph unicode="+" horiz-adv-x="991" d="M102 627v209h289v309h209v-309h289v-209h-289v-299h-209v299h-289z" />
<glyph unicode="," horiz-adv-x="524" d="M123 -231l59 231h-39v279h258v-281l-57 -229h-221z" />
<glyph unicode="-" horiz-adv-x="712" d="M82 395v193h549v-193h-549z" />
<glyph unicode="." horiz-adv-x="503" d="M123 0v279h258v-279h-258z" />
<glyph unicode="/" horiz-adv-x="749" d="M-88 -471l594 1901h244l-592 -1901h-246z" />
<glyph unicode="0" horiz-adv-x="1245" d="M123 207v1020q0 93 56 150t157 57h573q101 0 157 -57t56 -150v-1020q0 -93 -56 -150t-157 -57h-573q-101 0 -157 57t-56 150zM381 315q0 -90 82 -90h321q82 0 82 90v803q0 90 -82 90h-321q-82 0 -82 -90v-803z" />
<glyph unicode="1" horiz-adv-x="835" d="M61 0v227h242v975l-227 -22v213l485 41v-1207h234v-227h-734z" />
<glyph unicode="2" horiz-adv-x="1067" d="M61 0v211l582 727q66 94 66 141v54q0 30 -21.5 49.5t-56.5 19.5h-549l12 228h660q92 0 151.5 -53t59.5 -158v-117q0 -136 -113 -273l-492 -602h646l-13 -227h-932z" />
<glyph unicode="3" horiz-adv-x="1069" d="M123 0v225h475q90 0 90 90v195q0 86 -80 92h-424v225h424q80 6 80 93v198q0 90 -90 90h-475l10 226h569q158 0 207 -78q37 -58 37 -135v-336q-2 -45 -17 -80.5t-36 -55t-40 -29t-34 -11.5l-12 -2q6 -1 15 -4t33 -16t42.5 -30t33.5 -49t15 -71v-285q0 -252 -244 -252h-579 z" />
<glyph unicode="4" horiz-adv-x="1206" d="M82 342v207l612 881h260v-859h201v-229h-201v-342h-260v342h-612zM348 569h344v514z" />
<glyph unicode="5" d="M123 602l41 828h835l11 -228h-621l-22 -373h495q70 0 112 -43.5t42 -121.5v-474q0 -81 -59.5 -135.5t-147.5 -54.5h-676v227h516q107 0 107 88v217q0 70 -76 70h-557z" />
<glyph unicode="6" horiz-adv-x="1212" d="M123 203v1020q0 93 56 150t157 57h704l11 -226h-557q-64 0 -88.5 -20.5t-24.5 -69.5v-283h555q70 0 112 -43.5t42 -121.5v-459q0 -96 -60 -151.5t-149 -55.5h-551q-91 0 -149 58t-58 145zM381 299q0 -74 82 -74h264q100 0 100 80v234q0 69 -75 69h-371v-309z" />
<glyph unicode="7" horiz-adv-x="1042" d="M61 1202l11 228h909v-213l-502 -1217h-278l514 1202h-654z" />
<glyph unicode="8" horiz-adv-x="1210" d="M123 246v303q0 127 94 170q-2 0 -11.5 5.5t-23.5 18t-27 30t-22.5 45t-9.5 59.5v305q0 252 246 252h473q245 0 245 -238v-313q0 -33 -9 -61t-22 -45.5t-27.5 -29.5t-24.5 -17t-13 -5q10 -2 29 -14q22 -13 44.5 -57.5t22.5 -98.5v-303q0 -130 -57 -191t-188 -61h-465 q-124 0 -189 62.5t-65 183.5zM381 313q0 -90 92 -90h258q92 0 92 90v148q0 79 -73 100l-287 41q-82 0 -82 -92v-197zM381 967q0 -78 82 -93l278 -40q82 6 82 92v192q0 92 -92 92h-258q-92 0 -92 -92v-151z" />
<glyph unicode="9" horiz-adv-x="1212" d="M123 717v520q0 91 55.5 144t138.5 53h570q90 0 146.5 -54t56.5 -139v-1034q0 -93 -56 -150t-157 -57h-701l-10 223h584q81 0 81 90v238h-555q-70 0 -111.5 44t-41.5 122zM383 844q0 -70 76 -70h372v361q0 73 -81 73h-291q-76 0 -76 -80v-284z" />
<glyph unicode=":" horiz-adv-x="503" d="M123 0v279h258v-279h-258zM123 737v279h258v-279h-258z" />
<glyph unicode=";" horiz-adv-x="524" d="M123 -231l59 231h-39v279h258v-281l-57 -229h-221zM143 737v279h258v-279h-258z" />
<glyph unicode="&#x3c;" horiz-adv-x="1036" d="M123 397v217l790 406v-232l-589 -280l589 -287v-227z" />
<glyph unicode="=" horiz-adv-x="991" d="M102 426v209h787v-209h-787zM102 825v209h787v-209h-787z" />
<glyph unicode="&#x3e;" horiz-adv-x="1036" d="M123 -6v227l588 287l-588 280v232l790 -406v-217z" />
<glyph unicode="?" horiz-adv-x="1079" d="M123 1212l10 220h578q130 0 187.5 -57t57.5 -173v-309q0 -129 -102 -193l-135 -73q-88 -49 -88 -156v-74h-232v207q0 112 84 156l150 90q44 26 63 59.5t19 96.5v116q0 90 -92 90h-500zM385 0v260h264v-260h-264z" />
<glyph unicode="@" horiz-adv-x="2138" d="M123 -158v1342q0 113 65 181.5t181 68.5h1400q131 0 188.5 -61.5t57.5 -188.5v-932q0 -123 -56 -187.5t-190 -64.5h-391q-80 0 -118 68l-58 -68h-465q-64 0 -101.5 37t-37.5 102q0 21 2 27l72 692q7 78 54.5 122t117.5 44h401l43 -57l41 57h209l-78 -739q3 -75 72 -84 h160q82 0 82 92v844q0 90 -93 90h-1222q-92 0 -92 -90v-1250q0 -92 82 -92h966l-24 -205h-1022q-134 0 -190 64.5t-56 187.5zM858 285q0 -68 68 -68h194q81 0 90 74l52 463q0 61 -74 61h-199q-76 0 -82 -70l-49 -448v-12z" />
<glyph unicode="A" horiz-adv-x="1214" d="M41 0l430 1434h258l445 -1434h-281l-92 307h-383l-90 -307h-287zM483 532h250l-125 443z" />
<glyph unicode="B" horiz-adv-x="1220" d="M164 0v1434h629q131 0 188 -61t57 -191v-293q0 -118 -82 -158q118 -29 121 -153v-326q0 -119 -62.5 -185.5t-183.5 -66.5h-667zM422 217h305q92 0 92 90v205q0 92 -82 92h-315v-387zM422 829h276q82 6 82 93v204q0 93 -92 93h-266v-390z" />
<glyph unicode="C" horiz-adv-x="1181" d="M143 252v932q0 83 37 151q24 46 78 72.5t131 26.5h637l12 -215h-544q-93 0 -93 -91v-821q0 -41 26 -66.5t67 -25.5h536v-215h-641q-124 0 -185 68t-61 184z" />
<glyph unicode="D" horiz-adv-x="1345" d="M164 0v1434h792q130 0 188 -62.5t58 -189.5v-930q0 -252 -246 -252h-792zM422 215h440q82 0 82 88v825q0 91 -92 91h-430v-1004z" />
<glyph unicode="E" horiz-adv-x="1009" d="M164 0v1434h743v-220h-485v-385h399v-225h-399v-381h485v-223h-743z" />
<glyph unicode="F" horiz-adv-x="1009" d="M164 0v1434h743v-220h-485v-405h399v-225h-399v-584h-258z" />
<glyph unicode="G" horiz-adv-x="1345" d="M143 252v934q0 248 246 248h707l12 -215h-614q-93 0 -93 -91v-821q0 -41 26 -66.5t67 -25.5h358q92 0 92 92v221h-196v224h454v-500q0 -252 -248 -252h-565q-124 0 -185 68t-61 184z" />
<glyph unicode="H" horiz-adv-x="1327" d="M164 0v1434h258v-605h483v605h258v-1434h-258v604h-483v-604h-258z" />
<glyph unicode="I" horiz-adv-x="778" d="M82 0v213h178v1008h-178v213h614v-213h-178v-1008h178v-213h-614z" />
<glyph unicode="J" horiz-adv-x="757" d="M82 213h172q82 0 82 88v920h-254v213h512v-1182q0 -123 -56 -187.5t-190 -64.5h-256z" />
<glyph unicode="K" horiz-adv-x="1249" d="M164 0v1434h258v-605h207q87 0 108 80l131 525h260l-141 -588q-24 -96 -92 -123q72 -35 96 -123l176 -600h-262l-168 524q-24 80 -108 80h-207v-604h-258z" />
<glyph unicode="L" horiz-adv-x="1009" d="M164 0v1434h258v-1211h485v-223h-743z" />
<glyph unicode="M" horiz-adv-x="1357" d="M164 0v1434h248l270 -678l254 678h258v-1434h-258v784l-152 -395h-206l-156 375v-764h-258z" />
<glyph unicode="N" horiz-adv-x="1327" d="M164 0v1434h254l487 -820v820h258v-1434h-233l-508 879v-879h-258z" />
<glyph unicode="O" horiz-adv-x="1345" d="M143 250v934q0 122 62.5 186t183.5 64h567q246 0 246 -250v-934q0 -250 -246 -250h-567q-121 0 -183.5 64t-62.5 186zM401 305q0 -39 25 -64.5t68 -25.5h358q92 0 92 90v823q0 91 -92 91h-358q-43 0 -68 -26t-25 -65v-823z" />
<glyph unicode="P" horiz-adv-x="1212" d="M164 0v1434h680q134 0 190 -54t56 -178v-432q0 -242 -246 -242h-422v-528h-258zM422 752h317q92 0 92 90v274q0 92 -92 92h-317v-456z" />
<glyph unicode="Q" horiz-adv-x="1345" d="M143 250v934q0 122 62.5 186t183.5 64h567q246 0 246 -250v-934q0 -38 -10 -90l223 -273l-307 -26l-119 145q-41 -6 -106 -6h-494q-121 0 -183.5 64t-62.5 186zM401 305q0 -39 25 -64.5t68 -25.5h358q92 0 92 90v823q0 91 -92 91h-358q-43 0 -68 -26t-25 -65v-823z" />
<glyph unicode="R" horiz-adv-x="1259" d="M164 0v1434h702q246 0 246 -244v-359q0 -53 -22 -96.5t-48 -58.5l-22 -12q61 -31 82 -148l96 -516h-266l-90 453q-21 90 -103 90h-317v-543h-258zM422 768h340q43 0 67.5 26t24.5 68v254q0 92 -92 92h-340v-440z" />
<glyph unicode="S" horiz-adv-x="1087" d="M113 834v434q0 78 41.5 122t111.5 44h660l12 -228h-492q-75 0 -75 -69v-164q0 -31 17 -48.5t58 -29.5l377 -82q152 -30 152 -180v-467q0 -78 -42 -122t-112 -44h-690l-12 227h522q76 0 76 70v186q0 67 -72 88l-379 82q-153 35 -153 181z" />
<glyph unicode="T" horiz-adv-x="1161" d="M82 1217v217h997v-217h-370v-1217h-258v1217h-369z" />
<glyph unicode="U" horiz-adv-x="1327" d="M164 252v1182h258v-1121q0 -92 82 -92h319q82 0 82 92v1121h258v-1182q0 -123 -55.5 -187.5t-189.5 -64.5h-508q-134 0 -190 64.5t-56 187.5z" />
<glyph unicode="V" horiz-adv-x="1132" d="M61 1434h267l239 -955l244 955h260l-383 -1434h-258z" />
<glyph unicode="W" horiz-adv-x="1693" d="M61 1434h267l192 -955l201 955h270l199 -945l182 945h260l-315 -1434h-256l-203 930l-223 -930h-258z" />
<glyph unicode="X" horiz-adv-x="1097" d="M72 0l334 713l-334 721h295l186 -408l190 408h279l-332 -705l336 -729h-287l-196 420l-201 -420h-270z" />
<glyph unicode="Y" horiz-adv-x="1169" d="M61 1434h297l222 -476l233 476h295l-403 -795v-639h-254v639z" />
<glyph unicode="Z" horiz-adv-x="1021" d="M61 0v186l574 1028h-539l13 220h835v-195l-563 -1016h575l-12 -223h-883z" />
<glyph unicode="[" horiz-adv-x="700" d="M143 -471v2140h475v-221h-233v-1698h233v-221h-475z" />
<glyph unicode="\" horiz-adv-x="768" d="M-43 1434h244l624 -1905h-245z" />
<glyph unicode="]" horiz-adv-x="700" d="M82 -250h233v1698h-233v221h475v-2140h-475v221z" />
<glyph unicode="^" horiz-adv-x="1153" d="M86 0l391 748h213l385 -748h-244l-247 520l-269 -520h-229z" />
<glyph unicode="_" horiz-adv-x="794" d="M102 -254h590v-217h-590v217z" />
<glyph unicode="`" horiz-adv-x="493" d="M72 1430h235l115 -232h-197z" />
<glyph unicode="a" horiz-adv-x="1095" d="M102 211v160q0 216 222 231l370 21v92q0 84 -76 84h-458l10 225h612q170 0 170 -166v-858h-192l-47 49l-49 -49h-359q-101 0 -152 55.5t-51 155.5zM360 309q0 -88 82 -88h170q82 0 82 98v113l-258 -18q-76 -6 -76 -90v-15z" />
<glyph unicode="b" horiz-adv-x="1159" d="M143 0v1430l260 20v-473l50 47h432q67 0 109 -44.5t42 -121.5v-692q0 -75 -41 -120.5t-114 -45.5h-435l-45 49l-51 -49h-207zM401 299q0 -74 80 -74h219q78 0 78 78v416q0 80 -76 80h-223q-78 0 -78 -84v-416z" />
<glyph unicode="c" horiz-adv-x="972" d="M123 176v672q0 83 46 129.5t122 46.5h547l12 -227h-391q-78 0 -78 -70v-426q0 -74 78 -74h391l-12 -227h-547q-78 0 -123 47t-45 129z" />
<glyph unicode="d" horiz-adv-x="1159" d="M123 166v692q0 77 42 121.5t109 44.5h433l49 -47v453l260 20v-1450h-207l-51 49l-45 -49h-434q-74 0 -115 45.5t-41 120.5zM381 303q0 -78 78 -78h219q80 0 80 74v416q0 84 -78 84h-223q-76 0 -76 -80v-416z" />
<glyph unicode="e" d="M123 166v692q0 78 40.5 122t112.5 44h586q67 0 110.5 -42t43.5 -124v-309q0 -75 -42.5 -118.5t-119.5 -43.5h-410l-63 47v-119q0 -90 84 -90h512l-12 -225h-689q-72 0 -112.5 43.5t-40.5 122.5zM381 600h305q72 0 72 72v47q0 80 -80 80h-219q-78 0 -78 -82v-117z" />
<glyph unicode="f" horiz-adv-x="729" d="M20 799v225h185v203q0 96 49.5 151.5t148.5 55.5h273l12 -213h-141q-82 0 -82 -91v-106h221v-225h-223v-799h-258v799h-185z" />
<glyph unicode="g" horiz-adv-x="1159" d="M123 166v692q0 77 42 121.5t109 44.5h437l49 -47l51 47h205v-1288q0 -93 -56 -150t-157 -57h-635l-10 227h495q59 0 82 21.5t23 68.5v203l-45 -49h-434q-74 0 -115 45.5t-41 120.5zM381 303q0 -78 78 -78h219q80 0 80 74v416q0 84 -78 84h-223q-76 0 -76 -80v-416z" />
<glyph unicode="h" horiz-adv-x="1157" d="M143 0v1434l256 16v-477l50 51h411q70 0 112 -44t42 -122v-858h-256v717q0 80 -76 80h-199q-82 0 -82 -88v-709h-258z" />
<glyph unicode="i" horiz-adv-x="534" d="M143 0v1024h248v-1024h-248zM143 1153v260h248v-260h-248z" />
<glyph unicode="j" horiz-adv-x="532" d="M-31 -260h88q86 0 86 80v1204h242l-2 -1288q0 -96 -50 -151.5t-149 -55.5h-204zM139 1153v260h250v-260h-250z" />
<glyph unicode="k" horiz-adv-x="1077" d="M143 0v1434l258 16v-829h166q94 0 109 79l67 324h258l-100 -479l-43 -39l45 -41l113 -465h-258l-82 313q-21 80 -103 80h-172v-393h-258z" />
<glyph unicode="l" horiz-adv-x="546" d="M143 0v1434l260 16v-1450h-260z" />
<glyph unicode="m" horiz-adv-x="1718" d="M143 0v1024h205l51 -47l45 47h471l52 -47l45 47h409q70 0 112 -44t42 -122v-858h-258v717q0 80 -76 80h-170q-82 0 -82 -82v-715h-258v717q0 80 -76 80h-172q-82 0 -82 -88v-709h-258z" />
<glyph unicode="n" horiz-adv-x="1157" d="M143 0v1024h205l51 -47l45 47h416q70 0 112 -44t42 -122v-858h-258v719q0 80 -76 80h-197q-82 0 -82 -88v-711h-258z" />
<glyph unicode="o" d="M123 166v692q0 78 41.5 122t111.5 44h586q70 0 112 -44t42 -122v-692q0 -78 -42 -122t-112 -44h-586q-70 0 -111.5 44t-41.5 122zM381 303q0 -33 21 -55.5t55 -22.5h225q34 0 55 22.5t21 55.5v416q0 80 -76 80h-225q-76 0 -76 -80v-416z" />
<glyph unicode="p" horiz-adv-x="1097" d="M143 -471v1495h207l51 -49l45 49h435q73 0 114 -45.5t41 -120.5v-692q0 -77 -42 -121.5t-109 -44.5h-432l-50 47v-498zM401 309q0 -84 78 -84h223q76 0 76 80v416q0 78 -78 78h-219q-80 0 -80 -74v-416z" />
<glyph unicode="q" horiz-adv-x="1097" d="M123 166v692q0 75 41 120.5t115 45.5h434l45 -49l51 49h207v-1475l-260 -20v518l-49 -47h-433q-67 0 -109 44.5t-42 121.5zM381 305q0 -80 76 -80h223q78 0 78 84v416q0 74 -80 74h-219q-78 0 -78 -78v-416z" />
<glyph unicode="r" horiz-adv-x="755" d="M143 0v1024h205l51 -47l45 47h250l-28 -231h-183q-82 0 -82 -88v-705h-258z" />
<glyph unicode="s" horiz-adv-x="942" d="M102 217h430q66 0 66 62v26q0 30 -17 45t-59 23l-258 51q-77 18 -115 56t-38 110v268q0 78 41.5 122t111.5 44h533l12 -223h-379q-76 0 -76 -60v-34q0 -49 76 -64l256 -51q81 -17 117.5 -59t36.5 -121v-246q0 -78 -42 -122t-112 -44h-571z" />
<glyph unicode="t" horiz-adv-x="778" d="M41 799v225h180v195l258 16v-211h238v-225h-238v-500q0 -90 82 -90h150l-13 -209h-206q-137 0 -204 51t-67 156v592h-180z" />
<glyph unicode="u" horiz-adv-x="1146" d="M143 166v858h258v-719q0 -80 76 -80h187q81 0 81 88v711h259v-1024h-205l-51 47l-46 -47h-405q-70 0 -112 44t-42 122z" />
<glyph unicode="v" horiz-adv-x="929" d="M41 1024h256l178 -610l172 610h242l-307 -1024h-228z" />
<glyph unicode="w" horiz-adv-x="1454" d="M41 1024h256l158 -590l151 590h256l158 -590l151 590h242l-287 -1024h-227l-166 596l-172 -596h-227z" />
<glyph unicode="x" horiz-adv-x="964" d="M57 1024h281l151 -281l152 281h258l-285 -508l289 -516h-270l-156 274l-155 -274h-254l282 502z" />
<glyph unicode="y" horiz-adv-x="1146" d="M143 166v858h258v-719q0 -80 76 -80h187q81 0 81 80v719h259v-1288q0 -93 -55.5 -150t-155.5 -57h-605l-10 227h488q82 0 82 90v199l-46 -45h-405q-70 0 -112 44t-42 122z" />
<glyph unicode="z" horiz-adv-x="909" d="M61 0v190l426 619h-415l12 215h745v-195l-415 -618h434l-12 -211h-775z" />
<glyph unicode="{" horiz-adv-x="790" d="M82 461v221h70q81 0 81 92v643q0 123 56 187.5t190 64.5h230v-221h-150q-82 0 -82 -92v-613q0 -119 -65 -172q65 -56 65 -172v-573q0 -92 82 -92h150v-221h-230q-134 0 -190 64t-56 187v605q0 92 -81 92h-70z" />
<glyph unicode="|" horiz-adv-x="524" d="M143 -471v1901h242v-1901h-242z" />
<glyph unicode="}" horiz-adv-x="790" d="M82 -266h149q82 0 82 92v573q0 115 66 172q-66 54 -66 172v613q0 92 -82 92h-149v221h166q185 0 246 -61q63 -57 63 -191v-643q0 -92 82 -92h70v-221h-70q-82 0 -82 -92v-605q0 -123 -56 -187t-190 -64h-229v221z" />
<glyph unicode="~" horiz-adv-x="987" d="M102 596l146 250h117l292 -53l52 61h176l-144 -254h-133l-266 49l-45 -53h-195z" />
<glyph unicode="&#xa1;" horiz-adv-x="512" d="M123 -414l24 1037h218l24 -1037h-266zM123 756v260h264v-260h-264z" />
<glyph unicode="&#xa2;" horiz-adv-x="972" d="M123 176v672q0 83 46 129.5t122 46.5h125v197h211v-197h211l12 -227h-391q-78 0 -78 -70v-426q0 -74 78 -74h391l-12 -227h-547q-78 0 -123 47t-45 129zM416 -2h211v-199h-211v199z" />
<glyph unicode="&#xa3;" horiz-adv-x="1206" d="M123 0v227h149l23 373h-170l14 205h164l31 459q4 79 44.5 122.5t108.5 43.5h570l12 -226h-399q-70 0 -76 -69l-25 -330h445l-15 -205h-438l-24 -373h546v-227h-960z" />
<glyph unicode="&#xa4;" horiz-adv-x="1294" d="M102 352l148 146q-4 28 -4 69v361q0 7 4 69l-148 142l164 168l146 -144q21 6 47 6h385q29 0 41 -6l143 144l164 -168l-139 -135q4 -32 4 -41v-406q0 -38 -4 -70l139 -137l-162 -168l-139 140q-25 -5 -47 -5h-385q-28 0 -53 5l-142 -138zM459 618q0 -90 82 -90h223 q82 0 82 90v248q0 90 -82 90h-223q-82 0 -82 -90v-248z" />
<glyph unicode="&#xa5;" horiz-adv-x="1173" d="M61 1430h297l222 -410l233 410h299l-324 -543h177v-156h-256v-147h256v-154h-256v-430h-271v430h-260v154h260v147h-260v156h193z" />
<glyph unicode="&#xa6;" horiz-adv-x="565" d="M154 352h258l-4 -823h-254v823zM154 623v811h258l-4 -811h-254z" />
<glyph unicode="&#xa7;" horiz-adv-x="1148" d="M123 352v289q0 101 67 147q-67 49 -67 140v340q0 78 41.5 122t111.5 44h685l12 -244h-506q-76 0 -76 -70v-73q0 -74 76 -95l432 -137q127 -50 127 -209v-260q0 -113 -82 -162q82 -58 82 -182v-307q0 -78 -42 -122t-112 -44h-716l-13 242h541q76 0 76 69v84q0 66 -76 90 l-408 131q-71 24 -112 77.5t-41 129.5zM371 489q0 -91 82 -118l249 -80q35 0 55.5 22t20.5 58v139q0 71 -76 92l-256 82q-34 0 -54.5 -24.5t-20.5 -61.5v-109z" />
<glyph unicode="&#xa8;" horiz-adv-x="665" d="M76 1233v197h196v-197h-196zM391 1233v197h197v-197h-197z" />
<glyph unicode="&#xa9;" horiz-adv-x="1581" d="M123 252v932q0 83 37 151q24 46 78 72.5t131 26.5h843q77 0 131 -26.5t78 -72.5q37 -68 37 -151v-932q0 -123 -56 -187.5t-190 -64.5h-843q-134 0 -190 64.5t-56 187.5zM319 283q0 -93 82 -93h779q82 0 82 93v872q0 90 -93 90h-757q-93 0 -93 -90v-872zM528 514v408 q0 78 42 121.5t112 43.5h356l13 -196h-250q-76 0 -76 -70v-207q0 -69 76 -69h250l-13 -197h-356q-70 0 -112 44t-42 122z" />
<glyph unicode="&#xaa;" horiz-adv-x="776" d="M123 932v92q0 143 149 152l224 14v43q0 45 -45 45h-293l6 156h366q66 0 105 -39t39 -101v-506h-139l-23 29l-25 -29h-227q-66 0 -101.5 38.5t-35.5 105.5zM164 481v183h477v-183h-477zM301 973q0 -41 47 -41h109q39 0 39 45v78l-150 -11q-45 -3 -45 -49v-22z" />
<glyph unicode="&#xab;" horiz-adv-x="1165" d="M102 418v174l490 428v-297l-256 -215l256 -221v-293zM573 418v174l490 428v-297l-256 -215l256 -221v-293z" />
<glyph unicode="&#xac;" horiz-adv-x="1095" d="M123 729v203h848l2 -465h-203v262h-647z" />
<glyph unicode="&#xad;" horiz-adv-x="712" d="M82 395v193h549v-193h-549z" />
<glyph unicode="&#xae;" horiz-adv-x="1601" d="M123 252v932q0 83 37 151q24 46 78 72.5t131 26.5h864q77 0 131 -26.5t78 -72.5q37 -68 37 -151v-932q0 -123 -56 -187.5t-190 -64.5h-864q-134 0 -190 64.5t-56 187.5zM319 283q0 -93 82 -93h799q82 0 82 93v872q0 90 -92 90h-778q-93 0 -93 -90v-872zM537 334v768h421 q134 0 134 -135v-230q0 -29 -15.5 -52t-34.5 -30l-16 -8q30 -15 45 -80l53 -233h-184l-49 194q-9 47 -53 47h-121v-241h-180zM715 741h147q51 0 51 45v115q0 49 -51 49h-147v-209z" />
<glyph unicode="&#xaf;" horiz-adv-x="612" d="M74 1241v189h469v-189h-469z" />
<glyph unicode="&#xb0;" horiz-adv-x="698" d="M102 1069v236q0 58 34.5 93.5t96.5 35.5h230q64 0 98.5 -35t34.5 -94v-236q0 -59 -34.5 -94t-98.5 -35h-230q-62 0 -96.5 35.5t-34.5 93.5zM268 1167q0 -61 54 -61h55q53 0 53 61v39q0 62 -53 62h-51q-58 0 -58 -56v-45z" />
<glyph unicode="&#xb1;" horiz-adv-x="991" d="M92 647v209h289v309h229v-309h289v-209h-289v-295h-229v295h-289zM147 0v209h701v-209h-701z" />
<glyph unicode="&#xb2;" horiz-adv-x="737" d="M61 623v178l371 297q41 47 41 90v16q0 20 -16 34.5t-39 14.5h-342l8 181h446q56 0 87.5 -30.5t31.5 -82.5v-178q0 -64 -20.5 -101.5t-73.5 -80.5l-201 -158h322l-8 -180h-607z" />
<glyph unicode="&#xb3;" horiz-adv-x="692" d="M82 618v181h276q56 0 56 61v25q0 57 -54 57h-239v166h239q54 3 54 57v31q0 51 -54 51h-278l6 187h367q155 0 155 -140v-159q-1 -43 -16 -72.5t-29 -34.5l-14 -6q2 -1 6 -2.5t14.5 -9.5t18 -19t14 -31t6.5 -45v-167q0 -60 -39 -95t-96 -35h-393z" />
<glyph unicode="&#xb4;" horiz-adv-x="493" d="M72 1198l112 232h238l-156 -232h-194z" />
<glyph unicode="&#xb5;" horiz-adv-x="1146" d="M143 -471v1495h258v-729q0 -70 76 -70h187q81 0 81 88v711h259v-1024h-205l-51 47l-46 -47h-301v-451z" />
<glyph unicode="&#xb6;" horiz-adv-x="1366" d="M123 1079v178q0 78 45 127.5t127 49.5h1020v-230h-172v-1204h-232v1204h-209v-1204h-231v903h-176q-77 0 -124.5 46.5t-47.5 129.5z" />
<glyph unicode="&#xb7;" horiz-adv-x="524" d="M133 377v274h256v-274h-256z" />
<glyph unicode="&#xb8;" horiz-adv-x="536" d="M102 -352h166q33 0 33 35v22q0 33 -33 33h-147v110l90 152h151l-92 -143h62q44 0 73 -30t29 -77v-119q0 -46 -27 -74t-69 -28h-236v119z" />
<glyph unicode="&#xb9;" horiz-adv-x="565" d="M41 623v180h154v457l-142 -13v160l338 27v-631h154v-180h-504z" />
<glyph unicode="&#xba;" horiz-adv-x="792" d="M102 924v366q0 63 39 101.5t107 38.5h299q68 0 105.5 -38.5t37.5 -101.5v-366q0 -62 -38 -101t-105 -39h-299q-68 0 -107 39t-39 101zM158 471v182h477v-182h-477zM293 989q0 -49 41 -49h125q39 0 39 49v240q0 45 -39 45h-125q-41 0 -41 -45v-240z" />
<glyph unicode="&#xbb;" horiz-adv-x="1165" d="M102 -6v293l256 221l-256 215v297l490 -428v-174zM573 -6v293l256 221l-256 215v297l490 -428v-174z" />
<glyph unicode="&#xbc;" horiz-adv-x="1595" d="M82 623v157h133v480l-121 -13v160l318 27v-654h133v-157h-463zM416 0l518 1434h207l-516 -1434h-209zM881 178v152l323 501h185v-497h124v-156h-124v-178h-179v178h-329zM1040 332h170v268z" />
<glyph unicode="&#xbd;" horiz-adv-x="1689" d="M82 623v157h133v480l-121 -13v160l318 27v-654h133v-157h-463zM416 0l518 1434h207l-516 -1434h-209zM993 0v178l371 297q41 47 41 90v17q0 20 -16 34.5t-39 14.5h-342l8 180h446q56 0 87.5 -30.5t31.5 -82.5v-178q0 -64 -20.5 -101.5t-73.5 -80.5l-201 -158h322l-9 -180 h-606z" />
<glyph unicode="&#xbe;" horiz-adv-x="1646" d="M82 618v181h276q56 0 56 61v25q0 57 -54 57h-239v166h239q54 3 54 57v31q0 51 -54 51h-278l6 187h367q155 0 155 -140v-159q-1 -43 -16 -72.5t-29 -34.5l-14 -6q2 -1 6 -2.5t14.5 -9.5t18 -19t14 -31t6.5 -45v-167q0 -60 -39 -95t-96 -35h-393zM467 0l518 1434h207 l-516 -1434h-209zM932 178v152l323 501h185v-497h125v-156h-125v-178h-178v178h-330zM1085 332h177v268z" />
<glyph unicode="&#xbf;" horiz-adv-x="1079" d="M123 131q0 129 102 193l135 73q89 50 89 156v74h231v-207q0 -112 -84 -156l-150 -90q-44 -26 -62.5 -59.5t-18.5 -96.5v-116q0 -90 92 -90h499l-10 -220h-577q-130 0 -188 57t-58 173v309zM430 764v260h264v-260h-264z" />
<glyph unicode="&#xc0;" horiz-adv-x="1214" d="M41 0l430 1434h258l445 -1434h-281l-92 307h-383l-90 -307h-287zM340 1763h252l119 -241h-203zM483 532h250l-125 443z" />
<glyph unicode="&#xc1;" horiz-adv-x="1214" d="M41 0l430 1434h258l445 -1434h-281l-92 307h-383l-90 -307h-287zM483 532h250l-125 443zM500 1522l118 241h252l-168 -241h-202z" />
<glyph unicode="&#xc2;" horiz-adv-x="1214" d="M41 0l430 1434h258l445 -1434h-281l-92 307h-383l-90 -307h-287zM295 1522l170 241h262l174 -241h-239l-66 88l-68 -88h-233zM483 532h250l-125 443z" />
<glyph unicode="&#xc3;" horiz-adv-x="1214" d="M41 0l430 1434h258l445 -1434h-281l-92 307h-383l-90 -307h-287zM289 1522l145 241h117l178 -51l33 51h166l-144 -239h-133l-159 57l-33 -59h-170zM483 532h250l-125 443z" />
<glyph unicode="&#xc4;" horiz-adv-x="1214" d="M41 0l430 1434h258l445 -1434h-281l-92 307h-383l-90 -307h-287zM307 1536v207h207v-207h-207zM483 532h250l-125 443zM674 1536v207h207v-207h-207z" />
<glyph unicode="&#xc5;" horiz-adv-x="1245" d="M41 0l446 1413q-24 35 -24 84v31q0 67 38.5 106t110.5 39h13q72 0 111.5 -39t39.5 -106v-31q0 -55 -24 -82l452 -1415h-276l-119 369h-373l-119 -369h-276zM489 590h263l-131 442zM551 1505q0 -65 57 -65h21q57 0 57 65v15q0 65 -57 65h-21q-57 0 -57 -65v-15z" />
<glyph unicode="&#xc6;" horiz-adv-x="1599" d="M41 0l700 1434h756v-220h-485v-385h399v-225h-399v-381h485v-223h-743v399h-236l-184 -399h-293zM612 625h142v303z" />
<glyph unicode="&#xc7;" horiz-adv-x="1181" d="M143 252v932q0 83 37 151q24 46 78 72.5t131 26.5h637l12 -215h-544q-93 0 -93 -91v-821q0 -41 26 -66.5t67 -25.5h536v-215h-293l-92 -143h62q44 0 73 -30t29 -77v-119q0 -46 -27 -74t-69 -28h-236v119h166q33 0 33 35v22q0 33 -33 33h-147v110l98 152h-205 q-124 0 -185 68t-61 184z" />
<glyph unicode="&#xc8;" horiz-adv-x="1009" d="M164 0v1434h743v-220h-485v-385h399v-225h-399v-381h485v-223h-743zM309 1753h238l112 -231h-188z" />
<glyph unicode="&#xc9;" horiz-adv-x="1009" d="M164 0v1434h743v-220h-485v-385h399v-225h-399v-381h485v-223h-743zM428 1522l113 231h237l-162 -231h-188z" />
<glyph unicode="&#xca;" horiz-adv-x="1009" d="M164 0v1434h743v-220h-485v-385h399v-225h-399v-381h485v-223h-743zM242 1522l164 231h243l168 -231h-225l-66 86l-67 -86h-217z" />
<glyph unicode="&#xcb;" horiz-adv-x="1009" d="M164 0v1434h743v-220h-485v-385h399v-225h-399v-381h485v-223h-743zM260 1536v197h197v-197h-197zM616 1536v197h197v-197h-197z" />
<glyph unicode="&#xcc;" horiz-adv-x="778" d="M82 0v213h178v1008h-178v213h614v-213h-178v-1008h178v-213h-614zM154 1753h237l113 -231h-189z" />
<glyph unicode="&#xcd;" horiz-adv-x="778" d="M82 0v213h178v1008h-178v213h614v-213h-178v-1008h178v-213h-614zM272 1522l115 231h236l-160 -231h-191z" />
<glyph unicode="&#xce;" horiz-adv-x="778" d="M82 0v213h178v1008h-178v213h614v-213h-178v-1008h178v-213h-614zM98 1522l166 231h242l168 -231h-225l-66 86l-68 -86h-217z" />
<glyph unicode="&#xcf;" horiz-adv-x="778" d="M82 0v213h178v1008h-178v213h614v-213h-178v-1008h178v-213h-614zM109 1536v197h196v-197h-196zM465 1536v197h197v-197h-197z" />
<glyph unicode="&#xd0;" horiz-adv-x="1345" d="M41 610v217h123v607h792q130 0 188 -62.5t58 -189.5v-930q0 -252 -246 -252h-792v610h-123zM422 215h440q82 0 82 88v825q0 91 -92 91h-430v-392h211v-217h-211v-395z" />
<glyph unicode="&#xd1;" horiz-adv-x="1327" d="M164 0v1434h254l487 -820v820h258v-1434h-233l-508 879v-879h-258zM322 1524l145 221h117l174 -45l37 53h159l-143 -227h-133l-156 55l-37 -57h-163z" />
<glyph unicode="&#xd2;" horiz-adv-x="1325" d="M143 250v934q0 122 62.5 186t183.5 64h547q246 0 246 -250v-934q0 -250 -246 -250h-547q-121 0 -183.5 64t-62.5 186zM401 305q0 -39 25 -64.5t68 -25.5h337q93 0 93 90v823q0 91 -93 91h-337q-43 0 -68 -26t-25 -65v-823zM418 1753h235l115 -231h-190z" />
<glyph unicode="&#xd3;" horiz-adv-x="1325" d="M143 250v934q0 122 62.5 186t183.5 64h547q246 0 246 -250v-934q0 -250 -246 -250h-547q-121 0 -183.5 64t-62.5 186zM401 305q0 -39 25 -64.5t68 -25.5h337q93 0 93 90v823q0 91 -93 91h-337q-43 0 -68 -26t-25 -65v-823zM545 1522l114 231h236l-160 -231h-190z" />
<glyph unicode="&#xd4;" horiz-adv-x="1325" d="M143 250v934q0 122 62.5 186t183.5 64h547q246 0 246 -250v-934q0 -250 -246 -250h-547q-121 0 -183.5 64t-62.5 186zM362 1522l164 231h242l170 -231h-225l-66 86l-67 -86h-218zM401 305q0 -39 25 -64.5t68 -25.5h337q93 0 93 90v823q0 91 -93 91h-337q-43 0 -68 -26 t-25 -65v-823z" />
<glyph unicode="&#xd5;" horiz-adv-x="1325" d="M143 250v934q0 122 62.5 186t183.5 64h547q246 0 246 -250v-934q0 -250 -246 -250h-547q-121 0 -183.5 64t-62.5 186zM354 1524l146 229h116l175 -53l36 53h162l-143 -227h-133l-158 55l-35 -57h-166zM401 305q0 -39 25 -64.5t68 -25.5h337q93 0 93 90v823q0 91 -93 91 h-337q-43 0 -68 -26t-25 -65v-823z" />
<glyph unicode="&#xd6;" horiz-adv-x="1325" d="M143 250v934q0 122 62.5 186t183.5 64h547q246 0 246 -250v-934q0 -250 -246 -250h-547q-121 0 -183.5 64t-62.5 186zM371 1536v197h196v-197h-196zM401 305q0 -39 25 -64.5t68 -25.5h337q93 0 93 90v823q0 91 -93 91h-337q-43 0 -68 -26t-25 -65v-823zM727 1536v197h197 v-197h-197z" />
<glyph unicode="&#xd7;" horiz-adv-x="892" d="M98 524l207 207l-207 203l148 147l207 -202l206 206l148 -147l-207 -207l203 -203l-148 -147l-202 203l-207 -207z" />
<glyph unicode="&#xd8;" horiz-adv-x="1325" d="M94 -6l78 117q-29 63 -29 139v934q0 122 62.5 186t183.5 64h547q92 0 151 -39l62 90l78 -53l-74 -109q29 -66 29 -139v-934q0 -250 -246 -250h-547q-91 0 -149 37l-66 -98zM401 553q0 -60 7 -107l514 705q-9 68 -91 68h-337q-43 0 -68 -26t-25 -65v-575zM403 279 q18 -64 91 -64h337q93 0 93 90v555q0 68 -9 123z" />
<glyph unicode="&#xd9;" horiz-adv-x="1327" d="M164 252v1182h258v-1121q0 -92 82 -92h319q82 0 82 92v1121h258v-1182q0 -123 -55.5 -187.5t-189.5 -64.5h-508q-134 0 -190 64.5t-56 187.5zM438 1753h236l114 -231h-190z" />
<glyph unicode="&#xda;" horiz-adv-x="1327" d="M164 252v1182h258v-1121q0 -92 82 -92h319q82 0 82 92v1121h258v-1182q0 -123 -55.5 -187.5t-189.5 -64.5h-508q-134 0 -190 64.5t-56 187.5zM551 1522l113 231h237l-162 -231h-188z" />
<glyph unicode="&#xdb;" horiz-adv-x="1327" d="M164 252v1182h258v-1121q0 -92 82 -92h319q82 0 82 92v1121h258v-1182q0 -123 -55.5 -187.5t-189.5 -64.5h-508q-134 0 -190 64.5t-56 187.5zM371 1522l164 231h241l170 -231h-225l-66 86l-67 -86h-217z" />
<glyph unicode="&#xdc;" horiz-adv-x="1327" d="M164 252v1182h258v-1121q0 -92 82 -92h319q82 0 82 92v1121h258v-1182q0 -123 -55.5 -187.5t-189.5 -64.5h-508q-134 0 -190 64.5t-56 187.5zM371 1536v197h196v-197h-196zM727 1536v197h197v-197h-197z" />
<glyph unicode="&#xdd;" horiz-adv-x="1169" d="M61 1434h297l222 -476l233 476h295l-403 -795v-639h-254v639zM471 1522l113 231h237l-162 -231h-188z" />
<glyph unicode="&#xde;" horiz-adv-x="1212" d="M164 0v1434h258v-263h422q134 0 190 -53.5t56 -177.5v-432q0 -242 -246 -242h-422v-266h-258zM422 489h317q92 0 92 91v274q0 92 -92 92h-317v-457z" />
<glyph unicode="&#xdf;" horiz-adv-x="1220" d="M143 0v1243q0 91 53 149t160 58h512q101 0 156 -56t55 -149v-272l-205 -178l119 -105q105 -91 105 -239v-285q0 -78 -43 -122t-113 -44h-367l-12 217h201q76 0 76 70v137q0 61 -58 119l-170 149v182l209 185v100q0 78 -80 78h-256q-84 0 -84 -90v-1147h-258z" />
<glyph unicode="&#xe0;" horiz-adv-x="1095" d="M102 211v160q0 216 222 231l370 21v92q0 84 -76 84h-458l10 225h612q170 0 170 -166v-858h-192l-47 49l-49 -49h-359q-101 0 -152 55.5t-51 155.5zM293 1411h235l115 -258h-197zM360 309q0 -88 82 -88h170q82 0 82 98v113l-258 -18q-76 -6 -76 -90v-15z" />
<glyph unicode="&#xe1;" horiz-adv-x="1095" d="M102 211v160q0 216 222 231l370 21v92q0 84 -76 84h-458l10 225h612q170 0 170 -166v-858h-192l-47 49l-49 -49h-359q-101 0 -152 55.5t-51 155.5zM360 309q0 -88 82 -88h170q82 0 82 98v113l-258 -18q-76 -6 -76 -90v-15zM389 1153l115 258h235l-153 -258h-197z" />
<glyph unicode="&#xe2;" horiz-adv-x="1095" d="M102 211v160q0 216 222 231l370 21v92q0 84 -76 84h-458l10 225h612q170 0 170 -166v-858h-192l-47 49l-49 -49h-359q-101 0 -152 55.5t-51 155.5zM264 1153l166 258h242l168 -258h-226l-65 100l-68 -100h-217zM360 309q0 -88 82 -88h170q82 0 82 98v113l-258 -18 q-76 -6 -76 -90v-15z" />
<glyph unicode="&#xe3;" horiz-adv-x="1095" d="M102 211v160q0 216 222 231l370 21v92q0 84 -76 84h-458l10 225h612q170 0 170 -166v-858h-192l-47 49l-49 -49h-359q-101 0 -152 55.5t-51 155.5zM217 1174l145 227h117l172 -53l39 53h160l-143 -227h-134l-155 63l-37 -63h-164zM360 309q0 -88 82 -88h170q82 0 82 98 v113l-258 -18q-76 -6 -76 -90v-15z" />
<glyph unicode="&#xe4;" horiz-adv-x="1095" d="M102 211v160q0 216 222 231l370 21v92q0 84 -76 84h-458l10 225h612q170 0 170 -166v-858h-192l-47 49l-49 -49h-359q-101 0 -152 55.5t-51 155.5zM248 1184v196h196v-196h-196zM360 309q0 -88 82 -88h170q82 0 82 98v113l-258 -18q-76 -6 -76 -90v-15zM604 1184v196h197 v-196h-197z" />
<glyph unicode="&#xe5;" horiz-adv-x="1095" d="M102 211v160q0 216 222 231l370 21v92q0 84 -76 84h-458l10 225h612q170 0 170 -166v-858h-192l-47 49l-49 -49h-359q-101 0 -152 55.5t-51 155.5zM356 1274v61q0 67 39 106.5t111 39.5h43q72 0 111.5 -39.5t39.5 -106.5v-61q0 -65 -39.5 -105.5t-111.5 -40.5h-43 q-71 0 -110.5 40.5t-39.5 105.5zM360 309q0 -88 82 -88h170q82 0 82 98v113l-258 -18q-76 -6 -76 -90v-15zM461 1288q0 -53 47 -53h39q47 0 47 53v35q0 53 -47 53h-39q-47 0 -47 -53v-35z" />
<glyph unicode="&#xe6;" horiz-adv-x="1708" d="M102 211v160q0 210 220 225l372 20v99q0 84 -76 84h-460l10 225h625q28 0 36 -2q3 0 14 1t15 1h574q67 0 111 -42.5t44 -123.5v-309q0 -74 -43.5 -118t-120.5 -44h-409l-62 45v-115q0 -45 22.5 -68.5t59.5 -23.5h512l-12 -225h-619q-61 0 -88 49q-27 -49 -90 -49h-434 q-201 0 -201 211zM358 309q0 -88 82 -88h170q84 0 84 92v109l-239 -16q-97 -9 -97 -82v-15zM952 618h303q72 0 72 72v29q0 80 -80 80h-219q-42 0 -59 -24.5t-17 -74.5v-82z" />
<glyph unicode="&#xe7;" horiz-adv-x="972" d="M123 176v672q0 83 46 129.5t122 46.5h547l12 -227h-391q-78 0 -78 -70v-426q0 -74 78 -74h391l-12 -227h-244l-92 -143h61q45 0 74 -30t29 -77v-119q0 -46 -27.5 -74t-69.5 -28h-235v119h166q32 0 32 35v22q0 33 -32 33h-148v110l99 152h-160q-78 0 -123 47t-45 129z" />
<glyph unicode="&#xe8;" d="M123 166v692q0 78 40.5 122t112.5 44h586q67 0 110.5 -42t43.5 -124v-309q0 -75 -42.5 -118.5t-119.5 -43.5h-410l-63 47v-119q0 -90 84 -90h512l-12 -225h-689q-72 0 -112.5 43.5t-40.5 122.5zM317 1411h236l115 -258h-197zM381 600h305q72 0 72 72v47q0 80 -80 80h-219 q-78 0 -78 -82v-117z" />
<glyph unicode="&#xe9;" d="M123 166v692q0 78 40.5 122t112.5 44h586q67 0 110.5 -42t43.5 -124v-309q0 -75 -42.5 -118.5t-119.5 -43.5h-410l-63 47v-119q0 -90 84 -90h512l-12 -225h-689q-72 0 -112.5 43.5t-40.5 122.5zM381 600h305q72 0 72 72v47q0 80 -80 80h-219q-78 0 -78 -82v-117z M440 1153l115 258h236l-154 -258h-197z" />
<glyph unicode="&#xea;" d="M123 166v692q0 78 40.5 122t112.5 44h586q67 0 110.5 -42t43.5 -124v-309q0 -75 -42.5 -118.5t-119.5 -43.5h-410l-63 47v-119q0 -90 84 -90h512l-12 -225h-689q-72 0 -112.5 43.5t-40.5 122.5zM266 1153l166 258h242l168 -258h-226l-65 100l-68 -100h-217zM381 600h305 q72 0 72 72v47q0 80 -80 80h-219q-78 0 -78 -82v-117z" />
<glyph unicode="&#xeb;" d="M123 166v692q0 78 40.5 122t112.5 44h586q67 0 110.5 -42t43.5 -124v-309q0 -75 -42.5 -118.5t-119.5 -43.5h-410l-63 47v-119q0 -90 84 -90h512l-12 -225h-689q-72 0 -112.5 43.5t-40.5 122.5zM313 1184v196h197v-196h-197zM381 600h305q72 0 72 72v47q0 80 -80 80h-219 q-78 0 -78 -82v-117zM629 1184v196h196v-196h-196z" />
<glyph unicode="&#xec;" horiz-adv-x="534" d="M39 1411h235l115 -258h-196zM143 0v1024h248v-1024h-248z" />
<glyph unicode="&#xed;" horiz-adv-x="534" d="M143 0v1024h248v-1024h-248zM154 1153l114 258h236l-154 -258h-196z" />
<glyph unicode="&#xee;" horiz-adv-x="534" d="M-23 1153l166 258h242l168 -258h-225l-66 100l-67 -100h-218zM143 0v1024h248v-1024h-248z" />
<glyph unicode="&#xef;" horiz-adv-x="532" d="M12 1184v196h197v-196h-197zM143 0v1024h248v-1024h-248zM328 1184v196h196v-196h-196z" />
<glyph unicode="&#xf0;" horiz-adv-x="1136" d="M123 166v692q0 71 38 118.5t113 47.5h420l70 -63v98q0 98 -80 139l-80 41l-67 -152l-144 64l72 158l-146 73l93 203l141 -72l63 144l140 -68l-66 -139l135 -70q106 -55 147.5 -128t41.5 -212v-874q0 -74 -36 -120t-116 -46h-583q-72 0 -114 45.5t-42 120.5zM381 303 q0 -33 21 -55.5t55 -22.5h225q34 0 55 22.5t21 55.5v416q0 80 -76 80h-225q-76 0 -76 -80v-416z" />
<glyph unicode="&#xf1;" horiz-adv-x="1157" d="M143 0v1024h205l51 -47l45 47h416q70 0 112 -44t42 -122v-858h-258v719q0 80 -76 80h-197q-82 0 -82 -88v-711h-258zM250 1174l145 227h117l172 -53l39 53h160l-144 -227h-133l-151 63l-41 -63h-164z" />
<glyph unicode="&#xf2;" d="M123 166v692q0 78 41.5 122t111.5 44h586q70 0 112 -44t42 -122v-692q0 -78 -42 -122t-112 -44h-586q-70 0 -111.5 44t-41.5 122zM317 1411h236l115 -258h-197zM381 303q0 -33 21 -55.5t55 -22.5h225q34 0 55 22.5t21 55.5v416q0 80 -76 80h-225q-76 0 -76 -80v-416z" />
<glyph unicode="&#xf3;" d="M123 166v692q0 78 41.5 122t111.5 44h586q70 0 112 -44t42 -122v-692q0 -78 -42 -122t-112 -44h-586q-70 0 -111.5 44t-41.5 122zM381 303q0 -33 21 -55.5t55 -22.5h225q34 0 55 22.5t21 55.5v416q0 80 -76 80h-225q-76 0 -76 -80v-416zM440 1153l115 258h236l-154 -258 h-197z" />
<glyph unicode="&#xf4;" d="M123 166v692q0 78 41.5 122t111.5 44h586q70 0 112 -44t42 -122v-692q0 -78 -42 -122t-112 -44h-586q-70 0 -111.5 44t-41.5 122zM285 1153l166 258h241l168 -258h-225l-66 100l-67 -100h-217zM381 303q0 -33 21 -55.5t55 -22.5h225q34 0 55 22.5t21 55.5v416 q0 80 -76 80h-225q-76 0 -76 -80v-416z" />
<glyph unicode="&#xf5;" d="M123 166v692q0 78 41.5 122t111.5 44h586q70 0 112 -44t42 -122v-692q0 -78 -42 -122t-112 -44h-586q-70 0 -111.5 44t-41.5 122zM256 1174l145 227h117l172 -53l39 53h160l-144 -227h-133l-155 57l-37 -57h-164zM381 303q0 -33 21 -55.5t55 -22.5h225q34 0 55 22.5 t21 55.5v416q0 80 -76 80h-225q-76 0 -76 -80v-416z" />
<glyph unicode="&#xf6;" d="M123 166v692q0 78 41.5 122t111.5 44h586q70 0 112 -44t42 -122v-692q0 -78 -42 -122t-112 -44h-586q-70 0 -111.5 44t-41.5 122zM272 1184v196h197v-196h-197zM381 303q0 -33 21 -55.5t55 -22.5h225q34 0 55 22.5t21 55.5v416q0 80 -76 80h-225q-76 0 -76 -80v-416z M629 1184v196h196v-196h-196z" />
<glyph unicode="&#xf7;" horiz-adv-x="991" d="M102 627v209h787v-209h-787zM362 236v229h236v-229h-236zM362 993v230h236v-230h-236z" />
<glyph unicode="&#xf8;" d="M57 -14l80 100q-14 28 -14 80v692q0 78 41.5 122t111.5 44h586q38 0 70 -14l76 94l75 -60l-84 -104q17 -42 17 -82v-692q0 -78 -42 -122t-112 -44h-586q-46 0 -71 14l-72 -90zM381 477q0 -45 6 -86l356 381q-21 27 -61 27h-225q-76 0 -76 -80v-242zM395 254 q19 -29 62 -29h225q34 0 55 22.5t21 55.5v240q0 60 -6 90z" />
<glyph unicode="&#xf9;" horiz-adv-x="1146" d="M143 166v858h258v-719q0 -80 76 -80h187q81 0 81 88v711h259v-1024h-205l-51 47l-46 -47h-405q-70 0 -112 44t-42 122zM338 1411h235l115 -258h-196z" />
<glyph unicode="&#xfa;" horiz-adv-x="1146" d="M143 166v858h258v-719q0 -80 76 -80h187q81 0 81 88v711h259v-1024h-205l-51 47l-46 -47h-405q-70 0 -112 44t-42 122zM461 1153l114 258h236l-154 -258h-196z" />
<glyph unicode="&#xfb;" horiz-adv-x="1146" d="M143 166v858h258v-719q0 -80 76 -80h187q81 0 81 88v711h259v-1024h-205l-51 47l-46 -47h-405q-70 0 -112 44t-42 122zM293 1153l166 258h241l168 -258h-225l-65 100l-68 -100h-217z" />
<glyph unicode="&#xfc;" horiz-adv-x="1146" d="M143 166v858h258v-719q0 -80 76 -80h187q81 0 81 88v711h259v-1024h-205l-51 47l-46 -47h-405q-70 0 -112 44t-42 122zM272 1184v196h197v-196h-197zM629 1184v196h196v-196h-196z" />
<glyph unicode="&#xfd;" horiz-adv-x="1146" d="M143 166v858h258v-719q0 -80 76 -80h187q81 0 81 80v719h259v-1288q0 -93 -55.5 -150t-155.5 -57h-605l-10 227h488q82 0 82 90v199l-46 -45h-405q-70 0 -112 44t-42 122zM461 1153l114 258h236l-154 -258h-196z" />
<glyph unicode="&#xfe;" horiz-adv-x="1159" d="M143 -471v1901l260 16v-471l46 49h432q73 0 114 -45.5t41 -120.5v-692q0 -76 -43.5 -121t-111.5 -45h-430l-50 45v-496zM401 299q0 -74 80 -74h219q78 0 78 78v416q0 80 -76 80h-223q-78 0 -78 -84v-416z" />
<glyph unicode="&#xff;" horiz-adv-x="1146" d="M143 166v858h258v-719q0 -80 76 -80h187q81 0 81 80v719h259v-1288q0 -93 -55.5 -150t-155.5 -57h-605l-10 227h488q82 0 82 90v199l-46 -45h-405q-70 0 -112 44t-42 122zM272 1184v196h197v-196h-197zM629 1184v196h196v-196h-196z" />
<glyph unicode="&#x152;" horiz-adv-x="1769" d="M143 250v934q0 122 62.5 186t183.5 64h1278v-215h-485v-390h399v-225h-399v-387h485v-217h-1278q-121 0 -183.5 64t-62.5 186zM401 305q0 -39 25 -64.5t68 -25.5h430v1004h-430q-43 0 -68 -26t-25 -65v-823z" />
<glyph unicode="&#x153;" horiz-adv-x="1773" d="M123 166v692q0 78 41.5 122t111.5 44h586q3 0 12.5 -1t10.5 -1q3 0 12.5 1t13.5 1h586q67 0 110.5 -42t43.5 -124v-309q0 -75 -42.5 -118.5t-119.5 -43.5h-410l-63 47v-119q0 -90 84 -90h512l-13 -225h-688q-20 0 -26 2q-4 -2 -23 -2h-586q-70 0 -111.5 44t-41.5 122z M381 303q0 -33 21 -55.5t55 -22.5h225q32 0 51.5 18.5t24.5 49.5v436q-6 70 -76 70h-225q-76 0 -76 -80v-416zM1016 600h305q72 0 72 72v47q0 80 -80 80h-219q-75 0 -78 -72v-127z" />
<glyph unicode="&#x178;" horiz-adv-x="1169" d="M61 1434h297l222 -476l233 476h295l-403 -795v-639h-254v639zM309 1536v197h197v-197h-197zM666 1536v197h196v-197h-196z" />
<glyph unicode="&#x2c6;" horiz-adv-x="718" d="M72 1198l164 232h241l170 -232h-225l-66 86l-67 -86h-217z" />
<glyph unicode="&#x2dc;" horiz-adv-x="786" d="M76 1210l145 220h117l174 -46l37 54h162l-144 -224h-133l-158 52l-34 -56h-166z" />
<glyph unicode="&#x2000;" horiz-adv-x="881" />
<glyph unicode="&#x2001;" horiz-adv-x="1763" />
<glyph unicode="&#x2002;" horiz-adv-x="881" />
<glyph unicode="&#x2003;" horiz-adv-x="1763" />
<glyph unicode="&#x2004;" horiz-adv-x="587" />
<glyph unicode="&#x2005;" horiz-adv-x="440" />
<glyph unicode="&#x2006;" horiz-adv-x="293" />
<glyph unicode="&#x2007;" horiz-adv-x="293" />
<glyph unicode="&#x2008;" horiz-adv-x="220" />
<glyph unicode="&#x2009;" horiz-adv-x="352" />
<glyph unicode="&#x200a;" horiz-adv-x="97" />
<glyph unicode="&#x2010;" horiz-adv-x="712" d="M82 395v193h549v-193h-549z" />
<glyph unicode="&#x2011;" horiz-adv-x="712" d="M82 395v193h549v-193h-549z" />
<glyph unicode="&#x2012;" horiz-adv-x="712" d="M82 395v193h549v-193h-549z" />
<glyph unicode="&#x2013;" horiz-adv-x="958" d="M41 399v187h877v-187h-877z" />
<glyph unicode="&#x2014;" horiz-adv-x="1511" d="M41 399v187h1429v-187h-1429z" />
<glyph unicode="&#x2018;" horiz-adv-x="462" d="M102 965v260l58 209h221l-59 -211h38v-258h-258z" />
<glyph unicode="&#x2019;" horiz-adv-x="462" d="M82 965l59 211h-39v258h258v-260l-57 -209h-221z" />
<glyph unicode="&#x201a;" horiz-adv-x="497" d="M117 -231l59 231h-39v279h258v-281l-57 -229h-221z" />
<glyph unicode="&#x201c;" horiz-adv-x="821" d="M102 965v260l58 209h221l-59 -211h38v-258h-258zM440 965v260l58 209h221l-60 -211h39v-258h-258z" />
<glyph unicode="&#x201d;" horiz-adv-x="821" d="M102 965l60 211h-39v258h258v-260l-57 -209h-222zM440 965l60 211h-39v258h258v-260l-57 -209h-222z" />
<glyph unicode="&#x201e;" horiz-adv-x="851" d="M117 -231l59 231h-39v279h258v-281l-57 -229h-221zM471 -231l59 231h-38v279h258v-281l-58 -229h-221z" />
<glyph unicode="&#x2022;" horiz-adv-x="571" d="M123 647v162q0 36 23 59t61 23h155q40 0 63.5 -23t23.5 -59v-162q0 -37 -23 -59.5t-64 -22.5h-155q-40 0 -62 22t-22 60z" />
<glyph unicode="&#x2026;" horiz-adv-x="1667" d="M123 0v279h258v-279h-258zM702 0v279h259v-279h-259zM1286 0v279h258v-279h-258z" />
<glyph unicode="&#x202f;" horiz-adv-x="352" />
<glyph unicode="&#x2039;" horiz-adv-x="694" d="M102 418v174l490 428v-297l-256 -215l256 -221v-293z" />
<glyph unicode="&#x203a;" horiz-adv-x="694" d="M102 -6v293l256 221l-256 215v297l490 -428v-174z" />
<glyph unicode="&#x205f;" horiz-adv-x="440" />
<glyph unicode="&#x20ac;" horiz-adv-x="1249" d="M41 418l20 217h189v151h-170l20 218h150v176q0 33 5 63.5t20.5 66t41.5 61t72 42.5t107 17h610l12 -220h-518q-92 0 -92 -90v-116h514l-21 -218h-493v-151h475l-20 -217h-455v-105q0 -92 82 -92h536v-221h-630q-246 0 -246 252v166h-209z" />
<glyph unicode="&#x2122;" horiz-adv-x="1380" d="M82 1280v154h475v-154h-145v-412h-187v412h-143zM657 868v566h168l144 -254l137 254h172v-566h-172v252l-82 -149h-113l-82 137v-240h-172z" />
<glyph unicode="&#x25fc;" horiz-adv-x="1024" d="M0 0v1024h1024v-1024h-1024z" />
</font>
</defs>
</svg>
